<?xml version="1.0" encoding="UTF-8" standalone="no"?>
<svg width="287px" height="210px" viewBox="0 0 287 210" version="1.1" xmlns="http://www.w3.org/2000/svg" xmlns:xlink="http://www.w3.org/1999/xlink" xmlns:sketch="http://www.bohemiancoding.com/sketch/ns">
    <!-- Generator: Sketch 3.4.4 (17249) - http://www.bohemiancoding.com/sketch -->
    <title>svg--id--Michoacan--MC_1_</title>
    <desc>Created with Sketch.</desc>
    <defs></defs>
    <g id="Page-1" stroke="none" stroke-width="1" fill="none" fill-rule="evenodd" sketch:type="MSPage">
        <g id="mexico-no-stroke" sketch:type="MSLayerGroup" transform="translate(-5099.000000, -4970.000000)" fill="#F2F2F2">
            <g id="Layer_2" sketch:type="MSShapeGroup">
                <path d="M5223,5178.3 C5222.2,5175.5 5223.8,5171.6 5223.2,5168.5 C5222.9,5166.7 5224.3,5160.1 5225.2,5158.4 C5225.4,5158.3 5225.8,5158.2 5226.6,5158.1 C5229.1,5157.8 5231.1,5157.5 5233.6,5156.7 C5235.3,5156.2 5238.2,5157.1 5238.3,5154.3 C5242.4,5154.8 5241.7,5154.6 5244,5151.7 L5244.4,5150.3 C5245.4,5149.1 5245,5148.7 5245.6,5147.1 C5246.6,5144.2 5245.2,5141.2 5244.9,5138.3 C5244.8,5137.2 5244.4,5129.8 5244.5,5128.9 C5245,5123.8 5247.6,5123.8 5247.9,5122.7 C5249.4,5121.9 5251.5,5121.7 5252.8,5120.7 C5255.6,5121.4 5263.7,5120.4 5264.1,5120.5 C5265.9,5121.2 5268.2,5129.8 5274.4,5131.1 C5275.6,5131.3 5279.2,5130.6 5280.5,5130.5 C5283.8,5130.1 5290.3,5128.2 5290.3,5128.2 C5290.6,5128.1 5291.8,5128.4 5292.1,5128.4 C5296.5,5129.4 5300.9,5130.6 5305.5,5130.9 C5307.7,5131.1 5311.1,5129.5 5311.5,5129.7 L5311.5,5129.9 C5311.5,5131.8 5312.6,5133.6 5314.7,5132.7 C5315.2,5134.9 5315.4,5137 5318.4,5135.4 C5320.5,5135.7 5321.6,5134.5 5321.6,5133.1 C5321.9,5133 5322.2,5132.8 5322.6,5132.5 C5324.3,5132.4 5326.1,5133.3 5327.9,5133.4 L5328.1,5134.2 C5328.6,5135.9 5329.3,5136.3 5330.9,5136.7 L5331.2,5137.3 C5331.5,5137.9 5331.9,5138.6 5332.6,5138.9 L5333.1,5139 C5334,5139.1 5334.7,5139 5335.3,5138.5 L5335.4,5139.2 L5337,5139 C5340.9,5138.6 5340,5141.5 5341.3,5142 L5341.8,5142 C5342.3,5141.8 5342.2,5141.2 5342.4,5140.8 C5342.8,5139.8 5343.7,5138.9 5344.2,5137.9 C5343.8,5137.7 5343.7,5137.3 5343.4,5137 C5342,5135.5 5340.2,5134.6 5338.7,5133.2 C5337.7,5132.3 5334.3,5128.8 5334.4,5127.4 C5334.3,5123.9 5329.5,5112.6 5332.7,5110.1 L5332.7,5109.9 C5329.6,5106.9 5330.4,5098.9 5333.8,5098.9 C5334.3,5099.1 5335,5099.3 5335.5,5099.6 C5336.7,5101.3 5336.8,5103.3 5337.3,5105.2 C5339.9,5105.3 5343.1,5100.5 5344.8,5098.9 L5344.8,5098.9 C5343.6,5096.3 5347.5,5093.3 5349.2,5092 C5348.8,5091.5 5348.4,5090.2 5348.3,5089.6 C5348.5,5088.2 5351.2,5085.8 5352.1,5084.6 C5352.8,5083.7 5353.9,5082.9 5354.6,5082 C5357,5078.7 5359.4,5076.1 5362,5073 C5363.7,5071 5364.6,5068.5 5366.3,5066.6 C5366.4,5066.4 5368,5064.7 5368.1,5064.5 L5367.1,5058.4 C5367.9,5058.7 5378.6,5052.3 5379.3,5051.5 C5380.8,5048.7 5372.1,5038 5377.1,5028.8 C5377.2,5027.6 5377.8,5026.1 5378,5024.9 C5379.6,5018.1 5375.4,5016.6 5383,5015.1 L5383,5014.9 C5390,5013.2 5381.2,5008 5380.6,5007.3 L5380.5,5007 L5380.4,5005.9 C5380.4,5005.9 5380.3,5005.7 5380.3,5005.8 C5380.3,5003.2 5376.3,4995.3 5374.8,4993.1 C5373.8,4991.6 5373.1,4989.9 5372,4988.5 C5370.9,4987.1 5369.5,4985.8 5368.4,4984.4 L5367.8,4984.2 C5364,4985.7 5364,4992.2 5363.1,4995.4 C5362.5,4997.3 5361.2,4998.2 5360.3,4999.8 C5357.9,5004.1 5355.9,5007.7 5351.2,5010 C5350.7,5010 5349.8,5009.6 5349.3,5009.4 L5337,5002.9 L5336.5,5002.9 L5330.3,5006.2 C5329.6,5006.6 5327.2,5008 5326.6,5008 C5325.5,5008 5320.5,5007.3 5320,5006.6 L5319.9,5006.2 C5320.9,5000.5 5320.5,4998.4 5314.8,4997 C5312.2,4996.3 5309.5,4996.1 5306.8,4995.7 C5304.6,4995.4 5302.4,4994.4 5300.3,4994.3 C5297.9,4996.4 5295.6,4997.6 5292.7,4999 C5289.7,5000.5 5285.9,4999.7 5283.4,4997.8 C5282.7,4997.3 5281.6,4996.7 5281.2,4995.9 C5280.2,4994.1 5280.1,4992.2 5280.3,4990.1 C5280.5,4988.7 5280.5,4987.5 5281.4,4986.4 C5281.4,4986 5278.5,4978.7 5277.2,4974.9 C5274.7,4975.6 5272.2,4974.3 5269.6,4975.6 C5268.1,4976.4 5267.8,4976.8 5266.6,4976.5 C5266.7,4979.5 5263.8,4982.8 5262.6,4985.1 C5261.9,4986.5 5260.2,4988 5258.6,4986.6 L5258.2,4986.2 C5256.5,4986.4 5255.8,4986.7 5254.1,4986.2 L5253.2,4985.9 C5252.6,4985.7 5252.3,4985.7 5252.2,4985.7 C5250.9,4987 5249.2,4987.2 5248.3,4985.3 C5246.4,4986.1 5243.6,4987.4 5241.7,4986.5 C5240.8,4986.1 5239.9,4985.5 5239.7,4983.7 L5239.7,4982.8 L5239.7,4982.4 C5237.8,4980.1 5239.1,4977.9 5238.3,4976.5 C5237.4,4975.1 5237.4,4974.4 5238.3,4973 L5238.2,4972.8 L5237.9,4972.8 C5237.8,4976.3 5233.8,4976.4 5232.9,4973.2 C5232.4,4972.5 5232.5,4971.2 5232.7,4970.4 C5229.4,4971.6 5229.1,4968.2 5223.7,4971.9 C5220,4974.4 5217.4,4975.3 5213.1,4973.1 C5211.8,4972.5 5210.7,4973.5 5209.4,4973.8 C5208.5,4974 5207.5,4974 5206.6,4974 C5204.7,4974 5202.4,4973.7 5200.9,4975.2 C5200.2,4975.9 5198.9,4975.9 5198,4976.2 C5195.4,4978.3 5197.4,4980.3 5191.3,4980.1 C5190.9,4980.5 5190.5,4980.9 5190.2,4981.4 L5189.8,4982 C5186.7,4986 5181,4984 5177,4986.1 C5176.7,4986.3 5175.4,4986.6 5175,4986.5 L5166.5,4987.8 C5162.4,4989.2 5159.5,4990.5 5156,4993.1 C5154.2,4994.5 5154.9,4992.5 5151.8,4996.3 C5150.7,4997.6 5149,5003.1 5151.9,5003 C5152.7,5003 5154.1,5002.7 5154.8,5003.3 C5155.4,5005.4 5154.1,5006.7 5154.5,5008.4 C5155.2,5011.7 5158.7,5010.3 5160.4,5008.9 C5161.5,5008 5162.5,5006.8 5163.3,5005.7 L5165,5008.5 C5165.9,5008.8 5167.2,5008.1 5168,5007.9 C5168.5,5007.9 5169,5008.6 5169.4,5008.9 C5170.2,5009.5 5171.3,5008.3 5172.7,5010.3 C5174.6,5009.9 5176.5,5011.4 5178.4,5011.7 C5178.7,5012.4 5179.1,5015.6 5179.3,5016.5 C5178.6,5018.5 5174.1,5021.1 5172.3,5021.9 C5172.2,5025.1 5172.4,5026.3 5173.8,5028.7 C5175.7,5032 5176.1,5035.8 5176.8,5039.6 C5177.2,5041.7 5177.1,5043.2 5176.9,5045.4 C5176.4,5049.5 5186.5,5045.1 5188.1,5045.1 C5189.1,5045.5 5191,5051.8 5191,5052.9 C5189.8,5055.5 5188.4,5057.9 5187.1,5060.5 C5185.8,5062.9 5184,5065.2 5183,5067.8 L5182.8,5067.9 C5182.6,5067.4 5182.2,5066.9 5182.1,5066.4 C5180.7,5064.9 5177.2,5064.5 5175.4,5065.3 C5175.2,5065.6 5174.9,5066.1 5174.6,5066.3 C5174.5,5066.6 5174.4,5067 5174.5,5067.3 L5174.3,5067.5 C5172.6,5067.3 5170.7,5067.8 5169,5067.8 C5168.1,5067.7 5160.8,5071.5 5159.4,5072.7 C5158.2,5074.6 5161.5,5074.1 5160,5078.3 C5158.4,5082.9 5151.8,5083 5150.6,5083.9 C5150.1,5085.2 5148.4,5089.9 5147.7,5090.8 L5147.3,5090.8 C5143.7,5088.9 5141.2,5085.7 5138.4,5082.9 C5137.9,5082.4 5136.7,5081.1 5135.9,5081.3 C5135.5,5082.8 5130.9,5088.4 5131,5089.1 C5128.7,5089.3 5122.6,5088.2 5121.1,5089.8 L5120.9,5089.7 L5120.3,5089.5 C5120,5089.5 5119.8,5089.7 5119.5,5089.8 C5119.4,5090.2 5119.2,5090.9 5119.4,5091.3 L5119,5092.2 C5118.7,5092.4 5117.7,5092.6 5117.3,5092.6 C5117.1,5093 5117.1,5093.6 5117.4,5093.9 L5117.2,5094.3 C5116.8,5094.5 5116.2,5094.5 5115.8,5094.3 C5114.7,5094.4 5113.5,5097 5112.9,5097.1 C5112.2,5097 5111.8,5096.1 5111,5096 L5110.6,5096.2 L5110.1,5096.9 C5110.1,5097.5 5110.4,5098.1 5110.4,5098.7 C5110.4,5099.3 5110.1,5099.5 5109.8,5099.9 C5109.3,5101 5110.1,5103.2 5108.7,5104.8 C5107.8,5105.2 5105.8,5105.1 5105.5,5105.3 C5103.5,5106.6 5103.9,5109.2 5102.9,5111.1 C5102.4,5112.1 5100.8,5112.5 5100,5113.3 L5099.7,5113.6 C5100.4,5114 5101,5114.5 5101.5,5115.1 C5102.9,5116.6 5104,5118.5 5104.7,5120.4 C5104.7,5121.6 5103.4,5121.5 5103.1,5122.2 L5103.1,5122.6 C5104.1,5124 5105,5123.4 5106.2,5124.2 C5107.1,5124.7 5107.4,5125.7 5108,5126.4 C5108.6,5127.1 5109.5,5126.8 5110.1,5127.3 C5110.7,5127.7 5113.2,5130.2 5113.5,5130.8 C5114.9,5133.1 5119.4,5143.5 5120.2,5144.2 C5120.7,5144.7 5128.9,5148.9 5129.9,5149.3 C5131.1,5149.8 5133.3,5149.3 5134.6,5150.1 C5134.8,5150.1 5135,5150.3 5135.2,5150.3 C5135.7,5150.5 5136.3,5150.7 5136.8,5150.8 C5138.5,5151.3 5139.8,5152.1 5141.4,5152.7 C5142.4,5153.1 5143.4,5153 5144.5,5153.3 C5145.8,5153.7 5147.3,5154.5 5148.5,5155.1 C5148.8,5155.2 5149.2,5155.4 5149.6,5155.4 C5151.5,5155.7 5153.6,5155.4 5155.3,5156.2 C5157.2,5157.2 5159.1,5157.8 5161.1,5158.7 C5162.5,5159.3 5163.6,5160.6 5165,5161.2 C5169.7,5163.4 5174.3,5165.7 5179.2,5167.3 C5182.8,5168.5 5186.7,5167.6 5190.2,5168.5 C5192,5168.9 5193.5,5170.2 5195.3,5170.6 C5195.9,5170.4 5196.5,5170.2 5197.2,5170.4 C5197.7,5170.5 5198.2,5171 5198.7,5171.1 C5202,5172.1 5205.1,5173.5 5208.5,5174.5 C5211.2,5175.4 5214.4,5175.7 5217,5176.9 C5218.7,5177.7 5219.8,5178.9 5221.8,5179.2 C5222.5,5179.3 5223,5179.3 5223.6,5179.1 L5223,5178.3 L5223,5178.3 Z" id="svg--id--Michoacan--MC_1_"></path>
            </g>
        </g>
    </g>
</svg>