<?xml version="1.0" encoding="UTF-8" standalone="no"?>
<svg width="314px" height="393px" viewBox="0 0 314 393" version="1.1" xmlns="http://www.w3.org/2000/svg" xmlns:xlink="http://www.w3.org/1999/xlink" xmlns:sketch="http://www.bohemiancoding.com/sketch/ns">
    <!-- Generator: Sketch 3.4.4 (17249) - http://www.bohemiancoding.com/sketch -->
    <title>svg--id--Sinaloa--SI_1_</title>
    <desc>Created with Sketch.</desc>
    <defs></defs>
    <g id="Page-1" stroke="none" stroke-width="1" fill="none" fill-rule="evenodd" sketch:type="MSPage">
        <g id="mexico-no-stroke" sketch:type="MSLayerGroup" transform="translate(-4658.000000, -4400.000000)" fill="#F2F2F2">
            <g id="Layer_2" sketch:type="MSShapeGroup">
                <path d="M4946.1,4788.6 L4945.6,4788.7 C4945.3,4789.5 4946.6,4791.5 4947.7,4793.3 C4947.5,4792.9 4947.3,4792.6 4947.1,4792.2 L4947.7,4791.9 C4950.7,4791.1 4952.6,4790.3 4955.6,4789.5 C4960.1,4788.4 4962.7,4788.3 4967,4785.9 C4967.1,4785.8 4967.4,4785.4 4967.4,4785.3 C4968.8,4782.7 4966.1,4780.5 4965.6,4778 C4965.4,4777 4966.5,4775.6 4965.8,4773.6 C4965.7,4773.3 4965.4,4773.1 4965.2,4772.8 C4965,4772.6 4964.8,4772.3 4964.6,4772.2 C4959.1,4768.9 4956.4,4771.8 4959.4,4762.9 C4961.4,4757.1 4968.3,4755.8 4968.5,4754 C4968.5,4752.5 4965.6,4750.4 4965,4748.7 C4965.7,4746.8 4966.5,4744.8 4966.9,4742.8 C4968.4,4742.4 4970.3,4741.7 4971.9,4741.9 L4971.6,4740.5 L4971.6,4740.5 L4970.5,4733.7 L4961.8,4733.9 C4959.6,4731.1 4957.3,4728.5 4955,4725.9 C4954.5,4725.4 4953.5,4723.9 4952.9,4723.5 C4950.1,4721.6 4949.2,4723.4 4949.8,4718.7 C4950,4717.1 4947.8,4715.8 4947.5,4714.2 C4947.6,4712.9 4948.6,4711.6 4948.2,4710.3 C4947.7,4709.7 4946.6,4709.3 4946.7,4708.4 C4949.4,4705.1 4942.3,4702 4943.7,4698.9 C4942.6,4695.6 4940.2,4693.8 4938.7,4690.8 C4934.5,4682.4 4931.9,4678 4932.8,4667.8 C4932.8,4667.8 4933.4,4659.3 4932.6,4658.4 C4932.7,4657.8 4932.7,4657.1 4932.5,4656.5 L4932.2,4656.5 C4931.4,4653.6 4928.6,4655.2 4927.6,4649.2 C4927.2,4646.4 4925.4,4643.3 4923.6,4641.2 C4923.4,4641 4923.1,4640.9 4922.9,4640.7 C4921.1,4639.5 4919.8,4638.3 4918.3,4637.1 L4909.1,4629.7 C4907.6,4628.5 4906.8,4627.6 4904.8,4628.3 C4899.4,4630.2 4900.8,4630.3 4897.8,4634.1 C4895.2,4637.4 4893.5,4637.8 4889.3,4636.8 C4884.8,4635.7 4883.4,4634.7 4881.7,4630.2 C4878.4,4621.5 4879.1,4612.2 4870.1,4607 C4867.6,4605.5 4868.3,4603.4 4866.4,4602 C4865.9,4602 4865,4601.8 4864.7,4601.3 C4864.6,4600.6 4864,4597.4 4863.4,4597 C4861.4,4595.9 4859.1,4595.4 4856.8,4595.5 L4856.5,4595.2 C4856.8,4591.8 4856.2,4591.8 4853.3,4590.8 C4851.7,4590.3 4850.3,4585.7 4849.4,4584.3 C4848.8,4583.5 4848.1,4582.8 4847.6,4582 C4845.3,4578.2 4840.2,4566.4 4839.3,4561.8 C4838.8,4559 4838.3,4556.3 4838.3,4553.5 C4838.1,4546.3 4840,4543.9 4841.2,4537.2 C4841.4,4536 4842.1,4526.2 4841.4,4524.3 L4841.5,4524.1 C4841.4,4524.1 4841.4,4524.2 4841.3,4524.2 L4841.3,4524.2 C4841,4523 4840.9,4521.8 4840.6,4520.6 C4839.3,4514.6 4836.1,4509.1 4832.1,4504.5 C4830.8,4503 4827.4,4500.6 4826.7,4499.3 C4825,4496.3 4823.2,4493.1 4822.6,4489.7 C4822,4485.8 4821.7,4484.7 4819.7,4481.3 C4819.2,4480.3 4817.3,4479.8 4816.3,4479.9 C4806.5,4478.2 4796.9,4475.7 4787.1,4473.8 C4785.2,4461.4 4783.8,4448.9 4782.3,4436.4 C4780,4433.8 4777,4431.4 4775.2,4428.3 C4774.5,4427.1 4773.8,4425.8 4773,4424.7 C4772.4,4423.8 4770.5,4421.9 4770.2,4421.1 C4768.3,4416.1 4771,4414.3 4767.8,4410.2 C4766.3,4408.3 4756.5,4408.9 4753.5,4408.1 C4752.5,4407 4752.8,4404.7 4751.6,4402.6 C4750.9,4401.5 4748.6,4400.7 4747.4,4400.6 C4743.6,4400.2 4738.9,4402.7 4736.4,4405.4 C4735.8,4406 4734.2,4409 4734.2,4409.1 L4734,4409.3 C4734.2,4409.7 4734.3,4410.1 4734.3,4410.5 L4734.3,4410.5 C4734.9,4413.7 4734.5,4418.5 4733.1,4421.5 C4721,4431.2 4709.1,4441.2 4697.2,4451.1 L4682.3,4463.5 L4682.3,4463.5 C4683.3,4466 4684.8,4468.6 4686.8,4467.5 L4687,4467.7 C4687.3,4469 4685.8,4469.1 4685,4469.7 C4684.9,4471.5 4686.6,4472.6 4685.9,4473.7 L4685.5,4473.9 C4684.2,4473 4683,4472 4681.8,4471.1 C4681.7,4470.8 4681.8,4470.4 4681.8,4470.1 L4681.6,4469.7 C4681.1,4469.8 4680.5,4469.7 4680,4469.6 L4679.8,4469.2 C4680.1,4468.8 4681.1,4468.4 4681.5,4468.2 C4680.6,4466.3 4681.4,4465.2 4680.3,4464 C4678.8,4464.4 4676.8,4464.8 4675.5,4465.1 C4675.7,4466.2 4676.3,4467.4 4676,4468.3 C4675.4,4470.2 4674.2,4472.3 4673.3,4474 C4672.7,4475.1 4672.9,4476.6 4672.2,4477.8 C4672,4478.2 4671.7,4478.6 4671.2,4478.6 C4670.6,4477.7 4670.9,4473.2 4671.5,4470.8 C4671.5,4470.8 4671.5,4470.9 4671.4,4470.9 C4670,4474.2 4664.7,4484.2 4661.9,4486.1 L4661.9,4486.5 C4661.4,4487.4 4660.7,4488.2 4660.3,4489.1 C4659.8,4490.5 4658.6,4496 4658.9,4497.3 C4659.4,4499.2 4660.8,4497.9 4661.1,4500.4 C4661.2,4501.4 4660.9,4502.6 4660.9,4503.6 C4660.7,4503.7 4660.6,4503.8 4660.5,4503.9 C4660.2,4505.5 4659,4506.9 4658.8,4508.5 C4658.9,4512 4661.3,4510.2 4661.9,4513 C4662.2,4514.8 4661.4,4517.7 4662.3,4519 L4662.7,4519.2 L4663.1,4519.1 C4663.3,4517.5 4661.1,4511 4664.9,4511.9 C4666.8,4512.3 4665.9,4513.6 4668.6,4513.6 C4670.2,4513.8 4671.1,4515.5 4671,4517 C4670.4,4517.3 4669.9,4520.1 4670,4520.7 C4665.7,4519.4 4667.1,4519.8 4663.6,4521.1 C4663,4521.3 4662.1,4521.4 4661.8,4522.2 C4662.3,4523.1 4666.3,4523.3 4667.3,4523.3 C4668.4,4523.2 4669.4,4522.6 4670.4,4522.5 C4671,4522.4 4671.9,4522.6 4672.4,4522.8 C4678.3,4524.4 4679.9,4529.1 4681,4529.6 L4681.4,4529.4 C4682.7,4527.2 4675.9,4522.9 4674.5,4521.6 C4673.9,4521.1 4673.5,4520.2 4673.1,4519.5 L4673.2,4519 C4674.3,4518.2 4675.9,4520.3 4676.7,4520.6 C4677.7,4521 4678.8,4521.4 4679.8,4521.7 C4681.1,4523.3 4681.2,4526.3 4682.5,4527.6 C4683.8,4527.8 4685.2,4527.9 4685.8,4526.6 C4686.7,4526.2 4687.9,4527.6 4689.5,4525.8 C4691.7,4525.9 4691.5,4522.3 4693.2,4521.1 C4694.8,4520 4699.2,4520.2 4701.2,4517 C4701.7,4516.2 4701.6,4515 4702.1,4514.3 C4702.6,4513.6 4704.3,4511.9 4704.3,4511.2 C4704.4,4510.2 4703.8,4509.4 4704.9,4508.7 C4705.3,4508.5 4705.9,4508.7 4706.2,4509 L4706.4,4509.4 C4706.2,4512.8 4703.8,4513.1 4702.5,4515.5 C4701.8,4516.9 4702.9,4518.4 4702.3,4519.9 L4701.9,4519.8 C4701.7,4519.6 4701.5,4519.4 4701.3,4519.2 L4700.9,4519.3 C4700.7,4520.3 4701,4521 4700.9,4521.9 C4699.8,4523.4 4697.1,4526.9 4695.1,4526.7 C4694.9,4527.9 4695.5,4530.3 4694.5,4531.1 L4694.2,4531.2 L4693.8,4531 C4693.3,4530.6 4693.7,4529.3 4693.6,4528.6 L4693.3,4528.3 C4691.9,4528.2 4687.9,4526.9 4687.1,4528.4 C4686.7,4529.1 4686.6,4529.7 4686,4530.3 C4685.5,4530.9 4684.9,4531 4684.4,4531.7 C4684.5,4532.1 4690.9,4539.5 4692.4,4537.3 C4692.3,4536.4 4691.2,4535.9 4691.7,4534.9 C4692.1,4534.3 4696.9,4534.2 4697.7,4534.4 L4697.9,4534.7 C4697.9,4535 4697.7,4535.3 4697.5,4535.5 L4697.1,4535.6 C4696.9,4535.8 4696.7,4536.1 4696.7,4536.3 L4697,4536.6 L4697.9,4536.7 C4698.4,4537 4698.6,4537.5 4699.1,4537.8 C4699.8,4536.9 4700.6,4536.2 4701.7,4535.8 C4702.9,4530.2 4702.7,4533.6 4700.4,4529.8 C4700.4,4529.5 4700.5,4529.1 4700.7,4528.9 C4701.2,4528.8 4701.7,4528.7 4702.1,4528.9 C4703.1,4530.7 4704.7,4528.4 4705.9,4529 C4706.9,4530.7 4706.9,4531.7 4709.1,4531 C4709.2,4530.8 4709.4,4530.6 4709.7,4530.4 L4710.9,4530.5 C4711.1,4530.7 4711.3,4530.9 4711.4,4531.2 C4710.9,4533.1 4711.8,4534.5 4710.5,4536 C4710.4,4536.7 4711,4537.1 4711,4537.7 C4710.6,4538.5 4710.3,4539 4710.3,4539.9 L4710.6,4540.2 C4711.1,4539.9 4711.6,4539.6 4711.7,4539 L4712,4538.8 L4712.4,4539 C4712.6,4539.2 4712.7,4539.5 4712.7,4539.7 C4712.5,4539.9 4712.4,4540.2 4712.4,4540.5 C4712.8,4541.4 4714,4541.2 4714,4542.4 L4713.8,4542.8 C4712.8,4543 4710.8,4542.6 4710.2,4543.1 L4710.2,4543.6 C4710.4,4544 4710.6,4544.4 4711,4544.5 C4713.4,4544.5 4716.4,4542.3 4718.8,4542.7 C4720,4542.9 4721.2,4545.2 4723.3,4546.6 C4720.4,4545.5 4714.3,4544.3 4713.6,4546 L4713.9,4546.3 C4716.1,4546.9 4718.5,4546.5 4720.7,4547 C4722.8,4547.5 4726,4549 4727.8,4550.1 C4728.6,4550.6 4729.5,4551.3 4730.4,4551.7 C4731.8,4552.2 4733.7,4552.4 4735,4553.2 C4735.7,4553.6 4736.5,4554.1 4737.1,4554.6 C4738.4,4555.7 4739.2,4557.4 4739.8,4558.9 C4740.4,4560.7 4739,4562.2 4739.2,4563.9 L4739.4,4564.2 L4739.7,4564.3 L4740.1,4564.2 C4740.5,4563.3 4740.2,4562.4 4740.4,4561.5 C4740.6,4560.6 4741.4,4559.7 4741.5,4559 C4741.8,4557.3 4740.3,4556.8 4742.1,4553.9 C4743.2,4554.6 4744.6,4554.6 4745.6,4555.3 C4745.7,4555.8 4745.9,4560.6 4745.7,4560.8 C4744.5,4560.5 4744,4559.3 4742.7,4559 L4742.5,4559.4 C4743.4,4561.5 4742.9,4561.8 4743,4562.1 C4743.9,4562.3 4748.9,4563.7 4749.4,4563.4 C4749.5,4563.1 4749.7,4562.9 4749.9,4562.7 C4750.4,4562.8 4751,4562.9 4751.5,4562.8 C4751.8,4562.5 4752.2,4562.3 4752.3,4561.9 C4752.6,4561.8 4753,4561.8 4753.3,4561.9 C4754.6,4563.4 4757.5,4569.8 4760.5,4567.5 C4760.7,4566.9 4760.1,4566.4 4760,4565.8 C4761.2,4565.7 4763.1,4567.6 4764.1,4568.2 C4764.5,4568.5 4765,4568.5 4765.4,4568.7 C4767,4569.5 4770.4,4574.1 4770.3,4576 L4770,4576.3 C4769,4576.6 4768.4,4575.7 4767.7,4575.2 C4767,4575 4766.2,4575.6 4765.6,4575.9 C4765.1,4575.9 4764.7,4575.6 4764.5,4575.2 C4763.8,4574.9 4763.2,4575.3 4762.5,4575.1 C4761.3,4574.1 4760.5,4571.8 4759.8,4571.4 L4759.3,4571.4 C4758.4,4572 4758.8,4572.7 4759.1,4573.5 C4758.8,4573.6 4758.4,4573.6 4758.1,4573.6 L4757.8,4573.8 C4757.8,4574.1 4757.9,4574.4 4758,4574.7 L4758.4,4574.9 C4759,4574.9 4759.6,4574.7 4760.2,4574.6 C4760.5,4575.3 4760.9,4577.8 4760.6,4578.5 C4759.7,4578.7 4758.9,4578 4758.3,4577.4 L4757.9,4577.4 C4757.8,4577.6 4757.6,4577.8 4757.3,4578 L4756.9,4578.1 C4756.2,4577.9 4753.4,4572.2 4752.7,4571.3 C4752.1,4570.5 4751.3,4570.4 4750.7,4569.8 C4749.4,4568.4 4747.6,4565.9 4745.1,4567.2 L4744.9,4567.6 L4745.1,4568 C4746.1,4569 4748,4569.4 4749.2,4570.4 C4749.7,4570.9 4750,4571.5 4750.5,4572 C4754.5,4575.7 4754.6,4578.6 4757.1,4583.1 C4757.7,4584.2 4761.8,4594.3 4763.9,4591.4 L4764,4590.9 L4764.3,4590.6 C4765.3,4590.7 4765.6,4591.4 4766.3,4591.6 C4768.2,4591.2 4767.2,4586.7 4767.5,4585.3 C4767.6,4584.8 4768.1,4584.3 4768.3,4583.7 C4768.2,4582.5 4767.2,4581.7 4766.9,4580.5 C4766.6,4579.4 4766.5,4577.7 4766.5,4576.5 L4766.9,4576.3 C4767.3,4576.3 4768.3,4577.2 4768.8,4577.5 C4773.5,4580.3 4770.5,4581.4 4770,4584.1 C4769.8,4585.2 4770.1,4586.1 4770.4,4587.1 C4770.6,4587.9 4770.6,4588.9 4770.4,4589.6 C4770.3,4589.8 4769.6,4590.5 4769.6,4590.5 C4771.3,4591.6 4773.3,4595 4771.9,4596.8 C4771.6,4597.1 4771.4,4597.6 4771,4597.7 C4770.3,4597.7 4767.8,4595 4767.3,4594.4 C4766.6,4594.4 4766.3,4594.5 4765.7,4595 L4765.7,4595.3 C4766.4,4596.8 4768.3,4597.6 4769.1,4599 C4770.2,4601.1 4769.3,4603.5 4770.2,4605.6 C4771,4607.6 4781.2,4615.3 4783.1,4615.8 C4783.3,4616.2 4783.7,4616.3 4784,4616.7 C4784.4,4616.9 4785,4617 4785.4,4616.6 L4785.5,4616.1 C4783.9,4615.2 4781.1,4614.5 4780.6,4612.7 C4777.3,4611 4779.1,4611.1 4777.4,4609.4 C4776.8,4608.7 4775.5,4609 4775.5,4607.4 C4775.6,4607.4 4780.5,4609.4 4780.7,4609.5 C4781.2,4609.9 4781.5,4610.6 4781.9,4611.1 C4782.6,4611.5 4784.2,4610.7 4785.3,4611.5 C4785.6,4612.1 4785.8,4612.9 4786.2,4613.5 C4786.9,4614.5 4788.9,4614.6 4789.9,4615.7 C4790.7,4616.6 4790.1,4618.4 4790.4,4619 C4791.5,4619.2 4793.6,4620.5 4794.5,4620 C4794.9,4619.8 4795,4619.3 4795.5,4619.2 L4796,4619.3 C4797.2,4620.2 4797.6,4622.5 4798.6,4623 C4799,4623 4800,4622.8 4800.3,4622.4 C4801.1,4622.3 4801.7,4622.1 4802.5,4621.8 C4802.7,4621.5 4804.1,4619.4 4804.2,4619.4 C4804.6,4619.2 4805,4619.2 4805.2,4618.7 C4805.2,4618.4 4805.1,4618.1 4804.9,4617.9 C4804,4617.6 4803.1,4618.9 4802.2,4619.1 L4801.7,4619 C4800,4616.5 4806.2,4616.9 4807.2,4617.3 C4807.3,4617.5 4810.9,4626.6 4811,4627.1 C4811.1,4627.6 4811.1,4628.2 4811,4628.7 L4810.7,4629 C4810.2,4629 4809.8,4629.2 4809.4,4629.3 C4809.2,4629.5 4809,4629.8 4809,4630.1 C4809.2,4630.2 4809.5,4630.3 4809.8,4630.3 L4810.1,4630.5 L4809.9,4630.9 L4809.5,4631.1 C4808,4630.4 4807.1,4628.5 4805.5,4628.6 L4805.1,4628.8 L4805.1,4629.1 C4805.7,4630 4806.7,4630.1 4807.7,4630.7 C4806.8,4630.3 4805.8,4630.2 4804.9,4629.9 C4804.7,4629.8 4804.5,4629.7 4804.4,4629.6 C4803.4,4628.8 4802.7,4628.8 4801.7,4628.3 C4801.1,4628 4801,4627.5 4800.6,4627.1 C4798.7,4625.6 4794,4623.6 4792.4,4622.1 C4792,4621.7 4791.3,4620.9 4790.8,4620.7 C4789.9,4620.3 4789.5,4620.7 4788.5,4620 C4788.1,4619.3 4788,4618.5 4787.9,4617.8 C4787.6,4617.4 4787,4617.3 4786.5,4617.4 C4783.3,4619 4793.5,4624.2 4794.2,4625.2 C4795,4625.2 4806.3,4632.4 4807.4,4633.5 C4808.6,4634.7 4809.4,4636.1 4810.9,4637.1 C4812,4637.8 4814.1,4639.5 4815.2,4640 C4815.8,4640.3 4816.6,4639.9 4817.2,4640.3 C4818.3,4641 4817.7,4642 4817.8,4642.9 C4818,4644.2 4826.9,4649 4828.5,4650 C4830.1,4651 4831.6,4652.9 4833,4654.2 C4835.3,4656.5 4839.8,4659.1 4842.4,4661.5 C4843.7,4662.6 4845.2,4663.3 4846.4,4664.6 C4848.4,4666.6 4850.5,4669.7 4852.3,4671.5 C4853.1,4672.2 4854,4672.3 4854.7,4673.3 C4856.8,4676.3 4858.3,4682.1 4859.7,4684.2 C4860.4,4685.2 4861.4,4685.7 4862.1,4686.5 C4862.9,4687.5 4862.1,4689.8 4863.2,4691.5 C4865.3,4694.7 4868.1,4694.2 4869.9,4696 C4871.5,4697.6 4872.6,4700.8 4874.1,4702.1 C4875.1,4702.9 4875.8,4703.2 4876.7,4704.2 C4876.9,4708.2 4882,4709.4 4884,4711.5 C4885.3,4712.8 4887.1,4716.3 4887.6,4718.1 L4887.4,4718 C4887.9,4718.2 4888.3,4718.8 4888.2,4719.3 C4888.1,4719.5 4887.8,4719.7 4887.6,4719.8 C4887.5,4720.1 4887.5,4720.4 4887.6,4720.7 C4888.1,4721.3 4888.9,4721.8 4889.4,4722.4 C4889.7,4722.8 4889.7,4723.7 4889.9,4724.2 C4890.4,4725.4 4891.6,4725.8 4892.1,4727.2 C4892.4,4728.5 4892.1,4729.9 4892.4,4731.2 L4892.7,4731.5 L4893.2,4731.6 C4893.7,4731.4 4894.1,4730.7 4894.5,4730.6 C4897,4730.2 4901.9,4738.4 4903.8,4740 C4905.5,4741.4 4907.5,4741.8 4909.2,4743.5 C4910.1,4744.4 4910.7,4745.9 4911.6,4746.9 C4914.9,4751 4918.4,4755.1 4921.8,4759.2 C4922.4,4759.9 4922.3,4760.8 4923.1,4761.4 C4924.2,4760.3 4924.2,4759.4 4926.1,4759.2 L4926.6,4759.4 L4926.6,4759.8 C4926.4,4760.5 4925.4,4760.7 4925.1,4761.9 L4925.2,4762.3 C4926.7,4763.7 4928.9,4764.5 4930.4,4766 C4932.4,4767.9 4933.7,4771.1 4935.7,4772.8 C4936.7,4773.6 4937.9,4774 4938.9,4774.9 C4939.9,4775.9 4943.5,4782.6 4944,4784 C4944.4,4785.1 4943.8,4785.7 4944.1,4786.4 L4944.4,4786.7 C4944.7,4786.3 4944.6,4785.7 4945,4785.4 C4946.2,4785.3 4947,4787 4947.1,4788 L4947,4788.3 C4946.7,4788.9 4946.4,4788.8 4946.1,4788.6 L4946.1,4788.6 Z" id="svg--id--Sinaloa--SI_1_"></path>
            </g>
        </g>
    </g>
</svg>