<?xml version="1.0" encoding="UTF-8" standalone="no"?>
<svg width="305px" height="289px" viewBox="0 0 305 289" version="1.1" xmlns="http://www.w3.org/2000/svg" xmlns:xlink="http://www.w3.org/1999/xlink" xmlns:sketch="http://www.bohemiancoding.com/sketch/ns">
    <!-- Generator: Sketch 3.4.4 (17249) - http://www.bohemiancoding.com/sketch -->
    <title>svg--id--San-Luis-Potosi--SL</title>
    <desc>Created with Sketch.</desc>
    <defs></defs>
    <g id="Page-1" stroke="none" stroke-width="1" fill="none" fill-rule="evenodd" sketch:type="MSPage">
        <g id="mexico-no-stroke" sketch:type="MSLayerGroup" transform="translate(-5212.000000, -4612.000000)" fill="#F2F2F2">
            <g id="Layer_2" sketch:type="MSShapeGroup">
                <path d="M5216.2,4731.2 C5216.4,4731.4 5219.6,4736.5 5219.7,4736.8 C5219.8,4738.6 5219.2,4739.7 5218.5,4741.3 C5217.8,4742.7 5217.1,4744.7 5215.8,4745.7 C5215.5,4746.5 5218.2,4749.6 5218.7,4750.7 C5219.9,4753.1 5220.6,4755.4 5221.4,4758 C5221.8,4759.5 5223,4761.2 5223.7,4762.5 C5223.8,4762.7 5225.6,4764.7 5225.9,4764.9 C5227.9,4766.6 5230.1,4768.2 5231.7,4770.3 C5236.1,4775.9 5238.7,4775.8 5241.7,4782.4 C5242.8,4784.8 5244,4786.9 5244.8,4789.4 C5245.6,4789.3 5255.4,4792 5256.9,4792 L5257.4,4792.1 C5258,4791.8 5265.7,4779.9 5270.7,4779.2 C5276.5,4778.5 5276.8,4778.2 5282,4780.3 C5286.3,4782 5287.5,4784.1 5289,4788.2 C5291.3,4794.3 5284.5,4796.7 5284.3,4797.7 C5284.8,4804.6 5285.4,4811.6 5285.9,4818.5 C5286.2,4822.6 5288.4,4822.7 5285.3,4826.5 C5280.7,4832.1 5275.8,4837.7 5271.6,4843.5 L5271.6,4843.5 C5271.2,4843.3 5270.6,4843.1 5270.3,4842.8 C5270.7,4843.1 5271.2,4843.3 5271.6,4843.5 L5271.6,4843.6 L5271.8,4843.8 C5282.8,4848.5 5284.6,4840.7 5288.6,4844.2 C5291.6,4846.8 5294.1,4851.5 5298.5,4851.6 C5301.6,4851.7 5313.1,4851.9 5315.3,4853.6 C5316.7,4854.6 5317.6,4856.5 5318.8,4857.6 C5325.5,4863.5 5332.1,4870.2 5340.8,4873.1 C5345.4,4874.7 5347.5,4873.2 5348.6,4868.9 C5349.2,4866.5 5353.3,4869.8 5354,4863.4 C5354,4863.1 5354.6,4862.5 5354.7,4862.3 C5356.9,4859.7 5360.2,4861.1 5363.1,4861.5 C5364.1,4861.6 5365.2,4862.2 5366.1,4861.7 L5366.4,4861.3 C5367.3,4861.4 5368,4861.6 5368.7,4862.1 C5374.2,4866.2 5374.7,4866.9 5381.3,4869.8 C5387.4,4872.5 5393.6,4875 5399.7,4877.7 C5399.8,4877.8 5400.5,4877.7 5400.7,4877.8 C5402.6,4878.9 5403.8,4879.3 5405.3,4880.9 L5405.5,4880.8 C5406.7,4878.8 5407.4,4876.1 5408.1,4874 C5408.6,4872.5 5409.8,4871.3 5410.9,4870.3 C5414.6,4866.9 5416.9,4872.3 5418.3,4874.8 L5421.8,4880.4 L5426.8,4879.5 C5428.6,4879.2 5430.5,4878.6 5432.2,4877.9 C5433,4877.6 5434,4877.5 5434.8,4877.3 C5437.3,4876.5 5436.6,4871.2 5438.3,4869.2 C5439.6,4867.6 5442.5,4870.1 5444.1,4868.3 C5445.9,4866.4 5444.4,4863.3 5449.7,4862 C5450.1,4861.9 5450.8,4861.6 5451.3,4861.8 C5453.4,4870.6 5456.8,4879.4 5459.5,4888 C5460.1,4890.1 5460.1,4889.7 5460,4892.1 L5460.4,4892 C5461.4,4892.5 5462.4,4892.8 5463.3,4893.4 L5463.5,4893.7 L5463.5,4893.7 C5463.8,4891.6 5471,4889.9 5472.2,4892.4 C5472.6,4893.1 5473,4893.9 5473.3,4894.7 C5473.6,4895.4 5473.7,4898.1 5474.5,4898.4 C5476.5,4899.2 5479.3,4900.6 5481.5,4900.8 C5483.4,4901 5488.6,4897.9 5492.7,4898.2 C5493.6,4898.3 5495.9,4898.6 5496.6,4898.1 C5498.1,4896.9 5496.2,4891.4 5496.7,4889.4 C5497.3,4887.3 5500.8,4883.5 5503.2,4882.6 C5504.6,4883.1 5505.5,4884.2 5505.9,4885.5 C5505.5,4884.2 5504.5,4883 5503.1,4882.6 C5503.3,4881.1 5502.9,4872.3 5502.4,4871.6 C5501.1,4871.2 5498.3,4869.7 5497.1,4869 C5492.9,4866.6 5495.1,4867.5 5493.3,4864.7 C5493.9,4864.5 5495.3,4863.4 5495.3,4862.7 C5494.8,4861.8 5494.6,4857.8 5495.9,4857.2 C5496.7,4857.1 5500.8,4859.7 5499.7,4856.1 C5499.4,4855.9 5499.3,4855.2 5499.2,4854.9 L5499.4,4854.5 L5500.2,4854.2 C5501,4854.4 5501.7,4855.1 5502.3,4855.2 L5502.6,4854.9 C5502.7,4854.1 5507.7,4851.5 5508,4849.9 C5507.7,4848.7 5506.6,4847.7 5505.6,4847.1 C5505.6,4846.4 5505.3,4844.6 5504.9,4844 L5504.5,4843.9 C5504.2,4844.2 5502.9,4845.4 5502.5,4845.3 L5502.1,4845.1 L5501.9,4844.7 C5500.8,4841.6 5499.2,4842.9 5498.9,4840.4 C5499.2,4839.1 5500.9,4839.8 5501.2,4839 L5501.1,4838.6 C5500.7,4838.5 5500.2,4838.3 5499.9,4838 L5499.7,4837.6 L5499.9,4837.2 C5500.5,4836.7 5502.2,4837.2 5502.7,4836.2 L5502.7,4835.7 C5502.5,4835.4 5501.8,4835.2 5501.5,4835.1 C5500.4,4835.4 5499.6,4836.4 5498.5,4836.6 C5497.5,4836.2 5497.1,4832.9 5497.3,4832 C5498.9,4831.2 5499.7,4832.5 5501.3,4832.7 C5501.6,4832.6 5502.7,4832 5502.9,4831.7 C5503.4,4831.5 5505,4832.8 5505.3,4832.3 C5506.6,4830.1 5508.1,4827.3 5509.4,4825.1 C5513.2,4818.7 5521.4,4813.1 5511.4,4806.9 C5510,4806 5508.6,4805.3 5507.2,4804.4 C5503.5,4802.1 5500.3,4799.3 5496.6,4797 C5496.4,4796.9 5496.2,4796.9 5496.1,4796.8 C5496,4796.7 5496,4796.6 5496.1,4796.6 C5495.9,4796.3 5495.5,4796.1 5495.2,4795.9 L5495.1,4795.4 C5490.4,4794.1 5479.6,4800.6 5476.6,4802.5 C5475.6,4802.5 5470.6,4799.8 5468.9,4799.2 C5461.3,4796.6 5459.3,4795.3 5450.6,4794.2 C5446.7,4793.7 5445.8,4790.5 5444.4,4787.6 C5443.5,4785.6 5442.9,4783.1 5441.8,4781.3 C5440.8,4779.6 5439.3,4777.9 5438.4,4776.1 C5438,4775.4 5437.6,4774.1 5437,4773.5 L5436.7,4773.4 C5435.6,4774.7 5434.7,4776.2 5433.5,4777.4 C5431.7,4777.7 5428.5,4770 5423.7,4769.2 L5423.6,4769.4 C5424.7,4771.3 5425.8,4776.6 5425.5,4778.8 L5425.2,4778.9 C5423.9,4778.2 5422.3,4778.1 5420.9,4777.6 C5417.5,4776.2 5413.7,4775.7 5410.4,4774.3 C5407.4,4773 5404.4,4770.9 5401.4,4769.8 L5393.8,4766.9 C5392.6,4766.5 5388.5,4763.8 5387.6,4762.9 C5386.7,4762 5386.2,4761.1 5385.2,4760.3 L5385.2,4759.9 C5388.7,4756.7 5396.3,4752.6 5396.1,4747 C5396.1,4746.3 5396.1,4745.3 5395.6,4744.7 C5393.7,4742.2 5389.4,4737.1 5386.9,4735.3 C5385.3,4735.1 5382.8,4736 5382,4735.8 C5382.3,4735.4 5382,4734.4 5382.2,4733.8 C5382.9,4731.2 5384.3,4728.3 5384.5,4725.6 L5384.2,4725.2 C5378.1,4724.8 5371.9,4724.8 5365.8,4724.6 C5366,4730.2 5354.9,4731.1 5354.6,4724.5 C5354,4721.3 5354.5,4720.9 5354.9,4717.8 C5356,4710.7 5356.3,4712.6 5355.3,4705.6 C5354.9,4703 5354.5,4700.3 5353.9,4697.8 C5352.7,4693.2 5352.9,4693.1 5355.2,4689.2 C5355.4,4688.8 5356.5,4686.7 5356.9,4686.6 C5358,4684.7 5356.7,4679.3 5354.3,4678.4 C5353.7,4678.2 5352.1,4678.2 5351.8,4677.9 C5351.1,4677.2 5350.7,4676.3 5350.1,4675.6 C5348.3,4673.3 5345.8,4671 5344.6,4668.4 C5340.8,4660.7 5343.4,4662.8 5344,4656.1 C5344.4,4655.9 5344.8,4653.7 5344.9,4653.3 C5346.6,4647 5345.9,4638.8 5341.9,4633.6 L5340.9,4632.3 C5339.2,4630.1 5338.2,4627.5 5336.4,4625.3 L5331.8,4619.4 C5329.9,4617 5327.3,4615.4 5325.5,4612.9 L5325.5,4612.9 L5325.5,4612.9 L5325.5,4612.9 L5325.5,4612.9 L5325.5,4613.4 C5325.3,4613.6 5325.4,4614.1 5325.4,4614.3 C5324.7,4615.8 5323.4,4617.5 5322.3,4618.8 C5318.1,4623.7 5315.2,4624.1 5312,4629.2 C5311.7,4629.7 5311.2,4630.1 5310.9,4630.5 C5306.4,4637.9 5304,4644.7 5298.4,4651.6 C5295.5,4655.1 5291.5,4657.6 5288.6,4661.1 C5286.8,4663.1 5284.9,4664.9 5283.2,4667 C5279.7,4671.2 5275.5,4674 5271.7,4677.8 C5270.8,4678.7 5269,4679.8 5268.3,4680.7 L5267.4,4680.9 C5266.9,4681.6 5266.2,4682.1 5265.6,4682.6 C5263.6,4684.4 5260.8,4685.4 5258.9,4687.3 C5255.3,4690.8 5258.7,4695.2 5251.3,4694.9 C5250,4694.9 5244.5,4700.1 5243.2,4701.2 C5239.5,4704.5 5240.8,4703.7 5238.5,4707.2 C5237.4,4709 5235.1,4710.8 5233.4,4712.1 C5232.5,4712.8 5231.2,4714 5230.1,4714.5 C5228.4,4715.1 5224.8,4716.4 5223.2,4714.9 C5222.7,4714.4 5222.4,4713.7 5222,4713.2 C5221.3,4713 5220.3,4713.1 5219.6,4713.2 C5218.7,4718.4 5221.2,4716 5217.2,4721.3 C5215.4,4723.6 5213.3,4724.2 5212.9,4727.7 C5212.9,4729.2 5215.5,4730.4 5216.2,4731.2 L5216.2,4731.2 Z" id="svg--id--San-Luis-Potosi--SL"></path>
            </g>
        </g>
    </g>
</svg>