<?xml version="1.0" encoding="UTF-8" standalone="no"?>
<svg width="364px" height="260px" viewBox="0 0 364 260" version="1.1" xmlns="http://www.w3.org/2000/svg" xmlns:xlink="http://www.w3.org/1999/xlink" xmlns:sketch="http://www.bohemiancoding.com/sketch/ns">
    <!-- Generator: Sketch 3.4.4 (17249) - http://www.bohemiancoding.com/sketch -->
    <title>svg--id--Oaxaca--OA_1_</title>
    <desc>Created with Sketch.</desc>
    <defs></defs>
    <g id="Page-1" stroke="none" stroke-width="1" fill="none" fill-rule="evenodd" sketch:type="MSPage">
        <g id="mexico-no-stroke" sketch:type="MSLayerGroup" transform="translate(-5500.000000, -5113.000000)" fill="#F2F2F2">
            <g id="Layer_2" sketch:type="MSShapeGroup">
                <path d="M5862.2,5244 L5861.9,5244 L5861.9,5244 L5833.2,5242 C5829.3,5241.7 5825.6,5242 5821.5,5241.6 C5806.7,5240.3 5792,5239.1 5777.2,5237.8 C5776.3,5234.6 5775.2,5231.4 5774.6,5228.2 L5769.3,5227.3 C5764.4,5220.4 5761,5215 5756.3,5208 L5756.6,5204.8 C5757.1,5203.7 5757.8,5203.6 5759,5203.2 C5759,5201.6 5760.5,5195.2 5758.5,5194.4 L5757.7,5194.8 L5755.7,5194.7 L5755.4,5195 C5755.6,5195.3 5756.4,5196.4 5756.4,5196.8 C5755.3,5197.6 5754.2,5195.8 5753.1,5195.9 L5752.8,5196.1 C5752.6,5196.5 5752.4,5197.1 5752.6,5197.5 L5752.4,5197.8 L5751.7,5198.2 L5751.5,5198.5 L5751.7,5198.9 C5750.2,5201.1 5747.3,5200.2 5746.7,5200.7 L5746.5,5201.1 L5746.5,5202.1 C5744.5,5202.1 5742.5,5201.7 5740.7,5202.8 C5739.4,5203.6 5737.8,5207.1 5736.5,5206.6 C5736.4,5206.6 5736.2,5206.7 5736.1,5206.8 C5734.2,5208.2 5733.9,5208.4 5731.6,5209.3 C5731.3,5209.9 5731.6,5210.7 5731.3,5211.3 L5729.8,5211.1 C5728.3,5211.6 5727.5,5214.8 5725.7,5211.9 C5725.3,5212.1 5723.9,5212.3 5723.4,5212.1 C5723.3,5211.9 5722.9,5211.7 5722.6,5211.7 C5721.8,5212 5721.4,5212.8 5720.7,5213.2 C5720.1,5213.6 5719.2,5213.7 5718.5,5214 L5718.2,5213.9 C5716.8,5213.1 5714.6,5213.1 5713.7,5212.4 C5713,5211.5 5705.4,5194.9 5704.4,5192.8 C5701.7,5187 5711.7,5181.8 5712.8,5176.6 C5713.1,5175.3 5713.2,5173.8 5713.3,5172.5 C5713.4,5170.1 5713,5167.8 5711.6,5165.8 C5706.1,5157.8 5706.9,5163.1 5703.8,5161.3 C5700,5159.2 5697.7,5157.5 5694.4,5157.2 L5693.1,5155.5 C5692,5155.5 5690.8,5155.7 5689.6,5156 C5688.7,5156.2 5688.2,5157.1 5687.8,5157.8 L5687.3,5157.8 L5685.9,5157.8 L5685.8,5157.8 C5686.6,5156.9 5686.8,5155.3 5685.8,5154.5 C5684.6,5153.6 5683.2,5154.1 5682,5154.5 C5681.4,5153.6 5680.9,5152.6 5679.9,5152 L5679.2,5151.8 C5678.9,5148.2 5677.1,5144.9 5674.1,5142.9 C5672.3,5141.7 5670.7,5140.5 5669.8,5138.5 C5668.2,5134.8 5666.3,5130.4 5666.3,5126.3 L5666.3,5125.8 L5666,5125.6 L5665.4,5125.2 C5658.3,5121.8 5651.8,5118 5645.3,5113.6 C5646.3,5118.1 5647.6,5122.6 5648.3,5127.1 C5645.4,5129.7 5641.5,5133.2 5638.4,5135.7 L5638.4,5135.7 C5638.7,5136 5639,5136.3 5639.3,5136.7 C5639.4,5137.7 5639.5,5138 5640.1,5139 C5639.6,5139.5 5639,5140.6 5638.8,5141.2 C5638.1,5142.9 5637.6,5144.9 5636.7,5146.5 C5635.2,5149 5631.1,5149.3 5628.8,5150.6 C5627.7,5151.2 5625.1,5154.5 5624.4,5155.5 C5623.7,5156.4 5623.3,5157.7 5622.6,5158.5 C5620,5160.1 5613.3,5159.5 5610.4,5158.9 C5604.9,5157.7 5607.6,5155.1 5600.8,5156.9 C5600.1,5157.1 5599.4,5157.2 5598.8,5157.5 C5597,5158.1 5595.6,5159.3 5594,5160.5 C5590.3,5163.4 5590,5163.9 5588.2,5168.9 C5587.7,5170.2 5587.4,5171.6 5586.5,5172.6 C5585.5,5173.6 5582.8,5173.3 5581.9,5172.2 C5580.7,5170.7 5579.9,5169 5578.8,5167.4 C5577.9,5166.1 5577.5,5164.2 5576.8,5162.8 C5573.9,5156.5 5567.1,5161.3 5571.5,5150.4 C5572,5149.3 5572.5,5147.6 5572.3,5146.4 C5572.2,5145.3 5570.9,5142.4 5569.7,5142.4 C5568.7,5142.7 5568.2,5145 5566.4,5145.3 L5566,5145.1 C5565.9,5144.8 5565.5,5144.3 5565.2,5144.2 C5564.9,5144.4 5564.5,5144.7 5564.3,5145 C5563,5147.2 5561.9,5149.5 5560.8,5151.8 C5558.1,5156.9 5557.4,5157.3 5559.9,5162.7 C5561.3,5165.8 5563.2,5167.2 5563.4,5170.7 C5562.8,5172.5 5561.3,5173.2 5560.1,5174.6 C5558.9,5176 5557.5,5177 5555.6,5177.5 C5551.6,5178.6 5551.4,5176.2 5550.1,5173.7 C5549.7,5173 5549,5172.1 5548.6,5171.4 C5548.1,5170.5 5547.7,5169.3 5547,5168.5 C5542.3,5170.3 5531.7,5168.3 5529.9,5169.3 C5528.1,5170.3 5527,5176.9 5523.5,5179 C5521.5,5179.3 5520.5,5178.7 5518.6,5177.9 C5518.3,5178.3 5516.1,5180.3 5515.7,5180.5 L5517.8,5182.7 C5516.3,5184.9 5515.5,5187.9 5514.9,5190.5 C5514.3,5193.2 5513.2,5196.2 5513.1,5198.9 C5512.9,5203.1 5514,5206.1 5513.4,5210.5 L5513.3,5211 C5514.6,5212.9 5516.3,5215.1 5517.3,5217.1 C5518.2,5218.8 5519.2,5220.6 5519.5,5222.6 C5520.1,5226.6 5517.8,5228.4 5519.6,5233.6 C5519.8,5234.2 5519.9,5235 5520.4,5235.5 C5521.8,5237 5523.8,5236.7 5525.2,5237.9 C5527.7,5240 5528,5241.2 5531.4,5243.4 C5533.6,5244.8 5538.6,5247.6 5540,5250 C5540.4,5250.7 5542.4,5254 5542.3,5254.9 C5542.1,5257.6 5540.1,5259.1 5539.2,5261.7 C5538.8,5262.8 5538.9,5264 5538.7,5265.1 C5538.6,5265.6 5538.2,5265.9 5538.2,5266.3 C5537.6,5269.3 5537.3,5272.6 5536.9,5275.7 C5536.9,5276 5536.5,5276.7 5536.3,5276.9 C5534.7,5278.1 5534.1,5279.5 5533.5,5279.8 C5533,5280.1 5529.7,5282.1 5529.1,5281.9 C5526.1,5281 5526.8,5280.8 5524,5281.8 C5524.3,5282 5524.6,5282.3 5524.8,5282.6 C5525.1,5283.1 5526.8,5285.6 5526.8,5286.2 C5526.8,5287 5525.8,5288.5 5525.3,5289.1 C5520.6,5294.2 5514.6,5292.7 5518.1,5300.4 C5518.5,5301.3 5518.2,5304.6 5518.1,5305.6 C5517.8,5309.5 5510.3,5308.6 5508.1,5308.7 C5505.3,5308.8 5502.3,5311.9 5500.3,5314 L5500.3,5314 C5500.6,5314.6 5500.9,5315.3 5501.4,5316 C5503.9,5317.3 5510.5,5320 5513.2,5320.5 C5515.2,5320.9 5517.3,5320.6 5519.3,5320.9 C5522,5321.4 5528.8,5325.7 5530.5,5322.7 L5530.8,5322.6 C5532.8,5326.5 5534.7,5324.1 5536.4,5324.5 C5537,5324.8 5536.9,5325.7 5537.7,5326 C5538,5326 5538.3,5326 5538.5,5325.9 C5538.9,5326.1 5539,5326.6 5539,5327 C5537.6,5327.5 5532.2,5325.4 5530.7,5324.8 L5530.6,5325.2 C5533,5327.8 5536.3,5327.6 5539.2,5329.1 C5540,5329.5 5540.7,5330.3 5541.5,5330.8 C5543.6,5332.2 5546.2,5333.4 5548.3,5334.5 C5548.9,5335 5549.5,5335.4 5550.1,5335.9 C5551.3,5336.7 5552.6,5337.7 5553.5,5338.8 L5553.8,5338.5 C5553.9,5338.1 5553.8,5337.5 5554,5337.2 L5554.3,5337.5 C5554.4,5338.3 5555.1,5339.2 5555.1,5339.9 C5554.7,5340.2 5554.3,5340.1 5553.9,5340.2 L5553.9,5340.6 C5555.1,5341.4 5556.6,5341.8 5557.7,5342.7 C5558.5,5345.6 5564.3,5345.8 5566.6,5346.2 C5567.4,5346.4 5568.3,5346.8 5569.1,5346.8 C5570,5346.8 5570.7,5345.7 5571.8,5345.8 C5574.2,5345.9 5576.7,5347.1 5579.1,5347.2 C5580.5,5347.2 5581.9,5346.8 5583.3,5346.9 C5585.7,5347 5588.9,5348.4 5591.9,5348.7 C5594.1,5348.9 5596.1,5348.6 5598.2,5348.7 C5599.5,5348.7 5604.8,5349.4 5606.1,5349.8 C5611.1,5351.1 5612.7,5352.2 5616.6,5355.4 C5617.5,5356.2 5618.4,5357.2 5619.4,5357.8 C5620.2,5358.2 5621,5358.2 5621.8,5358.4 C5622.8,5358.7 5624.4,5359.7 5625.4,5360.2 C5628.2,5361.7 5630.6,5363.9 5633.3,5365.4 C5635.4,5366.5 5639.3,5365.9 5641.8,5366.5 C5645.3,5367.4 5652.1,5371.4 5654.2,5371.7 C5655.3,5371.9 5656.3,5371.3 5657.5,5371.6 C5658.7,5371.9 5661.1,5372.9 5662.3,5372.6 C5663.4,5371.9 5663.6,5369.4 5665,5368.9 C5667,5368.2 5669,5370.8 5671.9,5369.3 C5673.1,5369.4 5674.3,5369.9 5675.6,5370 C5677.2,5370.2 5683.8,5368.9 5685.3,5368.1 C5687.1,5367.2 5690.6,5364.1 5692,5363.9 L5692.4,5363 C5693,5363 5693.7,5363.4 5694.4,5363.2 C5697.5,5362.1 5700.1,5358.8 5703.1,5357.7 C5703.9,5357.4 5704.8,5357.5 5705.6,5357.2 C5707.1,5356.6 5708.3,5355.6 5709.8,5355 C5711.7,5354.3 5714.2,5354.3 5716.4,5353.5 C5717.4,5353.1 5717.1,5351.9 5719.1,5351.2 C5721.4,5350.4 5723.9,5350.3 5726.1,5349.5 C5727.1,5349.1 5727.9,5348.4 5728.9,5348.1 C5731.2,5347.3 5733.8,5346.6 5736.1,5346 C5738.4,5345.4 5740.9,5345.2 5743.6,5344.3 C5745.2,5343.7 5746.1,5342.8 5747.5,5341.6 L5747.8,5341.3 C5747.8,5340.8 5747.3,5340.3 5747.4,5339.7 C5747.5,5336.7 5751.5,5336.4 5753.4,5335.2 L5756.4,5333.3 C5756.4,5332.6 5756.2,5332.1 5756.4,5331.4 L5756.7,5331.1 C5757.1,5331 5758.1,5331 5758.4,5330.8 C5758.8,5328.2 5763.4,5329.3 5764.9,5328.4 C5765.2,5327.8 5764.8,5326.9 5764.6,5326.4 C5765,5326.1 5765.4,5325.6 5765.7,5325.2 L5766.1,5325.2 C5766.5,5325.6 5767.2,5326.2 5767.8,5326.5 C5768.3,5326.9 5768.8,5327 5769.4,5326.9 C5770.2,5326.8 5771,5326.3 5771.8,5326.1 C5773.7,5325.8 5775.5,5325.9 5777.3,5325.8 C5778.7,5325.7 5780.2,5324.7 5781.6,5324.3 C5781.7,5324.3 5787.5,5324.1 5788,5324.2 C5790.6,5324.3 5792.8,5326.5 5794.9,5326 L5795,5325.6 C5794.6,5325 5794.8,5324.4 5794,5323.8 C5793.1,5323.1 5785.1,5322.9 5783.4,5322.9 C5782.7,5322.9 5782.2,5322.4 5781.5,5322.3 L5781.3,5322.1 C5782.5,5322.2 5790.1,5321.6 5789.7,5319.6 C5789.6,5319.1 5789.2,5318.7 5788.8,5318.4 L5788.3,5318.5 L5788,5318.8 C5788.5,5320.9 5785.9,5321.5 5784.4,5321 C5782.4,5321.8 5773,5320.9 5771.1,5319.9 C5770.9,5319.7 5770.8,5319.5 5770.7,5319.2 C5771.1,5317.5 5772.7,5317.8 5773.8,5316.8 L5773.9,5316.5 C5773.7,5316.1 5773.5,5315.7 5773.5,5315.3 C5774.8,5315.1 5776.4,5315.7 5777.5,5315.5 C5779.4,5315.2 5781.2,5309.4 5782.4,5308 C5783.5,5307.6 5786.5,5307.4 5786.5,5306.3 C5786.8,5306.3 5788.4,5306.9 5788.7,5307.1 L5788.9,5307.9 C5790.2,5309.5 5792.1,5308.2 5790.6,5311.4 C5790.6,5312.4 5793.2,5313.7 5793.5,5314.8 C5793.4,5315.3 5793.2,5315.7 5793,5316.2 C5791.3,5317 5790,5317.4 5791.1,5319.5 C5791.4,5320.1 5791.3,5320.4 5792.1,5320.8 L5792.6,5320.8 C5793.5,5319.9 5793.8,5318.4 5794.8,5317.7 C5795.7,5317 5796.7,5317.7 5797.8,5316.5 L5797.9,5316 L5797.6,5315.2 L5797.8,5314.9 C5798.7,5314.4 5799.8,5314.8 5800.6,5314.1 C5801,5313.3 5800.9,5312.7 5801.6,5312 C5802.4,5311.8 5803,5312.3 5803.5,5312.9 C5805,5313.3 5805.8,5313.3 5807.1,5314.2 C5807.3,5315.1 5808.6,5315 5808.5,5316.1 C5808.4,5317.8 5807.7,5318.1 5806.8,5319.1 C5806,5320 5805.3,5321.1 5804.3,5321.7 C5802.6,5322.8 5796.8,5323.3 5796.7,5325.2 C5797.3,5327.4 5803.3,5325.9 5805,5325.9 C5806.4,5325.9 5807.6,5326.5 5809,5326.7 C5811.6,5327 5814.3,5326.3 5816.9,5326.7 C5819.3,5327.1 5822,5327.8 5824.2,5328.8 C5825.9,5329.6 5827.6,5330.8 5829.4,5331.4 C5830.4,5331.7 5831.7,5331.7 5832.6,5332.1 C5833.5,5332.5 5834.1,5333.3 5835,5333.7 C5837.3,5334.7 5839.6,5335.3 5841.9,5336.3 C5842.3,5336.5 5842.6,5336.7 5842.9,5336.9 L5843,5336.6 L5844.2,5333.7 C5842.4,5333.4 5840.6,5333.3 5839.2,5332.5 L5839.1,5332.3 C5839.4,5332.3 5839.7,5332.2 5840,5332.1 L5840.1,5331.7 C5839.8,5331 5836.1,5328.7 5835.3,5328.6 C5834.3,5328.5 5834.5,5329.3 5832.6,5328.8 C5830.2,5328.2 5829.6,5326.6 5826.8,5327.7 C5827.8,5329.3 5831.9,5329.2 5832.7,5330.7 L5832.7,5331.1 L5832.3,5331.2 C5829.9,5330.8 5820.5,5326.4 5819.7,5324.1 L5819.8,5323.8 C5820.1,5323.5 5820.9,5323.6 5821.3,5323.7 L5821.6,5323.4 L5821.5,5322.9 C5821,5322.4 5820.3,5322.6 5819.8,5322.4 L5819.5,5322.1 L5819.7,5321.7 C5820.2,5321.3 5820.8,5321.8 5821.2,5322.1 C5821.4,5321.8 5821.6,5320.6 5821.6,5320.2 L5821.4,5319.8 L5820.7,5319.4 L5820.7,5318.9 C5822.1,5316.8 5823,5317.6 5825.1,5317.6 L5825.4,5317.9 C5825.3,5320.1 5827.8,5320.5 5828.8,5321.3 C5829.6,5322 5829.5,5323.1 5830.4,5323.7 C5832,5324.7 5833.4,5324.2 5834.9,5324.7 C5835.7,5325 5836.9,5325.9 5837.7,5325.9 C5839,5325.9 5840.5,5323.5 5843,5323.4 C5843.2,5323.7 5843.4,5324.2 5843.8,5324.3 C5844.1,5325 5844.1,5325.8 5844.4,5326.6 C5844.9,5327.9 5845.5,5328.8 5846.3,5329.6 L5846.3,5329.5 L5848.2,5326.3 C5848.5,5325.8 5849.2,5324.4 5849.2,5323.9 C5849.8,5318.3 5850.7,5319.4 5848.7,5313.9 C5847.2,5309.7 5847.9,5309 5847.1,5305.8 C5846.2,5302.6 5840,5302.3 5845.1,5294.5 C5848.2,5289.7 5850.3,5289 5850.3,5282.6 C5850.3,5279.7 5849.7,5276.7 5849.7,5273.7 C5853,5271.2 5856.5,5269.1 5859.9,5266.8 C5860.3,5263.2 5860.1,5259.3 5860.2,5255.6 C5861.2,5255.1 5862.1,5255.1 5863.1,5255.7 C5862.6,5253.8 5863,5245.4 5862.2,5244 L5862.2,5244 Z" id="svg--id--Oaxaca--OA_1_"></path>
            </g>
        </g>
    </g>
</svg>