<?xml version="1.0" encoding="UTF-8" standalone="no"?>
<svg width="123px" height="145px" viewBox="0 0 123 145" version="1.1" xmlns="http://www.w3.org/2000/svg" xmlns:xlink="http://www.w3.org/1999/xlink" xmlns:sketch="http://www.bohemiancoding.com/sketch/ns">
    <!-- Generator: Sketch 3.4.4 (17249) - http://www.bohemiancoding.com/sketch -->
    <title>svg--id--Querétaro--QE_1_</title>
    <desc>Created with Sketch.</desc>
    <defs></defs>
    <g id="Page-1" stroke="none" stroke-width="1" fill="none" fill-rule="evenodd" sketch:type="MSPage">
        <g id="mexico-no-stroke" sketch:type="MSLayerGroup" transform="translate(-5342.000000, -4861.000000)" fill="#F2F2F2">
            <g id="Layer_2" sketch:type="MSShapeGroup">
                <path d="M5351.2,4950 C5353,4952.3 5354.5,4966.6 5354.6,4970 L5359.3,4973.6 L5358,4977 C5358.6,4977.5 5359.5,4977.6 5360.1,4978 C5361.4,4978.8 5366.6,4983 5367.6,4984.3 L5367.6,4984.3 L5368.2,4984.5 C5369.4,4985.9 5370.8,4987.2 5371.8,4988.6 C5372.9,4990 5373.6,4991.8 5374.6,4993.2 C5376.1,4995.4 5380.2,5003.3 5380.1,5005.9 C5380.2,5005.8 5380.2,5006 5380.2,5006 L5380.2,5006 C5381.1,5004.4 5381.8,5002.7 5382.9,5001.2 C5383.5,5000.4 5384.2,4999.9 5384.8,4999.2 C5385.7,4998.1 5386.3,4996.8 5387.3,4995.8 C5390.4,4992.4 5390.9,4993.2 5393.2,4988.2 C5395.1,4984.1 5391,4980.8 5394.1,4980 C5396.7,4979.3 5399.8,4978.1 5402.5,4978.4 C5403.1,4971.5 5403.5,4964.7 5403.2,4957.8 C5411.9,4953.9 5420.1,4949.2 5428.7,4945.2 C5427.1,4944 5426,4940.5 5426.6,4938.6 C5427.7,4935.3 5428.3,4932.2 5429.5,4928.9 C5430.5,4928.2 5433.3,4928.4 5433.9,4927.2 C5434.7,4925.6 5436.2,4924.2 5436.7,4922.6 C5437.1,4921.2 5436.5,4919.7 5436.9,4918.7 C5437.7,4916.6 5439.3,4914.7 5439.8,4912.5 C5439.5,4911 5436.2,4909.9 5437.6,4908 C5438.3,4908.1 5441.3,4907.9 5442,4907.7 C5442.2,4907.6 5443.8,4904 5443.8,4903.7 C5446.7,4905.8 5449.7,4908.6 5453.1,4905.3 C5453.7,4904.7 5454.1,4903.9 5454.8,4903.5 C5456.7,4902.4 5457.5,4903.3 5459.3,4902.7 C5460,4902.5 5460.7,4901.2 5461.4,4900.8 L5461.9,4901 C5462,4901.5 5461.8,4902 5462,4902.5 L5462.6,4903.1 C5463,4903.2 5463.4,4903.1 5463.8,4903 L5463.3,4902.7 C5463.8,4899.9 5462.2,4896.4 5463.2,4893.6 L5463.2,4893.5 C5463.4,4892.9 5464.2,4892.3 5465.3,4891.9 C5464.1,4892.4 5463.2,4893 5463.1,4893.7 L5463.1,4893.7 L5462.9,4893.4 C5462,4892.8 5460.9,4892.5 5460,4892 L5459.6,4892.1 C5459.8,4889.7 5459.8,4890 5459.1,4888 C5456.4,4879.4 5453,4870.6 5450.9,4861.8 C5450.4,4861.6 5449.8,4861.9 5449.3,4862 C5444,4863.3 5445.5,4866.4 5443.7,4868.3 C5442.1,4870 5439.3,4867.6 5437.9,4869.2 C5436.2,4871.2 5437,4876.5 5434.4,4877.3 C5433.6,4877.6 5432.6,4877.6 5431.8,4877.9 C5430.1,4878.6 5428.2,4879.2 5426.4,4879.5 L5421.4,4880.4 L5417.9,4874.8 C5416.4,4872.4 5414.2,4866.9 5410.5,4870.3 C5409.4,4871.3 5408.2,4872.5 5407.7,4874 C5407,4876.1 5406.3,4878.8 5405.1,4880.8 L5405.1,4880.8 L5405.1,4880.8 L5405.1,4880.8 L5405.1,4881 C5406,4887.2 5403.9,4891.1 5410.2,4894.9 L5410.4,4895.3 C5410.3,4897.3 5405.2,4899.8 5403.5,4901.1 C5403.2,4901.4 5403,4901.6 5402.5,4901.8 C5401.8,4902 5394.9,4900.3 5393.8,4900 C5391.4,4899.2 5390.5,4899.1 5388.7,4900.8 C5388.2,4901.3 5387.8,4901.3 5387.6,4902.1 C5387.3,4904.3 5387.4,4907.9 5386,4909.7 C5385.3,4910.5 5382.7,4911.9 5382.5,4912.5 C5381.9,4914.6 5382.4,4924.7 5379.5,4925.3 C5378.8,4925.4 5377.7,4925.2 5377,4925.1 C5374.2,4924.7 5373,4924.2 5370.5,4922.7 C5367.8,4921.1 5366.1,4924.8 5364.6,4924.6 C5359.8,4924.2 5359.5,4921.4 5358.4,4921.2 C5357.4,4921 5353.3,4922.2 5352.6,4923 C5350.9,4925.1 5351,4925.1 5350,4927.7 C5348,4933 5344.1,4937.6 5342.2,4942.9 L5342.4,4943.8 C5345.2,4946.4 5347.7,4945.3 5351.2,4950 L5351.2,4950 Z" id="svg--id--Querétaro--QE_1_"></path>
            </g>
        </g>
    </g>
</svg>