<?xml version="1.0" encoding="UTF-8" standalone="no"?>
<svg width="438px" height="437px" viewBox="0 0 438 437" version="1.1" xmlns="http://www.w3.org/2000/svg" xmlns:xlink="http://www.w3.org/1999/xlink" xmlns:sketch="http://www.bohemiancoding.com/sketch/ns">
    <!-- Generator: Sketch 3.4.4 (17249) - http://www.bohemiancoding.com/sketch -->
    <title>svg--id--Baja-California-Sur--BS_1_</title>
    <desc>Created with Sketch.</desc>
    <defs></defs>
    <g id="Page-1" stroke="none" stroke-width="1" fill="none" fill-rule="evenodd" sketch:type="MSPage">
        <g id="mexico-no-stroke" sketch:type="MSLayerGroup" transform="translate(-4225.000000, -4322.000000)" fill="#F2F2F2">
            <g id="Layer_2" sketch:type="MSShapeGroup">
                <path d="M4662.1,4708.6 C4661.8,4706.1 4658.1,4703.1 4657,4701.1 C4656.5,4700.3 4657.1,4699.3 4656.4,4698.3 C4656,4698 4655.5,4697.8 4655,4697.9 C4651.8,4694.2 4641.6,4693.2 4640.3,4691.1 C4639.2,4689.3 4639.2,4686.3 4638.9,4684.4 C4638.9,4683 4639.7,4681.2 4639.6,4679.8 C4639.4,4677.7 4633.2,4674 4631.9,4671.8 C4631.5,4671.6 4631,4671.4 4630.6,4671.3 C4629.5,4667.9 4629.1,4668.1 4630.7,4664.6 C4631,4663.9 4630.3,4663.2 4632,4660.4 C4631.9,4659.6 4631.1,4659.2 4630.4,4659.1 C4630.3,4658.8 4630.3,4658.4 4630.3,4658.1 C4630.1,4657.8 4629.8,4657.4 4629.3,4657.4 C4627,4658.6 4624.9,4659.9 4622.2,4660.3 C4621.1,4659.9 4620.5,4658.9 4619.2,4658.5 C4617.7,4656.9 4618.4,4651.8 4615.8,4648.3 C4613.7,4645.5 4610.1,4645.6 4608,4643.6 C4607.7,4643.3 4607.6,4642.9 4607.3,4642.6 C4606.6,4641.9 4605.6,4641.5 4605,4640.8 C4604.2,4639.8 4604.1,4638.4 4603.3,4637.4 C4602.9,4636.8 4602.2,4636.6 4601.7,4636 C4600.5,4634.4 4600,4631.1 4597.2,4632.3 C4596.5,4632.2 4594.1,4633 4593.4,4633.2 L4592.9,4633.9 C4593.1,4634.3 4593.2,4634.8 4593.2,4635.3 L4592.7,4635.4 L4592.5,4635.7 C4592,4639.3 4596.6,4641.7 4595.3,4646.2 C4595.1,4647 4594.5,4647 4594.2,4647.4 C4593.6,4648.1 4592.4,4648.3 4591.8,4649.1 C4591.3,4649.8 4591.7,4650.9 4591.2,4651.5 C4591,4651.7 4590.1,4651.8 4589.8,4651.9 C4586.7,4653 4586.7,4651.5 4586,4649.1 C4585.8,4648.5 4585.3,4647.4 4585.3,4646.8 C4585.8,4645.7 4588.4,4646.6 4589,4647.2 C4589.3,4647.6 4589.6,4648.2 4589.9,4648.6 C4590.9,4647.8 4591,4646.7 4592.6,4646.8 L4592.9,4646.6 L4592.7,4646.2 C4592.4,4645.8 4591.8,4645.8 4591.4,4645.7 C4589.6,4645.5 4578.9,4644.2 4577.9,4643.8 C4575.3,4642.7 4573.9,4639.9 4571.6,4638.5 C4570,4637.5 4569.7,4638.5 4568.8,4638.1 L4568.5,4637.8 C4568.5,4637.5 4568.4,4637.2 4568.3,4636.9 C4568.1,4636.7 4567.7,4636.6 4567.4,4636.6 L4567,4636.3 C4567,4636.1 4563.7,4631.3 4563.3,4630.5 C4561.8,4628 4562.9,4625.7 4562.4,4623.1 C4562.3,4622.6 4560.6,4617.5 4560.3,4617.2 C4559.8,4616.5 4559.6,4616.7 4559.5,4615.7 C4559.3,4614 4559.5,4612.4 4559.5,4610.7 C4559.5,4600.8 4563,4602.9 4564.5,4594.5 C4564.9,4592.2 4563.7,4590.9 4563.3,4588.9 C4563.1,4587.7 4563.4,4586.1 4562.7,4585 C4562,4583.8 4561.2,4583.3 4560.7,4581.6 C4560.5,4580.2 4558.9,4580 4558.5,4579.3 C4557.9,4578.4 4559.2,4577 4558.4,4575.6 C4556.6,4572.5 4554.1,4573.3 4552.1,4571.8 C4551.7,4571.5 4551.6,4570.8 4551.2,4570.4 C4550.9,4570 4550.4,4570.1 4550,4569.8 C4549.2,4569.2 4549.1,4568 4548.6,4567.2 C4548.2,4566.6 4545.8,4562.9 4545.7,4562.6 C4545.4,4561.7 4546.2,4560.6 4545.5,4559.5 C4544.8,4558.4 4543.2,4556.9 4542.8,4555.7 C4542.6,4555.1 4543.5,4552.3 4543,4551.1 C4542.6,4550.1 4541.4,4549.1 4540.7,4548.1 C4540,4547.1 4537.2,4541.8 4537.1,4540.7 C4537,4538.7 4538.7,4533.2 4536.8,4532 C4536.2,4531.8 4535.6,4532.4 4535,4532.3 L4534.7,4532.1 C4534.8,4531.8 4534.9,4531.5 4534.9,4531.1 L4534.6,4530.8 C4533.8,4530.7 4533.6,4531.2 4533,4531.4 C4532.5,4531.5 4532,4531.3 4531.5,4531.2 C4528.7,4530.6 4529.2,4530.7 4527.6,4528.5 C4527.2,4528.4 4526.5,4528.4 4526.2,4528.1 C4524.9,4527.3 4521.5,4518.1 4521.3,4516.3 L4521,4516 C4519.4,4516.5 4518.6,4513.7 4517.8,4512.9 C4517.1,4512.2 4516.3,4511.7 4515.8,4510.8 C4516,4509.9 4516.5,4506.7 4516.3,4506 L4515.8,4505.9 C4515.4,4506.2 4514.7,4506.1 4514.3,4506.1 C4513.4,4504.3 4513.6,4502.8 4513.2,4500.9 C4513,4499.8 4511,4496.5 4511,4495.7 C4511,4494.6 4512.3,4493.6 4512.8,4492.7 C4513.1,4492.1 4512.3,4490.5 4512.6,4489.4 C4513.1,4487.1 4514.9,4485.8 4514.2,4483.1 C4513.9,4482 4512.1,4481.5 4511.6,4479.9 C4511.1,4478.3 4511,4476.2 4509.4,4475.2 C4509.2,4474 4507.8,4470.7 4508,4470 C4507.9,4469.3 4507.7,4468.4 4507.4,4467.8 L4507.6,4467.4 C4508.1,4467.2 4508.7,4467.1 4509.1,4466.5 C4508.9,4465.2 4508.5,4462.8 4507.4,4461.9 C4506.9,4461.8 4506.3,4462.1 4505.9,4461.8 C4505.5,4461.4 4505.1,4461 4504.8,4460.5 C4504.9,4460.3 4505.1,4460 4505.4,4459.9 L4505.1,4459.1 C4504.5,4458.7 4503.6,4458.6 4503,4458.2 C4500.1,4456.1 4504,4450.8 4505,4448.9 L4505,4448.6 C4504.5,4448.1 4503.8,4447.7 4503.4,4447.2 C4500.5,4448 4500.8,4447.2 4498.6,4445.9 C4497.9,4445.5 4497,4445.7 4496.5,4445 C4494.9,4443.2 4496.5,4431.8 4495.8,4430.7 C4495.4,4430 4490.8,4428.5 4489.7,4427.8 C4488.5,4427.1 4488,4424.6 4486.8,4423.7 C4486,4423.6 4485.2,4423.4 4484.4,4423 C4483.2,4422.3 4482.4,4420.6 4481.2,4419.6 C4480.2,4418.8 4478.8,4418.4 4477.8,4417.6 C4477.4,4417.2 4476.8,4416.4 4476.3,4416.1 C4475.6,4415.8 4474.7,4415.6 4474,4415.4 L4473.6,4415.5 C4473.2,4416.5 4472.9,4416.8 4472,4417.4 C4472,4417.8 4472.1,4418.3 4472.2,4418.7 C4472.7,4421.1 4474,4423.6 4474.7,4426.5 C4474.8,4426.9 4474.8,4427.3 4474.9,4427.6 C4475.1,4428 4477.4,4432.6 4477.4,4432.6 C4478,4433.1 4478.9,4433.1 4479.6,4433.4 C4480.2,4433.7 4480.4,4434.6 4480.9,4435 C4481.7,4435.7 4483,4435.9 4483.6,4436.5 C4484.1,4438.2 4486.1,4439.8 4486.3,4440.8 C4486.1,4442.4 4484,4443.9 4482.8,4445 C4480,4445.9 4477.9,4439.5 4476.6,4438 C4475.8,4437.1 4474,4436.2 4472.9,4435.8 C4472.4,4434.9 4471.7,4432.3 4471.2,4431.7 C4470.7,4431.1 4469.9,4431 4469.4,4430.6 C4469,4430.2 4468.8,4429.6 4468.4,4429.3 C4468.2,4428.2 4468.7,4427.6 4469.3,4426.7 L4469.8,4426.7 L4470.1,4426.4 C4469.9,4424.3 4470.9,4421.9 4469.4,4420 C4468.8,4419.2 4467.9,4418.7 4467.3,4418 L4467.2,4416.9 C4466.9,4416.3 4466,4416.5 4465.5,4416.2 C4464.7,4415.8 4464.5,4414.8 4464.2,4414 L4464.6,4413.9 L4464.7,4413.6 C4463.7,4413.1 4462.2,4410.7 4461.4,4409.8 C4461.2,4409.5 4459.6,4407.1 4459.6,4407 C4459.3,4405.6 4461.4,4402.5 4462.6,4401.7 C4463.7,4401 4465.2,4401.4 4466,4400.5 L4466,4400 C4465.7,4399.5 4465.4,4398.9 4465.4,4398.4 C4462.9,4399 4462.1,4397 4460.2,4396.7 C4459.3,4396.6 4457.2,4396.7 4456.5,4396.1 L4456.6,4395.6 L4456.3,4395.4 L4455.9,4395.5 L4455.7,4395.8 C4455.4,4395.8 4455,4395.8 4454.7,4395.7 C4453.5,4394.6 4451.9,4393.5 4450.5,4392.7 L4450,4392.8 L4449.8,4393.1 C4447.7,4391.8 4443.3,4390.4 4444.2,4387.3 L4444.5,4387 C4444.8,4386.9 4445.2,4387 4445.5,4387.2 L4445.7,4387.5 C4445.7,4387.8 4445.7,4388.2 4445.9,4388.4 L4446.3,4388.2 C4447.4,4386 4442.5,4383.3 4442.1,4381.1 C4441.3,4379 4440.1,4379.4 4439.4,4378 C4439,4377.3 4439.4,4376.2 4439.1,4375.5 C4438.9,4375 4438.4,4374.6 4438.3,4374 C4438.1,4373.1 4438.5,4372.2 4438.5,4371.3 C4438.5,4370.3 4438.2,4369.4 4438,4368.4 C4437.6,4365.3 4437.6,4363.7 4435.3,4361.3 C4435.2,4361.1 4429.9,4359.5 4428.9,4358.8 C4428.1,4358.3 4427.7,4357.5 4427.1,4356.9 C4426.2,4356.1 4424.9,4355.9 4424.1,4355.1 C4423.7,4354.8 4423.4,4354 4423,4353.8 C4422.5,4353.8 4422,4353.9 4421.7,4354.3 C4420.3,4353.9 4419.2,4353.4 4417.7,4353.6 C4417.2,4353.1 4417.6,4351.8 4416.7,4351.2 C4416.5,4351.2 4416.2,4351.1 4416,4351.2 C4415.8,4350 4414.6,4346.7 4413.2,4346.4 C4412.7,4346.4 4412.3,4346.7 4411.9,4346.9 C4407.8,4346.3 4408.9,4340.9 4407.4,4338.6 C4406.8,4337.6 4404.8,4336.9 4403.8,4336.3 C4403.4,4335.3 4404.5,4333.2 4405.1,4332.4 C4405.3,4331.5 4404.5,4330.7 4404.5,4329.8 C4405.7,4327.5 4404.8,4325.9 4405.3,4323.6 C4405.4,4323.3 4405.5,4323.1 4405.6,4322.9 L4405.6,4322.9 C4369.9,4322.9 4331.1,4322.6 4295.1,4322.8 L4295.1,4322.8 C4295,4323.4 4294.9,4324.1 4294.9,4325 C4294.7,4324.3 4294.7,4323.5 4294.8,4322.8 C4294.8,4322.8 4294.8,4322.8 4294.8,4322.7 L4291,4322.7 L4290.9,4322.7 C4290.3,4323.4 4289.7,4324.1 4289,4324.5 C4287.7,4325.3 4285.9,4325.5 4285,4327 C4283.7,4329.2 4285.1,4330.8 4284.8,4331.6 C4283.9,4332 4283.2,4332 4283.3,4333.2 C4283.6,4336.2 4286.9,4334.5 4289,4336.3 C4289.4,4336.7 4289.9,4337.8 4290.2,4338.4 C4291.5,4340.4 4291.1,4340 4289.8,4341.4 C4289.9,4342.1 4290.6,4342.5 4291,4343 C4293.5,4343.6 4293.9,4346.1 4295.4,4346.3 C4296.3,4345.9 4297.2,4345.8 4298,4345.4 C4298.2,4345.3 4298.4,4345.1 4298.6,4345 C4299.5,4344.2 4300.2,4343.9 4301.3,4343.4 C4301.4,4343.2 4301.5,4342.9 4301.7,4342.8 C4302.4,4343.3 4303.8,4343 4304.5,4342.7 C4304.6,4342.4 4304.6,4342 4304.6,4341.7 C4306.3,4342 4306.1,4343.5 4307.1,4344 C4308.4,4343.9 4309.1,4344.6 4309.7,4345.6 C4309.7,4346.7 4308.5,4347.9 4307.5,4347.9 C4307.3,4348.1 4307.3,4348.5 4307.3,4348.8 C4307,4348.8 4306.6,4348.8 4306.2,4348.7 C4306,4348.4 4305.1,4347.1 4305.1,4346.9 C4304.7,4346.5 4303.7,4346.4 4303.1,4346.4 C4301.3,4346.4 4299,4346.3 4297.4,4347.1 C4296.8,4347.4 4296.3,4348 4295.6,4348.3 C4293.8,4348.9 4290.3,4346.5 4288.7,4345.8 C4287.8,4345.4 4286.7,4345.4 4285.9,4345 C4278.5,4341.3 4282.6,4334.7 4281.3,4332.8 L4280.9,4332.8 L4280.6,4332.6 L4280.1,4332.6 C4279.3,4333.2 4278.4,4333.6 4277.7,4334.3 C4275.2,4337.1 4273.1,4340.6 4269.2,4341.7 C4266.9,4342.4 4265,4341.1 4262.8,4341.3 C4261.9,4341.3 4260.9,4342.1 4260.1,4342.1 C4259.5,4342.1 4258.9,4341.6 4258.4,4341.4 C4257.1,4341 4255.5,4341.1 4254.2,4340.5 C4253.3,4340.1 4250.4,4337.8 4250,4337.7 C4248.5,4337.4 4246.7,4338.5 4244.8,4338.1 C4243.1,4337.7 4242,4336.3 4241.3,4336.2 L4240.7,4336.2 C4239.4,4336.2 4238.8,4336 4237.6,4335.8 C4236,4335.6 4233.1,4337.3 4230.3,4336.6 C4228.4,4336.1 4228,4332.7 4225.8,4334.5 C4225.5,4335.1 4225.7,4336 4225.6,4336.7 L4227.6,4338.8 C4227.6,4340.5 4228.6,4342.2 4228.8,4343.9 C4228.9,4344.3 4228.9,4344.9 4229.1,4345.3 C4229.4,4345.7 4230,4346.1 4230.4,4346.3 L4230.8,4346.2 C4231,4345.8 4231.4,4345.6 4231.9,4345.6 C4232.2,4345.9 4232.5,4346.2 4232.9,4346.3 C4233.1,4346.1 4233.3,4345.9 4233.6,4345.8 C4234.8,4345.9 4235.2,4348.4 4236.3,4349 C4236.8,4349.5 4236.8,4350.5 4238,4350.1 L4238.3,4349.8 C4238.5,4349.2 4238.7,4348.7 4239,4348.1 L4239.4,4347.9 C4240.9,4347.9 4242.3,4349.9 4242.5,4351.2 C4242,4351.6 4241.4,4351.6 4240.8,4351.8 C4241.5,4353.3 4243.9,4352.6 4245.9,4354.2 C4248.3,4356.1 4248.4,4359.9 4251.1,4362 C4252.3,4362.9 4254.6,4363.1 4256,4363.7 C4256.6,4364 4257.1,4364.7 4257.8,4364.8 C4258.7,4365 4259.8,4365.1 4260.7,4365.6 C4262,4366.3 4262.3,4367.9 4263.3,4368.8 C4264.5,4369.8 4266.4,4369.8 4268,4371.8 C4268.6,4372.5 4268.6,4373.4 4269,4374.2 C4270.9,4377.7 4270.4,4379.1 4270.5,4382.9 C4270.5,4384.1 4271.1,4384.4 4270.6,4385.9 C4270.7,4386.3 4271,4387.2 4271.4,4387.4 C4272.3,4387.5 4273.4,4386.6 4274.2,4387.2 C4274.3,4387.3 4274.4,4387.5 4274.5,4387.7 C4275.3,4389.8 4274.8,4389 4276,4391.2 C4276.3,4391.4 4276.6,4391.5 4276.9,4391.5 C4277.4,4391.5 4277.7,4391.1 4278,4390.8 L4278.5,4390.8 C4279.8,4391.7 4284.6,4394.5 4286.1,4394.6 L4286.5,4394.4 C4287.4,4391.4 4291.9,4393.3 4293.8,4393.9 C4295.4,4394.4 4300.6,4397.9 4301.6,4399.2 C4302.9,4400.9 4303,4403.7 4304.4,4405.1 C4305,4405.8 4306.1,4406.2 4306.8,4406.9 C4307.6,4407.7 4307.4,4408.6 4309,4408.6 C4309.4,4408.6 4309.8,4408.6 4310.1,4408.4 C4310.9,4406.2 4314.1,4406.5 4315.9,4407 C4317.1,4407.3 4318.4,4407.8 4319.5,4408.3 C4321.1,4409 4326.3,4415 4327.1,4416.6 C4327.9,4418.1 4328,4420.1 4329,4421.6 C4329.7,4422.8 4331.6,4422.8 4332.6,4423.4 C4334.1,4424.3 4337.3,4428.9 4338.9,4429.3 C4339.8,4429.5 4340.8,4429 4341.7,4428.8 C4342.5,4428.6 4343.1,4428.9 4343.9,4428.5 L4344.1,4428.1 C4344,4427.7 4343.6,4427.4 4343.5,4427 L4343.7,4426.6 C4344.3,4426.4 4344.8,4425.7 4345.4,4425.4 C4345.7,4424.4 4347.3,4422.6 4348.4,4422.5 L4348.6,4422.2 L4347,4422 L4346.9,4421.7 C4348.3,4420.6 4352,4419.2 4353.1,4421.5 L4353,4422 C4351.8,4422.4 4350.6,4421.9 4349.6,4422.2 C4352.6,4422.4 4361.8,4426.2 4363.5,4428.7 C4363,4429.1 4364.7,4429.1 4365,4428.6 C4365,4427.7 4364.7,4424.9 4365.2,4424.3 C4365.8,4423.5 4367.7,4423.8 4368.3,4422.1 L4368.1,4421.8 C4367.1,4421.9 4366.6,4422.5 4365.7,4422.9 L4365.4,4422.8 L4365.4,4422.5 C4367.1,4419.9 4367.3,4422 4368.7,4419 C4368.9,4418.5 4369.5,4418.3 4369.7,4417.7 C4370.6,4415.3 4369.2,4412.4 4370.2,4409.6 L4370.5,4409.3 C4370.8,4409.3 4373.7,4410.4 4374.1,4410.5 C4374.5,4415.9 4375.2,4416.4 4371.4,4420.4 C4370.4,4421.5 4369.5,4422.8 4368.5,4424 C4367.8,4424.7 4366.6,4424.8 4366.1,4425.7 C4366,4427.4 4366.5,4428.5 4366.8,4430.1 L4366.2,4430.7 L4366.1,4431.2 C4366.9,4433.2 4373.3,4433.3 4375,4434.9 C4376.9,4435 4376.5,4433.7 4377.4,4433.4 L4377.8,4433.5 L4378,4433.8 C4378,4434.1 4377.9,4434.5 4377.8,4434.8 C4377.2,4435.2 4376.3,4435.8 4375.9,4436.4 C4375.8,4436.6 4375.9,4437 4376,4437.2 C4377.9,4438.4 4380.1,4439.4 4381.6,4441.1 C4382.5,4442.1 4383.2,4443.2 4384.2,4444.2 C4384.5,4444.5 4385.2,4445.2 4385.6,4445.4 C4386.3,4445.7 4387.6,4445.2 4388.3,4445.6 C4388.4,4445.9 4388.5,4446.2 4388.5,4446.4 C4388.8,4446.7 4391.2,4446.9 4392,4447.3 C4393.8,4448.2 4397.7,4455 4399.6,4455 C4400.2,4454.8 4401.1,4454.1 4401.7,4454.9 L4401.9,4455.3 C4401.7,4455.7 4401.3,4455.9 4401,4456.1 L4400.9,4456.4 C4400.9,4457.4 4402.5,4457.6 4403.1,4458.1 C4405.1,4459.6 4406.8,4461.2 4408.6,4463.1 C4408.9,4463.4 4409.1,4463.8 4409.5,4463.9 C4410.6,4464.3 4411.8,4463 4413.2,4463.2 C4417.5,4466.9 4418.1,4463.5 4419.9,4464.1 L4420.2,4464.4 C4420.1,4465.1 4419.8,4466 4419.6,4466.6 C4420.2,4466.9 4421,4467 4421.7,4467.3 C4422.5,4467.7 4424.8,4470 4425.7,4469 C4427.5,4463.2 4433,4470.4 4433.8,4473.1 C4434.1,4474.1 4433.9,4475.2 4434,4476.2 C4435.5,4479 4434,4481.7 4435.1,4484.6 L4435.4,4484.8 C4436.8,4485.1 4436.6,4484 4437.6,4483.6 C4437.7,4487.5 4441.3,4486.7 4442.5,4488.2 C4446.6,4493.4 4448,4499.5 4450.3,4505.6 C4451,4507.3 4452,4509.1 4452.8,4510.8 C4453.3,4511.7 4453.5,4513.4 4453.7,4514.4 C4453.8,4515 4453.7,4515.8 4453.7,4516.5 C4453.7,4517.6 4453.2,4518.7 4453.1,4519.8 C4453,4523.1 4453.2,4526.4 4453.1,4529.7 C4453.1,4530.5 4452.6,4531.3 4452.7,4532.1 L4452.9,4532.4 C4453.1,4532.6 4453.5,4532.7 4453.8,4532.7 C4455.7,4528.8 4454.3,4526.2 4454.3,4522.3 C4454.3,4520.1 4454.6,4518.1 4455,4516 L4455.4,4515.7 L4455.7,4516 C4455.8,4517.1 4456.1,4518.5 4456,4519.6 C4455.9,4520.5 4455.5,4521.3 4455.6,4522.2 C4455.7,4523.2 4456.1,4524.1 4456.1,4525.1 C4456.1,4526.2 4455.8,4527.3 4455.8,4528.4 C4455.8,4529.8 4456.3,4531.4 4456.5,4532.8 C4456.6,4533.4 4457.1,4535.2 4457,4535.6 C4456.9,4536.5 4455.5,4536.4 4455.7,4537.7 C4455.9,4538.1 4456.2,4538.4 4456.5,4538.6 L4456.6,4539 L4456.4,4538.8 L4456.7,4539.1 C4456.8,4539.4 4456.8,4539.8 4456.6,4540.1 C4456.3,4540.4 4455.9,4540.5 4455.6,4541.1 C4455.5,4541.6 4456.6,4544.2 4456.8,4544.8 C4456.9,4545.2 4455.9,4555.9 4455.7,4557.1 L4455.4,4557.4 C4455.1,4557.5 4454.7,4557.5 4454.4,4557.5 C4452.8,4558.1 4451.3,4562.9 4451.7,4564.5 C4451.6,4564.7 4451.3,4565 4451.1,4565.1 L4451,4565.5 C4451.8,4566.3 4450.9,4568.5 4452.1,4569.5 C4452.4,4570.2 4451,4575.9 4450.6,4576.2 C4450.6,4576.8 4450,4577.2 4449.6,4577.5 C4449.5,4578 4449.7,4578.5 4449.7,4579 C4449.2,4579.3 4448.7,4579.4 4448.5,4580 C4448.2,4581.1 4449.2,4582.1 4448.9,4583.3 C4448.7,4584.1 4447.6,4584.3 4447.7,4585.6 L4448,4585.8 C4450.3,4586.2 4450.1,4584.3 4450.2,4582.8 C4450.5,4582.3 4450.9,4581.9 4451.2,4581.4 C4451.3,4579 4450.7,4580.2 4451.9,4577.9 C4452.2,4577.4 4452.1,4576.7 4452.7,4576.3 C4452.7,4575.8 4452.7,4575.2 4452.8,4574.7 C4453.2,4574.4 4453.7,4574.3 4454.2,4574.5 C4454.3,4575.4 4454.2,4576.4 4454.1,4577.3 C4454.1,4577.8 4454,4578.3 4454.2,4578.8 C4454.5,4579.1 4455.4,4580 4455.5,4580.4 C4455.5,4580.5 4454.1,4582 4453.9,4582.1 C4453.7,4582 4453.4,4581.9 4453.2,4582 C4453.2,4582.4 4453.1,4582.7 4453.1,4583.1 C4453.6,4583.2 4454,4583.4 4454.5,4583.5 L4454.5,4583.8 C4454.3,4584.6 4452.2,4585.3 4451.9,4587.1 C4452,4587.5 4452.3,4587.8 4452.7,4588 C4453,4588 4453.3,4587.9 4453.6,4587.7 C4453.3,4590.4 4453.3,4594.8 4456.2,4596.3 C4455.4,4596.8 4454,4598 4454.4,4599.1 L4454.8,4599.2 C4456.1,4598.6 4455.9,4597.1 4457.5,4596.7 C4458.3,4595.4 4456,4590.8 4457.4,4589.6 C4457.7,4589.7 4458.1,4589.7 4458.4,4589.7 L4458.5,4589.2 L4458.8,4589.3 C4459,4589.6 4459.1,4590.8 4459.1,4591.2 C4458.7,4591.4 4458.3,4591.7 4458.2,4592.1 C4458.4,4593.1 4458.9,4593 4458.6,4594.3 L4458.3,4594.6 L4458.4,4595.1 C4458.7,4595.2 4458.9,4595.4 4459.1,4595.5 C4459.1,4596 4459.1,4596.5 4458.9,4597 L4459.1,4597.3 C4459.6,4597.4 4460.2,4597.4 4460.7,4597.4 L4461,4597.1 L4461,4597 L4461.4,4596.8 C4461.9,4597 4462,4597.9 4463,4598.2 L4463.3,4598.1 L4463.5,4597.7 C4463.4,4597 4462.2,4596.4 4462.1,4595.7 L4462.5,4595.5 L4463,4595.6 L4463.4,4595.5 L4463.5,4595 C4463.1,4594.8 4462.9,4594.4 4463,4594.1 C4462.6,4593.6 4461.1,4592.1 4460.9,4591.5 C4460.8,4590.4 4462.2,4588.1 4460.6,4587.4 L4460.5,4587.1 L4460.6,4586.6 C4462.4,4586.3 4462.4,4590.7 4462.8,4591.7 C4463,4592.3 4463.9,4592.7 4464.1,4593.3 C4464.3,4593.7 4464.2,4594.3 4464.4,4594.7 C4464.8,4595 4467.6,4597.5 4467.8,4597.8 L4467.5,4597.9 C4467.3,4597.7 4466.9,4597.6 4466.6,4597.6 L4466.5,4598 C4467.4,4599.5 4470.7,4601.2 4472.1,4603 C4476.6,4608.9 4475.3,4612 4476.4,4618.6 L4476.8,4618 C4478.6,4617.4 4478.6,4618.1 4479.7,4617.9 C4479,4617.2 4477.9,4615.8 4477.5,4614.9 L4477.6,4614.5 C4478.3,4614.4 4479.1,4615.1 4479.8,4615.3 C4480.2,4615.2 4480.6,4614.8 4481,4614.8 C4481.4,4615 4481.7,4615.3 4482.2,4615.4 L4482.6,4615.3 C4483,4615.5 4483.4,4615.6 4483.7,4615.9 L4484.2,4615.8 C4484.8,4615.3 4485.2,4615.1 4485.7,4614.4 C4485.7,4614 4485.3,4613.7 4485,4613.4 C4485,4612.8 4485.4,4612.2 4485.8,4611.9 C4486.7,4612.3 4487.1,4612.9 4488.1,4613.1 C4488.3,4613.4 4488.2,4616 4488.6,4617 C4489.4,4619.2 4491.1,4621.2 4492.1,4623.3 C4493.3,4623.8 4493.5,4625.1 4494.5,4625.6 C4495.5,4626.1 4496.6,4625.9 4497.5,4626.2 C4500.9,4630.5 4503,4633.8 4508.6,4635.5 C4509,4635.6 4509.6,4635.9 4509.7,4636.4 C4507.4,4635.9 4505.3,4635 4503.3,4633.7 C4502.9,4633.4 4502.5,4633 4501.9,4632.9 L4501.8,4633.2 C4502.1,4634.6 4509.6,4637.8 4511.1,4638.7 C4514.2,4640.3 4522.2,4646.4 4525.1,4646.9 C4525.7,4647 4526.2,4646.7 4526.7,4646.9 C4526.8,4647.3 4526.4,4647.7 4526.4,4648.1 C4526.8,4648.8 4528.3,4649 4529.1,4649.2 C4530.1,4649.5 4536.5,4653.6 4537.3,4654.4 C4538,4655.1 4538.4,4656 4539.1,4656.7 C4540.2,4657.7 4541.5,4658.6 4542.6,4659.7 C4542.9,4660 4543.2,4660.2 4543.5,4660.6 C4544.7,4662.3 4544.9,4664.8 4546.4,4666.2 C4547.3,4667 4549.6,4667.8 4550.8,4668.4 C4552.5,4669.2 4555.7,4672 4557,4673.4 C4561.7,4678.5 4565.5,4685.1 4571.5,4688.8 C4572.7,4689.5 4580.7,4692.8 4582.1,4693.1 C4582.8,4693.3 4583.5,4693.2 4584.2,4693.4 C4585,4693.7 4586.4,4694.8 4587,4695.3 C4588.5,4696.6 4589,4697.7 4590.8,4698.7 C4591.1,4698.9 4591.4,4699 4591.6,4699.3 C4591.8,4699.5 4592,4699.8 4592.2,4700.1 C4593.9,4702.9 4596.7,4715.6 4600.3,4715.6 C4602.5,4718.4 4605.2,4726.6 4606,4730.2 C4607.4,4736.1 4607,4742.9 4609.7,4748.5 C4610.3,4749.8 4611.4,4750.9 4612.1,4752.2 C4613.8,4755.1 4613.7,4756.1 4617,4758 C4618.6,4759 4620.8,4759.4 4622.6,4758.6 C4622.8,4758.4 4622.9,4757.9 4622.8,4757.6 C4623.9,4756.8 4626.8,4756.9 4629.4,4755.1 C4630.2,4754.6 4631.1,4754 4631.8,4753.4 C4632.6,4752.6 4632.9,4751.6 4634,4751 C4635.5,4750.1 4637.6,4749.7 4638.8,4748.4 C4640.1,4747 4637.6,4746.1 4641.8,4742.9 C4643.9,4741.3 4645.7,4739.9 4648.2,4739 C4649.5,4738.6 4650.8,4738.4 4651.9,4737.7 C4654.7,4736 4655.9,4733.1 4657.6,4730.5 C4658.2,4729.5 4659.2,4728.9 4659.6,4727.7 C4660,4726.5 4659.4,4725.2 4659.7,4724 C4659.9,4723.2 4660.6,4722.8 4660.7,4722 C4660.4,4721.3 4660.3,4720.6 4660,4719.9 C4660.1,4719.2 4660.5,4718.6 4660.5,4718 C4660.6,4717.3 4660.1,4716.6 4660.3,4716 C4660.5,4715.1 4662,4714.5 4662.2,4713.8 C4662.2,4713.2 4661.6,4712.4 4661.3,4711.9 C4661.4,4710.6 4662.1,4709.3 4662.1,4708.6 L4662.1,4708.6 Z" id="svg--id--Baja-California-Sur--BS_1_"></path>
            </g>
        </g>
    </g>
</svg>