<?xml version="1.0" encoding="UTF-8" standalone="no"?>
<svg width="66px" height="68px" viewBox="0 0 66 68" version="1.1" xmlns="http://www.w3.org/2000/svg" xmlns:xlink="http://www.w3.org/1999/xlink" xmlns:sketch="http://www.bohemiancoding.com/sketch/ns">
    <!-- Generator: Sketch 3.4.4 (17249) - http://www.bohemiancoding.com/sketch -->
    <title>svg--id--Morelos--MR_2_</title>
    <desc>Created with Sketch.</desc>
    <defs></defs>
    <g id="Page-1" stroke="none" stroke-width="1" fill="none" fill-rule="evenodd" sketch:type="MSPage">
        <g id="mexico-no-stroke" sketch:type="MSLayerGroup" transform="translate(-5429.000000, -5075.000000)" fill="#F2F2F2">
            <g id="Layer_2" sketch:type="MSShapeGroup">
                <path d="M5493.6,5088.4 L5493.5,5088.4 C5492.2,5089.1 5490.3,5091.7 5488.5,5091.2 C5483.9,5090.1 5479.7,5088.4 5475.9,5085.6 C5474,5084.2 5472.4,5081.9 5470.2,5080.8 L5470.2,5080.6 C5463.5,5082.6 5468.1,5085.2 5459.4,5079.6 C5455.2,5076.9 5453.7,5079.3 5452.4,5078.5 C5451.2,5076.4 5448.3,5075.7 5446.1,5075.9 C5445.9,5075.9 5445.8,5076.1 5445.5,5076 C5445.6,5077.2 5443.6,5078.5 5443,5079.1 C5441.1,5080.7 5447.3,5087.9 5442.6,5092.6 C5436.2,5099 5434.6,5093.5 5433.3,5103.9 C5432.7,5108.5 5429.5,5109 5429.2,5116.4 C5429.1,5116.3 5429,5116.2 5428.9,5116.1 C5430.7,5117.9 5431.7,5120.2 5433.2,5122.2 C5434.7,5124.3 5436.5,5126.2 5438.4,5127.9 C5441.3,5130.6 5440.7,5133.4 5445.7,5133.9 C5448.7,5134.2 5449,5131.5 5449.6,5129.1 C5449.7,5128.8 5449.6,5128.3 5449.7,5128 C5449.9,5127.9 5450.2,5127.8 5450.5,5127.8 C5452.3,5127.8 5453.9,5127.8 5455.6,5127.4 C5456.2,5128.6 5456,5129.9 5456.4,5131.1 C5458.9,5132.1 5458.1,5134.7 5458.7,5135.5 C5460.3,5136.2 5463.4,5139.4 5463.4,5141.4 C5463.3,5142.1 5463.4,5142.7 5463.6,5143.2 C5463.5,5142.9 5463.5,5142.5 5463.4,5142.2 L5463.8,5141.8 C5466.1,5141.2 5472.9,5139.1 5474.5,5137.2 C5478.2,5132.8 5479.9,5129.5 5485.5,5132.6 C5486.6,5133.2 5490.7,5137.6 5491.2,5137.8 C5492,5137.4 5493,5137.1 5493.1,5136.1 C5492,5133.5 5492.1,5136.1 5491.7,5131.5 C5491.7,5131 5489.9,5125.4 5489.6,5124.9 C5489.2,5124.3 5488.7,5123.8 5488.5,5123.2 C5488.1,5121.7 5486.4,5113.8 5486.9,5112.3 C5488.4,5113.3 5492,5116.8 5493.4,5114.6 C5493.5,5113.9 5493.2,5113.1 5492.9,5112.4 C5491.2,5108.7 5489.9,5108.8 5487.3,5105.9 L5487.2,5105.5 C5487.8,5105.1 5490,5103.4 5490.3,5102.9 C5491.5,5100.8 5493.9,5098.2 5494.2,5095.6 C5494.4,5095.5 5494.5,5094.5 5494.5,5094.3 C5495.3,5090.8 5494.4,5091.3 5493.6,5088.4 L5493.6,5088.4 L5493.6,5088.4 Z" id="svg--id--Morelos--MR_2_"></path>
            </g>
        </g>
    </g>
</svg>