<?xml version="1.0" encoding="UTF-8" standalone="no"?>
<svg width="88px" height="72px" viewBox="0 0 88 72" version="1.1" xmlns="http://www.w3.org/2000/svg" xmlns:xlink="http://www.w3.org/1999/xlink" xmlns:sketch="http://www.bohemiancoding.com/sketch/ns">
    <!-- Generator: Sketch 3.4.4 (17249) - http://www.bohemiancoding.com/sketch -->
    <title>svg--id--Colima--CL_1_</title>
    <desc>Created with Sketch.</desc>
    <defs></defs>
    <g id="Page-1" stroke="none" stroke-width="1" fill="none" fill-rule="evenodd" sketch:type="MSPage">
        <g id="mexico-no-stroke" sketch:type="MSLayerGroup" transform="translate(-5033.000000, -5042.000000)" fill="#F2F2F2">
            <g id="Layer_2" sketch:type="MSShapeGroup">
                <path d="M5120.1,5089.1 C5119.6,5087.9 5120.5,5086.8 5118.9,5085.9 L5118.8,5085.5 C5119.9,5083.2 5117.2,5081.9 5116.5,5080.3 C5116.4,5078.4 5117.8,5074.8 5118.3,5072.9 C5119.1,5069.7 5118.6,5066.9 5117.9,5063.7 C5117.7,5062.7 5119,5062 5119.1,5060.8 C5119.2,5060.1 5118.8,5059.4 5119,5058.8 C5114.8,5054.7 5111.1,5050 5107.2,5045.6 C5105.9,5047.2 5098.9,5050.2 5096.2,5052.4 C5095.8,5052.8 5095.1,5052.7 5094.7,5053.1 C5091.8,5053.4 5088.7,5050.8 5086.1,5049.7 C5083.4,5048.6 5076.6,5044.7 5074.5,5042.4 L5068.4,5047 L5069.8,5053.9 C5067.2,5055.5 5064.7,5057.4 5061.9,5058.6 C5058.3,5060.2 5060.1,5058.1 5056.1,5061.6 C5055.8,5061.9 5049.5,5063.5 5049.3,5063.5 L5048.9,5063.3 C5047.8,5060.2 5044,5064 5043.9,5064.2 C5043.9,5064.7 5044,5066.4 5043.5,5066.7 C5043.2,5066.8 5042.9,5066.9 5042.6,5066.8 C5042.3,5066.5 5041.9,5065.8 5041.8,5065.4 C5040.7,5064.9 5039.4,5065.1 5038.3,5064.6 C5038,5064.7 5037.8,5064.9 5037.7,5065.1 C5037.1,5066.2 5037.4,5067.6 5037,5068.7 C5036.1,5070.9 5033.2,5068.9 5034,5074 L5033.6,5074.7 L5033.6,5074.7 C5037.6,5075.7 5042.3,5076.7 5044.1,5078.2 C5044.4,5078.5 5044.9,5079 5044.9,5079.4 L5045.2,5079.5 C5046.2,5078.9 5046.7,5078.3 5048,5078.6 C5048.1,5078.9 5048.4,5079.3 5048.7,5079.5 L5049,5079.4 C5049.4,5079.1 5049.4,5078.6 5049.6,5078.2 C5050.3,5077.8 5051.6,5077.7 5052.1,5078.4 C5052.2,5078.7 5052.1,5079 5052,5079.2 L5052.1,5079.6 L5052.5,5079.6 C5052.9,5079.4 5053.6,5079 5054,5078.9 C5054.4,5078.9 5054.7,5079.2 5055,5079.5 C5057.2,5081.4 5050.4,5085.9 5057.9,5087.5 C5057.9,5087.6 5058.4,5087.7 5058.9,5087.9 C5059.9,5088.3 5060.9,5088.6 5061.9,5089 C5065.5,5090.7 5069.2,5091.9 5072.9,5093.5 C5073.9,5094 5075.1,5094 5076.1,5094.4 C5078.1,5095.3 5080.1,5096.2 5081.9,5097.5 C5084.2,5099.1 5086.4,5101.7 5088.4,5103.7 C5089.6,5105 5091.1,5106 5092.5,5107.1 C5093.9,5108.3 5095.2,5109.9 5096.4,5111.2 C5097.2,5112 5098.2,5112.6 5099.1,5113.3 L5099.1,5113.3 L5099.4,5113 C5100.2,5112.2 5101.8,5111.7 5102.3,5110.8 C5103.3,5108.9 5102.9,5106.3 5104.9,5105 C5105.2,5104.8 5107.2,5104.8 5108.1,5104.5 C5109.4,5102.9 5108.6,5100.7 5109.2,5099.6 C5109.4,5099.1 5109.7,5099 5109.8,5098.4 C5109.8,5097.8 5109.5,5097.2 5109.5,5096.6 L5110,5095.9 L5110.4,5095.7 C5111.1,5095.8 5111.5,5096.7 5112.3,5096.8 C5112.9,5096.7 5114.1,5094.1 5115.2,5094 C5115.6,5094.2 5116.2,5094.2 5116.6,5094 L5116.8,5093.6 C5116.5,5093.3 5116.5,5092.7 5116.7,5092.3 C5117.1,5092.3 5118.1,5092.1 5118.4,5091.9 L5118.8,5091 C5118.7,5090.6 5118.8,5089.9 5118.9,5089.5 C5119.1,5089.3 5119.4,5089.2 5119.7,5089.2 L5120.3,5089.4 L5120.5,5089.5 L5120.4,5089.5 L5120.1,5089.1 L5120.1,5089.1 Z" id="svg--id--Colima--CL_1_"></path>
            </g>
        </g>
    </g>
</svg>