<?xml version="1.0" encoding="UTF-8" standalone="no"?>
<svg width="392px" height="453px" viewBox="0 0 392 453" version="1.1" xmlns="http://www.w3.org/2000/svg" xmlns:xlink="http://www.w3.org/1999/xlink" xmlns:sketch="http://www.bohemiancoding.com/sketch/ns">
    <!-- Generator: Sketch 3.4.4 (17249) - http://www.bohemiancoding.com/sketch -->
    <title>svg--id--Veracruz--VE_1_</title>
    <desc>Created with Sketch.</desc>
    <defs></defs>
    <g id="Page-1" stroke="none" stroke-width="1" fill="none" fill-rule="evenodd" sketch:type="MSPage">
        <g id="mexico-no-stroke" sketch:type="MSLayerGroup" transform="translate(-5493.000000, -4791.000000)" fill="#F2F2F2">
            <g id="Layer_2" sketch:type="MSShapeGroup">
                <path d="M5495.1,4795.5 L5495.2,4796 C5495.5,4796.2 5496.1,4796.8 5496.2,4796.9 C5496.3,4797 5496.5,4797 5496.7,4797.1 C5500.4,4799.4 5503.5,4802.2 5507.3,4804.5 C5508.7,4805.3 5510.1,4806.1 5511.5,4807 C5521.4,4813.2 5513.2,4818.8 5509.5,4825.2 C5508.2,4827.4 5506.7,4830.2 5505.4,4832.4 C5505.1,4832.9 5503.5,4831.7 5503,4831.8 C5502.8,4832.1 5501.7,4832.7 5501.4,4832.8 C5499.8,4832.6 5499,4831.3 5497.4,4832.1 C5497.2,4833 5497.6,4836.3 5498.6,4836.7 C5499.6,4836.6 5500.5,4835.6 5501.6,4835.2 C5501.9,4835.3 5502.7,4835.5 5502.8,4835.8 L5502.8,4836.3 C5502.3,4837.3 5500.6,4836.8 5500,4837.3 L5499.8,4837.7 L5500,4838.1 C5500.4,4838.4 5500.8,4838.5 5501.2,4838.7 L5501.3,4839.1 C5501,4839.9 5499.3,4839.3 5499,4840.5 C5499.3,4843 5500.9,4841.7 5502,4844.8 L5502.2,4845.2 L5502.6,4845.4 C5503,4845.5 5504.3,4844.3 5504.6,4844 L5505,4844.1 C5505.3,4844.7 5505.6,4846.5 5505.7,4847.2 C5506.7,4847.8 5507.8,4848.8 5508.1,4850 C5507.8,4851.6 5502.8,4854.2 5502.7,4855 L5502.4,4855.3 C5501.7,4855.3 5501.1,4854.5 5500.3,4854.3 L5499.5,4854.6 L5499.3,4855 C5499.3,4855.3 5499.5,4856 5499.8,4856.2 C5500.9,4859.8 5496.8,4857.1 5496,4857.3 C5494.7,4857.9 5494.9,4861.9 5495.4,4862.8 C5495.4,4863.6 5494,4864.6 5493.4,4864.8 C5495.2,4867.5 5493,4866.6 5497.2,4869.1 C5498.5,4869.8 5501.2,4871.3 5502.5,4871.7 C5503,4872.4 5503.4,4881.2 5503.2,4882.7 C5505.5,4883.4 5506.5,4885.9 5506.2,4888.1 C5505.9,4890.2 5504.6,4892.7 5505,4894.8 C5505.2,4896.1 5510.9,4903.8 5512.8,4904.5 C5514.2,4905 5515.4,4904.7 5516.7,4903.9 C5518.3,4902.9 5518.7,4897.1 5520,4896.7 L5520.3,4896.9 L5520.6,4896.6 C5522.6,4896.3 5523.5,4899.7 5522,4901 C5521.9,4901.6 5521.5,4902.1 5521.5,4902.6 C5520.9,4903 5520.8,4904.9 5520.8,4905.6 C5521.9,4905.8 5522.8,4907.1 5524.1,4905.6 C5524.6,4905 5525.9,4903.5 5526.7,4903.3 L5527.2,4903.5 C5527.4,4903.7 5528.2,4906.2 5528.5,4906.6 C5530.1,4906.7 5530.6,4907.3 5531,4908.8 C5534.9,4910.4 5532.8,4910.1 5532.4,4912.3 C5532.3,4913.1 5532,4914.4 5531.4,4914.9 C5530.7,4914.9 5530.2,4914.6 5529.6,4914.2 L5529.3,4914.3 C5525.7,4918.4 5526.1,4920.5 5526,4925.5 C5525.7,4935.2 5524.1,4930.9 5518.8,4928.7 C5515.9,4927.5 5515,4928.3 5512.2,4929.6 C5511.6,4929.9 5511.4,4932.7 5511.3,4933.1 C5511,4935.3 5505.2,4936.2 5503.7,4937.1 C5500.5,4941.7 5508.1,4941.1 5510.4,4940.3 C5506.8,4946.4 5503.2,4952.7 5499.4,4958.8 C5502.1,4962 5503.1,4965.8 5504.9,4969.5 C5505.5,4970.7 5506.9,4971.1 5508.1,4971 C5511.3,4969.3 5511,4964.7 5512,4964 C5513.7,4963.4 5516.1,4965 5516.9,4964.8 C5518.3,4963.8 5523.6,4956.5 5525.1,4954.8 C5528,4951.5 5530.4,4949 5533.9,4946.3 C5535.8,4944.9 5536,4945.4 5538,4946.1 C5538.8,4946.4 5539.9,4946.5 5540.6,4947 C5540.2,4949.8 5541.1,4953.1 5540.3,4956 C5539.9,4957.5 5539.6,4958.8 5538.8,4960.2 C5537.8,4962 5536.3,4963.2 5535.3,4964.9 C5535.6,4965.1 5537.2,4964.2 5537.5,4964.1 C5538.9,4963.5 5540,4962.6 5541.2,4961.6 C5541.9,4961 5542.8,4960.5 5543.5,4959.9 C5547.7,4956.8 5547.4,4949.6 5546.8,4944.9 L5547.2,4944.7 C5554.4,4942.4 5552,4939.3 5552.4,4933.3 L5552.6,4933.1 C5556.2,4933.5 5559.8,4934 5563.4,4934.1 C5562.8,4937.3 5562.6,4940.7 5562.3,4944 C5561.5,4951.4 5578.7,4946.2 5576.8,4956.6 C5576.2,4959.7 5576.4,4959.6 5574.3,4962 C5573.7,4962.6 5573.4,4964.1 5572.9,4964.9 C5570.4,4968.7 5568.4,4963.3 5567.2,4961.7 C5566.9,4961.6 5566.5,4961.5 5566.2,4961.6 C5564.7,4962.6 5565.4,4962.9 5564.5,4964.1 C5563.5,4963.9 5562.6,4964.3 5561.6,4964.1 C5561.6,4964.1 5560.8,4974.5 5560.7,4975.2 C5560.7,4975.5 5560.8,4975.9 5560.9,4976.2 C5561.7,4979.5 5562.4,4980.2 5564.2,4983 C5565.8,4985.5 5566.3,4987.4 5569.8,4987.4 C5570.7,4987.4 5571.6,4987.5 5572.4,4987.1 L5572.8,4987.3 C5573.9,4988.5 5574.2,4990.3 5575.4,4991.5 C5576.4,4992.5 5577.2,4992.9 5578.6,4992.5 C5583.2,4991.2 5581.2,4984.6 5583.4,4981.8 C5584.3,4980.6 5586.2,4980.1 5587.7,4980.1 L5588.5,4979.3 C5589,4979.5 5590.4,4979.3 5590.9,4979.2 L5591.4,4980 C5592.7,4980.4 5595.8,4983.3 5597.3,4984.2 C5599,4985.2 5601,4986.5 5602.9,4987.1 C5604.7,4987.7 5608.5,4988.1 5609.7,4989.6 C5610.7,4993.1 5607.8,4995.4 5605.8,4997.7 C5604.9,4998.7 5603.9,5000.3 5602.9,5001.3 C5599.8,5004.2 5598.8,5006.4 5596.7,5010 C5595.3,5012.4 5598.9,5020.3 5598.4,5023.3 C5597.9,5026.6 5596,5029 5594.4,5031.7 L5593.3,5033.6 C5592.3,5035.2 5586.6,5036.1 5586.4,5036.8 C5587.7,5038 5592.4,5040.2 5593.1,5040.8 C5593.5,5042.8 5592.4,5045.1 5592.7,5047.2 C5594.1,5056.6 5598.7,5052.3 5601.4,5054.9 C5603,5056.4 5605.5,5061.2 5607.5,5060.9 C5609.3,5060.7 5611.1,5060.2 5612.9,5060.1 C5616.9,5059.9 5622.9,5062 5618.9,5066.5 C5617.4,5068.3 5614.5,5072.5 5611.5,5071.3 C5610.4,5070.9 5609.3,5070.4 5608.1,5070.1 C5606.3,5069.7 5606,5071.4 5604.6,5071.8 C5603.8,5072 5600.3,5072.5 5600,5072.9 C5598.5,5075.1 5601.9,5087.2 5602.1,5091.2 C5602.2,5092.8 5601.8,5094.6 5601.3,5096.1 C5601,5097.2 5599.6,5098.7 5598.9,5099.7 C5596.5,5103.1 5597.8,5102.9 5593.9,5105.8 C5593.8,5105.8 5593.8,5106.1 5593.7,5106.1 C5594.9,5107.4 5598,5116.2 5599.3,5117.7 L5599.8,5117.8 C5601.5,5116.8 5604.1,5115.9 5606.1,5116 C5610.9,5116.2 5611.9,5120.4 5613.1,5124.5 C5617,5138 5626,5126.9 5633.8,5124.7 C5634.1,5124.6 5635.1,5126.3 5635.1,5126.3 C5635.5,5126.8 5634.2,5132.4 5638.7,5135.6 L5638.7,5135.6 C5641.8,5133.2 5645.7,5129.7 5648.6,5127 C5647.9,5122.5 5646.6,5117.9 5645.6,5113.5 C5652.2,5117.8 5658.7,5121.6 5665.7,5125.1 L5666.3,5125.5 L5666.6,5125.7 L5666.6,5126.2 C5666.6,5130.3 5668.4,5134.7 5670.1,5138.4 C5671,5140.4 5672.6,5141.6 5674.4,5142.8 C5677.4,5144.8 5679.2,5148 5679.5,5151.7 L5680.2,5151.9 C5681.2,5152.5 5681.7,5153.4 5682.3,5154.4 C5683.6,5154 5684.9,5153.5 5686.1,5154.4 C5687.1,5155.2 5686.9,5156.8 5686.1,5157.7 L5686.2,5157.7 L5687.6,5157.7 L5688.1,5157.7 C5688.5,5157 5689,5156.1 5689.9,5155.9 C5691.2,5155.6 5692.3,5155.5 5693.4,5155.4 L5694.7,5157.1 C5698.1,5157.4 5700.4,5159 5704.1,5161.2 C5707.2,5163 5706.4,5157.7 5711.9,5165.7 C5713.3,5167.7 5713.7,5170 5713.6,5172.4 C5713.5,5173.7 5713.4,5175.2 5713.1,5176.5 C5712,5181.7 5702,5186.9 5704.7,5192.7 C5705.7,5194.8 5713.3,5211.4 5714,5212.3 C5714.9,5213 5717.1,5213 5718.5,5213.8 L5718.8,5213.9 C5719.5,5213.6 5720.4,5213.5 5721,5213.1 C5721.7,5212.6 5722.1,5211.9 5722.9,5211.6 C5723.2,5211.6 5723.5,5211.8 5723.7,5212 C5724.2,5212.2 5725.5,5211.9 5726,5211.8 C5727.8,5214.7 5728.7,5211.5 5730.1,5211 L5731.6,5211.2 C5731.9,5210.6 5731.5,5209.8 5731.9,5209.2 C5734.2,5208.3 5734.5,5208.1 5736.4,5206.7 C5736.5,5206.6 5736.7,5206.6 5736.8,5206.5 C5738.1,5207 5739.6,5203.6 5741,5202.7 C5742.8,5201.6 5744.8,5202 5746.8,5202 L5746.8,5201 L5747,5200.6 C5747.7,5200 5750.5,5201 5752,5198.8 L5751.8,5198.4 L5752,5198.1 L5752.7,5197.7 L5752.9,5197.4 C5752.7,5197 5752.9,5196.4 5753.1,5196 L5753.4,5195.8 C5754.5,5195.7 5755.6,5197.5 5756.7,5196.7 C5756.8,5196.3 5755.9,5195.2 5755.7,5194.9 L5756,5194.6 L5758,5194.7 L5758.8,5194.3 C5760.9,5195.1 5759.4,5201.4 5759.3,5203.1 C5758.1,5203.5 5757.5,5203.6 5756.9,5204.7 L5756.6,5207.9 C5761.3,5214.9 5764.7,5220.4 5769.6,5227.2 L5774.9,5228.1 C5775.5,5231.3 5776.6,5234.6 5777.5,5237.7 C5792.3,5239 5807,5240.2 5821.8,5241.5 C5825.8,5241.9 5829.6,5241.6 5833.5,5241.9 L5862.2,5243.9 L5862.2,5243.9 L5862.7,5243.9 L5881.3,5230.5 C5882.7,5229.5 5883.7,5226.1 5884.2,5224.7 C5879.7,5223.3 5881.5,5223 5879.3,5219.8 C5878.8,5219.1 5878,5218.1 5877.9,5217.2 C5877.6,5214.2 5882,5212.7 5876.5,5208.8 C5876.4,5207.5 5875,5207 5874.7,5205.8 C5874.5,5205 5875.5,5203.7 5875.2,5203.1 C5874.5,5201.6 5873.4,5198.8 5871.8,5197.9 C5870.5,5197.2 5867.8,5197.5 5867.2,5195.7 C5866,5194.6 5864.3,5195.5 5863.5,5195.1 L5863.3,5194.7 L5863.6,5193.8 C5863.4,5191.4 5860.1,5193.7 5858.4,5193.1 C5858,5192.6 5857.1,5191.9 5856.5,5191.6 C5855.9,5190.5 5857,5187.7 5855,5185.9 C5854.6,5185.5 5851.5,5185.6 5851.2,5185.2 C5850.5,5184.5 5850.8,5183.5 5850,5182.9 C5848.7,5182.7 5847.4,5183.1 5846.7,5181.6 C5846.8,5180.6 5846.4,5179.5 5846.4,5178.5 C5846.4,5177.4 5846.9,5176.1 5846.9,5174.9 L5846.9,5173.9 C5847.1,5173.6 5847.9,5173.5 5848.2,5173.5 C5849.7,5172.6 5847.3,5170.4 5847,5169.7 C5847.5,5166.1 5845.6,5166.6 5845.3,5165.7 C5845.5,5165.3 5846.1,5164.8 5846.4,5164.5 L5846.5,5164 C5846.2,5163.4 5845.4,5163.1 5845.3,5162.5 C5844.9,5161 5846,5158.8 5844.7,5157.7 L5842.8,5157.3 C5842.4,5157 5842.4,5155.8 5842.2,5154.7 L5842.2,5154.7 C5840.2,5155.3 5838.3,5155.9 5836.3,5156.5 C5835.2,5156.8 5834.1,5157.4 5832.9,5157.6 C5831.1,5157.9 5829.2,5157.9 5827.4,5158.2 C5822.5,5159.1 5818.3,5160.9 5813.2,5158.8 C5811.6,5158.1 5810.7,5157 5809.5,5156.1 C5809,5155.1 5808.2,5154.4 5807.9,5153.3 C5807.3,5151.4 5807.2,5149.8 5806.2,5148 C5805.6,5146.9 5800.5,5142.5 5799.2,5141 C5797.7,5139.3 5797.2,5137.5 5796.1,5135.7 C5795.3,5134.5 5795.8,5129.6 5792.3,5127.8 C5790,5126.6 5784.9,5127.1 5782.3,5126.8 C5781.1,5126.6 5776.1,5124.9 5774.8,5124.4 C5773.9,5123.1 5774.5,5121.6 5773.1,5120.2 C5772.9,5120 5772.7,5119.9 5772.5,5119.8 C5771.1,5118.9 5770.2,5118 5768.9,5117.1 C5768.7,5117 5768.5,5116.8 5768.3,5116.7 C5767.8,5116.5 5767.5,5116.7 5767,5116.3 C5765.5,5115.1 5764.4,5113.3 5762.6,5112.5 C5761.2,5111.9 5760.3,5112.2 5759,5112.1 C5757.7,5112 5756.4,5111.7 5755.2,5111.6 C5753.3,5111.5 5748.1,5112.6 5745.7,5112.6 C5743.5,5112.7 5734.8,5111.9 5732.7,5111.4 C5729.4,5110.6 5726.6,5109.9 5723.9,5107.8 C5723.2,5107.3 5720.9,5104.9 5720.5,5104.8 C5720.1,5105.3 5720.2,5106.2 5720.2,5106.7 C5720.2,5107.2 5720.1,5108.2 5720.4,5108.6 C5722.3,5110.7 5732.6,5111.4 5733,5114.8 L5732.8,5115.2 C5732.5,5115.5 5731.8,5115.8 5731.4,5115.9 L5730.9,5115.8 C5730.4,5115.3 5730.4,5114.5 5729.9,5114 C5729.1,5113.1 5728.5,5113.5 5727.8,5113.1 C5726.4,5112.3 5726.9,5111.7 5724,5110.9 C5722.7,5110.5 5721.1,5110.9 5720,5110.5 C5718.8,5110 5717,5108.6 5715.6,5109.2 C5714.9,5110.1 5714.4,5111 5713.3,5111.5 C5711.5,5112.3 5708.5,5110.3 5709.2,5108.3 L5709.5,5108 C5711,5107.8 5712.7,5110 5714.3,5109.3 L5714.3,5108.9 C5713.2,5106.9 5710.7,5106.5 5709.5,5104.9 C5709.6,5104.6 5709.7,5104.2 5709.5,5103.9 C5708.5,5102.5 5705.6,5102.5 5704.4,5101.7 C5703.9,5101.4 5703.4,5100.7 5702.9,5100.3 C5703,5099.8 5703.3,5098.9 5703.8,5098.7 C5705.2,5098.6 5706.1,5100.1 5707.4,5100.5 C5707.9,5101 5707.8,5101.8 5708.4,5102.3 C5709.4,5103 5711.9,5103.1 5713.2,5103.8 C5714.1,5104.3 5715.5,5105 5716.2,5105.6 C5717,5106.2 5717.5,5107.1 5718.3,5107.6 L5718.8,5107.5 C5718.7,5106.5 5718.7,5105.1 5718.7,5104.1 L5718.5,5103.8 L5718.1,5103.7 C5715.8,5103.7 5713.5,5102.4 5711.6,5101.2 C5710.7,5100.6 5709.6,5100.3 5708.8,5099.8 C5707.4,5098.9 5703.7,5092.6 5703.4,5091.1 L5702.2,5082.9 C5702.1,5082.5 5701.8,5082.2 5701.3,5082.1 C5698.1,5082.3 5697.5,5083.8 5694.9,5080.7 C5694.3,5079.9 5693.4,5079.4 5693,5078.5 C5692,5076.2 5693.1,5072.7 5691,5072.3 C5690.8,5071.2 5691.5,5069 5690.4,5068.2 C5688.9,5067.8 5689,5068.1 5687.7,5068.4 C5685.8,5067.9 5686.3,5066.8 5685.1,5065.8 C5682.2,5063.5 5679.4,5062.8 5677.5,5059.3 C5677.3,5058.9 5676.9,5058.8 5676.8,5058.3 C5676.3,5056.8 5676.8,5055.3 5676.3,5053.6 L5675.9,5053.4 C5675.6,5052.8 5674.8,5050.8 5675,5050.3 C5675.2,5049.5 5676,5049.2 5676.1,5048.4 C5676.3,5046.5 5671.8,5043.7 5671.3,5040.8 C5671,5039.3 5671.1,5037.7 5670.6,5036.2 C5670.1,5034.6 5669.3,5032.9 5669,5031.3 C5668.7,5029.9 5669.4,5028.1 5669.2,5026.6 C5668.8,5023.7 5666.7,5017.8 5665.5,5015 C5664,5011.7 5660.6,5009.8 5658.9,5006.7 C5657.7,5004.5 5656.8,5002.3 5655.1,5000.3 C5652.9,4997.7 5650.4,4995.7 5649,4992.5 C5648.6,4991.7 5648.1,4989.5 5647.5,4989 C5646.7,4988.2 5645.5,4987.9 5644.7,4987 C5643.4,4985.4 5642.6,4983.5 5641.2,4982 C5639.6,4980.3 5637.2,4979.2 5635.7,4977.4 C5634.7,4976.2 5634.1,4974.5 5633.1,4973.3 C5631.6,4971.5 5629.9,4970 5628.7,4967.9 C5628.2,4967 5626.5,4963.8 5625.9,4963.3 C5624.9,4962.4 5623.4,4961.9 5622.2,4961 C5620.5,4959.6 5617.2,4955.8 5615.8,4954.1 C5613,4948.6 5608.5,4946.3 5607.4,4939.6 C5607.5,4939.3 5607.6,4939 5607.9,4938.9 C5608.1,4938.9 5608.5,4938.9 5608.7,4938.7 C5608.7,4938.6 5608.6,4938.4 5608.7,4938.3 C5607.9,4936.8 5607.8,4934.9 5607,4933.4 C5605.6,4930.9 5604.2,4928.4 5602.9,4925.9 C5602.6,4925.2 5602.1,4924.6 5601.9,4923.8 C5601.2,4922.8 5600.5,4921.8 5599.9,4920.7 C5599.1,4919.5 5598.8,4917.6 5598.4,4916.2 C5598,4914.8 5597,4913.8 5596.4,4912.6 C5595.4,4910.8 5592.9,4904.6 5592.5,4902.7 C5592.3,4901.7 5591.6,4896.9 5591.2,4896.5 C5590.7,4896.2 5590.1,4896.5 5589.5,4895.9 C5589,4895.3 5589.2,4893.6 5588.9,4892.8 C5588.4,4891.3 5587.1,4890.4 5586.4,4889.1 C5586,4888.4 5583.8,4882 5583.8,4881.3 C5583.8,4879.7 5585.1,4878.1 5585.1,4876.8 L5584.9,4876.4 C5583.7,4875.1 5580.9,4879.9 5577.9,4875.1 C5576.9,4873.4 5576.4,4871.9 5575.1,4870.2 C5574.9,4870 5574.7,4869.7 5574.5,4869.4 C5574,4868.3 5574.1,4867.1 5573.5,4866 C5573.1,4865.2 5572.5,4864.7 5572,4864 C5571.4,4863.1 5570.9,4861.5 5570.6,4860.5 C5569.5,4857.3 5570.2,4853.2 5568.7,4850.1 C5568.2,4849.1 5567.6,4848.5 5567.5,4847.4 C5567.4,4846.1 5568,4844.9 5568,4843.6 C5568.1,4840.7 5566.8,4836.1 5565.8,4833.4 C5565.7,4833 5565.3,4832.2 5564.8,4831.3 C5566,4833.1 5567.3,4834.8 5568.3,4836.4 C5568.8,4837.3 5568.5,4839.4 5569.3,4839.8 C5569.6,4839.9 5569.9,4839.9 5570.2,4839.8 C5573.4,4841.5 5572.2,4849.3 5575.6,4851.6 C5576.5,4852.8 5577.9,4853.6 5578.7,4854.9 C5581.4,4859.5 5585.2,4864.6 5589.5,4867.9 C5590.8,4868.9 5593.4,4870.2 5593.9,4871.8 C5593.8,4872.2 5593.5,4872.5 5593.3,4872.9 L5593.3,4873.3 C5593.7,4873.7 5593.9,4874.2 5594.1,4874.7 C5594.1,4875.1 5592.6,4877.5 5592.3,4877.6 C5592.1,4877.2 5592,4876.8 5591.9,4876.4 C5590.7,4876.9 5590.1,4877.9 5589.1,4878.5 C5588.2,4879.1 5586.9,4879.1 5586.1,4879.8 C5585.9,4880 5585.7,4880.3 5585.7,4880.6 C5585.9,4881.5 5586.4,4881.9 5587.1,4882.5 L5587.2,4882.9 C5586.5,4886 5587.3,4884.8 5588.9,4886.7 C5589.1,4889.2 5589.5,4892.1 5590.3,4894.4 L5590.7,4894.5 C5590.8,4894.3 5590.9,4894.1 5591,4893.9 C5591.4,4892.3 5591.3,4890.6 5591.9,4889 C5592.6,4886.8 5594.1,4885 5595.1,4883 C5596.2,4880.6 5597.4,4877.7 5597.9,4875.1 C5598.5,4872.2 5598.7,4870.6 5597.4,4867.8 C5596.6,4866.1 5594.3,4865.1 5592.9,4864 C5592.1,4863.4 5591.5,4862.6 5590.7,4862.1 C5589.4,4861.2 5587.9,4860.4 5586.8,4859.4 C5583.1,4856 5579.1,4850.9 5576.2,4846.8 C5575.6,4845.8 5575,4844.3 5574.3,4843.3 C5570.5,4837.2 5564.4,4827.6 5562.7,4820.8 C5561.7,4817.1 5563,4811.1 5562.5,4809.6 C5562.2,4808.8 5561.8,4807.9 5561.4,4807 L5560.5,4807.3 C5558.2,4808.5 5557.5,4808.3 5556.3,4811.3 C5555.7,4811.7 5553.8,4811.5 5553.3,4811.2 C5553.1,4809.1 5551,4810.2 5550.3,4808.5 L5550.5,4807.6 C5550.8,4807.4 5552,4806.7 5552.1,4806.3 C5552.2,4805.7 5552.1,4805 5551.8,4804.4 C5551,4803.5 5544.4,4801.3 5543.2,4801.1 C5542.3,4801 5541.4,4801.1 5540.5,4800.9 C5540,4800.8 5539.3,4799.6 5538.6,4799.2 C5537.7,4798.8 5537,4799.3 5535.9,4798.5 L5535.6,4798.2 C5535.2,4797.8 5534.9,4796.6 5534.6,4796.4 C5533,4795.2 5531.8,4796.1 5530.9,4793.5 C5530,4790.9 5530.1,4791.4 5527.6,4791.5 C5527.1,4791.5 5526.6,4791.3 5526.1,4791.5 L5525.5,4792.1 C5524.2,4792.4 5523,4791.6 5521.9,4791.7 L5521.6,4792 C5521.2,4793.2 5523.2,4798.4 5519.8,4797.6 C5519.2,4797.5 5518.1,4796.7 5517.7,4796.7 L5517.2,4797.4 L5516.1,4797.3 C5516.2,4796.7 5516,4795.7 5515.7,4795.1 L5515.2,4795 L5514.8,4795.1 C5514.5,4795.7 5514,4796.3 5513.5,4796.8 C5512.5,4796.3 5511.9,4794.1 5510.8,4794.6 C5510.6,4794.9 5510.3,4795.3 5510,4795.5 L5509.5,4795.4 C5509.4,4794.2 5508,4794.3 5507.2,4794.5 L5506.9,4794.2 L5506.9,4793.9 C5503.9,4794.5 5500.2,4795.9 5497.2,4795.8 L5496.9,4795.9 C5495.7,4795.6 5495.1,4795.4 5495.1,4795.5 L5495.1,4795.5 Z M5561.5,4824.4 C5561.5,4824.8 5561.6,4825.2 5561.7,4825.6 C5561.5,4825 5561.4,4824.6 5561.5,4824.4 L5561.5,4824.4 Z" id="svg--id--Veracruz--VE_1_"></path>
            </g>
        </g>
    </g>
</svg>