<?xml version="1.0" encoding="UTF-8" standalone="no"?>
<svg width="155px" height="163px" viewBox="0 0 155 163" version="1.1" xmlns="http://www.w3.org/2000/svg" xmlns:xlink="http://www.w3.org/1999/xlink" xmlns:sketch="http://www.bohemiancoding.com/sketch/ns">
    <!-- Generator: Sketch 3.4.4 (17249) - http://www.bohemiancoding.com/sketch -->
    <title>svg--id--México--MX_1_</title>
    <desc>Created with Sketch.</desc>
    <defs></defs>
    <g id="Page-1" stroke="none" stroke-width="1" fill="none" fill-rule="evenodd" sketch:type="MSPage">
        <g id="mexico-no-stroke" sketch:type="MSLayerGroup" transform="translate(-5344.000000, -4978.000000)" fill="#F2F2F2">
            <g id="Layer_2" sketch:type="MSShapeGroup">
                <path d="M5497.9,5025.7 C5498.2,5025.3 5498.9,5024.3 5499,5023.8 C5499,5023.5 5496.9,5021.7 5496.5,5021.2 C5494.5,5018.6 5492.3,5017.2 5490.1,5015 C5488.2,5014.4 5484.4,5016.8 5483,5013.4 C5482,5012.7 5477.7,5013.7 5476.4,5014 C5476.4,5014.4 5473.8,5017.3 5473.5,5017.7 C5473.1,5018.2 5472.2,5018.5 5471.7,5018.4 C5469,5018 5469.1,5015.9 5468.5,5013.5 C5468.1,5011.8 5471.7,5006.6 5471.2,5002.3 C5471.1,5001.4 5469.9,4999.7 5469.3,4999.2 C5464.6,4995.4 5460.9,4999.7 5456.8,5001.7 C5455.2,5002.5 5453.8,5001.3 5451.9,5002.6 C5450.1,5003.8 5450.2,5005.9 5449.2,5007.8 C5447.9,5010.1 5446.4,5011.4 5445.7,5014.2 C5445.5,5015 5445.6,5016.5 5444.9,5017.1 C5442.7,5018 5443.1,5016.7 5441.2,5018.9 C5436.7,5024.2 5435.3,5018.1 5434.6,5014.2 C5433.8,5009.8 5430,5009.3 5427.1,5006.7 C5426.8,5006.4 5426.3,5005 5426.5,5004.6 L5427.5,5001.8 C5428.1,5000 5431.1,4996.5 5429.2,4994.5 C5427.6,4992.8 5426.1,4991.1 5424.3,4989.5 C5422.4,4987.8 5418.7,4990.4 5416.8,4990.2 C5414.7,4989.9 5411.2,4985.2 5409.7,4983.9 C5408.2,4982.5 5405.3,4978.6 5402.9,4978.5 L5402.9,4978.7 L5402.9,4978.7 L5402.9,4978.7 L5402.9,4978.7 C5400.1,4978.3 5397.1,4979.5 5394.5,4980.3 C5391.4,4981.2 5395.4,4984.4 5393.6,4988.5 C5391.3,4993.5 5390.8,4992.7 5387.7,4996.1 C5386.8,4997.1 5386.1,4998.5 5385.2,4999.5 C5384.6,5000.2 5383.8,5000.7 5383.3,5001.5 C5382.2,5003 5381.6,5004.8 5380.6,5006.3 L5380.6,5006.3 L5380.7,5007.4 L5380.8,5007.7 C5381.4,5008.4 5390.2,5013.6 5383.2,5015.3 L5383.2,5015.5 C5375.6,5016.9 5379.8,5018.5 5378.2,5025.3 C5377.9,5026.5 5377.3,5028 5377.3,5029.2 C5372.3,5038.4 5381,5049.1 5379.5,5051.9 C5378.7,5052.7 5368,5059.1 5367.3,5058.8 L5368.3,5064.9 C5368.2,5065.1 5366.6,5066.8 5366.5,5067 C5364.9,5068.9 5363.9,5071.4 5362.2,5073.4 C5359.6,5076.5 5357.2,5079.1 5354.8,5082.4 C5354.1,5083.4 5353,5084.1 5352.3,5085 C5351.4,5086.1 5348.7,5088.6 5348.5,5090 C5348.6,5090.6 5349,5091.9 5349.4,5092.4 C5347.7,5093.6 5343.8,5096.7 5345,5099.3 L5345,5099.3 C5344.9,5099.4 5344.8,5099.5 5344.6,5099.7 L5344.8,5100 C5346.2,5100.3 5347.7,5100.7 5349.1,5101.1 C5349.2,5101.2 5349.3,5101.3 5349.4,5101.3 C5355.5,5102.7 5354.9,5103 5355.7,5108.9 C5356.4,5114.8 5358.2,5121.3 5360,5127 C5360.5,5128.6 5361.3,5130.2 5361.8,5131.8 C5362.9,5135.3 5364.8,5142.8 5370.2,5139.4 C5371.7,5138.5 5372.5,5136.5 5373.8,5135.4 C5375.6,5134 5377.2,5132.4 5379,5130.9 C5384.1,5126.5 5381,5125.8 5383.1,5121.6 L5386.3,5121.2 C5388.3,5120.9 5399.1,5117.2 5399.5,5117.3 C5407.3,5120.7 5407.1,5119.7 5412.3,5113.4 C5414,5111.3 5414.7,5109 5417.4,5108.2 C5417.7,5108.6 5418.2,5108.8 5418.6,5109.1 C5420.5,5110.3 5421.7,5111.7 5423.3,5113.2 C5424,5113.8 5424.6,5114.6 5425.3,5115.2 C5426,5115.8 5428.6,5116 5429.2,5116.6 C5429.3,5116.7 5429.4,5116.8 5429.5,5116.9 C5429.8,5109.5 5433,5109 5433.6,5104.4 C5434.9,5093.9 5436.5,5099.5 5442.9,5093.1 C5447.6,5088.4 5441.4,5081.3 5443.3,5079.6 C5444,5079 5445.9,5077.7 5445.8,5076.6 L5445.6,5076.1 C5446.2,5071.5 5441.5,5067.2 5441,5061.8 C5440.1,5051.4 5449.5,5056.9 5450.7,5053 C5451.4,5050.6 5451.5,5049.9 5453.7,5048.9 C5459.6,5046 5455.8,5042.7 5458.8,5042.2 C5459.1,5042.2 5459.5,5042.4 5459.6,5042.6 C5459.8,5043.4 5460.4,5047.1 5461,5047.7 C5462,5048.8 5464.6,5048.8 5465.1,5049.5 C5464.8,5050.3 5465.2,5055.8 5465.4,5056.5 C5465.7,5057.4 5466.6,5058 5467.3,5058.6 C5471.7,5062.7 5471,5065.1 5470.2,5070.8 C5469.9,5072.9 5473.5,5074.5 5471.9,5078.4 C5471.6,5079.1 5470.8,5079.8 5470.4,5080.6 L5470.4,5081.1 C5470.5,5081.1 5470.5,5081.1 5470.6,5081 L5470.6,5081.2 C5472.8,5082.4 5474.4,5084.6 5476.3,5086 C5480.1,5088.8 5484.3,5090.6 5488.9,5091.6 C5490.7,5092 5492.7,5089.4 5493.9,5088.8 L5494,5088.8 C5494,5087.7 5494.9,5086.2 5495.1,5084.9 C5495.7,5081.5 5495.9,5077.9 5496,5074.5 C5496,5073.9 5496,5073.1 5495.9,5072.5 C5495.3,5066.5 5494.4,5060.6 5493.7,5054.6 C5493.6,5053.7 5494.3,5050.9 5494.9,5050.2 L5496.7,5048.1 L5496.8,5047.5 L5497.4,5048.3 L5496.2,5046.7 L5496.2,5046.7 L5489.6,5038 C5490.6,5037.1 5492.5,5037.5 5493.7,5037.3 L5494.2,5036.6 C5493.9,5036.7 5493.5,5036.7 5493.2,5036.8 L5493.2,5036.8 L5493.2,5036.8 L5493.2,5036.8 C5493.8,5035 5495,5033.6 5495.6,5032 C5496.1,5029.6 5496.6,5027.6 5497.9,5025.7 L5497.9,5025.7 Z" id="svg--id--México--MX_1_"></path>
            </g>
        </g>
    </g>
</svg>