<?xml version="1.0" encoding="UTF-8" standalone="no"?>
<svg width="323px" height="325px" viewBox="0 0 323 325" version="1.1" xmlns="http://www.w3.org/2000/svg" xmlns:xlink="http://www.w3.org/1999/xlink" xmlns:sketch="http://www.bohemiancoding.com/sketch/ns">
    <!-- Generator: Sketch 3.4.4 (17249) - http://www.bohemiancoding.com/sketch -->
    <title>svg--id--Jalisco--JA_1_</title>
    <desc>Created with Sketch.</desc>
    <defs></defs>
    <g id="Page-1" stroke="none" stroke-width="1" fill="none" fill-rule="evenodd" sketch:type="MSPage">
        <g id="mexico-no-stroke" sketch:type="MSLayerGroup" transform="translate(-4949.000000, -4766.000000)" fill="#F2F2F2">
            <g id="Layer_2" sketch:type="MSShapeGroup">
                <path d="M5226.5,4968.2 C5227.2,4961.8 5230.2,4959 5234.4,4954.5 C5235.2,4953.7 5236,4953.1 5236.6,4952 C5237.2,4950.9 5235.6,4948.8 5235.1,4948 C5233.7,4945.9 5228.8,4937.9 5227.9,4935.9 C5228.4,4933.5 5230,4931.2 5231.2,4929.1 C5233.4,4925.1 5236.3,4921.2 5239.3,4917.6 C5241.9,4914.5 5244.2,4911.2 5246.8,4908 C5247.4,4907.3 5247,4904.3 5247.4,4903.9 C5249,4903.2 5250.1,4902.8 5251.6,4902 C5256.1,4899.7 5265.7,4893.8 5267.8,4888.9 C5268.7,4886.8 5268.1,4885 5267.4,4883.1 L5263.9,4873.9 C5262.1,4869.1 5266.8,4867.7 5268.8,4864.2 C5271.5,4859.5 5270.5,4858.8 5268.4,4854.5 C5267.6,4852.9 5265.9,4850.2 5267.5,4848.5 L5271.7,4843.9 L5271.5,4843.7 L5271.5,4843.6 C5271.1,4843.4 5270.6,4843.2 5270.2,4842.9 L5252.5,4831.5 C5251.3,4830.7 5248.3,4828.5 5247,4830.1 L5246.7,4831 C5246.1,4831.8 5245.4,4832.6 5244.8,4833.3 C5243.5,4834.8 5242,4835.9 5240.7,4837.3 C5239.4,4838.6 5238.9,4840.6 5237.5,4841.9 C5234.2,4844.9 5230.5,4841 5230.5,4848.4 C5230.5,4850.4 5222,4857.4 5220.4,4858.7 C5218.4,4860.4 5215.9,4861.8 5213.2,4861.4 C5211.5,4861.1 5209.8,4860.5 5208.2,4860.2 C5205.8,4859.9 5203.2,4859.9 5200.9,4859.4 C5200.4,4859.3 5200,4859 5199.5,4858.9 L5197.2,4858.6 C5189.8,4857.8 5185.2,4845.8 5177.5,4855.3 L5177.1,4855.4 C5175.3,4857.9 5174.1,4860.7 5175.4,4863.8 C5176.1,4864.2 5176.6,4865 5177.4,4865.3 C5178.7,4865.9 5179.7,4866.5 5180.9,4867.2 C5181.9,4867.7 5183.2,4867.6 5184.1,4868.3 C5184.5,4868.6 5185.3,4869.4 5185.4,4869.9 C5185.8,4871.9 5183.8,4878.2 5183,4880.4 C5182.6,4881.6 5181.9,4882.7 5181.6,4883.9 C5180.9,4884.7 5178.7,4884.2 5178,4884.5 C5177.6,4884.7 5176.4,4886.5 5176.1,4886.8 C5175.7,4887.3 5174.4,4887 5174,4886.7 L5173.6,4886.7 C5169.6,4891.6 5168.5,4887.7 5165.5,4888.2 C5165.3,4888.3 5165,4888.5 5164.7,4888.5 C5163.4,4889.5 5162.6,4891.6 5161,4892.1 C5157.8,4893.1 5158.1,4891.1 5156.3,4890.3 C5155.8,4890.1 5155.3,4890.4 5154.9,4890.4 C5154.5,4891 5153.8,4891.3 5153.5,4891.9 C5152.5,4893.3 5152,4895 5151.5,4896.6 C5149.6,4902.3 5152.9,4906.6 5153.3,4911.9 C5150.5,4911 5115.9,4899.9 5115.6,4899.7 L5111,4900.6 C5110.6,4900.1 5110.9,4898.9 5109.7,4897.5 C5105.8,4892.9 5103.3,4898.1 5100.6,4899.3 C5099.8,4899 5098.9,4898.2 5098.4,4897.6 C5098.6,4897.4 5098.7,4897.1 5098.8,4896.9 C5099.4,4895.6 5100.4,4893.2 5100.9,4891.9 C5104,4883.2 5103.9,4881.7 5100.9,4872.7 L5107.3,4877.4 C5108.3,4876.3 5117.7,4866.7 5117.8,4866.2 C5117.8,4862.8 5117.2,4862.7 5117.8,4858.3 C5117.9,4857.1 5118.4,4855.5 5118.2,4854.4 C5117.9,4854.1 5117.9,4853.7 5117.7,4853.4 C5117,4852.1 5115.9,4851.2 5115.1,4850.1 L5115.2,4849.9 C5116.6,4849.6 5117.6,4848.7 5118.7,4847.8 C5119.3,4847.3 5120,4846.8 5120.6,4846.3 C5121.3,4845.7 5122.2,4845.3 5122.9,4844.6 C5124.9,4842.6 5125.5,4839.7 5127,4837.3 C5127.7,4836.9 5134.6,4833.4 5134.8,4833.1 C5135.6,4833.4 5136.9,4833.8 5137.8,4833.7 C5138.6,4835.6 5142.8,4834.1 5143.9,4833.9 C5147.6,4833 5143.4,4827.5 5150.4,4823.9 C5150.6,4823.1 5147.2,4820.2 5147.6,4819 C5149.1,4816.8 5149.8,4817.5 5151.6,4813.5 C5152.4,4811.8 5154.1,4809.2 5153.2,4807.2 C5152.5,4806.7 5150.8,4807.4 5150.1,4807.6 L5149.7,4807.4 C5149.2,4806.3 5148.4,4805.8 5147.7,4804.8 C5146.1,4803.8 5143.8,4805.6 5142.2,4805.6 L5141.9,4805.5 C5142.4,4803.8 5143,4802 5143.6,4800.3 C5142.3,4799.3 5128.9,4789 5128.7,4788.6 C5128.3,4789.3 5125.8,4794.1 5125.9,4794.6 C5126,4795 5127.8,4795.7 5128.2,4797 C5130.3,4804 5128.2,4806.3 5123.6,4811.8 C5120.7,4815.3 5123.1,4819.1 5117.4,4821.2 L5117.1,4821.7 C5116.3,4821.8 5114.6,4821.4 5114.2,4822 C5113.3,4825.1 5107.1,4824.7 5106.8,4824.4 C5106.3,4823.9 5105.5,4822.2 5104.8,4822.1 C5105.7,4821.5 5103.9,4819.6 5103.4,4819.3 C5104.9,4815.7 5104.6,4813.2 5104.6,4809.4 C5104.6,4805.6 5106.3,4799.7 5107.2,4796 C5107.9,4792.9 5109.3,4790.1 5110,4787.1 L5109.9,4786.7 C5109.3,4786.3 5108.6,4786.2 5107.9,4786.2 C5107.5,4785.2 5107.3,4784.2 5107,4783.2 C5106.7,4782.8 5101.4,4782.4 5100.2,4782.7 C5099.7,4785.4 5098.8,4787.8 5097.9,4790.4 C5097,4793 5096.8,4795.5 5096.2,4798.2 C5096,4799.4 5095.3,4800.7 5095,4801.9 C5093.5,4806.6 5092.6,4811.7 5090.3,4816.1 C5090.5,4808.5 5089.6,4800.2 5089.1,4792.5 L5093,4790.1 C5092.1,4787.6 5091.1,4785.1 5090.1,4782.6 C5090.7,4782.4 5097.2,4778.6 5097.9,4777.5 L5095.5,4770.2 C5094.9,4770 5094,4770 5093.4,4770.1 C5093.2,4770 5079.8,4766.7 5079.6,4766.7 C5080.4,4776.5 5081.7,4773.5 5077.9,4782.2 C5080.7,4784.2 5083.6,4786.1 5086.2,4788.2 L5084,4800.3 C5081.8,4801 5079.3,4801.9 5077,4802 C5076.5,4802 5071,4802.1 5070.9,4802.2 C5065.8,4803.8 5060.4,4806.7 5055.4,4808.8 L5049.8,4824.6 C5053.3,4828.4 5058.7,4831.6 5061.4,4835.1 C5061.9,4835.7 5062.5,4836.3 5063,4837 C5064.6,4839 5066.3,4840.6 5067.5,4842.9 C5067.7,4843.3 5068,4843.9 5068.4,4844.3 C5070.2,4845.9 5071.9,4847.2 5073.6,4849 C5073.8,4849.2 5073.8,4849.6 5073.7,4849.8 C5073.3,4850.1 5072.7,4851.6 5072.4,4852.1 C5071,4854.7 5069.9,4858.7 5069.4,4861.7 C5069.2,4862.8 5069.5,4864.4 5069.1,4865.3 L5067.2,4866.8 C5065.8,4867.9 5065.8,4868.3 5064.9,4869.6 C5065.3,4870.7 5067,4872.2 5067.9,4873 C5068.8,4873.7 5070,4874.1 5070.9,4874.8 C5072.3,4875.9 5073.6,4877.1 5075,4878.3 C5078.8,4881.5 5081.2,4882.1 5085.2,4884.3 C5083.2,4886.2 5084,4889.4 5083.9,4891.7 C5083.6,4892.3 5083.2,4892.5 5082.7,4892.9 C5081.2,4894 5078.1,4897.9 5077.6,4898.2 C5077.4,4898.3 5075.9,4898.9 5075.7,4899 C5075.3,4899.2 5074.4,4900.3 5074,4900.3 C5069.7,4902.9 5065.6,4900.7 5063.6,4902.5 C5063.6,4904 5064.2,4904.5 5064.5,4906 C5065,4908.5 5065.4,4916.6 5064.6,4918.5 C5064.2,4919.5 5063.5,4920.6 5062.9,4921.6 L5061.7,4923.9 C5057,4932.6 5060.5,4933.5 5059,4940.8 C5058.4,4940.3 5055.1,4937.9 5054.4,4937.8 C5054.1,4937.8 5053.8,4937.9 5053.5,4937.8 C5052.7,4937.3 5052.9,4935.7 5051.6,4934.5 C5049.6,4932.8 5046.9,4932 5044.9,4930.5 C5042,4928.2 5042.3,4923.5 5038.1,4922.3 C5032,4924.1 5031.6,4921.1 5027.6,4917.7 C5026.9,4917.1 5025.5,4915.6 5025.3,4914.9 C5023.8,4914.9 5021,4913.7 5019.6,4914.4 C5012.2,4918.1 5013,4923.2 5003,4922.2 C5002.7,4922.4 5002,4923 5001.6,4923.1 L5001.2,4923 C5001.2,4922.4 5001.2,4921.7 5000.6,4921.3 C4995.9,4920 4988.2,4933.8 4986.1,4937.5 C4984.8,4939.8 4984.7,4937.5 4983.2,4941.6 L4982.6,4943.4 C4982.9,4944 4982.9,4944.9 4983.1,4945.4 C4983.4,4946.2 4984.1,4946.7 4984.4,4947.5 C4985,4948.9 4984.5,4953 4983.4,4954.2 C4977.2,4955.1 4979.9,4957.5 4975.5,4958.7 C4974.6,4958.9 4973.6,4958.8 4972.7,4959 C4971.3,4959.3 4970,4959.9 4968.7,4960.3 C4968.4,4960.4 4968,4960.5 4967.7,4960.6 C4965.2,4960.7 4961.8,4959.9 4959.4,4960.7 C4957.7,4961.3 4955,4962.6 4953.6,4963.9 C4953,4964.5 4952.6,4965.2 4951.9,4965.7 C4951.5,4966 4951,4966 4950.6,4966 L4950.3,4966.3 C4950,4967 4950.7,4967.3 4949.9,4968.5 C4950.1,4970.3 4953.4,4976.5 4954.5,4978 C4954.9,4978.5 4955.7,4978.9 4956,4979.4 C4956.3,4979.8 4956,4980.9 4956.5,4981.6 C4958,4982.2 4958.8,4982.9 4959.3,4984.4 C4960.6,4987.9 4959.4,4992.9 4960.6,4995.8 C4961.9,4998.9 4965.4,5006.3 4967.2,5008.9 C4968.7,5011.2 4971.1,5012.7 4972.6,5015 C4972.9,5015.5 4973.1,5016.3 4973.4,5016.7 C4974.4,5018.1 4975.9,5019.3 4976.8,5020.7 C4977.8,5022.2 4978.2,5024.7 4979.3,5026 C4979.9,5026.7 4980.9,5027.3 4981.2,5028.1 C4981.4,5028.5 4981.4,5029 4981.6,5029.4 C4981.9,5030 4984.1,5030.6 4984.9,5031.9 C4985.3,5032.5 4985.5,5033.9 4985.9,5034.2 C4986.7,5034.8 4988.2,5034.7 4989,5035.3 C4989.8,5035.8 4990.3,5037.1 4991,5037.8 C4991.8,5038.1 4992.2,5037.1 4993.2,5037.5 C4994.9,5038.3 4995.7,5042.9 4996.2,5044.6 C4996.4,5045.2 4997.1,5045.6 4997.5,5046.2 C4997.5,5047.1 4996.7,5048.3 4997.1,5049 C4997.7,5050.2 4999.9,5050.2 5000.6,5051.9 C5001,5052.8 5000.6,5054.4 5000.8,5055.5 C5002.6,5057.1 5004.3,5059.1 5006.3,5060.3 C5007.1,5060.8 5008.3,5061 5009,5061.6 C5010.5,5062.7 5010.9,5064.2 5013,5062.7 C5013.5,5062.6 5014,5062.9 5014.5,5062.8 C5016.2,5062.5 5014.5,5060.7 5018.2,5062.6 L5018.4,5063 C5018.4,5064.8 5016.7,5066.5 5017.2,5068.4 C5019.7,5069.3 5021.8,5067.3 5023,5067.6 C5023.4,5067.8 5023.6,5068.3 5023.5,5068.8 L5023.8,5069.1 C5024.6,5069.5 5025.5,5069.1 5026.3,5069.5 C5027.1,5070.2 5026.4,5071.4 5027.9,5072.4 C5029.1,5073.2 5031.2,5073.9 5033.6,5074.5 L5034,5073.8 C5033.3,5068.7 5036.2,5070.8 5037,5068.5 C5037.4,5067.4 5037.2,5066 5037.7,5064.9 C5037.8,5064.7 5038.1,5064.4 5038.3,5064.4 C5039.4,5064.9 5040.7,5064.7 5041.8,5065.2 C5042,5065.6 5042.3,5066.4 5042.6,5066.6 C5042.9,5066.6 5043.3,5066.6 5043.5,5066.5 C5044,5066.1 5043.9,5064.5 5043.9,5064 C5044,5063.7 5047.8,5060 5048.9,5063.1 L5049.3,5063.3 C5049.4,5063.3 5055.8,5061.7 5056.1,5061.4 C5060.1,5058 5058.3,5060.1 5061.9,5058.4 C5064.7,5057.1 5067.2,5055.3 5069.8,5053.7 L5068.4,5046.8 L5074.5,5042.2 C5076.5,5044.5 5083.4,5048.4 5086.1,5049.5 C5088.7,5050.6 5091.8,5053.2 5094.7,5052.9 C5095.1,5052.5 5095.8,5052.6 5096.2,5052.2 C5098.9,5049.9 5106,5047 5107.2,5045.4 C5111.1,5049.8 5114.8,5054.5 5119,5058.6 C5118.8,5059.3 5119.2,5059.9 5119.1,5060.6 C5119,5061.8 5117.6,5062.5 5117.9,5063.5 C5118.6,5066.7 5119.1,5069.5 5118.3,5072.7 C5117.8,5074.6 5116.4,5078.3 5116.5,5080.1 C5117.2,5081.7 5119.9,5083.1 5118.8,5085.3 L5118.9,5085.7 C5120.4,5086.6 5119.5,5087.7 5120.1,5088.9 L5120.4,5089.5 L5120.5,5089.5 C5122.1,5087.9 5128.1,5089 5130.4,5088.8 C5130.2,5088.1 5134.9,5082.4 5135.3,5081 C5136.1,5080.9 5137.3,5082.2 5137.8,5082.6 C5140.6,5085.3 5143.1,5088.6 5146.7,5090.5 L5147.1,5090.5 C5147.8,5089.6 5149.5,5084.9 5150,5083.6 C5151.3,5082.7 5157.8,5082.6 5159.4,5078 C5160.9,5073.8 5157.6,5074.3 5158.8,5072.4 C5160.2,5071.2 5167.5,5067.4 5168.4,5067.5 C5170.1,5067.5 5172,5067 5173.7,5067.2 L5173.9,5067 C5173.9,5066.7 5173.9,5066.3 5174,5066 C5174.3,5065.8 5174.6,5065.3 5174.8,5065 C5176.6,5064.2 5180.1,5064.6 5181.5,5066.1 C5181.6,5066.6 5182,5067.1 5182.2,5067.6 L5182.4,5067.5 C5183.3,5065 5185.2,5062.7 5186.5,5060.2 C5187.8,5057.7 5189.2,5055.2 5190.4,5052.6 C5190.4,5051.4 5188.5,5045.2 5187.5,5044.8 C5185.9,5044.8 5175.8,5049.2 5176.3,5045.1 C5176.5,5043 5176.6,5041.4 5176.2,5039.3 C5175.5,5035.5 5175.1,5031.7 5173.2,5028.4 C5171.8,5026 5171.6,5024.8 5171.7,5021.6 C5173.5,5020.8 5178,5018.2 5178.7,5016.2 C5178.5,5015.3 5178.1,5012.1 5177.8,5011.4 C5176,5011.1 5174,5009.6 5172.1,5010 C5170.8,5008.1 5169.6,5009.2 5168.8,5008.6 C5168.4,5008.3 5168,5007.7 5167.4,5007.6 C5166.6,5007.9 5165.3,5008.5 5164.4,5008.2 L5162.7,5005.4 C5161.8,5006.5 5160.9,5007.7 5159.8,5008.6 C5158.2,5009.9 5154.6,5011.3 5153.9,5008.1 C5153.5,5006.4 5154.9,5005.1 5154.2,5003 C5153.6,5002.5 5152.1,5002.7 5151.3,5002.7 C5148.4,5002.8 5150.1,4997.3 5151.2,4996 C5154.3,4992.2 5153.6,4994.1 5155.4,4992.8 C5158.8,4990.1 5161.8,4988.9 5165.9,4987.5 L5174.4,4986.2 C5174.8,4986.3 5176.1,4986 5176.4,4985.8 C5180.5,4983.7 5186.1,4985.7 5189.2,4981.7 L5189.6,4981.1 C5189.9,4980.7 5190.3,4980.2 5190.7,4979.8 C5196.8,4980 5194.8,4978 5197.4,4975.9 C5198.3,4975.6 5199.6,4975.6 5200.3,4974.9 C5201.8,4973.4 5204.1,4973.7 5206,4973.7 C5206.9,4973.7 5207.9,4973.7 5208.8,4973.5 C5210.1,4973.3 5211.2,4972.2 5212.5,4972.8 C5216.8,4975 5219.4,4974.1 5223.1,4971.6 C5224.4,4970.7 5225.5,4970.2 5226.3,4970 L5226.5,4968.2 L5226.5,4968.2 Z" id="svg--id--Jalisco--JA_1_"></path>
            </g>
        </g>
    </g>
</svg>