<?xml version="1.0" encoding="UTF-8" standalone="no"?>
<svg width="509px" height="525px" viewBox="0 0 509 525" version="1.1" xmlns="http://www.w3.org/2000/svg" xmlns:xlink="http://www.w3.org/1999/xlink" xmlns:sketch="http://www.bohemiancoding.com/sketch/ns">
    <!-- Generator: Sketch 3.4.4 (17249) - http://www.bohemiancoding.com/sketch -->
    <title>svg--id--Sonora--SO_2_</title>
    <desc>Created with Sketch.</desc>
    <defs></defs>
    <g id="Page-1" stroke="none" stroke-width="1" fill="none" fill-rule="evenodd" sketch:type="MSPage">
        <g id="mexico-no-stroke" sketch:type="MSLayerGroup" transform="translate(-4226.000000, -3939.000000)" fill="#F2F2F2">
            <g id="Layer_2" sketch:type="MSShapeGroup">
                <path d="M4665.9,4440.5 C4666.3,4441.1 4666.2,4441.8 4666.9,4442.4 C4667.7,4443.1 4668.9,4443.6 4669.8,4444.3 C4670.2,4444.6 4670.8,4445.5 4671.2,4445.5 C4674.1,4449.2 4675.2,4454.9 4674.8,4459.5 C4674.7,4461 4673.7,4462.1 4674.1,4463.7 L4674.3,4463.9 C4675,4463.6 4676.7,4461.7 4677.4,4461.1 C4678.4,4461 4678.8,4461.4 4679.6,4461.8 L4679.9,4461.7 C4679.8,4461.1 4679.7,4460.1 4679,4459.7 C4679.6,4459.8 4680.3,4459.7 4681,4459.9 C4681.2,4460.6 4681.6,4462.1 4682.2,4463.7 L4682.2,4463.7 L4697.1,4451.3 C4709,4441.4 4720.9,4431.4 4733,4421.7 C4734.4,4418.7 4734.8,4413.9 4734.2,4410.7 L4734.2,4410.7 C4734.2,4408.6 4731.2,4406.9 4729.5,4406.5 C4728.5,4406.3 4726.9,4406.1 4726,4405.7 C4723.7,4404.7 4721.4,4400.6 4720.6,4398.3 C4719.2,4394.5 4718.9,4394.3 4719.2,4390.4 C4719.3,4389 4719.2,4387.6 4719.5,4386.1 C4719.9,4384.2 4721.4,4383.6 4721.5,4380.2 C4721.6,4376.6 4718.6,4375.9 4719.5,4370.9 C4720.1,4367.7 4721.6,4363.1 4718.1,4361 C4717.5,4360.6 4716.6,4360.4 4716,4360 L4710.8,4356.4 C4710.7,4355.8 4710.7,4355.2 4710.6,4354.6 C4709.6,4348.9 4708.6,4346.3 4704.1,4342.6 C4703,4341.7 4701.6,4340.6 4700.1,4340.6 C4700.1,4340.2 4699.5,4336.8 4699.3,4336.5 L4682.1,4307.3 C4684.7,4304.2 4686.8,4300.2 4689.1,4296.8 L4691.7,4298.8 C4691.8,4298.9 4692.1,4298.6 4692.2,4298.6 L4692.3,4298.1 C4692.9,4297.7 4693.2,4296.9 4693.8,4296.7 C4699.9,4294.7 4707.9,4298.8 4713.3,4301.6 L4715.7,4302.8 C4717.1,4303.5 4718.8,4303.6 4720.2,4304.3 L4726.9,4297.8 C4723.6,4286.3 4720.5,4274.7 4717.3,4263.2 C4719,4261.1 4720.7,4259 4722.4,4256.8 C4721.1,4247.3 4720.2,4237.7 4718.9,4228.2 C4717.9,4220.6 4716.2,4210.7 4715.9,4203.3 C4718.3,4203.2 4720.8,4203.1 4723.2,4203.3 C4724.1,4198.3 4724.1,4192.8 4724.6,4187.7 C4725.6,4176.1 4726.7,4164.6 4727.5,4153 C4727.5,4152.3 4718.7,4105.8 4718.2,4103.4 L4713.8,4098.6 C4711.9,4082.4 4710.5,4066.1 4708.9,4049.9 L4706,4054 L4701.7,4051 C4703.2,4047.1 4704.7,4043.2 4706.2,4039.3 L4706.3,4039.3 C4683.3,4039.2 4659.2,4039.2 4649.1,4039.3 C4640.4,4039.4 4631.6,4039.1 4622.9,4039.3 C4596.4,4039.8 4569.9,4039.1 4543.3,4039.3 C4541,4039.3 4537.8,4039.6 4535.5,4039.3 C4533.2,4039 4528.8,4036.8 4526.4,4036 C4517.8,4033 4495.7,4025.1 4495.7,4025.1 C4471.5,4016.5 4447.3,4008.2 4423.1,3999.7 C4415.1,3996.9 4354.8,3976.3 4345.7,3973.3 C4312,3962 4278.3,3950.4 4244.4,3939.7 L4244.1,3940.3 C4243.8,3941.2 4243.5,3940.6 4242.5,3940.6 L4241.9,3941.1 L4242,3941.5 C4241.6,3943.3 4240.5,3943.9 4239.7,3945.4 C4238.3,3948.2 4236.3,3951.7 4235.4,3954.7 C4235.4,3954.8 4235.2,3955 4235.2,3955.1 C4234,3957 4233.6,3958.2 4231.7,3959.4 L4231.5,3959.6 C4231.3,3960.5 4230.6,3961.4 4230.5,3962.3 C4232,3964.4 4231,3968.2 4231.1,3970.6 L4230.6,3970.8 L4230.1,3970.6 L4229.7,3970.7 C4229.7,3971.2 4230.1,3971.8 4230.3,3972.2 C4231.6,3974.5 4231.9,3976.2 4232.2,3978.8 L4231.3,3980 C4230.7,3980.2 4230,3980.5 4229.4,3980.5 C4229.1,3981.3 4229.1,3981.8 4230,3982 L4230.1,3982.3 L4230,3982.7 C4229.7,3983.1 4227.1,3983.8 4226.3,3984.5 L4226.8,3984.6 C4227.6,3985.1 4227,3987 4229.2,3988.4 C4229.7,3988.7 4230,3988.6 4230.6,3988.7 C4232.2,3988.8 4234,3989.8 4235.5,3990.6 C4236.9,3991.3 4238.2,3992.3 4239.7,3993.1 C4240,3993.2 4240.3,3993.3 4240.5,3993.5 C4241.6,3994.6 4242.4,3995.9 4243.7,3996.9 C4244.4,3997.5 4247.8,3997.8 4248.9,3998.3 C4250.5,3999 4251.2,4001 4252.3,4001.5 C4254.3,4002.5 4255.6,4001.5 4257.4,4001.4 C4258.3,4001.4 4258.8,4002 4259.6,4002.1 C4259.9,4002 4260.2,4001.9 4260.5,4001.9 C4261.3,4002.1 4261.7,4002.8 4262.3,4003.3 C4264.2,4005 4264.1,4004.8 4265.9,4006.1 C4266.9,4006.9 4267.7,4008.4 4268.8,4009.1 C4269.5,4009.5 4270.4,4009.4 4271,4010 C4271.8,4010.7 4272,4011.6 4273.1,4012.1 C4274.8,4013 4279.3,4014.5 4280.3,4015.2 C4281.9,4016.3 4280.9,4018.2 4284.1,4018.7 C4286.1,4021.2 4292.9,4024.1 4296,4024.5 C4297.4,4024.7 4299,4024.3 4300.5,4024.4 C4302.1,4024.5 4303.4,4025.2 4304.9,4024.1 C4305,4023.6 4304.9,4023 4305.1,4022.6 C4305.6,4022.5 4306.1,4023.1 4306.8,4022.7 C4307,4022.6 4310.3,4018.4 4310.3,4018.4 L4310.1,4018 L4309.7,4017.8 C4309.1,4017.9 4307.9,4018.4 4307.4,4018.1 C4307.4,4017.7 4307.7,4017.3 4308,4017 C4308.1,4016.5 4307.8,4016 4308,4015.4 C4307.6,4014.7 4307.7,4013.8 4307.7,4012.9 C4307.4,4011.9 4307.3,4011 4308.2,4010.3 C4308.5,4010.3 4308.8,4010.4 4309.1,4010.6 C4309.4,4014.6 4308.3,4016 4313.3,4015.7 C4313.7,4015.5 4314,4015.2 4314.3,4014.9 L4314.9,4015 L4315.1,4015.9 C4316.7,4017 4317.2,4016.7 4319,4017 C4319.5,4017.1 4320.5,4017.8 4321,4018 C4324.9,4020.1 4329.6,4021.1 4333.2,4023.6 C4333.9,4024.1 4334.8,4025.6 4335,4026.4 C4335.3,4027.7 4334.7,4028.8 4334.8,4030.1 C4334.8,4032.3 4335.7,4034.6 4336.1,4036.7 L4336,4037 C4335.5,4036.9 4335,4036.7 4334.5,4036.7 L4334.3,4037 C4334.9,4038.2 4338.8,4038.8 4340.2,4039.3 C4342.7,4040.2 4347.3,4044.6 4350.2,4042.1 C4351.1,4042.4 4351.8,4043 4352.7,4043.3 C4353.6,4043.6 4354.4,4043.6 4355.2,4043.7 C4356.9,4044.7 4364.9,4046.6 4366.6,4045.9 C4365.9,4045.1 4363.6,4046.2 4362.4,4044 L4362.4,4043.6 C4362.7,4043.4 4363.2,4043.4 4363.5,4043.5 C4364,4043.2 4364.1,4042.5 4364.5,4042.1 L4365,4042.2 C4365.5,4043.2 4366.3,4044.5 4367.1,4045.4 C4367.9,4046.4 4373.7,4050.5 4374.8,4050.2 L4375.1,4049.9 L4375.2,4049.5 C4374.8,4048.1 4373.5,4048 4372.4,4047.5 L4372.4,4047.2 C4372.8,4046.9 4374,4046.7 4374.5,4046.8 C4378.7,4047 4377.8,4051.6 4379.1,4052.7 C4379.3,4052.5 4379.5,4052.3 4379.7,4052.1 L4380.1,4052.1 C4380.9,4052.8 4380.3,4054.7 4380.4,4055.7 C4380.6,4057.4 4379.2,4066.3 4377.8,4067.2 C4377.1,4066.7 4377,4065.1 4376.6,4064.3 C4376.4,4063.9 4376,4063.8 4375.9,4063.3 C4375.8,4062.6 4375.7,4061.5 4375.7,4060.8 C4375.5,4060.6 4375.3,4060.4 4375,4060.3 L4374.3,4060.7 C4373.5,4061.9 4377,4068.7 4377.2,4071.3 C4377.6,4076 4374.3,4079.6 4374.4,4082.8 C4374.4,4084 4375.2,4085.1 4375.6,4086.3 C4376.3,4088.4 4376.6,4090.6 4377.2,4092.7 C4378.2,4095.9 4381.4,4100.6 4383.5,4103.3 C4384.3,4104.3 4385.4,4105 4386.2,4106 C4387.3,4107.3 4388,4108.9 4389.1,4110.3 C4390.1,4111.6 4391.5,4112.6 4392.5,4114 C4394.6,4116.7 4396.3,4122.3 4395.5,4125.7 C4395.3,4126.6 4394.5,4127.2 4394.2,4128 L4394.2,4128.4 C4394.3,4128.6 4394.5,4128.8 4394.8,4128.9 C4395.3,4128.8 4395.5,4128.1 4396,4127.8 L4397,4127.8 C4402.9,4132.7 4404.1,4134.2 4403.3,4142.3 C4403.1,4144.4 4402.9,4146.1 4403.3,4148.2 C4404.8,4149.9 4405.8,4151.1 4405,4153.6 C4404.9,4154.1 4404.4,4154.6 4404.4,4155 C4404.3,4155.7 4404.4,4156.4 4404.3,4157.1 C4404.1,4157.8 4403.9,4158.4 4404,4159.1 C4404.3,4159.4 4404.6,4159.7 4405,4159.8 C4406.1,4159.7 4406.6,4158.7 4407.3,4158.6 C4407.7,4159 4407.9,4159.5 4408.3,4160 C4408.6,4160 4408.9,4159.9 4409.2,4159.7 C4411.5,4161.2 4410.5,4164.1 4411.5,4166.1 C4412.6,4168.4 4414.5,4170.3 4415.7,4172.5 C4416.6,4174.2 4416.1,4175.4 4417.6,4177.5 L4417.9,4177.7 L4418.1,4177.9 C4421,4178.4 4420.8,4181 4422.2,4183.3 C4424.5,4187 4426.6,4187.5 4428.6,4190.1 C4430.2,4192.2 4427.1,4192.9 4432.3,4194.7 C4434,4197.6 4429.5,4203.4 4429.7,4205.5 C4429.8,4206 4430.9,4208.6 4431.2,4209.2 C4432,4209.6 4433.1,4209.8 4433.8,4210.3 C4434.5,4210.8 4434.5,4211.9 4435.3,4212.3 L4435.8,4212.3 C4436.4,4212 4436.5,4211.2 4436.3,4210.6 C4436,4210.5 4435.7,4210.3 4435.5,4210.1 L4435.5,4209.8 C4436.1,4209 4439.5,4208.8 4440.5,4208.8 C4444,4208.8 4446,4211.9 4446.2,4215.2 C4446.3,4216 4445.6,4218.3 4445.4,4219.2 C4445.2,4219.9 4444.3,4221 4444.2,4221.6 L4444.4,4222 C4445.4,4222.2 4446,4221.7 4446.8,4222.4 C4447,4222.8 4447,4223.4 4447,4223.9 C4447.3,4224.3 4447.9,4224.7 4448.3,4225 C4448.9,4226.9 4449,4228.4 4447.8,4230.1 C4447.9,4230.8 4447.7,4231.6 4447.8,4232.3 C4448,4233.6 4448.7,4235 4448.9,4236.3 C4449.3,4236.5 4449.6,4236.8 4449.8,4237.1 C4449.8,4237.8 4449.2,4238.1 4448.8,4238.5 C4448.7,4238.8 4448.6,4239.2 4448.6,4239.5 C4449.2,4240 4451.5,4239.6 4452.4,4240 C4452.8,4240.2 4453.1,4240.6 4453.3,4240.9 C4454.8,4242.7 4456.3,4243.6 4458.2,4245 C4458.3,4245.8 4458.1,4246.7 4458.6,4247.4 C4459.1,4248.3 4467.5,4253.9 4468.6,4254.2 C4469.3,4254.4 4471.5,4254 4472.5,4254.1 C4472.6,4255.1 4472.5,4257.4 4472.2,4258.3 C4472,4258.5 4471.7,4258.7 4471.4,4258.7 L4471,4258.5 C4470.2,4257.3 4470,4255.5 4468.2,4255.4 C4467.3,4255.7 4466.3,4256.8 4465.5,4257.4 C4466,4257.9 4466,4258.8 4466.4,4259.3 C4467.4,4260.7 4470.6,4263.6 4472,4265 C4474.5,4267.5 4477.6,4269.2 4479.7,4272.1 C4480.7,4273.6 4481.9,4275.1 4482.7,4276.7 C4483.3,4277.9 4484.3,4281.9 4484.9,4282.6 C4485.3,4283 4487.6,4283.9 4488.3,4284.1 C4491.8,4285.4 4495.2,4287 4498.7,4288.3 C4500.2,4288.8 4501.4,4289.8 4502.9,4290.3 L4502.9,4290 C4503.2,4289.9 4504.2,4289.9 4504.6,4289.8 L4504.9,4289.9 C4505,4290.2 4505,4290.5 4505,4290.8 C4499.5,4293.4 4506.8,4297 4508.5,4299.1 C4509.1,4299.9 4508.6,4300.8 4508.9,4301.5 C4509.1,4302.3 4509.9,4302.6 4509.7,4303.6 C4513,4304.7 4511.4,4304.3 4513.2,4306.6 C4515.5,4309.6 4517.1,4313.2 4519.3,4316.2 C4521.2,4318.7 4524.2,4320.1 4526,4322.6 C4528.3,4323.4 4528.2,4323.4 4529,4325.5 L4529.3,4325.6 C4529.6,4325.2 4530.2,4325.1 4530.6,4325.3 C4530.8,4325.7 4530.5,4326.9 4530.4,4327.3 L4530.7,4327.5 C4532.5,4327.6 4533,4326.4 4534.2,4326.4 C4535.3,4325.1 4537.3,4324.6 4538.9,4324.8 C4539.9,4325.6 4540.1,4326.6 4540.9,4327.5 C4541.5,4328.2 4542.5,4327.9 4543.2,4328.8 C4542.8,4329.3 4541.5,4329.4 4541.4,4330.3 C4542.5,4331.1 4542.9,4331.8 4543.5,4332.9 C4544.1,4333 4544.8,4332.6 4545.3,4332.8 C4545.4,4333.4 4545.6,4334 4545.7,4334.6 C4546.1,4334.8 4546.8,4334.7 4547.1,4335.1 C4547.2,4335.5 4547.5,4335.9 4547.8,4336.1 C4548.4,4335.9 4549.5,4331.7 4549.3,4331.1 L4549,4330.9 C4548.3,4330.9 4547.5,4330.9 4546.8,4331 C4551.9,4327.5 4549,4325.2 4549.6,4323.4 C4551.5,4322.5 4553.1,4325.2 4551.7,4325.9 C4552,4326.7 4553.1,4327.8 4553.1,4328.5 C4552.1,4329 4551,4329.3 4550.2,4330.1 C4551,4329.9 4552,4329.9 4552.9,4329.7 C4553.5,4329.6 4554.1,4329.1 4554.7,4329.1 C4557.1,4328.7 4559,4330.1 4561.2,4330.4 C4564.2,4330.8 4566.1,4332.1 4568.6,4333.9 L4569.1,4333.9 L4569.4,4333.6 C4569.3,4332.6 4568.4,4332.5 4568.3,4332 C4570,4330.7 4573.3,4333.5 4575.2,4333.9 C4575.7,4333.9 4575.9,4333.4 4576.4,4333.4 C4576.8,4334 4576.4,4335.1 4575.9,4335.6 C4574.5,4336.4 4572.2,4336.1 4570.7,4335.8 C4570.3,4336.5 4570.2,4337.3 4570,4338.1 L4569.5,4338.1 C4569.1,4337.9 4568.9,4337.5 4568.8,4337.1 C4568.4,4338.2 4568.5,4338.7 4569,4339.7 C4569.3,4339.9 4569.7,4339.9 4570,4339.9 L4570.3,4340.2 C4569.7,4341.3 4569,4341.5 4569.2,4342.9 C4569.6,4345.2 4572.6,4343.6 4573.6,4343.9 L4573.9,4344.2 L4573.7,4344.7 C4572.1,4346 4571,4345.1 4570.2,4345.8 C4569.9,4346.5 4569.7,4348.3 4569.4,4349.2 C4569.6,4349 4570,4348 4570.1,4347.7 C4570.8,4347.4 4571.4,4347.6 4572,4348 L4572.2,4348.3 L4572.2,4348.9 C4572.2,4349 4569.3,4351.2 4569.2,4351.2 L4568.7,4351.1 C4568.2,4350.6 4567.7,4350.2 4567.2,4349.7 C4566.2,4350.9 4567.4,4355.4 4568.2,4356.5 C4568.6,4357 4570.4,4359.2 4570.5,4359.5 C4570.8,4360.2 4570.5,4361.1 4571.3,4361.5 C4571.4,4363 4570.6,4365.6 4570.8,4366.9 C4571.1,4368.6 4572.6,4368.5 4573.2,4369.8 C4573.8,4371.1 4573.1,4374.1 4573.2,4375.6 C4576,4376 4577,4372.2 4579.4,4375.2 C4579.5,4375.9 4579,4376.6 4579.2,4377.3 C4579.5,4378.4 4582.1,4379.1 4581.4,4380.8 L4581.1,4381.1 C4580,4381.2 4577.2,4380.2 4576.6,4381.4 C4577.9,4382.2 4579.8,4382.1 4581.3,4382.8 C4585.7,4385 4589.2,4389.5 4591.7,4393.6 C4591.7,4393.5 4592.4,4393.5 4592.5,4393.5 L4592.7,4393 L4593.1,4392.8 C4595.4,4392.8 4596.7,4394.6 4598.7,4395.1 C4600.9,4395.8 4605.5,4395.8 4607.5,4396.8 C4608.5,4397.3 4610.7,4398.6 4611.7,4398.6 C4612.8,4398.6 4613.9,4397.5 4614.6,4396.8 L4615,4396.8 L4615.5,4397.4 L4616,4397.4 L4616.2,4397 C4618.6,4396.7 4619.7,4398.4 4620.8,4400.1 C4621.3,4401 4622.2,4401.3 4622.6,4402.5 C4623.1,4404.2 4623,4405.9 4623.6,4407.6 C4623.8,4408.3 4625.3,4411.9 4625.3,4412.2 C4623.3,4411.9 4622,4407.6 4620.5,4406.7 L4620.1,4406.9 C4620,4408.1 4624.2,4412.5 4624.9,4414.3 C4625.6,4416.4 4625.1,4418.8 4626.5,4420.7 C4626.4,4421 4626.4,4421.4 4626.5,4421.7 C4628,4423.4 4628.3,4425.6 4629.5,4427.3 C4631.6,4430.3 4637.3,4434.5 4641.1,4434.5 C4643.3,4434.5 4642,4431 4646.6,4432.1 C4648,4432.5 4654,4434.2 4654.9,4433.3 L4655.1,4432.9 C4655,4431.8 4653.3,4431.9 4652.5,4432 L4652.4,4431.5 L4653.1,4431.1 L4653.1,4430.6 C4652.3,4429.3 4650.6,4430.3 4649.6,4429.6 C4648.8,4428.2 4652.1,4427.2 4652.8,4426.6 L4653.3,4426.6 L4653.6,4426.9 C4653.9,4427.6 4654.1,4428.6 4654,4429.3 L4654.2,4429.6 C4654.8,4429.7 4655.2,4429.1 4655.7,4428.9 L4656.2,4429 C4656.4,4429.1 4656.7,4429.3 4656.8,4429.6 C4656.8,4429.9 4656.8,4430.2 4657,4430.4 C4658.1,4430.4 4660.5,4431.1 4659.7,4432.7 C4658.8,4433 4658.1,4432.3 4657.3,4432.2 C4657,4432.3 4656.8,4432.5 4656.7,4432.7 L4656.7,4433.2 C4656.8,4433.3 4660.3,4434.1 4661.5,4435.1 C4662,4436.1 4665.6,4440 4665.9,4440.5 L4665.9,4440.5 Z" id="svg--id--Sonora--SO_2_"></path>
            </g>
        </g>
    </g>
</svg>