<?xml version="1.0" encoding="UTF-8" standalone="no"?>
<svg width="295px" height="292px" viewBox="0 0 295 292" version="1.1" xmlns="http://www.w3.org/2000/svg" xmlns:xlink="http://www.w3.org/1999/xlink" xmlns:sketch="http://www.bohemiancoding.com/sketch/ns">
    <!-- Generator: Sketch 3.4.4 (17249) - http://www.bohemiancoding.com/sketch -->
    <title>svg--id--Chiapas--CP_2_</title>
    <desc>Created with Sketch.</desc>
    <defs></defs>
    <g id="Page-1" stroke="none" stroke-width="1" fill="none" fill-rule="evenodd" sketch:type="MSPage">
        <g id="mexico-no-stroke" sketch:type="MSLayerGroup" transform="translate(-5842.000000, -5174.000000)" fill="#F2F2F2">
            <g id="Layer_2" sketch:type="MSShapeGroup">
                <path d="M6135.3,5308.1 C6136,5304.6 6131.4,5302.7 6128.6,5302.9 C6128.3,5300.6 6125,5299 6122.8,5299.4 L6122.6,5298.8 C6120,5297.9 6119.5,5298 6118.9,5298.1 L6118.7,5298.2 C6118.8,5296.8 6118,5295.5 6115.7,5294.9 C6115.6,5294.3 6115.9,5293.5 6114.9,5292 C6115.9,5290.1 6115,5286.1 6113.5,5284.7 C6112.4,5283.1 6113,5281.9 6110.7,5280.6 C6110.4,5279.5 6110.2,5279 6109.3,5278.1 L6108.3,5277 L6107.3,5275.9 C6106.2,5274.7 6105.4,5274.3 6103.8,5273.9 C6103.9,5270.7 6100.8,5270.2 6098.4,5270.8 C6097.3,5269.6 6095.7,5269.1 6094.1,5269 L6093.8,5269 L6093.7,5268.7 C6093.4,5267.9 6092.7,5267.3 6092.4,5266.5 C6092.8,5262.9 6087.1,5260.7 6084.7,5263.1 C6084.3,5263 6083.9,5262.9 6083.4,5262.9 C6083.1,5260.9 6080.9,5258.6 6079.5,5257.2 C6079.6,5254.8 6077.9,5252.7 6075.6,5252.3 C6069.8,5251.4 6072.9,5245.5 6067.1,5243.9 C6067.1,5243.5 6067.4,5243.4 6067.4,5243 C6067.3,5238.9 6063.5,5237 6059.6,5238.1 L6059.4,5237.8 C6057.6,5235.6 6056.7,5235.4 6054,5235.3 C6054,5235.3 6053.9,5235.3 6053.9,5235.2 L6053.8,5235.2 C6050.8,5234.8 6049.9,5233.2 6049.9,5233.2 C6050.2,5231.2 6051.3,5229.2 6053.2,5229.1 C6052.7,5228.3 6051.5,5225.8 6051,5225.4 C6048.9,5227.1 6044.5,5224.2 6045.2,5221.3 C6045.3,5220.8 6045.8,5219.8 6045.8,5219.4 C6045.8,5219.3 6045.7,5219.3 6045.6,5219.2 L6045.5,5219 L6045,5217.9 L6045,5217.3 C6042.1,5217.3 6036.2,5215.8 6034.2,5214.5 C6032.6,5213.5 6035.5,5210.7 6035.4,5209.4 C6035.3,5207.3 6033.2,5200.3 6032.4,5198.2 C6030.3,5192.8 6022,5198.4 6024.3,5193.7 C6024.6,5193.1 6024.1,5192 6024.1,5192 C6023.9,5191.4 6023.8,5190.8 6023.8,5190.3 L6023.8,5189.8 L6023.8,5189.6 C6022.9,5187.9 6022.5,5187.7 6022.9,5185.6 L6022.9,5185.3 C6021.9,5184.8 6021.5,5184.4 6021,5183.5 C6018.2,5185.7 6017.3,5183.4 6015.1,5183.5 L6015,5183.8 C6014.7,5184.9 6014,5186.2 6012.7,5186.2 L6012.2,5186.2 C6010.5,5186.2 6009.8,5184.4 6009.8,5183 L6010.1,5182.1 C6009.6,5181.8 6008.1,5181.3 6008.1,5181.3 L6007.7,5180.8 L6001.9,5186.5 C6002,5186.9 6002.4,5187.2 6002.7,5187.4 C6002.8,5188.2 6003.3,5189.5 6002.6,5190.2 C6002,5190.2 6001.4,5190.4 6001,5190.9 C5998.2,5191.5 5998.5,5190.7 5996,5190.1 L5995.7,5190.3 C5995.7,5190.5 5995.7,5190.9 5995.5,5191.1 C5990.2,5192.7 5984.9,5194.5 5979.6,5196.3 C5979.1,5202 5976.9,5200.1 5974.7,5202.2 L5953.6,5222.6 C5952.3,5223.8 5951.1,5225.1 5949.9,5226.3 C5948.1,5228.1 5943.9,5223 5942.9,5221.8 C5942.1,5220.7 5941.1,5219.5 5940.4,5218.3 C5939.5,5216.8 5938.6,5212.2 5937.1,5211.8 C5936.3,5212.1 5933.6,5212.3 5932.6,5212.3 C5930.3,5211.1 5931.6,5205.7 5931.3,5203.8 C5930.8,5200.5 5927.8,5192.9 5931.3,5190 C5931.3,5188.5 5931.1,5180.7 5931.1,5180.7 L5930.4,5181.3 C5929.7,5181.9 5929,5182.1 5928.3,5181.9 L5927.8,5182.4 L5927.5,5182.6 C5925.4,5183.7 5921.1,5182.1 5919.9,5180.5 C5915.1,5174.3 5917.3,5177.8 5913.2,5175.7 C5912.3,5175.2 5910.7,5174.8 5910,5174.8 C5908.7,5177 5907.8,5177.4 5905.1,5177.8 L5905.1,5178.1 C5905.1,5179.8 5904.7,5181.6 5903.5,5182.9 C5904.5,5185.4 5902.7,5187.3 5901,5188.7 L5900,5189.5 C5899.8,5189.7 5899.6,5189.8 5899.5,5189.9 C5899.9,5190.9 5899.8,5191.6 5899.6,5192.6 C5901.8,5193.8 5901,5196.1 5899.1,5196.9 C5900,5198.9 5902.4,5201.6 5899,5205.2 C5898.1,5206.1 5897.3,5207.2 5896.1,5207.6 C5895.4,5209.6 5895.9,5211.2 5893.2,5211.2 C5892.5,5212 5892.1,5212.6 5891.9,5213.1 C5890.3,5216.9 5886.5,5221.6 5885,5225.4 L5883.4,5226.4 C5882.8,5228 5882,5230.1 5881,5230.8 L5862.4,5244.2 L5861.9,5244.2 L5862.2,5244.2 C5863,5245.6 5862.6,5254 5862.6,5255.9 C5861.6,5255.3 5860.7,5255.4 5859.7,5255.8 C5859.6,5259.4 5859.8,5263.3 5859.4,5267 C5856,5269.3 5852.5,5271.5 5849.2,5273.9 C5849.2,5276.9 5849.8,5279.9 5849.8,5282.8 C5849.8,5289.2 5847.8,5289.8 5844.6,5294.7 C5839.5,5302.5 5845.7,5302.9 5846.6,5306 C5847.5,5309.2 5846.7,5309.8 5848.2,5314.1 C5850.2,5319.5 5849.2,5318.5 5848.7,5324.1 C5848.6,5324.6 5848,5326.1 5847.7,5326.5 L5845.8,5329.7 L5845.8,5329.8 C5846.9,5330.9 5848.3,5331.6 5850,5332.6 C5850.5,5332.9 5851.1,5333.7 5851.7,5333.6 C5851.8,5333.5 5852,5333.4 5852.2,5333.3 C5852.4,5333.2 5852.4,5333.2 5852.6,5333.2 C5853.9,5333.2 5856,5334.7 5857.4,5334.8 C5858.3,5334.9 5859.3,5334.4 5860.4,5334.6 C5860.5,5334.6 5861.3,5335.2 5861.4,5335.3 C5862.5,5336.5 5862.2,5337.9 5862.8,5339.1 C5863.1,5339.8 5864.2,5340 5864.4,5340.9 C5864,5341.4 5863.1,5342.8 5862.4,5342.8 C5862.1,5342.7 5861.6,5341.9 5861.3,5341.6 C5861.2,5341.8 5860.9,5342 5860.7,5342 C5860.5,5341.9 5860.2,5341.6 5860.2,5341.4 C5859.4,5341.2 5858,5341.1 5858,5342.2 C5858.2,5342.6 5863.5,5345.3 5864.5,5345.8 C5865.8,5346.5 5866.6,5347.7 5867.7,5348.5 C5868.5,5349 5869.6,5349.1 5870.4,5349.5 C5871.7,5350.2 5872.7,5351.4 5873.8,5352.3 C5875.1,5353.4 5876.9,5354.3 5878.3,5355.1 C5879.9,5356 5881.1,5357.7 5882.4,5358.9 C5884.2,5360.5 5886.6,5361.4 5888.3,5362.9 C5891.1,5365.4 5893.8,5368 5896.5,5370.5 C5897.3,5371.2 5897.8,5372.2 5898.6,5372.9 C5901.2,5375.1 5904.2,5377.1 5906.7,5379.4 C5908,5380.6 5908.9,5382 5910.4,5383.2 C5912,5384.5 5914,5385 5915.5,5386.5 C5916.3,5387.4 5916.9,5388.5 5917.7,5389.5 C5919.9,5391.9 5921.7,5395.8 5924.1,5397.8 C5925.7,5399.1 5927.6,5400 5929.1,5401.2 C5930.4,5402.3 5931,5404.3 5932.3,5405.4 C5932.8,5405.8 5933.4,5405.8 5933.8,5406.1 C5934.2,5406.4 5934.3,5406.7 5934.9,5406.6 C5936,5407.6 5939.4,5409.9 5940.8,5410.9 C5941.2,5411.2 5941.4,5411.8 5941.9,5411.9 L5942.6,5412.4 C5941.9,5413.4 5946.1,5418.5 5947,5419.5 C5949.4,5422.2 5951.6,5425.2 5953.9,5428 C5956.3,5430.8 5959,5433.4 5961.2,5436.4 C5961.9,5437.4 5963.2,5437.8 5964,5438.7 C5966.3,5441.3 5968.6,5444 5970.9,5446.6 C5974.4,5450.5 5982,5459.4 5988.5,5465.9 L5989.1,5465.3 C5990.4,5464.7 5990.6,5465.7 5991.2,5465.4 C5991.5,5465.2 5991.2,5464.4 5991.5,5464 C5991.9,5463.3 5993.2,5462.6 5993.6,5461.9 C5994.1,5460.9 5993.9,5459.5 5994.1,5458.4 C5994.1,5458.2 5994.3,5457.9 5994.5,5457.7 C5995.3,5456.6 5995.6,5455.7 5996.1,5454.4 C5996.5,5449.4 5995.1,5449.9 5994.7,5447.4 C5994.6,5446.7 5995.4,5446.5 5995.1,5445.6 C5994.5,5443.7 5993.5,5442.3 5993.7,5440.1 C5993.9,5438.1 5996.4,5437.6 5997.1,5435.8 C5997.5,5434.6 5995.5,5428.5 5996.8,5426.8 C5997.3,5426.2 5998,5425.8 5998.4,5425.1 C5998.8,5424.9 6001,5425.6 6001.5,5424 C6001.7,5423.5 6001.5,5423.1 6001.6,5422.7 C6001.8,5422.2 6002.5,5422.2 6002.6,5421.4 C6002.5,5421.1 6002.3,5420.9 6002.5,5420.5 C6002.7,5420.3 6002.9,5420.2 6003.1,5420.1 C6000.3,5415.6 5995.2,5408.6 5991.8,5404.4 C5994.5,5399.6 5997.4,5394.5 5999.8,5389.5 C6004.2,5380.3 6021.8,5348.5 6025.6,5341.6 C6026.8,5339.5 6027.8,5337.1 6029.1,5335.2 C6031.8,5334.8 6115.5,5335.2 6115.5,5335.2 C6119.6,5335.2 6123.8,5335 6127.9,5335.2 L6130.9,5335.4 C6131.1,5334.6 6131.1,5333.7 6131,5333.1 C6132,5332.1 6132.3,5330.9 6132.1,5329.6 C6132.2,5329.7 6132.3,5329.8 6132.3,5329.9 C6133,5327.9 6132.7,5325.4 6130.7,5324.1 C6131.6,5323.2 6132.1,5322.2 6132.2,5321.3 C6133.8,5319.9 6134.5,5317.5 6133.3,5315.5 C6135,5314.8 6135.4,5313.8 6135.3,5312.8 C6137,5312.1 6137.5,5310.1 6135.3,5308.1 L6135.3,5308.1 Z" id="svg--id--Chiapas--CP_2_"></path>
            </g>
        </g>
    </g>
</svg>