<?xml version="1.0" encoding="UTF-8" standalone="no"?>
<svg width="325px" height="454px" viewBox="0 0 325 454" version="1.1" xmlns="http://www.w3.org/2000/svg" xmlns:xlink="http://www.w3.org/1999/xlink" xmlns:sketch="http://www.bohemiancoding.com/sketch/ns">
    <!-- Generator: Sketch 3.4.4 (17249) - http://www.bohemiancoding.com/sketch -->
    <title>svg--id--Coahuila--CO_2_</title>
    <desc>Created with Sketch.</desc>
    <defs></defs>
    <g id="Page-1" stroke="none" stroke-width="1" fill="none" fill-rule="evenodd" sketch:type="MSPage">
        <g id="mexico-no-stroke" sketch:type="MSLayerGroup" transform="translate(-5083.000000, -4159.000000)" fill="#F2F2F2">
            <g id="Layer_2" sketch:type="MSShapeGroup">
                <path d="M5108.5,4435 L5108.5,4435 L5108.5,4435.2 L5110.2,4436.9 L5129,4455.9 C5130.7,4457.6 5132.6,4458.7 5133.4,4461.1 C5133.9,4462.6 5135.6,4465.7 5135.6,4467.3 C5135.6,4468.5 5135.8,4469.8 5135.8,4471 C5135.7,4473.7 5132.5,4478.8 5131.7,4481.8 C5130.8,4485.3 5131.3,4488.9 5131.4,4492.4 C5131.5,4497.9 5132.5,4502.2 5132.5,4508 C5132.5,4512 5132.3,4512.7 5130.4,4516 L5128,4520.3 C5125.5,4524.6 5120.7,4525.3 5119.5,4532 C5119.2,4533.6 5119.4,4535 5119.7,4536.6 C5120.1,4539.3 5125.9,4539.9 5125.2,4545.3 C5125.1,4546 5124.7,4547.6 5124.2,4548.2 C5123.3,4549.2 5121,4549.6 5119.7,4550.2 L5119.7,4550.4 C5119.5,4553.5 5121.3,4553.7 5123.7,4555.7 C5127.2,4558.7 5125.9,4560.2 5127.9,4562.8 C5129.9,4564.6 5139.7,4569.2 5139.1,4572.2 C5138.9,4573.2 5139,4581.2 5139.3,4582 C5140,4583.9 5142,4584.8 5143.4,4586.1 L5143.8,4586.5 L5144.1,4586.8 C5145.9,4588.5 5154.7,4589.4 5157.6,4590.4 C5160.6,4591.4 5167.3,4595 5171.7,4599.3 C5171.7,4599.3 5171.1,4592.9 5170.5,4588.2 C5175,4582.6 5179.8,4576.4 5183.1,4570 L5183.1,4570 L5183.1,4570 L5183.1,4570 L5183.1,4570.1 L5183.1,4569.4 L5183.2,4565.8 C5187.7,4565.5 5192.2,4565 5196.6,4564.5 C5197.9,4564.4 5214.6,4562.6 5214.8,4562.6 C5216.9,4562.9 5237.1,4569.8 5240.4,4570.8 C5241.3,4571.1 5249.7,4574.3 5250.4,4575.7 C5251.7,4578.4 5253,4581.1 5254.3,4583.8 C5256,4584.3 5264.6,4586.3 5266.7,4587.9 C5268.4,4591.1 5262,4593.3 5266.4,4596.2 C5267.3,4596.8 5268.3,4597.3 5269.4,4597.3 C5270.5,4597.4 5271.5,4597.2 5272.6,4597.1 C5274.2,4597 5276.1,4596.6 5277.5,4596 C5282.4,4594.2 5281.4,4592.3 5284.1,4590.9 C5284.4,4590.9 5285.3,4590.9 5285.6,4591.1 C5285.8,4591.7 5284.5,4596 5288.1,4594.2 C5288.8,4593.9 5289.4,4593.3 5290,4592.8 C5290.5,4592.4 5290.9,4591.7 5291.7,4591.6 C5295.2,4591.2 5297.2,4595.8 5299,4597.8 C5300.9,4599.9 5302.8,4601.6 5304.6,4603.9 C5305.2,4604.7 5305.5,4605.7 5306.2,4606.3 C5307.4,4607.3 5308.9,4608.1 5310.2,4609 C5312.2,4610.4 5314.1,4611.9 5316.7,4611.8 C5320.4,4609.2 5322.8,4608.1 5325.3,4612.7 L5325.8,4612.8 L5325.8,4612.8 C5326.3,4611.9 5326.5,4610.7 5326.8,4609.7 C5326.8,4609.6 5327,4609.4 5327,4609.3 C5328.8,4604.7 5327.6,4600.2 5327.7,4595.5 L5327.9,4588 C5328.1,4580.3 5331.3,4584.3 5335.2,4581.8 C5335.4,4581.6 5335.4,4581.2 5335.4,4580.9 C5334.9,4580.1 5331.9,4578.7 5331.2,4578.3 C5330.2,4577.7 5326,4573.5 5325.6,4572.2 C5325.3,4571.2 5326,4568.5 5326.5,4567.7 C5329.1,4563.3 5330.8,4559 5336.3,4558.1 C5343.8,4556.9 5349.6,4554.4 5356.7,4558.3 C5357.2,4558.6 5357.9,4558.7 5358.4,4559.1 C5359.3,4559.8 5359.8,4561.3 5360.5,4562.2 C5362.1,4558.7 5368.5,4558.4 5371.8,4557.4 C5372.7,4558.4 5374.4,4558.8 5374.8,4559.3 C5374.6,4558 5369.6,4555.3 5369.5,4553.9 L5369.7,4553.5 C5372,4552.6 5373.1,4554.1 5374.8,4553.7 L5375.1,4553.5 C5375.2,4553.2 5375.3,4552.8 5375.2,4552.5 C5374.6,4551.4 5367.9,4548.3 5366.2,4548 C5364.5,4547.7 5363,4547.5 5361.3,4547.4 C5359.9,4547.3 5356.3,4548.3 5355.4,4547.8 C5353.9,4547.1 5353.7,4544.6 5351.7,4543.8 L5346.8,4541.8 C5344.8,4541 5345.4,4538.8 5344.8,4538.1 C5344.1,4537.3 5340.7,4536 5339.8,4535.7 C5338.7,4535.3 5336.6,4534.8 5336,4533.9 C5334.6,4532.2 5336.8,4529.6 5338.9,4529.9 C5340.9,4530.2 5343.7,4533.5 5345.3,4533.2 C5345.1,4530.9 5345.8,4529.2 5343.1,4528.8 C5342.6,4528.7 5340.8,4528.3 5340.4,4528.5 C5340.1,4528.3 5340.8,4524.7 5339.8,4523.8 C5339,4523.5 5336.1,4523.9 5335.3,4524 C5334.2,4523.5 5333.5,4522.1 5332.8,4521.2 C5330.9,4518.6 5329.3,4516 5327.1,4513.5 C5326.7,4513 5326,4512.5 5325.8,4511.9 C5325.4,4510.6 5324.9,4509.3 5324.8,4508 C5324.6,4506.1 5325.7,4499.8 5325.5,4499.2 C5325.2,4498.1 5324.8,4497 5324.4,4495.8 C5324.1,4494.8 5322.6,4494.1 5321.8,4493.6 C5320.8,4493 5319.1,4492.3 5318.4,4491.5 C5317.8,4490.8 5319,4487.2 5318.7,4485.6 C5318.4,4483.8 5315,4479.8 5313.6,4478.5 C5312.2,4477.2 5311.1,4476.7 5309.2,4477.7 C5304.6,4471.4 5299.9,4465.1 5295.1,4458.9 C5305.7,4449.8 5316.4,4440.7 5327,4431.6 C5327.2,4431.4 5327.5,4430.6 5327.9,4430.2 L5328.8,4430 C5332.6,4432 5332.9,4441.1 5338.3,4435 C5339.2,4434 5339.6,4433.1 5340,4431.8 C5340.6,4429.9 5340.9,4428.4 5341.7,4426.5 C5342.2,4425.4 5344.8,4425.6 5345.6,4424.7 C5345.9,4423.8 5345.7,4422.7 5345.4,4421.8 C5345.9,4420.5 5347.4,4419.9 5347.9,4418.2 C5348.7,4415.3 5348.3,4405.4 5346.9,4402.6 C5344.1,4401.5 5341.3,4400.4 5338.5,4399.1 C5337.5,4400.8 5336.6,4402.8 5335.3,4404.3 L5334.8,4404.4 C5333.5,4404 5332.8,4402.9 5332,4401.8 C5330.9,4400.3 5328.3,4401.4 5327.9,4402.9 C5327.2,4397 5326.6,4391 5325.8,4385.1 C5332,4380.6 5338.1,4376.1 5344.2,4371.5 L5356.3,4371 C5359,4362.2 5362,4353.3 5365.3,4344.7 L5375.3,4337.5 C5380.6,4341.9 5386.5,4346.2 5391.5,4351 C5395.5,4347.3 5401.4,4342.2 5405.7,4338.6 C5406.7,4339 5407.4,4339.9 5408.1,4341 C5407.2,4339.5 5406.2,4338.4 5404.6,4338.3 C5404.3,4337.8 5404,4337.3 5403.4,4336.9 C5403.4,4334.9 5402.9,4333.2 5401.7,4332.3 C5402.7,4328.8 5401.5,4328.4 5397.8,4325.7 C5398,4322.7 5396.9,4319.2 5393,4320.1 L5392.6,4320.2 C5392,4319.8 5391.7,4319.2 5391.6,4318.3 C5392.4,4315.7 5391.3,4314.1 5389,4313 L5388.7,4312.9 C5388.1,4310 5386.9,4307.1 5384,4305.7 C5382,4304.7 5379.2,4303.4 5377.1,4302.7 L5376.9,4302.2 L5376.5,4301.2 C5375.7,4299.4 5374.5,4298.8 5372.6,4298.8 L5372.2,4298.5 L5371.2,4297.6 C5371,4297.4 5370.8,4297.2 5370.6,4297 C5370.8,4297 5371,4296.2 5371.2,4295.4 C5371.6,4293.7 5369.9,4291.5 5369,4290.3 C5366,4286.8 5368.1,4285.8 5366.6,4283.7 C5366.4,4283.1 5366.2,4282.4 5366,4281.8 C5366.3,4281.6 5366.6,4281.3 5366.8,4281 C5369.6,4277.7 5364.9,4275.7 5362.5,4275.1 C5360.8,4273.2 5364,4269.9 5358.7,4267.9 C5358.7,4264.7 5356,4264.6 5354.6,4262 C5355.2,4258.4 5352.9,4257.2 5352.4,4254.6 L5352.2,4253.3 C5351.8,4251.2 5351.2,4249.2 5348.9,4248.6 C5348.8,4247.2 5347.9,4246 5346.7,4245.4 C5346.4,4244 5345.5,4242.7 5344.3,4242 L5344.3,4241.8 C5344.2,4241.1 5343.9,4240.5 5343.6,4240 L5343.7,4239.5 C5344.7,4235.7 5342.2,4232.3 5341.4,4228.6 C5340.9,4226.3 5340.1,4224.4 5337.2,4224.3 C5336,4222.8 5334.7,4222.3 5333.3,4221.2 C5333.4,4220.2 5333.5,4219.2 5333.3,4218.2 C5332.8,4216 5331.7,4216 5331.2,4215.1 C5330.1,4213.3 5328.6,4211.7 5326.5,4211.1 C5323.1,4210.1 5324.6,4208.7 5322.5,4208 C5321.2,4207.6 5320.5,4206.2 5319.2,4205.5 C5315.4,4203.4 5313.3,4205 5313.2,4200.1 C5313.2,4195.7 5308.9,4194.1 5305.3,4193.5 C5300.9,4192.8 5302.3,4189.6 5298,4188.9 C5299.4,4183.4 5295.8,4180.8 5292,4182.2 C5292.2,4179.3 5288.8,4178.8 5286.7,4178.8 L5286.6,4178.5 C5286.2,4176.9 5286,4176.1 5284.9,4174.8 L5284.7,4174.6 C5284.6,4173.4 5284.6,4173 5283.7,4172.2 C5284.3,4169.1 5281.1,4168.4 5279,4169.1 C5277.7,4166.9 5275.6,4167 5273.8,4168 C5273.2,4164.1 5268.6,4163.8 5266.4,4168.7 C5265.4,4168.7 5264.6,4169 5263.7,4169.3 C5261.4,4168.4 5260.7,4168 5258,4168.3 C5256,4168.5 5253.9,4166.5 5251.9,4166.8 C5250.6,4165.7 5248.5,4165.5 5247.1,4166.3 C5245.6,4165.9 5244,4166.1 5242.3,4166.5 L5241.5,4166.7 C5241.1,4166.5 5240.7,4166.5 5240.3,4166.5 C5238.8,4165.1 5236.7,4164.6 5235,4166.1 L5235,4166.1 C5234.4,4166.1 5233.7,4166.2 5233,4166.4 C5230.6,4166.9 5224.6,4166.6 5223.9,4164.7 C5223.1,4162.8 5220.8,4162.9 5219.2,4162.9 C5218.7,4161.4 5217.2,4160.2 5215.5,4160.6 C5213.1,4159 5209.4,4158.1 5208,4161.5 C5205.3,4162.6 5204.2,4164.6 5204.4,4167.5 L5204.4,4168 C5204.2,4167.9 5203.6,4168.8 5203.5,4169.1 C5202.9,4169 5202.2,4168.8 5201.5,4168.7 C5199.2,4168.2 5195.1,4168 5193.4,4169.7 C5191.8,4169.1 5189.9,4169.5 5188.8,4170.9 C5187.7,4171 5186.7,4171.4 5185.5,4172.1 C5180.9,4169.7 5179.3,4175 5178.8,4178.6 C5177.7,4180.3 5174.8,4182.4 5174.9,4184.5 C5173.6,4185.3 5173.2,4186.6 5173.3,4187.9 C5173,4188.3 5172.9,4188.8 5172.9,4189.3 C5172.7,4189.6 5172.4,4190 5172.1,4190.5 C5170.3,4191.9 5170.2,4193.2 5170.3,4195.2 C5169,4197.6 5167.5,4199.4 5168.7,4202.4 C5168.3,4203.1 5167.7,4203.6 5167.5,4204.4 C5164.9,4204.4 5163.5,4206.2 5163.6,4208.7 C5163.8,4212.6 5161.5,4214.7 5162.9,4217 C5162.4,4217.4 5162,4218 5161.7,4218.8 L5161.4,4219 C5156,4216.2 5155.5,4225.2 5153.4,4226.6 C5150.9,4227.1 5149.6,4226.9 5148.4,4229.8 L5148.3,4230.2 C5146.4,4231.4 5146,4233.6 5146.8,4235.7 C5146.6,4236 5146.1,4236.3 5145.8,4236.4 C5143.6,4235.7 5141.4,4234.3 5138.9,4235.1 C5138.1,4234.6 5137,4234.7 5136.1,4234.9 C5135.9,4234.5 5135.7,4234.1 5135.6,4233.8 C5124.3,4254.5 5112.2,4278 5101.1,4298.8 C5096.4,4307.6 5091.7,4316.4 5087,4325.2 C5085.8,4327.5 5084.4,4329.8 5083.4,4332.1 C5091,4361.6 5097.9,4391.3 5105.1,4420.9 C5106.3,4425.6 5107.7,4430.3 5108.5,4435 L5108.5,4435 Z" id="svg--id--Coahuila--CO_2_"></path>
            </g>
        </g>
    </g>
</svg>