<?xml version="1.0" encoding="UTF-8" standalone="no"?>
<svg width="139px" height="155px" viewBox="0 0 139 155" version="1.1" xmlns="http://www.w3.org/2000/svg" xmlns:xlink="http://www.w3.org/1999/xlink" xmlns:sketch="http://www.bohemiancoding.com/sketch/ns">
    <!-- Generator: Sketch 3.4.4 (17249) - http://www.bohemiancoding.com/sketch -->
    <title>svg--id--Hidalgo--HI_2_</title>
    <desc>Created with Sketch.</desc>
    <defs></defs>
    <g id="Page-1" stroke="none" stroke-width="1" fill="none" fill-rule="evenodd" sketch:type="MSPage">
        <g id="mexico-no-stroke" sketch:type="MSLayerGroup" transform="translate(-5402.000000, -4882.000000)" fill="#F2F2F2">
            <g id="Layer_2" sketch:type="MSShapeGroup">
                <path d="M5402.6,4978.3 C5405,4978.4 5407.8,4982.3 5409.4,4983.7 C5410.9,4985 5414.4,4989.7 5416.5,4990 C5418.5,4990.3 5422.2,4987.6 5424,4989.3 C5425.8,4990.9 5427.3,4992.5 5428.9,4994.3 C5430.8,4996.3 5427.9,4999.8 5427.2,5001.6 L5426.2,5004.4 C5426,5004.8 5426.5,5006.2 5426.8,5006.5 C5429.7,5009.2 5433.5,5009.7 5434.3,5014 C5435,5017.9 5436.4,5024 5440.9,5018.7 C5442.8,5016.5 5442.3,5017.7 5444.6,5016.9 C5445.3,5016.3 5445.2,5014.9 5445.4,5014 C5446.1,5011.2 5447.6,5009.9 5448.9,5007.6 C5449.9,5005.8 5449.8,5003.6 5451.6,5002.4 C5453.5,5001.2 5454.9,5002.3 5456.5,5001.5 C5460.6,4999.6 5464.3,4995.3 5469,4999 C5469.7,4999.5 5470.8,5001.2 5470.9,5002.1 C5471.4,5006.4 5467.8,5011.7 5468.2,5013.3 C5468.8,5015.7 5468.7,5017.8 5471.4,5018.2 C5472,5018.3 5472.8,5018 5473.2,5017.5 C5473.5,5017.1 5476.1,5014.2 5476.1,5013.8 C5477.4,5013.4 5481.7,5012.5 5482.7,5013.2 C5484.1,5016.5 5487.9,5014.2 5489.8,5014.8 C5492,5017 5494.2,5018.4 5496.2,5021 C5496.6,5021.5 5498.7,5023.4 5498.7,5023.6 C5498.6,5024.1 5497.9,5025.1 5497.6,5025.5 C5496.4,5027.4 5495.8,5029.4 5495,5031.5 C5494.4,5033.1 5493.1,5034.5 5492.6,5036.3 C5495.5,5035.5 5497.7,5036.2 5501.4,5034.6 C5503.2,5033.8 5503.7,5032 5505.5,5031.3 C5506.5,5031.3 5507.2,5033.1 5508.6,5033.5 C5508.7,5033.5 5512.8,5033.7 5513.3,5033.8 C5514.8,5034 5515.8,5035.4 5517,5036.1 C5517.7,5035.7 5520.7,5027.1 5523.7,5025.5 C5524.8,5026.4 5531.4,5030.3 5532.5,5029 L5532.2,5028.9 C5529.4,5023.7 5526.9,5019.2 5523.6,5014.3 C5523.9,5014 5530.5,5002 5532.7,5000.1 C5533.1,4999 5532.4,4997.8 5532.6,4996.6 C5532.8,4995.2 5535.3,4993.9 5536.2,4992.7 C5536.4,4991.8 5534.1,4990.5 5534.1,4989.1 C5534,4980 5530,4985.1 5524.6,4982.6 C5524,4981.8 5524.6,4976.2 5524.9,4974.7 L5525.2,4974.4 C5526.4,4974 5530.2,4973.3 5531,4973.5 C5532.4,4971.3 5534.7,4966.1 5535.8,4964.6 L5535.8,4964.6 C5535.4,4964.7 5535.1,4964.8 5535,4964.8 L5535,4964.8 L5535,4964.8 L5535,4964.8 C5535.9,4963.1 5537.4,4961.9 5538.5,4960.1 C5539.3,4958.7 5539.6,4957.4 5540,4955.9 C5540.7,4953 5539.9,4949.8 5540.3,4946.9 C5539.6,4946.4 5538.5,4946.3 5537.7,4946 C5535.7,4945.3 5535.4,4944.8 5533.6,4946.2 C5530.1,4948.9 5527.6,4951.4 5524.8,4954.7 C5523.3,4956.4 5518,4963.8 5516.6,4964.7 C5515.8,4964.9 5513.4,4963.3 5511.7,4963.9 C5510.7,4964.6 5511,4969.2 5507.8,4970.9 C5506.6,4971 5505.2,4970.6 5504.6,4969.4 C5502.8,4965.8 5501.8,4962 5499.1,4958.7 C5502.9,4952.6 5506.4,4946.4 5510.1,4940.2 C5507.8,4940.9 5500.2,4941.6 5503.4,4937 C5504.9,4936.1 5510.7,4935.2 5511,4933 C5511.1,4932.6 5511.2,4929.8 5511.9,4929.5 C5514.6,4928.2 5515.6,4927.3 5518.5,4928.6 C5523.7,4930.8 5525.4,4935.1 5525.7,4925.4 C5525.8,4920.4 5525.4,4918.3 5529,4914.2 L5529.3,4914.1 C5529.9,4914.5 5530.4,4914.7 5531.1,4914.8 C5531.7,4914.2 5532,4912.9 5532.1,4912.2 C5532.5,4910 5534.6,4910.3 5530.7,4908.7 C5530.3,4907.1 5529.8,4906.5 5528.2,4906.5 C5528,4906 5527.2,4903.6 5526.9,4903.4 L5526.4,4903.2 C5525.6,4903.5 5524.3,4905 5523.8,4905.5 C5522.5,4907 5521.6,4905.7 5520.5,4905.5 C5520.5,4904.8 5520.5,4902.9 5521.2,4902.5 C5521.2,4902 5521.6,4901.5 5521.7,4900.9 C5523.1,4899.6 5522.3,4896.3 5520.3,4896.5 L5520,4896.8 L5519.7,4896.6 C5518.4,4897 5518,4902.8 5516.4,4903.8 C5515.1,4904.5 5513.9,4904.9 5512.5,4904.4 C5510.7,4903.7 5504.9,4896 5504.7,4894.7 C5504.4,4892.7 5505.6,4890.1 5505.9,4888 C5506.2,4885.8 5505.2,4883.3 5503,4882.6 C5500.6,4883.4 5497.1,4887.3 5496.5,4889.4 C5495.9,4891.4 5497.9,4896.9 5496.4,4898.1 C5495.7,4898.6 5493.3,4898.3 5492.5,4898.2 C5488.4,4897.9 5483.2,4901 5481.3,4900.8 C5479.2,4900.6 5476.3,4899.2 5474.3,4898.4 C5473.5,4898.1 5473.4,4895.4 5473.1,4894.7 C5472.8,4893.9 5472.4,4893.2 5472,4892.4 C5470.9,4890 5464.2,4891.4 5463.4,4893.4 L5463.4,4893.5 C5462.4,4896.3 5464,4899.8 5463.5,4902.6 L5464,4902.9 C5463.6,4903 5463.2,4903.1 5462.8,4903 L5462.2,4902.4 C5462,4902 5462.2,4901.4 5462.1,4900.9 L5461.6,4900.7 C5460.9,4901.1 5460.2,4902.3 5459.5,4902.6 C5457.7,4903.2 5456.9,4902.3 5455,4903.4 C5454.2,4903.8 5453.9,4904.6 5453.3,4905.2 C5449.9,4908.5 5446.8,4905.7 5444,4903.6 C5444,4903.9 5442.4,4907.5 5442.2,4907.6 C5441.5,4907.8 5438.5,4908 5437.8,4907.9 C5436.5,4909.8 5439.7,4910.9 5440,4912.4 C5439.5,4914.6 5437.9,4916.5 5437.1,4918.6 C5436.7,4919.6 5437.3,4921.2 5436.9,4922.5 C5436.4,4924.1 5434.9,4925.5 5434.1,4927.1 C5433.5,4928.3 5430.7,4928.1 5429.7,4928.8 C5428.4,4932 5427.9,4935.2 5426.8,4938.5 C5426.1,4940.4 5427.3,4943.9 5428.9,4945.1 C5420.3,4949.1 5412.1,4953.8 5403.4,4957.7 C5403.6,4964.7 5403.2,4971.5 5402.6,4978.3 L5402.6,4978.3 Z" id="svg--id--Hidalgo--HI_2_"></path>
            </g>
        </g>
    </g>
</svg>