<?xml version="1.0" encoding="UTF-8" standalone="no"?>
<svg width="272px" height="350px" viewBox="0 0 272 350" version="1.1" xmlns="http://www.w3.org/2000/svg" xmlns:xlink="http://www.w3.org/1999/xlink" xmlns:sketch="http://www.bohemiancoding.com/sketch/ns">
    <!-- Generator: Sketch 3.4.4 (17249) - http://www.bohemiancoding.com/sketch -->
    <title>svg--id--Zacatecas--ZA_1_</title>
    <desc>Created with Sketch.</desc>
    <defs></defs>
    <g id="Page-1" stroke="none" stroke-width="1" fill="none" fill-rule="evenodd" sketch:type="MSPage">
        <g id="mexico-no-stroke" sketch:type="MSLayerGroup" transform="translate(-5054.000000, -4562.000000)" fill="#F2F2F2">
            <g id="Layer_2" sketch:type="MSShapeGroup">
                <path d="M5054.6,4809 C5059.8,4806.8 5065.4,4803.8 5070.8,4802.1 C5071,4802 5076.4,4801.9 5076.9,4801.9 C5079.2,4801.8 5081.8,4801 5083.9,4800.2 L5086.1,4788.1 C5083.4,4785.9 5080.5,4784 5077.8,4782.1 C5081.7,4773.3 5080.3,4776.4 5079.5,4766.6 C5079.6,4766.6 5093.1,4769.9 5093.3,4770 C5093.9,4769.9 5094.8,4769.9 5095.4,4770.1 L5097.8,4777.4 C5097.1,4778.5 5090.7,4782.3 5090,4782.5 C5091,4785 5092,4787.4 5092.9,4790 L5089,4792.4 C5089.4,4800 5090.4,4808.4 5090.2,4816 C5092.4,4811.5 5093.4,4806.5 5094.9,4801.8 C5095.3,4800.6 5095.9,4799.3 5096.1,4798.1 C5096.6,4795.4 5096.8,4793 5097.8,4790.3 C5098.7,4787.8 5099.5,4785.3 5100.1,4782.6 C5101.2,4782.3 5106.6,4782.7 5106.9,4783.1 C5107.2,4784.1 5107.4,4785.1 5107.8,4786.1 C5108.5,4786.1 5109.2,4786.2 5109.8,4786.6 L5109.9,4787 C5109.1,4790 5107.8,4792.8 5107.1,4795.9 C5106.2,4799.6 5104.5,4805.5 5104.5,4809.3 C5104.5,4813 5104.8,4815.6 5103.3,4819.2 C5103.8,4819.5 5105.6,4821.4 5104.7,4822 C5105.5,4822 5106.2,4823.8 5106.7,4824.3 C5107,4824.7 5113.2,4825.1 5114.1,4821.9 C5114.5,4821.3 5116.3,4821.8 5117,4821.6 L5117.3,4821.1 C5123,4819 5120.5,4815.2 5123.5,4811.7 C5128.1,4806.2 5130.2,4803.9 5128.1,4796.9 C5127.7,4795.6 5125.9,4795 5125.8,4794.5 C5125.7,4794 5128.3,4789.3 5128.6,4788.5 C5128.8,4788.9 5142.2,4799.2 5143.5,4800.2 C5142.9,4801.9 5142.3,4803.6 5141.8,4805.4 L5142.1,4805.5 C5143.7,4805.5 5146,4803.7 5147.6,4804.7 C5148.2,4805.7 5149.1,4806.2 5149.6,4807.3 L5150,4807.5 C5150.7,4807.3 5152.4,4806.7 5153.1,4807.1 C5154,4809.1 5152.3,4811.7 5151.5,4813.4 C5149.6,4817.3 5149,4816.6 5147.5,4818.9 C5147.1,4820.1 5150.6,4823 5150.3,4823.8 C5143.2,4827.4 5147.4,4832.9 5143.8,4833.8 C5142.7,4834.1 5138.5,4835.5 5137.7,4833.6 C5136.8,4833.7 5135.5,4833.3 5134.7,4833 C5134.5,4833.2 5127.6,4836.8 5126.9,4837.2 C5125.4,4839.5 5124.8,4842.5 5122.8,4844.5 C5122.1,4845.2 5121.2,4845.6 5120.5,4846.2 C5119.9,4846.7 5119.2,4847.2 5118.6,4847.7 C5117.5,4848.6 5116.5,4849.5 5115.1,4849.8 L5115,4850 C5115.8,4851.2 5117,4852 5117.6,4853.3 C5117.8,4853.6 5117.8,4854 5118.1,4854.3 C5118.3,4855.4 5117.8,4857.1 5117.7,4858.2 C5117.2,4862.5 5117.8,4862.6 5117.7,4866.1 C5117.6,4866.6 5108.2,4876.2 5107.2,4877.3 L5100.8,4872.6 C5103.8,4881.6 5103.9,4883.1 5100.8,4891.8 C5100.3,4893.1 5099.3,4895.5 5098.7,4896.8 C5098.6,4897 5098.5,4897.3 5098.3,4897.5 C5098.8,4898.1 5099.8,4898.9 5100.5,4899.2 C5103.3,4898 5105.8,4892.8 5109.6,4897.4 C5110.8,4898.8 5110.6,4900.1 5110.9,4900.5 L5115.5,4899.6 C5115.8,4899.8 5150.4,4910.9 5153.2,4911.8 C5152.8,4906.5 5149.5,4902.2 5151.4,4896.5 C5151.9,4894.9 5152.5,4893.2 5153.4,4891.8 C5153.8,4891.3 5154.5,4890.9 5154.8,4890.3 C5155.3,4890.3 5155.8,4890 5156.2,4890.2 C5158,4891 5157.7,4893 5160.9,4892 C5162.5,4891.5 5163.3,4889.5 5164.6,4888.4 C5164.9,4888.4 5165.2,4888.3 5165.4,4888.1 C5168.4,4887.7 5169.5,4891.5 5173.5,4886.6 L5173.9,4886.6 C5174.3,4887 5175.6,4887.3 5176,4886.7 C5176.2,4886.4 5177.5,4884.6 5177.9,4884.4 C5178.6,4884 5180.8,4884.6 5181.5,4883.8 C5181.7,4882.5 5182.4,4881.4 5182.9,4880.3 C5183.7,4878.1 5185.6,4871.8 5185.3,4869.8 C5185.2,4869.3 5184.3,4868.5 5184,4868.2 C5183.1,4867.5 5181.8,4867.6 5180.8,4867.1 C5179.6,4866.5 5178.5,4865.8 5177.3,4865.2 C5176.5,4864.8 5176,4864.1 5175.3,4863.7 C5173.9,4860.3 5175.5,4857.3 5177.5,4854.7 L5177.5,4854.7 C5173.4,4849.9 5170.2,4850.8 5168.3,4843.7 C5167,4838.9 5172,4833.8 5174.7,4830.4 C5175.1,4830 5175.6,4829.1 5176,4828.8 C5177.9,4827.1 5179.9,4825.3 5180.7,4822.8 C5180.9,4822.1 5180.9,4821.5 5181.2,4820.8 C5181.7,4819.8 5182.6,4818.9 5183,4817.8 C5186,4809.5 5181.5,4807.1 5192.1,4805.1 C5194.8,4804.6 5196.2,4804.5 5198.5,4803.3 C5202.7,4801.1 5202.5,4799.7 5205.4,4796.1 C5206.1,4795.2 5207.1,4794.5 5207.9,4793.6 C5208.4,4793.1 5208.7,4792.7 5209.3,4792.3 C5215,4788.4 5211.8,4799.2 5213.7,4800.8 C5214.1,4800.9 5214.8,4801.1 5215.2,4801 C5215.9,4800.6 5216.2,4799.7 5217,4799.3 L5217.5,4799.2 C5219,4799.6 5218.3,4801.2 5219.1,4802.2 C5220.3,4802.2 5222.1,4802.3 5222.8,4803.5 C5223.3,4804.6 5221.2,4806.7 5224.1,4807.4 C5224.7,4807.3 5225.4,4806.7 5226,4806.5 C5228.9,4805.2 5228.3,4809 5229,4809.9 C5229.8,4809.6 5232.8,4808.6 5233.2,4810 C5232.9,4813 5230.2,4816.1 5230.3,4819 L5230.5,4819.4 C5230.6,4819.4 5230.8,4819.5 5231,4819.5 C5232.4,4819.5 5233.9,4819.5 5235.3,4819.7 C5236.3,4819.9 5240.9,4821.7 5241.3,4822.8 C5242,4824.7 5242.9,4826.7 5244.3,4828.3 C5244.8,4828.8 5246.5,4829.8 5246.7,4830.1 L5246.7,4830.1 C5247.9,4827.9 5251.2,4830.4 5252.5,4831.2 L5270.2,4842.6 C5270.6,4842.9 5271.1,4843.1 5271.5,4843.3 L5271.5,4843.3 C5275.8,4837.4 5280.7,4831.9 5285.2,4826.3 C5288.3,4822.5 5286.1,4822.4 5285.8,4818.3 C5285.2,4811.4 5284.7,4804.4 5284.2,4797.5 C5284.5,4796.5 5291.3,4794.1 5288.9,4788 C5287.3,4783.9 5286.2,4781.8 5281.9,4780.1 C5276.8,4778.1 5276.4,4778.3 5270.6,4779 C5265.6,4779.6 5257.8,4791.6 5257.3,4791.9 L5256.8,4791.8 C5255.3,4791.8 5245.5,4789.1 5244.7,4789.2 C5244,4786.6 5242.7,4784.5 5241.6,4782.2 C5238.6,4775.6 5236,4775.6 5231.6,4770.1 C5230,4768.1 5227.8,4766.4 5225.8,4764.7 C5225.5,4764.4 5223.7,4762.5 5223.6,4762.3 C5222.9,4761 5221.7,4759.3 5221.3,4757.8 C5220.5,4755.1 5219.8,4752.9 5218.6,4750.5 C5218.1,4749.4 5215.4,4746.3 5215.7,4745.5 C5217,4744.4 5217.7,4742.5 5218.4,4741.1 C5219.2,4739.4 5219.7,4738.4 5219.6,4736.6 C5219.6,4736.3 5216.3,4731.2 5216.1,4731 C5215.4,4730.2 5212.8,4729.1 5212.9,4727.7 C5213.3,4724.2 5215.5,4723.6 5217.2,4721.3 C5221.3,4716 5218.8,4718.4 5219.6,4713.2 C5220.3,4713.1 5221.3,4713 5222,4713.2 C5222.5,4713.7 5222.7,4714.4 5223.2,4714.9 C5224.8,4716.4 5228.3,4715.2 5230.1,4714.5 C5231.2,4714.1 5232.5,4712.9 5233.4,4712.1 C5235,4710.8 5237.3,4709 5238.5,4707.2 C5240.7,4703.7 5239.4,4704.4 5243.2,4701.2 C5244.5,4700.1 5249.9,4694.8 5251.3,4694.9 C5258.7,4695.1 5255.3,4690.8 5258.9,4687.3 C5260.9,4685.4 5263.6,4684.3 5265.6,4682.6 C5266.2,4682.1 5266.9,4681.6 5267.4,4680.9 L5268.3,4680.7 C5269,4679.8 5270.8,4678.7 5271.7,4677.8 C5275.5,4674 5279.7,4671.2 5283.2,4667 C5284.9,4665 5286.9,4663.1 5288.6,4661.1 C5291.6,4657.7 5295.5,4655.1 5298.4,4651.6 C5304.1,4644.8 5306.4,4638 5310.9,4630.5 C5311.2,4630 5311.7,4629.6 5312,4629.2 C5315.2,4624.1 5318.1,4623.7 5322.3,4618.8 C5323.4,4617.5 5324.7,4615.8 5325.4,4614.3 C5325.4,4614.1 5325.3,4613.6 5325.5,4613.4 L5325.5,4612.9 L5325.1,4612.8 C5322.6,4608.2 5320.2,4609.3 5316.5,4611.9 C5313.9,4612.1 5312,4610.5 5310,4609.1 C5308.7,4608.2 5307.2,4607.4 5306,4606.4 C5305.3,4605.8 5304.9,4604.8 5304.4,4604 C5302.6,4601.7 5300.7,4600 5298.8,4597.9 C5297,4595.8 5295,4591.2 5291.5,4591.7 C5290.8,4591.8 5290.3,4592.5 5289.8,4592.9 C5289.2,4593.4 5288.6,4594 5287.9,4594.3 C5284.3,4596.1 5285.6,4591.8 5285.4,4591.2 C5285.1,4591 5284.2,4591 5283.9,4591 C5281.2,4592.3 5282.2,4594.3 5277.3,4596.1 C5275.8,4596.7 5273.9,4597 5272.4,4597.2 C5271.3,4597.3 5270.3,4597.5 5269.2,4597.4 C5268.1,4597.3 5267.1,4596.8 5266.2,4596.3 C5261.7,4593.4 5268.2,4591.2 5266.5,4588 C5264.4,4586.4 5255.7,4584.4 5254.1,4583.9 C5252.7,4581.2 5251.5,4578.5 5250.2,4575.8 C5249.5,4574.4 5241.1,4571.2 5240.2,4570.9 C5236.9,4569.9 5216.7,4563 5214.6,4562.7 C5214.4,4562.7 5197.7,4564.5 5196.4,4564.6 C5191.9,4565.1 5187.4,4565.6 5183,4565.9 L5182.9,4569.5 L5182.9,4570.2 L5195.4,4591.1 C5195.6,4601.7 5195,4612.5 5194.7,4623.1 C5189.1,4622.9 5183.2,4623.1 5177.6,4622.5 L5175.1,4624.6 C5167,4624.1 5159,4623 5150.9,4622.3 C5146.1,4621.9 5141.2,4621.6 5136.4,4621 C5127.6,4626.6 5118.8,4632.9 5109.7,4638.1 C5110.1,4640.7 5110.4,4643.4 5110.6,4646 C5104.2,4649.1 5097.7,4652.3 5091.2,4655.3 C5091.1,4657.5 5091.5,4659.7 5091.3,4661.8 C5091.1,4664.5 5091,4667 5090.4,4669.6 C5090.2,4670.5 5089.4,4671.4 5089.3,4672.2 C5089.2,4673.6 5089.8,4674.5 5089.9,4675.8 C5090.2,4678 5090.3,4680.2 5090.5,4682.3 L5090.6,4683.8 C5092.7,4685 5095.3,4687 5094.3,4689.7 C5094,4690.5 5093.4,4691.1 5092.6,4691.3 C5091.8,4691.6 5090.6,4692.2 5089.7,4692.3 C5087.1,4692.7 5086,4692.2 5085.4,4695.3 C5085.1,4697 5085,4697.6 5083.8,4698.8 C5082.5,4700.1 5080.6,4700.1 5079.3,4701 C5072.6,4705.9 5072.7,4712.9 5072.4,4720.6 C5072.3,4723.5 5072.9,4727 5072.2,4729.8 C5071.7,4731.4 5066.9,4733.4 5066.4,4734.8 L5065.4,4737.5 C5065,4738.6 5064.3,4740 5064.2,4741.2 C5063.4,4749.4 5062.8,4757.7 5062.2,4765.9 C5061.6,4773.4 5061,4780.9 5060.4,4788.5 L5059.8,4795.8 C5059.1,4798.4 5056.9,4802 5055.7,4804.5 C5055.7,4804.5 5055.7,4804.4 5055.8,4804.4 L5054.6,4809 L5054.6,4809 Z" id="svg--id--Zacatecas--ZA_1_"></path>
            </g>
        </g>
    </g>
</svg>