<?xml version="1.0" encoding="UTF-8" standalone="no"?>
<svg width="215px" height="392px" viewBox="0 0 215 392" version="1.1" xmlns="http://www.w3.org/2000/svg" xmlns:xlink="http://www.w3.org/1999/xlink" xmlns:sketch="http://www.bohemiancoding.com/sketch/ns">
    <!-- Generator: Sketch 3.4.4 (17249) - http://www.bohemiancoding.com/sketch -->
    <title>svg--id--Nuevo-Leon--NL_1_</title>
    <desc>Created with Sketch.</desc>
    <defs></defs>
    <g id="Page-1" stroke="none" stroke-width="1" fill="none" fill-rule="evenodd" sketch:type="MSPage">
        <g id="mexico-no-stroke" sketch:type="MSLayerGroup" transform="translate(-5295.000000, -4338.000000)" fill="#F2F2F2">
            <g id="Layer_2" sketch:type="MSShapeGroup">
                <path d="M5341.7,4426.9 C5340.9,4428.7 5340.6,4430.3 5340,4432.2 C5339.6,4433.5 5339.1,4434.4 5338.3,4435.4 C5332.9,4441.5 5332.6,4432.5 5328.8,4430.4 L5327.9,4430.6 C5327.5,4431 5327.2,4431.8 5327,4432 C5316.3,4441.1 5305.7,4450.1 5295.1,4459.3 C5299.9,4465.5 5304.6,4471.8 5309.2,4478.1 C5311.1,4477.1 5312.2,4477.5 5313.6,4478.9 C5315,4480.2 5318.4,4484.2 5318.7,4486 C5319,4487.5 5317.8,4491.2 5318.4,4491.9 C5319.1,4492.7 5320.9,4493.4 5321.8,4494 C5322.6,4494.5 5324,4495.2 5324.4,4496.2 C5324.8,4497.3 5325.2,4498.4 5325.5,4499.6 C5325.7,4500.2 5324.6,4506.4 5324.8,4508.4 C5324.9,4509.7 5325.4,4511.1 5325.8,4512.3 C5326,4512.9 5326.7,4513.5 5327.1,4513.9 C5329.3,4516.4 5330.8,4518.9 5332.8,4521.6 C5333.5,4522.5 5334.1,4524 5335.3,4524.4 C5336.1,4524.3 5338.9,4523.9 5339.8,4524.2 C5340.8,4525.1 5340.1,4528.6 5340.4,4528.9 C5340.8,4528.7 5342.7,4529.1 5343.1,4529.2 C5345.8,4529.6 5345.1,4531.3 5345.3,4533.6 C5343.7,4533.9 5340.8,4530.6 5338.9,4530.3 C5336.8,4530 5334.6,4532.5 5336,4534.3 C5336.7,4535.1 5338.8,4535.7 5339.8,4536.1 C5340.7,4536.4 5344.1,4537.7 5344.8,4538.5 C5345.4,4539.2 5344.8,4541.4 5346.8,4542.2 L5351.7,4544.2 C5353.6,4545 5353.9,4547.5 5355.4,4548.2 C5356.2,4548.6 5359.9,4547.7 5361.3,4547.8 C5363,4547.9 5364.5,4548.1 5366.2,4548.4 C5367.9,4548.7 5374.6,4551.8 5375.2,4552.9 C5375.3,4553.2 5375.3,4553.6 5375.1,4553.9 L5374.8,4554.1 C5373.1,4554.4 5372,4553 5369.7,4553.9 L5369.5,4554.3 C5369.6,4555.8 5374.6,4558.5 5374.8,4559.7 C5374.4,4559.2 5372.7,4558.8 5371.8,4557.8 C5368.5,4558.8 5362.2,4559.1 5360.5,4562.6 C5359.8,4561.7 5359.3,4560.2 5358.4,4559.5 C5357.9,4559.1 5357.3,4559 5356.7,4558.7 C5349.6,4554.8 5343.8,4557.3 5336.3,4558.5 C5330.8,4559.4 5329,4563.7 5326.5,4568.1 C5326,4569 5325.3,4571.7 5325.6,4572.6 C5326,4573.9 5330.2,4578.1 5331.2,4578.7 C5331.9,4579.1 5334.9,4580.5 5335.4,4581.3 C5335.5,4581.6 5335.4,4581.9 5335.2,4582.2 C5331.4,4584.6 5328.1,4580.6 5327.9,4588.4 L5327.7,4595.9 C5327.6,4600.6 5328.7,4605.1 5327,4609.7 C5327,4609.8 5326.8,4609.9 5326.8,4610.1 C5326.6,4611.1 5326.4,4612.2 5325.8,4613.1 L5325.8,4613.1 C5327.6,4615.7 5330.2,4617.3 5332.1,4619.6 L5336.7,4625.5 C5338.4,4627.7 5339.5,4630.4 5341.2,4632.5 L5342.2,4633.8 C5346.2,4639 5346.8,4647.2 5345.2,4653.5 C5345.1,4654 5344.6,4656.2 5344.3,4656.3 C5343.7,4663 5341.1,4660.9 5344.9,4668.6 C5346.2,4671.1 5348.7,4673.5 5350.4,4675.8 C5351,4676.6 5351.4,4677.4 5352.1,4678.1 C5352.4,4678.4 5354,4678.4 5354.6,4678.6 C5357,4679.5 5358.2,4684.8 5357.2,4686.8 C5356.8,4686.9 5355.7,4688.9 5355.5,4689.4 C5353.2,4693.3 5353,4693.4 5354.2,4698 C5354.9,4700.5 5355.2,4703.2 5355.6,4705.8 C5356.6,4712.8 5356.3,4710.9 5355.2,4718 C5354.7,4721 5354.3,4721.4 5354.9,4724.7 C5355.2,4731.3 5366.3,4730.4 5366.1,4724.8 C5372.4,4725 5378.8,4724.9 5385.1,4725.4 L5386.2,4719 C5385.4,4718 5384.8,4716.7 5383.9,4715.7 C5384,4715.5 5387.6,4710.9 5388,4710.8 C5390.6,4711.3 5395.5,4714.8 5398.1,4714.2 C5398,4714.1 5398,4713.9 5397.9,4713.8 C5397.5,4711.9 5397.2,4709.5 5396.2,4707.8 C5395.7,4707 5395,4706.2 5394.7,4705.3 C5394.5,4704.5 5393.6,4701.1 5392.9,4700.6 C5394.1,4698.9 5394.9,4696.9 5395.6,4695 C5396.5,4692.6 5397.6,4690 5398.8,4687.7 C5399.4,4686.5 5400.3,4685.6 5400.9,4684.4 C5401.2,4683.9 5402,4682.9 5401.9,4682.4 C5402.4,4682.1 5403.3,4682.2 5403.8,4682.2 C5405.8,4682 5407.9,4682.1 5409.9,4682 C5412.2,4681.9 5414.5,4681.2 5416.8,4680.9 C5417.3,4680.8 5419.9,4680.8 5420.5,4681 C5423.2,4677.4 5425.6,4673.5 5428.1,4669.8 L5431.8,4670.1 C5433.3,4668.5 5429.2,4661.7 5428.2,4660.8 C5425.6,4658.4 5422.3,4656.7 5419.9,4654.3 C5418.5,4645.9 5419.3,4637 5423.7,4629.5 C5421.9,4625.9 5419.8,4622.3 5418.3,4618.5 L5414.7,4620.5 L5410.3,4615.8 L5421,4605.1 C5421.6,4605.4 5422.1,4605.8 5422.5,4606.3 C5425.8,4605.3 5429.9,4599.7 5432.7,4597.7 C5433.7,4597 5434.7,4596.7 5435.7,4596.2 C5436.9,4595.6 5438.2,4594.8 5439.6,4594.4 C5447.8,4592.1 5445.4,4591.2 5453.8,4594.7 L5454.1,4594.7 C5454,4592.4 5452.3,4588.9 5451.7,4586.2 C5453.8,4582.6 5454.7,4578.9 5455.8,4574.9 C5456,4574.2 5454.8,4572.7 5454.9,4571.6 L5455.1,4571.3 C5456.5,4571 5457.5,4572 5458.5,4571.7 C5459.6,4570.8 5459,4570 5459.6,4569 C5460,4569 5460.4,4569 5460.7,4569.1 L5461.1,4568.9 C5461.8,4567.9 5462.5,4566.7 5462.8,4565.6 C5463.2,4565.2 5463.9,4565.1 5464.5,4565.2 C5465,4565.9 5465,4566.8 5465.5,4567.6 C5468.3,4571.8 5471.4,4568.3 5474.1,4569.4 C5475.7,4568.7 5506.2,4542.6 5509.7,4539.7 C5509.5,4537.7 5509.2,4535.7 5509.2,4533.7 C5506.2,4532.9 5503.1,4532 5500,4531.4 C5500.1,4518.2 5500.4,4504.9 5501,4491.7 C5501,4491 5499.9,4489.2 5499.6,4488.6 C5499.2,4487.9 5498.4,4486.2 5497.3,4486.2 C5494.3,4486.1 5491.5,4486.2 5488.6,4486.4 C5487.2,4486.5 5485.8,4486.7 5484.4,4486.5 C5483,4486.3 5480.8,4484.7 5479.6,4486.6 C5477.1,4490.5 5476.8,4492.6 5472.7,4490.1 C5471.7,4489.5 5469.6,4485.5 5469.1,4484.5 C5468.3,4482.8 5462,4480.4 5460.6,4484 L5459.9,4484.2 L5458.6,4483.6 L5457.9,4484 C5457.9,4483.4 5457.6,4483 5457.5,4482.4 C5456.9,4480.6 5456.1,4478.8 5455.6,4477.1 C5454.9,4474.7 5454.6,4472.1 5453.9,4469.4 C5453.6,4468.3 5453.2,4467 5453.1,4465.9 L5452.8,4465.7 C5446.3,4466.1 5448.6,4467.4 5443.6,4461 C5441.2,4457.9 5438.6,4461.7 5436.8,4460.4 C5435,4458.2 5433.6,4454.5 5432.2,4452 C5440.4,4451.4 5437.3,4438.5 5432.6,4435.1 C5430.6,4433.6 5427.4,4433.3 5425,4433 C5423.3,4432.8 5418.6,4434.9 5417.9,4434.3 L5418.6,4432.5 C5419.2,4431.1 5420.1,4429.8 5420.7,4428.4 C5422,4424.8 5419.3,4423.8 5422.2,4419.1 L5421.5,4418.9 L5420.9,4417.8 C5420.1,4417.4 5418.3,4417.2 5417.9,4416.3 C5417.3,4415.2 5415.7,4416.3 5414.7,4415.5 C5413.6,4414.7 5411.5,4416 5410.6,4414.6 L5410.1,4412.9 C5408.5,4406.1 5415.9,4395 5411,4385.5 C5406.8,4377.1 5412.5,4368.9 5404.9,4366.7 C5404.6,4366.6 5398,4367.5 5397.6,4367.5 L5396,4361.1 C5400.9,4357.3 5408.4,4351.2 5413.4,4347.2 C5412.5,4345.2 5411.7,4343.3 5408.9,4343 C5408.1,4341.2 5407.2,4339.8 5405.9,4339.2 C5401.6,4342.8 5395.7,4347.9 5391.7,4351.6 C5386.7,4346.8 5380.9,4342.5 5375.5,4338.1 L5365.5,4345.3 C5362.2,4353.9 5359.2,4362.8 5356.5,4371.6 L5344.4,4372.1 C5338.3,4376.7 5332.2,4381.2 5326,4385.7 C5326.8,4391.6 5327.5,4397.5 5328.1,4403.5 C5328.5,4401.9 5331.1,4400.9 5332.2,4402.4 C5333,4403.4 5333.7,4404.5 5335,4405 L5335.5,4404.9 C5336.8,4403.5 5337.7,4401.4 5338.7,4399.7 C5341.5,4400.9 5344.3,4402.1 5347.1,4403.2 C5348.5,4405.9 5348.9,4415.9 5348.1,4418.8 C5347.6,4420.5 5346.1,4421.1 5345.6,4422.4 C5345.9,4423.2 5346.1,4424.4 5345.8,4425.3 C5344.8,4426 5342.2,4425.8 5341.7,4426.9 L5341.7,4426.9 Z" id="svg--id--Nuevo-Leon--NL_1_"></path>
            </g>
        </g>
    </g>
</svg>