<?xml version="1.0" encoding="UTF-8" standalone="no"?>
<svg width="320px" height="216px" viewBox="0 0 320 216" version="1.1" xmlns="http://www.w3.org/2000/svg" xmlns:xlink="http://www.w3.org/1999/xlink" xmlns:sketch="http://www.bohemiancoding.com/sketch/ns">
    <!-- Generator: Sketch 3.4.4 (17249) - http://www.bohemiancoding.com/sketch -->
    <title>svg--id--Guerrero--GR_1_</title>
    <desc>Created with Sketch.</desc>
    <defs></defs>
    <g id="Page-1" stroke="none" stroke-width="1" fill="none" fill-rule="evenodd" sketch:type="MSPage">
        <g id="mexico-no-stroke" sketch:type="MSLayerGroup" transform="translate(-5222.000000, -5098.000000)" fill="#F2F2F2">
            <g id="Layer_2" sketch:type="MSShapeGroup">
                <path d="M5531.2,5243.5 C5527.9,5241.3 5527.5,5240.1 5525,5238 C5523.6,5236.8 5521.5,5237.1 5520.2,5235.6 C5519.7,5235.1 5519.6,5234.3 5519.4,5233.7 C5517.6,5228.5 5519.9,5226.7 5519.3,5222.7 C5519,5220.8 5518,5219 5517.1,5217.2 C5516.1,5215.2 5514.4,5212.9 5513.1,5211.1 L5513.2,5210.6 C5513.8,5206.2 5512.7,5203.1 5512.9,5199 C5513,5196.3 5514.1,5193.2 5514.7,5190.6 C5515.3,5188 5516,5185 5517.6,5182.8 L5515.5,5180.6 C5515.6,5180.5 5515.8,5180.4 5516,5180.2 C5514,5177.9 5511.8,5175.6 5509.7,5173.3 C5507,5173.7 5504.2,5174.7 5501.5,5174.9 C5495.4,5175.4 5490.8,5174.4 5485.4,5171.8 C5482.4,5170.4 5479.9,5164.5 5480.1,5161.3 C5478.3,5161.6 5476.4,5162 5474.5,5162.1 C5474.1,5161.4 5473,5156.6 5472.7,5155.6 C5471.7,5155.8 5470.7,5156 5469.7,5156.1 L5467.2,5151.8 C5466.3,5152 5465.6,5152.5 5464.7,5152.6 C5465.1,5150.1 5463.4,5149.4 5463.4,5147.8 C5463.4,5147 5464.1,5145.9 5463.9,5145.1 C5463.7,5143.7 5463.1,5142.8 5463.2,5141.3 C5463.2,5139.3 5460.1,5136.1 5458.5,5135.4 C5457.9,5134.6 5458.7,5132.1 5456.2,5131 C5455.8,5129.8 5456,5128.6 5455.4,5127.3 C5453.7,5127.8 5452,5127.7 5450.3,5127.7 C5450.1,5127.7 5449.8,5127.8 5449.5,5127.9 C5449.4,5128.3 5449.5,5128.7 5449.4,5129 C5448.8,5131.4 5448.5,5134.1 5445.5,5133.8 C5440.5,5133.3 5441.2,5130.4 5438.2,5127.8 C5436.3,5126.1 5434.5,5124.2 5433,5122.1 C5431.5,5120.1 5430.5,5117.8 5428.7,5116 C5428.1,5115.3 5425.5,5115.2 5424.8,5114.6 C5424.1,5114 5423.4,5113.2 5422.8,5112.6 C5421.2,5111.1 5420,5109.7 5418.1,5108.5 C5417.7,5108.3 5417.2,5108 5416.9,5107.6 C5414.2,5108.5 5413.5,5110.8 5411.8,5112.8 C5406.6,5119.1 5406.8,5120 5399,5116.7 C5398.6,5116.5 5387.8,5120.2 5385.8,5120.6 L5382.6,5121 C5380.5,5125.2 5383.6,5126 5378.5,5130.3 C5376.8,5131.8 5375.1,5133.3 5373.3,5134.8 C5371.9,5135.9 5371.1,5137.9 5369.7,5138.8 C5364.4,5142.2 5362.5,5134.7 5361.3,5131.2 C5360.8,5129.6 5360,5128.1 5359.5,5126.4 C5357.7,5120.7 5356,5114.3 5355.2,5108.3 C5354.5,5102.4 5355,5102.1 5348.9,5100.7 C5348.8,5100.7 5348.7,5100.5 5348.6,5100.5 C5347.2,5100.2 5345.7,5099.7 5344.3,5099.4 L5344.1,5099.1 C5344.2,5099 5344.4,5098.8 5344.5,5098.7 C5342.8,5100.3 5339.6,5105.1 5337,5105 C5336.4,5103.1 5336.4,5101.1 5335.2,5099.4 C5334.8,5099.1 5334,5098.9 5333.5,5098.7 C5330.1,5098.7 5329.2,5106.7 5332.4,5109.7 L5332.4,5109.9 C5329.2,5112.3 5334,5123.7 5334.1,5127.2 C5334,5128.6 5337.4,5132 5338.4,5133 C5339.9,5134.4 5341.7,5135.3 5343.1,5136.8 C5343.4,5137.1 5343.5,5137.5 5343.9,5137.7 C5343.4,5138.7 5342.5,5139.6 5342.1,5140.6 C5341.9,5141 5342,5141.6 5341.5,5141.8 L5341,5141.8 C5339.7,5141.4 5340.7,5138.5 5336.7,5138.8 L5335.1,5139 L5335,5138.3 C5334.5,5138.8 5333.7,5138.9 5332.8,5138.8 L5332.3,5138.7 C5331.6,5138.4 5331.2,5137.7 5330.9,5137.1 L5330.6,5136.5 C5329,5136.1 5328.2,5135.7 5327.8,5134 L5327.6,5133.2 C5325.8,5133.1 5324,5132.2 5322.3,5132.3 C5321.9,5132.6 5321.6,5132.8 5321.3,5132.9 C5321.3,5134.3 5320.2,5135.5 5318.1,5135.2 C5315.1,5136.8 5314.9,5134.7 5314.4,5132.5 C5312.3,5133.4 5311.2,5131.6 5311.2,5129.7 L5311.2,5129.5 C5310.8,5129.3 5307.4,5130.9 5305.2,5130.7 C5300.7,5130.4 5296.3,5129.2 5291.8,5128.2 C5291.5,5128.1 5290.4,5127.9 5290,5128 C5290,5128 5283.5,5129.9 5280.2,5130.3 C5279,5130.5 5275.3,5131.2 5274.1,5130.9 C5267.9,5129.6 5265.6,5121 5263.8,5120.3 C5263.4,5120.2 5255.3,5121.2 5252.5,5120.5 C5251.2,5121.6 5249.1,5121.7 5247.6,5122.5 C5247.3,5123.6 5244.7,5123.5 5244.2,5128.7 C5244.1,5129.6 5244.5,5137 5244.6,5138.1 C5244.9,5141 5246.3,5143.9 5245.3,5146.9 C5244.7,5148.5 5245.1,5148.9 5244.1,5150.1 L5243.7,5151.5 C5241.4,5154.4 5242.1,5154.6 5238,5154.1 C5237.9,5156.9 5235,5155.9 5233.3,5156.5 C5230.9,5157.2 5228.8,5157.5 5226.3,5157.9 C5225.5,5158 5225.1,5158.1 5224.9,5158.2 C5224,5159.9 5222.6,5166.5 5222.9,5168.3 C5223.5,5171.3 5221.9,5175.2 5222.7,5178.1 L5222.8,5179.1 C5225.9,5178.1 5227.4,5172.9 5231.9,5172.9 C5235.7,5172.9 5239,5174.5 5242,5176.6 C5242.7,5177.1 5243.2,5177.8 5244,5178.3 C5246.3,5179.8 5248.7,5180.6 5250.6,5182.7 C5252.2,5184.5 5253,5188.1 5253.8,5188.9 C5254.3,5189.4 5255,5189.7 5255.4,5190.2 C5257.3,5192.3 5262.3,5196.9 5262,5199.9 C5262.4,5200.8 5263.4,5200.9 5264.1,5201.3 C5265.2,5202 5265.9,5203.5 5267.1,5204 C5267.4,5204 5267.8,5204 5268.1,5203.9 L5268.4,5204.2 L5268.5,5204.7 C5269.2,5204.9 5271.3,5203.9 5272.6,5204.2 C5273.8,5204.5 5276.9,5208 5277.4,5209.2 C5277.6,5209.8 5277.1,5210.4 5277,5211 C5277.1,5211.3 5278.9,5213 5279.2,5213.2 C5279.8,5213.6 5280.8,5213.6 5281.5,5213.9 C5284.6,5215.1 5287.9,5216.7 5290.9,5218.2 C5292,5218.8 5292.8,5219.8 5293.8,5220.6 C5298.8,5224.4 5302.6,5225.2 5306.6,5230.5 C5307.1,5231.1 5307.7,5231.8 5307.9,5232.6 C5307.7,5233.2 5307.4,5233.8 5307.4,5234.4 C5308,5234.9 5309.8,5234.5 5310.7,5234.8 C5311.3,5235.5 5313.1,5236.2 5313.9,5236.1 C5314.7,5236.2 5318.5,5238.8 5319.7,5239.4 C5323.6,5241.3 5330.7,5242.3 5335.2,5244.4 C5335.9,5244.7 5337.9,5246.2 5338.6,5246 C5341.3,5247.7 5344.9,5247.8 5347.7,5249 C5353.2,5251.2 5358.9,5253.5 5364.4,5255.8 C5367.1,5256.9 5369.8,5258.4 5372.4,5259.7 C5373.2,5260.1 5373.7,5260.9 5374.5,5261.2 C5376.8,5262 5379.5,5261.7 5381.9,5262.1 C5384,5262.5 5385.8,5264.2 5387.7,5265.2 C5388.7,5265.7 5389.5,5265.5 5390.5,5265.8 C5394.2,5267 5395,5269 5396.6,5272.2 L5397,5272.3 C5397.3,5272 5397.6,5271.7 5397.7,5271.3 C5397.5,5270.2 5396.7,5269.7 5396.9,5268.4 C5398.3,5267.6 5399.3,5269.3 5400.1,5270.1 C5400.2,5270.7 5400.2,5271.6 5400.1,5272.2 L5400.4,5272.5 C5400.8,5272.5 5401.3,5272.8 5401.5,5273.1 L5401.4,5273.6 C5401.2,5273.9 5400.8,5274.1 5400.4,5274.3 L5400.2,5274.7 C5400.2,5276 5404,5277 5405,5277.5 C5406,5278 5407,5279 5408,5279.7 C5409.9,5281.1 5413.9,5282.7 5416.3,5282.7 C5416.8,5282.8 5417.3,5282.9 5417.8,5283 C5417.7,5283.1 5417.8,5283.2 5417.9,5283.2 C5418.2,5283.3 5419.6,5283.4 5419.9,5283.2 L5420,5282.8 L5420.4,5282.7 C5421.2,5283.1 5421.6,5283.7 5422.6,5284 C5428.6,5286 5439.1,5283.2 5443.5,5288.3 C5446.2,5288.7 5448.4,5288.7 5451.1,5288.7 C5452.6,5289.6 5457.7,5291.2 5459.4,5291.3 C5460.5,5291.4 5461.6,5291.2 5462.7,5291.4 C5463.9,5291.6 5464.7,5292.4 5466.1,5292.2 C5467.9,5293.1 5476.8,5298.7 5478.1,5297.6 C5478.4,5297 5478.2,5296.2 5478.3,5295.6 C5478.6,5295.3 5479.1,5295.2 5479.5,5295.2 C5479.9,5295.4 5480.1,5295.8 5480.5,5295.8 C5484.8,5293.5 5487.3,5298.5 5488.9,5301.5 C5489.6,5302.8 5491.5,5305.2 5492.5,5306.4 C5493.9,5308.2 5496.9,5309.3 5498.4,5311 C5499.2,5312 5499.6,5312.7 5500,5313.5 C5502,5311.4 5505,5308.3 5507.8,5308.2 C5509.9,5308.2 5517.4,5309 5517.8,5305.1 C5517.9,5304.1 5518.2,5300.8 5517.8,5299.9 C5514.3,5292.2 5520.3,5293.7 5525,5288.6 C5525.5,5288 5526.5,5286.5 5526.5,5285.7 C5526.5,5285.2 5524.8,5282.6 5524.5,5282.1 C5524.3,5281.8 5524,5281.5 5523.7,5281.3 C5526.5,5280.4 5525.8,5280.5 5528.8,5281.4 C5529.4,5281.6 5532.6,5279.6 5533.2,5279.3 C5533.8,5279 5534.4,5277.6 5536,5276.4 C5536.3,5276.2 5536.6,5275.5 5536.6,5275.2 C5537,5272.2 5537.3,5268.8 5537.9,5265.8 C5538,5265.4 5538.3,5265.1 5538.4,5264.6 C5538.6,5263.5 5538.5,5262.3 5538.9,5261.2 C5539.7,5258.7 5541.8,5257.2 5542,5254.4 C5542.1,5253.6 5540.1,5250.2 5539.7,5249.5 C5538.4,5247.7 5533.4,5244.9 5531.2,5243.5 L5531.2,5243.5 Z" id="svg--id--Guerrero--GR_1_"></path>
            </g>
        </g>
    </g>
</svg>