<?xml version="1.0" encoding="UTF-8" standalone="no"?>
<svg width="86px" height="55px" viewBox="0 0 86 55" version="1.1" xmlns="http://www.w3.org/2000/svg" xmlns:xlink="http://www.w3.org/1999/xlink" xmlns:sketch="http://www.bohemiancoding.com/sketch/ns">
    <!-- Generator: Sketch 3.4.4 (17249) - http://www.bohemiancoding.com/sketch -->
    <title>svg--id--Tlaxcala--TL_1_</title>
    <desc>Created with Sketch.</desc>
    <defs></defs>
    <g id="Page-1" stroke="none" stroke-width="1" fill="none" fill-rule="evenodd" sketch:type="MSPage">
        <g id="mexico-no-stroke" sketch:type="MSLayerGroup" transform="translate(-5489.000000, -5025.000000)" fill="#F2F2F2">
            <g id="Layer_2" sketch:type="MSShapeGroup">
                <path d="M5493.3,5037 C5492,5037.1 5490.2,5036.8 5489.2,5037.7 L5495.8,5046.4 L5495.8,5046.4 L5497,5048 L5497.4,5048.2 C5498.2,5048.4 5501.5,5049.5 5502.1,5049.6 C5505,5049.8 5505.7,5049.4 5508.1,5051 C5509,5051.6 5508.2,5054.1 5508.3,5055 C5508.4,5055.9 5509.7,5056.2 5509.8,5056.5 C5511.2,5059 5514.1,5059 5515.4,5062 C5519.3,5071.6 5518.6,5066.5 5524.9,5073.2 C5527.4,5075.9 5527.5,5080 5532.4,5079.3 C5533.4,5078.4 5533.7,5077.1 5535.2,5076.7 C5536.2,5076.4 5537.4,5077.6 5538.2,5076.3 L5539.9,5073.6 C5541.2,5071.5 5542,5070.4 5544.4,5069.8 C5550.7,5068.1 5547.8,5075 5551.9,5073.6 C5552.9,5073.3 5553.4,5072.5 5554.1,5071.9 C5554.9,5071.2 5555.9,5070.5 5556.4,5069.5 C5557.4,5067.5 5554.6,5064.5 5557.2,5062.9 C5559.6,5061.4 5565.5,5064.3 5570.9,5062.5 C5573.4,5061.7 5575.5,5057.2 5573.2,5055.2 C5572.1,5054.3 5570.7,5055.5 5569.6,5055.2 C5565.6,5055.3 5564.5,5044.6 5558.1,5049.1 C5557.6,5049.4 5556.7,5049.9 5556.1,5049.8 C5555.7,5049.4 5555.4,5047 5555.5,5046.3 C5555,5046 5554.3,5045.8 5553.7,5045.7 C5553.3,5045 5553.5,5044.2 5553.3,5043.4 L5554,5043 C5554.7,5042.7 5555.5,5042.9 5556.2,5042.6 C5556.4,5042.2 5556.3,5041.1 5556.2,5040.7 C5555.6,5039.6 5552.3,5038.2 5551.2,5037.3 C5548.6,5035.4 5546.9,5031.2 5543.4,5034.3 L5543.5,5033.7 C5543.8,5032.1 5543.9,5030.6 5544.2,5029 C5543.3,5028.7 5542.5,5027.8 5541.5,5027.5 L5541.1,5027.6 C5540.1,5030 5535,5029.8 5533.2,5029.5 L5531.9,5028.2 C5532,5028.5 5532.2,5028.7 5532.3,5029 L5532.6,5029.1 L5532.6,5029.1 L5532.6,5029.1 L5532.6,5029.1 C5531.5,5030.4 5524.9,5026.5 5523.8,5025.6 C5520.9,5027.2 5517.9,5035.8 5517.1,5036.2 C5515.9,5035.5 5514.8,5034.1 5513.4,5033.9 C5512.9,5033.8 5508.8,5033.7 5508.7,5033.6 C5507.4,5033.2 5506.7,5031.4 5505.6,5031.4 C5503.8,5032.1 5503.3,5033.9 5501.5,5034.7 C5498.2,5036.2 5496.1,5035.8 5493.7,5036.2 L5493.3,5037 L5493.3,5037 Z" id="svg--id--Tlaxcala--TL_1_"></path>
            </g>
        </g>
    </g>
</svg>