<?xml version="1.0" encoding="UTF-8" standalone="no"?>
<svg width="79px" height="71px" viewBox="0 0 79 71" version="1.1" xmlns="http://www.w3.org/2000/svg" xmlns:xlink="http://www.w3.org/1999/xlink" xmlns:sketch="http://www.bohemiancoding.com/sketch/ns">
    <!-- Generator: Sketch 3.4.4 (17249) - http://www.bohemiancoding.com/sketch -->
    <title>svg--id--Aguas-Calientes--AG_1_</title>
    <desc>Created with Sketch.</desc>
    <defs></defs>
    <g id="Page-1" stroke="none" stroke-width="1" fill="none" fill-rule="evenodd" sketch:type="MSPage">
        <g id="mexico-no-stroke" sketch:type="MSLayerGroup" transform="translate(-5168.000000, -4791.000000)" fill="#F2F2F2">
            <g id="Layer_2" sketch:type="MSShapeGroup">
                <path d="M5177.4,4854.9 L5177.4,4854.9 C5177.2,4855.1 5177.1,4855.3 5176.9,4855.5 L5177.3,4855.4 C5185,4845.9 5189.6,4857.8 5197,4858.7 L5199.3,4859 C5199.8,4859.1 5200.2,4859.4 5200.7,4859.5 C5203.1,4860 5205.7,4859.9 5208,4860.3 C5209.7,4860.5 5211.3,4861.2 5213,4861.5 C5215.7,4861.9 5218.2,4860.5 5220.2,4858.8 C5221.8,4857.5 5230.3,4850.5 5230.3,4848.5 C5230.3,4841.1 5234,4845 5237.3,4842 C5238.6,4840.8 5239.2,4838.8 5240.5,4837.4 C5241.8,4836 5243.3,4834.9 5244.6,4833.4 C5245.2,4832.6 5245.9,4831.8 5246.5,4831.1 L5246.6,4830.6 C5246.4,4830.3 5244.7,4829.3 5244.2,4828.8 C5242.8,4827.3 5241.9,4825.2 5241.2,4823.3 C5240.8,4822.2 5236.2,4820.4 5235.2,4820.2 C5233.8,4820 5232.3,4820 5230.9,4820 C5230.7,4820 5230.6,4819.9 5230.4,4819.9 L5230.2,4819.5 C5230,4816.6 5232.8,4813.6 5233.1,4810.5 C5232.7,4809 5229.7,4810.1 5228.9,4810.4 C5228.2,4809.6 5228.8,4805.8 5225.9,4807 C5225.3,4807.2 5224.6,4807.8 5224,4807.9 C5221.1,4807.2 5223.2,4805.1 5222.7,4804 C5222,4802.8 5220.2,4802.7 5219,4802.7 C5218.1,4801.7 5218.9,4800.2 5217.4,4799.7 L5216.9,4799.8 C5216.2,4800.3 5215.8,4801.2 5215.1,4801.5 C5214.6,4801.6 5214,4801.4 5213.6,4801.3 C5211.8,4799.7 5214.9,4788.9 5209.2,4792.8 C5208.6,4793.2 5208.3,4793.6 5207.8,4794.1 C5207,4794.9 5206.1,4795.7 5205.3,4796.6 C5202.4,4800.2 5202.7,4801.6 5198.4,4803.8 C5196.1,4805 5194.7,4805.1 5192,4805.6 C5181.3,4807.6 5185.9,4810 5182.9,4818.3 C5182.5,4819.4 5181.6,4820.2 5181.1,4821.3 C5180.8,4821.9 5180.8,4822.6 5180.6,4823.3 C5179.9,4825.8 5177.9,4827.6 5175.9,4829.3 C5175.5,4829.6 5174.9,4830.5 5174.6,4830.9 C5171.9,4834.2 5166.9,4839.3 5168.2,4844.2 C5170.1,4851.1 5173.3,4850.1 5177.4,4854.9 L5177.4,4854.9 Z" id="svg--id--Aguas-Calientes--AG_1_"></path>
            </g>
        </g>
    </g>
</svg>