<?xml version="1.0" encoding="UTF-8" standalone="no"?>
<svg width="178px" height="248px" viewBox="0 0 178 248" version="1.1" xmlns="http://www.w3.org/2000/svg" xmlns:xlink="http://www.w3.org/1999/xlink" xmlns:sketch="http://www.bohemiancoding.com/sketch/ns">
    <!-- Generator: Sketch 3.4.4 (17249) - http://www.bohemiancoding.com/sketch -->
    <title>svg--id--Puebla--PU_1_</title>
    <desc>Created with Sketch.</desc>
    <defs></defs>
    <g id="Page-1" stroke="none" stroke-width="1" fill="none" fill-rule="evenodd" sketch:type="MSPage">
        <g id="mexico-no-stroke" sketch:type="MSLayerGroup" transform="translate(-5463.000000, -4933.000000)" fill="#F2F2F2">
            <g id="Layer_2" sketch:type="MSShapeGroup">
                <path d="M5639.4,5136.8 C5639.1,5136.4 5638.8,5136.1 5638.5,5135.8 L5638.5,5135.8 L5638.5,5135.8 C5638.4,5135.8 5638.4,5135.7 5638.3,5135.7 C5638.2,5135.6 5638.1,5135.6 5638,5135.5 L5638,5135.4 C5634,5132.2 5635.2,5127 5634.8,5126.5 C5634.8,5126.5 5633.8,5124.8 5633.5,5124.9 C5625.8,5127 5616.7,5138.2 5612.8,5124.7 C5611.6,5120.6 5610.6,5116.4 5605.8,5116.2 C5603.8,5116.1 5601.2,5117 5599.5,5118 L5599,5117.9 C5597.7,5116.4 5594.6,5107.6 5593.4,5106.3 C5593.4,5106.2 5593.5,5106 5593.6,5106 C5597.5,5103 5596.2,5103.3 5598.6,5099.9 C5599.3,5099 5600.7,5097.4 5601,5096.3 C5601.4,5094.8 5601.8,5093 5601.8,5091.4 C5601.6,5087.4 5598.2,5075.3 5599.7,5073.1 C5600,5072.7 5603.6,5072.2 5604.3,5072 C5605.8,5071.6 5606,5069.9 5607.8,5070.3 C5609,5070.5 5610.1,5071 5611.2,5071.5 C5614.3,5072.7 5617.1,5068.4 5618.6,5066.7 C5622.6,5062.2 5616.6,5060.1 5612.6,5060.3 C5610.8,5060.4 5609,5060.8 5607.2,5061.1 C5605.2,5061.4 5602.7,5056.6 5601.1,5055.1 C5598.4,5052.6 5593.9,5056.9 5592.4,5047.4 C5592.1,5045.3 5593.2,5043.1 5592.8,5041 C5592.1,5040.3 5587.4,5038.1 5586.1,5037 C5586.3,5036.3 5592,5035.4 5593,5033.8 L5594.1,5031.9 C5595.7,5029.2 5597.5,5026.8 5598.1,5023.5 C5598.6,5020.4 5595.1,5012.6 5596.4,5010.2 C5598.5,5006.6 5599.5,5004.4 5602.6,5001.5 C5603.6,5000.6 5604.6,4999 5605.5,4997.9 C5607.5,4995.6 5610.4,4993.3 5609.4,4989.8 C5608.2,4988.3 5604.4,4987.9 5602.6,4987.3 C5600.7,4986.6 5598.7,4985.4 5597,4984.4 C5595.4,4983.4 5592.4,4980.6 5591.1,4980.2 L5590.6,4979.4 C5590.1,4979.5 5588.7,4979.7 5588.2,4979.5 L5587.4,4980.3 C5585.9,4980.4 5584.1,4980.8 5583.1,4982 C5580.9,4984.8 5582.8,4991.4 5578.3,4992.7 C5576.9,4993.1 5576.1,4992.7 5575.1,4991.7 C5573.9,4990.5 5573.7,4988.7 5572.5,4987.5 L5572.1,4987.3 C5571.3,4987.7 5570.4,4987.6 5569.5,4987.6 C5566,4987.6 5565.5,4985.6 5563.9,4983.2 C5562.1,4980.5 5561.5,4979.7 5560.6,4976.4 C5560.5,4976.1 5560.4,4975.8 5560.4,4975.4 C5560.5,4974.8 5561.3,4964.4 5561.3,4964.3 C5562.3,4964.5 5563.2,4964.1 5564.2,4964.3 C5565,4963.1 5564.4,4962.8 5565.9,4961.8 C5566.2,4961.7 5566.6,4961.8 5566.9,4961.9 C5568.1,4963.5 5570.1,4968.9 5572.6,4965.1 C5573.1,4964.3 5573.5,4962.8 5574,4962.2 C5576.2,4959.8 5576,4959.9 5576.5,4956.8 C5578.4,4946.4 5561.3,4951.6 5562,4944.2 C5562.3,4940.9 5562.5,4937.5 5563.1,4934.3 C5559.5,4934.2 5555.9,4933.7 5552.3,4933.3 L5552.1,4933.5 C5551.7,4939.5 5554.1,4942.6 5546.9,4944.9 L5546.5,4945.1 C5547.1,4949.8 5547.4,4957 5543.2,4960.1 C5542.4,4960.7 5541.6,4961.2 5540.9,4961.8 C5539.7,4962.8 5538.6,4963.6 5537.2,4964.3 C5537,4964.4 5536.3,4964.7 5535.8,4965 C5534.7,4966.6 5532.4,4971.8 5531,4973.9 C5530.2,4973.7 5526.3,4974.4 5525.2,4974.8 L5524.9,4975.1 C5524.6,4976.6 5524.1,4982.3 5524.6,4983 C5530,4985.5 5534,4980.3 5534.1,4989.5 C5534.1,4990.9 5536.3,4992.1 5536.2,4993.1 C5535.3,4994.3 5532.8,4995.6 5532.6,4997 C5532.4,4998.1 5533.1,4999.3 5532.7,5000.5 C5530.5,5002.4 5524,5014.4 5523.6,5014.7 C5526.7,5019.3 5529.2,5023.7 5531.8,5028.6 L5533.1,5029.9 C5534.9,5030.2 5540,5030.4 5541,5028 L5541.4,5027.9 C5542.4,5028.2 5543.2,5029.1 5544.1,5029.4 C5543.8,5031 5543.7,5032.5 5543.4,5034.1 L5543.3,5034.7 C5546.8,5031.6 5548.5,5035.8 5551.1,5037.7 C5552.2,5038.5 5555.5,5039.9 5556.1,5041.1 C5556.2,5041.5 5556.3,5042.6 5556.1,5043 C5555.4,5043.3 5554.6,5043.1 5553.9,5043.4 L5553.2,5043.8 C5553.4,5044.6 5553.1,5045.3 5553.6,5046.1 C5554.2,5046.2 5554.9,5046.4 5555.4,5046.7 C5555.2,5047.4 5555.5,5049.7 5556,5050.2 C5556.6,5050.3 5557.5,5049.8 5558,5049.5 C5564.4,5045.1 5565.5,5055.8 5569.5,5055.6 C5570.6,5056 5572,5054.7 5573.1,5055.6 C5575.4,5057.5 5573.3,5062 5570.8,5062.9 C5565.4,5064.6 5559.5,5061.8 5557.1,5063.3 C5554.5,5064.9 5557.3,5067.8 5556.3,5069.9 C5555.8,5070.9 5554.8,5071.6 5554,5072.3 C5553.3,5073 5552.7,5073.7 5551.8,5074 C5547.7,5075.3 5550.6,5068.5 5544.3,5070.2 C5541.9,5070.8 5541.1,5071.9 5539.8,5074 L5538.1,5076.7 C5537.3,5077.9 5536.1,5076.8 5535.1,5077.1 C5533.6,5077.5 5533.3,5078.7 5532.3,5079.7 C5527.4,5080.4 5527.3,5076.3 5524.8,5073.6 C5518.6,5066.9 5519.3,5072 5515.3,5062.4 C5514.1,5059.4 5511.1,5059.4 5509.7,5056.9 C5509.5,5056.6 5508.2,5056.2 5508.2,5055.4 C5508.2,5054.6 5508.9,5052 5508,5051.4 C5505.6,5049.7 5505,5050.2 5502,5050 C5501.4,5050 5498.1,5048.8 5497.3,5048.6 L5496.9,5048.4 L5496.3,5047.6 L5496.2,5048.2 L5494.4,5050.3 C5493.8,5051 5493.1,5053.8 5493.2,5054.7 C5493.9,5060.7 5494.8,5066.6 5495.4,5072.6 C5495.5,5073.2 5495.5,5074 5495.5,5074.6 C5495.4,5078.1 5495.2,5081.6 5494.6,5085 C5494.4,5086.2 5493.5,5087.8 5493.5,5088.9 C5494.2,5091.8 5495.2,5091.2 5494.4,5094.6 C5494.4,5094.8 5494.2,5095.8 5494.1,5095.9 C5493.8,5098.4 5491.5,5101 5490.2,5103.2 C5489.9,5103.7 5487.7,5105.4 5487.1,5105.8 L5487.2,5106.2 C5489.7,5109 5491.1,5109 5492.8,5112.7 C5493.1,5113.3 5493.4,5114.1 5493.3,5114.9 C5491.8,5117.2 5488.2,5113.6 5486.8,5112.6 C5486.3,5114.1 5488,5122 5488.4,5123.5 C5488.6,5124.2 5489.1,5124.7 5489.5,5125.2 C5489.9,5125.7 5491.6,5131.3 5491.6,5131.8 C5491.9,5136.4 5491.8,5133.8 5493,5136.4 C5492.9,5137.4 5492,5137.8 5491.1,5138.1 C5490.5,5137.9 5486.5,5133.5 5485.4,5132.9 C5479.8,5129.8 5478.1,5133.1 5474.4,5137.5 C5472.8,5139.4 5466,5141.6 5463.7,5142.1 L5463.3,5142.5 C5463.4,5143.6 5463.8,5144.4 5464,5145.6 C5464.1,5146.4 5463.5,5147.5 5463.5,5148.3 C5463.5,5149.8 5465.2,5150.5 5464.8,5153.1 C5465.7,5153 5466.5,5152.5 5467.3,5152.3 L5469.8,5156.6 C5470.8,5156.5 5471.8,5156.3 5472.8,5156.1 C5473.1,5157.2 5474.2,5161.9 5474.6,5162.6 C5476.5,5162.5 5478.4,5162.1 5480.2,5161.8 C5480,5165 5482.5,5170.8 5485.5,5172.3 C5490.9,5174.9 5495.5,5175.9 5501.6,5175.4 C5504.4,5175.2 5507.1,5174.2 5509.8,5173.8 C5511.9,5176.1 5514,5178.4 5516.1,5180.7 C5516.9,5180 5518.4,5178.7 5518.6,5178.4 C5520.4,5179.2 5521.4,5179.9 5523.5,5179.5 C5527,5177.5 5528,5170.8 5529.9,5169.8 C5531.7,5168.8 5542.4,5170.8 5547,5169 C5547.6,5169.8 5548,5171 5548.6,5171.9 C5549,5172.6 5549.8,5173.5 5550.1,5174.2 C5551.4,5176.7 5551.6,5179.1 5555.6,5178 C5557.4,5177.5 5558.9,5176.5 5560.1,5175.1 C5561.3,5173.7 5562.7,5173 5563.4,5171.2 C5563.2,5167.7 5561.2,5166.3 5559.9,5163.2 C5557.4,5157.7 5558.1,5157.4 5560.8,5152.3 C5562,5150 5563,5147.7 5564.3,5145.5 C5564.5,5145.2 5564.9,5144.9 5565.2,5144.7 C5565.5,5144.8 5565.9,5145.3 5566,5145.6 L5566.4,5145.8 C5568.2,5145.5 5568.7,5143.2 5569.7,5142.9 C5571,5142.9 5572.2,5145.8 5572.3,5146.9 C5572.4,5148.1 5571.9,5149.8 5571.5,5150.9 C5567.2,5161.8 5574,5156.9 5576.8,5163.3 C5577.5,5164.7 5577.9,5166.6 5578.8,5167.9 C5579.9,5169.5 5580.7,5171.2 5581.9,5172.7 C5582.7,5173.8 5585.5,5174.1 5586.5,5173.1 C5587.5,5172.1 5587.8,5170.6 5588.2,5169.4 C5590,5164.4 5590.3,5163.9 5594,5161 C5595.5,5159.8 5596.9,5158.6 5598.8,5158 C5599.5,5157.8 5600.2,5157.6 5600.8,5157.4 C5607.7,5155.6 5604.9,5158.2 5610.4,5159.4 C5613.3,5160 5620,5160.7 5622.6,5159 C5623.3,5158.2 5623.7,5156.9 5624.4,5156 C5625.1,5155 5627.8,5151.7 5628.8,5151.1 C5631.1,5149.8 5635.1,5149.5 5636.7,5147 C5637.7,5145.4 5638.2,5143.4 5638.8,5141.7 C5639,5141.1 5639.7,5140 5640.1,5139.5 C5639.6,5138.1 5639.4,5137.8 5639.4,5136.8 L5639.4,5136.8 Z" id="svg--id--Puebla--PU_1_"></path>
            </g>
        </g>
    </g>
</svg>