<?xml version="1.0" encoding="UTF-8" standalone="no"?>
<svg width="139px" height="204px" viewBox="0 0 139 204" version="1.1" xmlns="http://www.w3.org/2000/svg" xmlns:xlink="http://www.w3.org/1999/xlink" xmlns:sketch="http://www.bohemiancoding.com/sketch/ns">
    <!-- Generator: Sketch 3.4.4 (17249) - http://www.bohemiancoding.com/sketch -->
    <title>svg--id--Nayarit--NA_1_</title>
    <desc>Created with Sketch.</desc>
    <defs></defs>
    <g id="Page-1" stroke="none" stroke-width="1" fill="none" fill-rule="evenodd" sketch:type="MSPage">
        <g id="mexico-no-stroke" sketch:type="MSLayerGroup" transform="translate(-4947.000000, -4740.000000)" fill="#F2F2F2">
            <g id="Layer_2" sketch:type="MSShapeGroup">
                <path d="M5053.3,4793.2 L5042,4796.6 C5039,4794.8 5035.9,4792.8 5032.6,4791.4 C5030.4,4787.7 5030.5,4782.5 5028.9,4778.5 C5028.1,4777.6 5024.5,4775.8 5023.7,4775.3 C5020.9,4773.7 5021,4773.5 5017.8,4774.6 C5015.6,4775.3 5012.7,4777.5 5011,4779.2 C5010.4,4780 5005.5,4782.5 5003.8,4785.5 L5002.7,4785 L5002.7,4773.9 L5009.3,4766.9 C5010.1,4766 5011.2,4765.7 5012,4765.1 C5012.1,4764.8 5011.5,4763 5011.4,4762.6 C5010.5,4759.4 5010.4,4756.3 5009.5,4753.4 C5009.1,4752.3 5004.6,4751.2 5003.7,4750.8 C4999.2,4749.2 4994.9,4746.4 4990.8,4744 C4987,4741.7 4979.7,4744.2 4978.6,4743.7 C4977.9,4743.4 4972.7,4741 4971.8,4740.9 L4972.1,4742.2 C4970.5,4742 4968.7,4742.7 4967.1,4743.1 C4966.6,4745.1 4965.9,4747.1 4965.2,4749 C4965.8,4750.6 4968.7,4752.7 4968.7,4754.3 C4968.4,4756.1 4961.5,4757.3 4959.6,4763.2 C4956.6,4772.1 4959.3,4769.2 4964.8,4772.5 C4965,4772.6 4965.2,4772.9 4965.4,4773.1 C4965.6,4773.3 4965.9,4773.6 4966,4773.9 C4966.7,4775.9 4965.6,4777.2 4965.8,4778.3 C4966.3,4780.8 4969,4783 4967.6,4785.6 C4967.6,4785.7 4967.3,4786.1 4967.2,4786.2 C4962.9,4788.6 4960.3,4788.6 4955.8,4789.8 C4952.8,4790.6 4950.9,4791.4 4947.9,4792.2 L4947.3,4792.5 C4948.1,4793.8 4948.9,4795.1 4949.1,4795.8 C4949.2,4795.8 4949.3,4795.9 4949.4,4795.9 C4950.8,4800.9 4952.7,4801.4 4953.3,4808.1 C4953.5,4810.1 4953.7,4812.3 4953.6,4814.3 C4953.5,4817.7 4951.3,4831.3 4952.2,4833.5 C4953.6,4837 4957.7,4840.2 4959.2,4842.6 C4960.1,4844 4962.5,4849.2 4963.2,4849.9 C4963.3,4849.9 4963.4,4850.1 4963.5,4850.1 C4964.2,4851.2 4964.5,4852.3 4965.1,4853.4 C4965.8,4854.7 4968.7,4860.7 4968.8,4861.7 C4968.9,4863 4968.5,4864.5 4969.2,4865.8 C4969.6,4866.3 4970.7,4866.7 4971.3,4867 C4972.2,4867.5 4973.2,4868.4 4974.1,4868.8 C4975.6,4869.5 4977.2,4869.9 4978.6,4870.9 C4979.6,4871.6 4980.1,4872.5 4981.2,4873 C4981.9,4873.4 4982.7,4873.3 4983.6,4873.7 C4984.4,4873.8 4984.8,4873.1 4985.8,4873.2 C4986.6,4873.8 4987,4874.6 4987.7,4875.3 C4987.8,4876 4987.8,4877 4988.1,4877.7 C4988.3,4878.2 4988.9,4878.5 4988.9,4879.1 C4988.3,4879.7 4987.8,4880.9 4987.2,4881.6 C4982,4888.1 4986.2,4891.1 4986.4,4898 C4986.4,4899.4 4985.5,4900.8 4985,4902.1 C4985.1,4902.7 4985.5,4903.2 4985.6,4903.8 C4985.9,4906.1 4984.8,4912.3 4982.9,4913.9 C4981.5,4915 4979.1,4912 4976.8,4919.2 C4975.3,4920.3 4973.1,4921.6 4972.3,4923.3 C4972,4924.1 4971.7,4925 4971.1,4925.7 C4970.6,4926.3 4969.7,4926 4969.2,4926.6 C4967.5,4928.7 4968.5,4933 4964.7,4933.4 L4964.3,4933.2 L4964.1,4932.9 L4963.7,4932.8 C4962.8,4933.9 4961.5,4934.1 4960.8,4935.6 C4961.7,4937 4963,4935 4964.1,4935.3 C4964.7,4935.7 4964.9,4936.4 4965.5,4936.8 C4966.3,4937.3 4970.7,4938.3 4971.7,4938.2 C4973.6,4938.1 4975,4935.7 4977.6,4936.8 C4980.1,4937.9 4979.3,4942 4982.4,4942.9 C4982.5,4943 4982.6,4943.2 4982.7,4943.4 L4983.3,4941.6 C4984.8,4937.5 4984.8,4939.9 4986.2,4937.5 C4988.3,4933.8 4996,4920 5000.7,4921.3 C5001.3,4921.6 5001.3,4922.3 5001.3,4923 L5001.7,4923.1 C5002.1,4923.1 5002.8,4922.5 5003.1,4922.2 C5013.2,4923.2 5012.4,4918.1 5019.7,4914.4 C5021.1,4913.7 5023.9,4914.9 5025.4,4914.9 C5025.7,4915.6 5027.1,4917.2 5027.7,4917.7 C5031.7,4921 5032.1,4924.1 5038.2,4922.3 C5042.5,4923.4 5042.1,4928.2 5045,4930.5 C5047,4932.1 5049.7,4932.8 5051.7,4934.5 C5053,4935.6 5052.7,4937.2 5053.6,4937.8 C5053.9,4937.9 5054.2,4937.7 5054.5,4937.8 C5055.2,4937.9 5058.5,4940.3 5059.1,4940.8 C5060.6,4933.5 5057.2,4932.6 5061.8,4923.9 L5063,4921.6 C5063.5,4920.6 5064.2,4919.5 5064.7,4918.5 C5065.5,4916.6 5065.1,4908.5 5064.6,4906 C5064.3,4904.4 5063.7,4904 5063.7,4902.5 C5065.7,4900.8 5069.8,4903 5074.1,4900.3 C5074.5,4900.3 5075.4,4899.1 5075.8,4899 C5076.1,4898.9 5077.6,4898.3 5077.7,4898.2 C5078.2,4897.9 5081.3,4894 5082.8,4892.9 C5083.2,4892.6 5083.7,4892.3 5084,4891.7 C5084.1,4889.4 5083.2,4886.2 5085.3,4884.3 C5081.4,4882.1 5078.9,4881.5 5075.1,4878.3 C5073.7,4877.1 5072.4,4875.9 5071,4874.8 C5070.1,4874.1 5068.9,4873.8 5068,4873 C5067.1,4872.3 5065.4,4870.8 5065,4869.6 C5065.8,4868.3 5065.8,4867.9 5067.3,4866.8 L5069.2,4865.3 C5069.6,4864.4 5069.3,4862.8 5069.5,4861.7 C5070,4858.7 5071,4854.7 5072.5,4852.1 C5072.8,4851.6 5073.5,4850.2 5073.8,4849.8 C5073.9,4849.6 5073.9,4849.2 5073.7,4849 C5072,4847.2 5070.3,4845.9 5068.5,4844.3 C5068.1,4844 5067.9,4843.4 5067.6,4842.9 C5066.4,4840.6 5064.7,4839 5063.1,4837 C5062.6,4836.4 5062,4835.8 5061.5,4835.1 C5058.8,4831.6 5053.3,4828.4 5049.9,4824.6 L5055.5,4808.8 C5055.5,4808.8 5055.1,4809 5054.8,4809.1 L5054.8,4809.1 L5054.8,4809.1 L5054.8,4809.1 L5056.2,4804.6 L5053.3,4793.2 L5053.3,4793.2 Z" id="svg--id--Nayarit--NA_1_"></path>
            </g>
        </g>
    </g>
</svg>