<?xml version="1.0" encoding="UTF-8" standalone="no"?>
<svg width="237px" height="265px" viewBox="0 0 237 265" version="1.1" xmlns="http://www.w3.org/2000/svg" xmlns:xlink="http://www.w3.org/1999/xlink" xmlns:sketch="http://www.bohemiancoding.com/sketch/ns">
    <!-- Generator: Sketch 3.4.4 (17249) - http://www.bohemiancoding.com/sketch -->
    <title>svg--id--Campeche--CM_2_</title>
    <desc>Created with Sketch.</desc>
    <defs></defs>
    <g id="Page-1" stroke="none" stroke-width="1" fill="none" fill-rule="evenodd" sketch:type="MSPage">
        <g id="mexico-no-stroke" sketch:type="MSLayerGroup" transform="translate(-5972.000000, -4922.000000)" fill="#F2F2F2">
            <g id="Layer_2" sketch:type="MSShapeGroup">
                <path d="M6208.2,5031.4 L6208.2,5031.4 C6192.8,5007.3 6176.9,4983.6 6161.1,4959.7 C6160.2,4961.2 6159.2,4962.6 6158.3,4964.1 C6154.1,4963.1 6149.9,4961.5 6145.8,4960.1 C6146.3,4958.2 6146.7,4956.2 6147.4,4954.3 C6143,4954.3 6138.6,4954.5 6134.1,4954.6 L6134.5,4930.1 C6134,4931.5 6133.6,4932.7 6133.3,4933 C6132.9,4933.6 6132.1,4934.6 6131.1,4935.7 C6131.9,4934.1 6133,4931.7 6133.8,4929.7 L6133.9,4924.3 L6133.8,4922.4 C6133.1,4924.6 6132.5,4926.9 6131.9,4929 C6131.4,4930.4 6130.5,4931.7 6130.2,4933.1 C6130,4933.8 6130.1,4934.5 6129.9,4935.1 C6129.6,4936 6128.7,4936.7 6128.5,4937.7 L6128.8,4937.9 C6129.1,4937.7 6129.4,4937.6 6129.7,4937.5 C6128.7,4938.7 6127.9,4939.8 6127.7,4940.3 C6127.3,4941.5 6127.8,4946.2 6127.6,4948 C6127.3,4951.4 6125.4,4954.5 6125.1,4957.9 C6124.9,4960.1 6126,4961.6 6126.1,4963.6 C6126.2,4965.2 6126.3,4966.9 6127.1,4968.3 C6127.1,4968.9 6125.6,4973.9 6125.4,4975.4 C6124.9,4979.2 6125.5,4979.1 6125.8,4982.1 C6126,4984.1 6124.5,4985.3 6124.4,4986.5 C6124.3,4988.2 6125.3,4990.6 6125.4,4991.1 C6125.5,4992.7 6124.2,4994 6124.4,4995.3 C6124.5,4995.9 6125,4996.3 6125.3,4996.7 C6125.5,4997 6127.1,5000.5 6127.1,5000.6 C6127.1,5001.2 6126.9,5001.7 6127.1,5002.2 C6127.3,5002.7 6127.8,5003 6128,5003.6 C6127.9,5005.4 6126.3,5006.1 6125.4,5007.4 C6124.2,5009.2 6125.1,5009.8 6122.3,5012.4 C6121.5,5013.1 6120.5,5013.2 6119.6,5013.7 C6116.3,5015.9 6112.7,5018.5 6110.6,5021.9 C6109.5,5023.5 6109.5,5026.1 6108.5,5027.9 C6108.2,5028.4 6107.9,5028.9 6107.8,5029.6 C6107.7,5030.9 6108.9,5031.8 6108.9,5033.1 C6108.9,5034.6 6107.9,5036.3 6107.7,5037.8 C6107.4,5040.4 6108.1,5043 6107.9,5045.6 C6107.8,5047 6107.3,5048.2 6107,5049.5 C6106.6,5051.3 6106.6,5053.6 6106.6,5055.4 C6106.5,5056.5 6105.9,5057.3 6105.4,5058.3 C6102.6,5063.4 6100.6,5062 6097.4,5065.2 C6095.5,5067.1 6093,5071.3 6091.2,5072.8 C6090.3,5073.5 6089.2,5073.8 6088.3,5074.5 C6087.6,5075.1 6087,5075.8 6086.4,5076.4 C6086.2,5076.6 6086,5076.9 6085.8,5077.1 C6084,5078.3 6081.8,5078.6 6080.1,5079.9 C6077.4,5082 6075.4,5084.9 6072.4,5086.8 C6070.5,5088 6068.6,5088.2 6066.6,5088.8 C6065.6,5089.1 6065,5089.9 6064.1,5090.3 C6063.5,5090.7 6062.7,5090.7 6062,5090.9 C6061.7,5091 6052.4,5095.8 6052.3,5095.9 C6050.9,5097.3 6049.9,5099.3 6048.5,5100.7 L6048.7,5100.3 C6048.6,5100.7 6046.4,5103.3 6046.1,5103.4 L6046.1,5103.8 C6047.9,5105 6051,5103.7 6052.3,5102.3 C6052.5,5102.4 6052.9,5102.5 6053.1,5102.4 L6053.4,5102 C6053.2,5101.4 6053.1,5100.7 6053.6,5100.2 C6054.7,5099.9 6054.8,5098.1 6056.5,5097.5 L6056.6,5097 C6057.8,5096.5 6059.4,5096.6 6060.5,5095.8 C6062.3,5094.4 6065.2,5091.1 6067.3,5090.7 L6067.3,5091 C6066.9,5092.2 6065,5093.3 6064,5094 C6063.3,5094.6 6063.2,5095.7 6062.7,5096.2 C6062.4,5096.5 6060.6,5097.3 6060,5097.5 C6059.1,5097.8 6057.4,5097.4 6056.8,5097.9 C6056.3,5098.5 6056.6,5099.1 6056.4,5099.7 C6056.2,5100.1 6055.3,5100.7 6054.9,5101 C6054.2,5101.6 6054.1,5102.4 6053.5,5103.1 L6053.7,5103.4 C6053.9,5103.3 6054.1,5103.1 6054.3,5102.9 L6054.6,5102.9 C6054.8,5103.5 6055.2,5103.8 6055.5,5104.3 C6056.2,5105.3 6056.1,5107.1 6058.1,5106.8 C6058.3,5106.9 6058.5,5107.2 6058.5,5107.5 L6059,5107.5 C6059.6,5106.9 6059.5,5105.9 6060.4,5105.5 C6062.1,5104.8 6065.8,5109.3 6065.8,5110.8 C6065.8,5111.1 6065.7,5111.5 6065.6,5111.8 C6065.5,5112.2 6065.3,5112.4 6065.2,5112.8 C6064.7,5113.9 6063.8,5114.8 6063.3,5115.9 C6062.9,5116.8 6063,5117.7 6062.6,5118.7 L6062.9,5118.9 L6063.2,5118.8 C6063.3,5118.4 6063.5,5118 6063.9,5117.8 C6064.8,5117.8 6065.3,5118.3 6066.3,5117.9 C6067.5,5117.5 6069.4,5114.5 6071.2,5116.2 L6071.3,5116.5 C6071.1,5117.7 6069.4,5117.5 6068.6,5117.7 C6068.6,5117.7 6065.3,5119.7 6065.1,5119.9 C6064.4,5119.9 6063.8,5119.1 6063,5119.5 C6062.7,5119.4 6062.4,5119.3 6062.1,5119.4 C6061.6,5119.9 6061.6,5121 6061.5,5121.7 C6061.1,5124.2 6058.3,5124.4 6056.5,5125.2 C6056,5125.1 6055.6,5124.9 6055.1,5125 C6054.5,5125 6051,5126.3 6050.8,5126.9 L6049.8,5127 C6049.6,5127.2 6049.4,5127.4 6049.3,5127.6 C6048.9,5127.8 6048.4,5127.6 6047.9,5127.8 C6047.6,5127.9 6047.5,5128.2 6047.3,5128.4 C6046.5,5129.4 6045.1,5130.2 6044.4,5131.3 C6044.1,5131.8 6044,5132.4 6043.8,5132.9 L6044.1,5133.2 C6045.7,5133 6045.6,5131.8 6046.6,5130.9 L6046.7,5131.4 L6047,5131.7 C6047.4,5131.3 6047.1,5130.5 6047.8,5130.2 L6048.2,5130.3 C6048.4,5130.9 6048.2,5131.7 6048.1,5132.3 L6048.4,5132.6 L6048.9,5132.7 L6048.9,5133.1 C6048.4,5133.6 6048.9,5134.3 6048.7,5134.8 C6048.4,5134.9 6047.1,5135.2 6046.8,5135.1 C6046.6,5135 6046.4,5134.7 6046.3,5134.4 C6046.3,5133.9 6046.7,5133.5 6046.6,5133 C6046.2,5133 6044.8,5133.9 6044.4,5134.2 C6041.6,5134.1 6038.9,5134.9 6036.1,5134.3 C6034.4,5134 6034.9,5133 6032.8,5133.8 C6031.3,5133.5 6024.4,5130.6 6023.3,5130.8 L6023,5131 C6023.1,5133 6025.4,5133.4 6025.7,5134.4 L6025.6,5134.9 C6025.4,5135.1 6025.2,5135.3 6024.9,5135.3 C6024.3,5135.3 6023.2,5134.6 6022.8,5134.1 L6022.4,5134.2 C6022.3,5135.1 6024.4,5136.7 6024.5,5137.9 C6024.6,5141 6021.3,5139.1 6020.8,5136.9 C6020.4,5136.6 6019.8,5136.4 6019.3,5136.1 C6018.8,5134.9 6020.9,5131.4 6021.6,5130.2 L6021.6,5129.7 L6021.3,5129.4 C6019.7,5129.1 6018,5129 6016.6,5127.9 L6016.4,5127.5 L6016.6,5127.2 L6017.1,5127.1 C6017.3,5127.3 6017.6,5127.5 6017.8,5127.5 L6018.1,5127.3 C6018.2,5126.5 6016.8,5125.8 6016.5,5125 C6016.1,5124.7 6015.6,5124.8 6015.1,5124.7 L6014.9,5124.3 C6015,5123.9 6015.4,5123.6 6015.7,5123.3 L6015.7,5122.9 C6014.7,5122.7 6014,5124 6012.7,5123.6 C6012.1,5123 6011.7,5121.7 6010.8,5121.5 L6010.4,5121.7 C6010.5,5126 6016.7,5128 6017,5129.3 C6013.1,5129.8 6013.5,5123.8 6009,5126.5 C6007.1,5126.6 6006.1,5123.3 6004.3,5125.5 C6004.5,5124.9 6005,5123 6005.6,5122.8 C6005.8,5122.4 6005.5,5121.9 6005.3,5121.6 L6005.5,5121.2 L6005.9,5121.2 C6006.1,5121.5 6006.5,5121.8 6006.9,5121.9 C6007.6,5121.9 6008,5121.5 6008.8,5121.5 L6008.7,5121.1 L6008.4,5120.8 C6008,5120.7 6007.5,5120.8 6007.1,5120.5 C6007.1,5120.2 6007.1,5119.9 6007.3,5119.6 L6007.7,5119.4 C6009,5119.5 6008.9,5120 6009.7,5120.2 L6010.2,5120.1 C6010.6,5119.7 6011.3,5118.3 6011.7,5118.2 L6012.3,5118.2 C6013.6,5119.1 6012.5,5120.3 6012.8,5121.3 C6014,5122.1 6016.5,5120.7 6017.4,5120.9 C6017.5,5121.3 6017.2,5121.6 6017.2,5122 L6017.7,5122.1 C6018.3,5121.8 6019.4,5119.2 6019.2,5118.5 C6018.8,5118.1 6018.3,5118.2 6017.7,5117.9 C6017.1,5117.4 6015.8,5116.4 6015.1,5115.8 C6015,5115.7 6014.7,5115.6 6014.6,5115.5 C6012.8,5113.6 6013.1,5110.1 6009.7,5109.6 C6008.8,5109.5 6008.1,5110 6007.2,5109.9 C6006.7,5110.3 6005.5,5110.9 6004.9,5111 C6004.2,5111.2 6003.5,5111 6002.8,5111.1 C6000.5,5111.5 5998.6,5112.2 5996.4,5112.4 C5994.6,5112.5 5992.8,5113.6 5991.1,5113.8 C5990.1,5113.9 5989,5113.5 5988,5113.5 C5986.6,5113.4 5977.9,5113.4 5976.9,5113.7 C5976.1,5113.9 5975.3,5114.5 5974.7,5114.9 C5973.9,5114.9 5973.2,5115.1 5972.4,5115.2 C5972.2,5116.3 5974.5,5118.8 5975,5119.6 C5976.4,5122.1 5976.7,5124.2 5976.9,5127.1 C5983.7,5126.5 5989.5,5127.2 5996.2,5127.2 C5996.7,5131.7 5996.1,5136.8 5996,5141.3 L5995.8,5157.3 C5997.3,5158.5 5999.1,5159.2 6000.6,5160.5 C6001.3,5161.1 6001.6,5161.7 6002.3,5162.2 C6003.2,5162.8 6004.6,5162.7 6005.4,5163.6 C6005.9,5164.1 6005.9,5164.9 6006.4,5165.5 C6006.9,5166.2 6008.3,5165.9 6008.8,5166.5 C6009.5,5167.3 6009.6,5168.1 6009.5,5169.2 L6019.1,5174.8 C6025,5174.7 6030.9,5174.8 6036.8,5174.8 C6036.8,5173.6 6037.4,5172.5 6037.5,5171.4 C6036.9,5169.2 6036.4,5169.6 6036.9,5166.9 C6037,5166.4 6036.8,5165.9 6036.9,5165.4 L6037.6,5165 C6037.3,5164.3 6037.6,5163 6038.1,5162.4 L6046.5,5161.9 C6047.2,5161.9 6050.2,5162 6050.6,5162.3 C6056.8,5167.2 6057.2,5163.6 6061.5,5165.9 C6061.8,5166 6062.2,5166.4 6062.2,5166.7 C6063.1,5167.5 6070.4,5172.7 6071.2,5172.7 L6086.6,5173.3 C6086.6,5177.6 6086.5,5181.8 6086.7,5186.1 C6090.9,5186.3 6168,5186.1 6207,5186.1 C6207,5185.4 6207.1,5184.7 6207.1,5184 L6207.3,5147.5 C6207.4,5124.2 6207.7,5100.8 6207.8,5077.5 L6207.9,5051.2 C6208.1,5048.6 6208.9,5034.3 6208.2,5031.4 L6208.2,5031.4 Z" id="svg--id--Campeche--CM_2_"></path>
            </g>
        </g>
    </g>
</svg>