<?xml version="1.0" encoding="UTF-8" standalone="no"?>
<svg width="209px" height="324px" viewBox="0 0 209 324" version="1.1" xmlns="http://www.w3.org/2000/svg" xmlns:xlink="http://www.w3.org/1999/xlink" xmlns:sketch="http://www.bohemiancoding.com/sketch/ns">
    <!-- Generator: Sketch 3.4.4 (17249) - http://www.bohemiancoding.com/sketch -->
    <title>svg--id--Quintana-Roo--QR_1_</title>
    <desc>Created with Sketch.</desc>
    <defs></defs>
    <g id="Page-1" stroke="none" stroke-width="1" fill="none" fill-rule="evenodd" sketch:type="MSPage">
        <g id="mexico-no-stroke" sketch:type="MSLayerGroup" transform="translate(-6207.000000, -4864.000000)" fill="#F2F2F2">
            <g id="Layer_2" sketch:type="MSShapeGroup">
                <path d="M6415.1,4903.6 C6414.3,4903.5 6413.9,4904.3 6413.1,4904.4 C6412.7,4904.4 6410.8,4903 6410.2,4902.8 C6408.9,4900.5 6409.7,4899.1 6409.7,4896.7 C6409.7,4895.7 6409.3,4894.8 6409.1,4893.9 C6407.6,4892.9 6409.9,4888.1 6409.9,4886.5 C6409.9,4885.5 6409.4,4884.8 6409.3,4883.9 C6409.2,4882.5 6409.3,4881 6407.7,4880.3 C6406.8,4880.7 6406.4,4880.8 6405.4,4880.4 C6405.4,4880.1 6405.3,4879.8 6405.1,4879.6 C6404.4,4879.7 6403.7,4879.6 6403.1,4879.8 L6402.8,4880.1 C6402.9,4880.4 6403,4880.7 6403,4881 L6402.6,4881.1 C6400.6,4880.5 6401.2,4878.6 6400.8,4877.2 C6399.8,4876.8 6396.4,4871.6 6395.9,4870.6 C6395.5,4869.8 6395.5,4868.9 6394.8,4868.3 C6393.7,4867.3 6389.2,4866 6387.5,4865.2 C6387.1,4865 6386.8,4864.6 6386.3,4864.4 C6386.2,4864.4 6386,4864.4 6385.8,4864.5 C6385,4864.8 6384.1,4865.8 6383.2,4866.2 C6381.9,4866.9 6380.3,4867 6379,4867.6 C6378.3,4868 6377.6,4868.5 6376.9,4868.9 C6374.7,4870 6369.5,4869.8 6367.7,4868 L6367.2,4868 C6366.7,4868.3 6366.8,4869.2 6366.5,4869.6 C6365.8,4870.6 6364.1,4871.7 6363.1,4872.5 C6363,4872.8 6363,4873.2 6363.1,4873.5 C6363.4,4873.9 6364,4874.4 6364.5,4874.4 L6364.8,4874.1 L6364.5,4873.9 L6364.4,4873.5 C6364.7,4873 6365.8,4872.9 6366.3,4872.5 C6367,4871.9 6367.2,4870.9 6368.3,4871.1 L6368.6,4870.8 L6368.7,4870.3 C6369,4870.6 6369,4871 6369.3,4871.3 L6369.2,4871.8 L6369.6,4871.9 C6369.8,4871.8 6370.2,4871.7 6370.4,4871.7 C6371.1,4872.3 6372.1,4872.4 6372.9,4872.4 C6374,4872.4 6375.5,4872.5 6376.5,4872 C6378.7,4870.8 6382.7,4867 6385.1,4870.1 C6385.2,4870.4 6385.2,4870.8 6385.1,4871 C6384.8,4871 6384.4,4871 6384.2,4871.3 L6384.4,4871.7 C6384.6,4871.8 6384.9,4872.1 6384.9,4872.3 C6385,4873.9 6384.4,4876.5 6382.6,4877 C6382.1,4877.1 6381.6,4877 6381.1,4877.1 C6380.8,4877.4 6380.7,4877.9 6380.4,4878.2 C6379.3,4879.4 6378.2,4878.6 6377.5,4878.8 C6377.1,4879.1 6376.8,4879.8 6376.4,4880 L6376,4880 L6375.8,4879.7 C6374.9,4879 6369.8,4878.9 6368.8,4879.5 C6368.3,4879.5 6367.9,4879.3 6367.6,4879.1 C6365.7,4878.1 6364,4877.6 6361.8,4877.4 C6359.6,4877.1 6356.6,4878.5 6356.2,4876.8 L6356.3,4876.6 C6356.5,4876.8 6356.7,4876.9 6356.9,4877.1 C6357.2,4877.2 6357.6,4877.1 6357.9,4877 L6358.2,4876.7 C6357.7,4876.6 6357.2,4876.6 6356.7,4876.4 C6356.4,4876.1 6356.5,4875.6 6356.2,4875.2 C6355.7,4875 6354.6,4875 6353.5,4875 L6353.5,4875 L6353.5,4875.1 C6353.5,4878.1 6353.5,4914.4 6353.4,4914.7 C6348.3,4924 6343.4,4933.3 6338.4,4942.6 C6338.3,4942.9 6337,4945.4 6336.9,4945.5 C6332.6,4949.1 6325.1,4953.3 6320.4,4956.4 C6311.8,4962 6303.3,4967.7 6294.8,4973.4 C6265.9,4992.7 6236.9,5011.8 6208.2,5031.4 C6208.8,5034.3 6208.1,5048.6 6208.1,5052.2 L6208,5078.5 C6207.9,5101.9 6207.7,5125.2 6207.5,5148.5 L6207.3,5185 C6207.3,5185.7 6207.2,5186.4 6207.2,5187.1 C6219.1,5187.1 6227.4,5187.1 6229,5187.2 L6229,5187.2 C6229.5,5183.3 6228.8,5179.4 6228.9,5175.5 C6229.5,5175.2 6229.9,5174.6 6230.5,5174.3 C6232.4,5173.1 6234.2,5172.5 6236.2,5171.7 C6240.6,5170 6239.3,5173.4 6241.3,5174.7 C6242.2,5175.3 6243.6,5174.7 6244.5,5175.1 C6245,5175.3 6245.5,5176.9 6245.9,5177.3 C6247.1,5178.6 6248,5178.3 6249.1,5179.2 C6250.1,5180 6250.6,5181.2 6251.5,5182 C6251.6,5182.1 6251.8,5182.2 6252,5182.3 C6252.9,5181.7 6251.4,5178.4 6252.7,5176.9 C6254.7,5174.6 6256.2,5175.3 6257.5,5171.8 C6257.7,5171.2 6258.3,5170.8 6258.6,5170.3 C6258.9,5169.7 6259.1,5167.3 6260.3,5167.9 C6260.8,5167.2 6261.5,5166.8 6262.3,5166.6 C6262.7,5165.6 6262.4,5164 6262.7,5162.9 C6263.1,5161.2 6264.3,5160 6264.8,5158.4 C6265.1,5157.5 6265,5156.8 6264.6,5156 C6265.6,5155.1 6268.2,5153.7 6269.5,5153.4 C6269.9,5152.8 6270.5,5152.4 6270.9,5151.7 C6271.7,5150.1 6271.3,5148.2 6271.8,5146.6 C6272.5,5144.6 6274,5144.6 6274.9,5143.2 C6276.4,5140.8 6276.8,5132.5 6280.8,5130.4 C6282.1,5129.7 6282.6,5131 6283.2,5131 C6285.1,5131.1 6285.1,5129.3 6287.7,5130.6 C6289.1,5131.3 6292.4,5130.6 6294.1,5130.7 L6294.5,5131.1 C6294.5,5130.8 6294.8,5130.7 6295.8,5130.9 L6295.9,5130.9 C6296,5130.5 6303.5,5115.8 6303.9,5115.2 C6304.1,5115 6305.6,5114 6306,5113.9 L6306,5113.4 C6305.7,5113.1 6305.5,5112.7 6305.1,5112.6 L6304.7,5112.8 C6304.5,5113 6304.4,5113.3 6304.3,5113.5 C6304.1,5113.7 6303.7,5113.8 6303.4,5113.7 L6303.1,5113.9 C6302.9,5114.3 6302.8,5114.8 6302.6,5115.2 C6301.7,5113.5 6304.8,5111.2 6303.5,5109.9 C6303.2,5109.8 6302.9,5109.9 6302.6,5110 C6302.3,5110.7 6302.9,5111.1 6302,5112.2 C6301.6,5112.4 6301.2,5112.6 6300.8,5112.6 C6300.4,5113 6298.5,5114.9 6298.1,5115 L6297.8,5114.8 C6298.1,5112.6 6300,5112.4 6301.2,5111.3 C6301.8,5110.7 6302,5109.5 6302.7,5109.3 C6305.1,5108.3 6305.4,5112 6307.6,5105.7 C6307.7,5106.9 6306.3,5110.2 6306.9,5110.8 C6307.3,5111.1 6307.9,5111.2 6308.3,5111 C6308.6,5104.4 6312.3,5102.7 6312.9,5099.8 C6313.1,5099.4 6313.7,5099.3 6314.1,5099.3 C6314.3,5099.1 6314.4,5098.8 6314.5,5098.5 L6314.8,5098.3 C6314.9,5098.6 6314.9,5099 6314.9,5099.4 C6315.5,5100.7 6315.1,5102.3 6315.5,5102.7 C6315.9,5102.9 6316.3,5103 6316.6,5103.3 C6316.7,5104.1 6317.3,5104.5 6317.5,5105.2 C6317.7,5105.9 6317.2,5106.4 6317.2,5107.1 C6317.2,5107.8 6317.6,5108.9 6317.4,5109.4 C6317,5109.7 6317,5110.1 6316.8,5110.5 C6316,5112.6 6316.6,5112.4 6317.6,5114.1 C6317.6,5114.4 6316.1,5117.8 6315.9,5118.3 C6315.7,5118.7 6315.3,5118.8 6314.9,5119.1 C6314.8,5120.5 6313.6,5121 6313.8,5122.5 C6313.8,5122.8 6314.1,5123 6314.1,5123.3 C6314.2,5123.9 6313.8,5124.5 6313.9,5125.2 C6313.7,5125.8 6310.6,5126.5 6311.4,5128.1 L6311.7,5128.3 C6312,5129 6311.8,5129.7 6312,5130.1 C6312.4,5130.4 6312.9,5130.3 6313.3,5130.5 C6314.1,5130.9 6314.2,5131.4 6314.8,5131.9 C6315.4,5132.4 6317.2,5132.5 6318,5132.8 C6318.1,5133 6318.3,5133.3 6318.5,5133.5 C6319,5133.6 6323.4,5134.8 6323.5,5134.9 C6323.3,5136.3 6323.8,5136.2 6322.7,5137.4 C6322.7,5138.1 6323.1,5138.8 6323.7,5139.1 L6324.8,5139.2 C6325.5,5139.8 6325.7,5139.9 6326.1,5140.8 C6326,5141.2 6325.6,5141.6 6325.7,5142 C6325.8,5142.6 6326.9,5143.3 6327.2,5143.9 C6327.5,5144.5 6327.2,5146 6326.3,5146 L6326.1,5146.3 C6326.3,5146.8 6326.3,5147.4 6326.6,5147.9 C6326.6,5147.6 6326.7,5147.3 6326.8,5147.1 C6328.1,5146.6 6327.7,5145 6328.5,5144.7 L6328.8,5145 L6328.7,5146 C6328.4,5146.4 6328,5146.9 6327.7,5147.3 C6327.4,5148.4 6327.6,5150 6327.5,5151.2 L6327.1,5151.3 L6326.7,5151.1 L6326.4,5151.3 C6326,5151.8 6326.3,5153 6326.9,5153.3 C6327.1,5153.4 6327.5,5153.3 6327.7,5153.2 C6327.9,5152.8 6327.9,5152.3 6328.3,5152 L6328.8,5151.9 L6329.1,5152.2 C6329.2,5152.7 6328.9,5153.1 6328.8,5153.5 C6329.1,5154.4 6329.1,5155 6329.2,5155.9 L6329.6,5156 C6330,5155.5 6329.7,5143.8 6333.6,5141.9 C6333.9,5141.5 6333.8,5141 6334,5140.5 C6334.5,5139.1 6335.5,5138.2 6336.4,5137.1 C6336.9,5134.4 6336.6,5131.6 6337,5128.9 C6337.2,5127.7 6338.2,5126.8 6338.5,5125.6 C6338.8,5124.2 6338.1,5123.4 6338,5122.2 C6337.9,5121.1 6338.2,5120.3 6338.4,5119.3 C6338.9,5116.3 6338.3,5114.9 6340.7,5112.4 C6341.8,5111 6343.6,5109.7 6344.4,5108.1 C6345.1,5106.6 6344.7,5104.9 6344.9,5103.3 C6345.2,5101.3 6346.8,5099.6 6347,5097.8 C6347.3,5095.2 6347.2,5092.4 6347.7,5089.8 C6348.1,5088.1 6348.5,5085.8 6349.2,5084.2 C6349.5,5083.6 6349.8,5083.8 6350,5082.8 L6349.7,5083 C6349.6,5083.3 6349.4,5083.5 6349.2,5083.7 L6348.9,5083.4 C6349.2,5080.8 6353.6,5079.3 6352.3,5074.2 C6352.4,5073.6 6352.9,5073.3 6353.1,5072.7 C6353.3,5071.7 6353,5070.6 6353.3,5069.6 C6353.4,5069 6353.9,5068.7 6354.2,5068.2 C6354.6,5067.6 6354.6,5066.8 6355,5066.1 C6356.2,5063.9 6357.8,5062.5 6359.5,5060.8 L6359.4,5060.5 C6358.8,5060.5 6358.2,5060.4 6357.5,5060.4 L6357.2,5060.7 L6357.5,5061 C6357.4,5061.3 6355.8,5063.3 6355.5,5063.5 C6355.3,5062.3 6356.4,5061.3 6356.6,5060 L6356.4,5059.7 L6355.9,5059.6 C6355.5,5059.7 6355.2,5060.1 6354.9,5060.3 C6353.2,5060.4 6353.5,5059.5 6351.7,5060.9 C6351.5,5061.1 6351.3,5061.3 6350.8,5061.6 C6349.2,5062.9 6350,5064.4 6349.2,5065.7 C6348.8,5066 6348.1,5066.1 6347.7,5066.5 C6346.7,5067.9 6347.4,5068.4 6345.5,5069.5 L6345,5069.5 C6343.6,5068.3 6343.4,5068.3 6342.1,5066.8 C6340.6,5065 6344.2,5063.7 6343.9,5061.7 L6343.7,5061.4 C6343.4,5061.5 6343.1,5061.5 6342.7,5061.4 L6342.5,5061 C6342.5,5060.6 6342.7,5060 6343.1,5059.8 C6343.5,5059.8 6343.9,5060.1 6344.3,5060 C6344.6,5059.2 6344.9,5058.6 6344.8,5057.6 C6344.3,5057.9 6344.1,5058.9 6343.8,5059.4 L6343.4,5059.2 C6343.4,5058.1 6345.7,5053.6 6346.7,5053.3 L6347.5,5053.7 C6348.7,5053.1 6351.6,5050.6 6352.9,5050.6 L6353.3,5050.7 L6353.3,5051.1 L6352.7,5051.6 C6352.7,5052 6352.9,5052.5 6353,5052.9 C6352.7,5053.6 6351.2,5053.8 6350.6,5053.8 L6350.9,5054 C6354.2,5053.9 6354.2,5052.6 6356.3,5051 C6357,5050.5 6357.8,5050.4 6358.5,5049.8 C6359.1,5049.2 6359.4,5048.4 6360.1,5048 C6361.9,5045.5 6361.6,5043.9 6362.1,5041.1 C6362.3,5040 6363.1,5039 6362.8,5037.9 C6362.4,5036.2 6361,5035.5 6360.9,5033.7 L6360.7,5033.8 C6360.6,5035.8 6361.7,5035.4 6359.9,5037.1 L6359.9,5037.6 C6360.1,5037.8 6360.2,5038.1 6360.3,5038.3 C6358.9,5037.9 6357.5,5038.6 6356.1,5038.2 C6355.4,5037.4 6354.8,5037.8 6353.9,5037.8 L6353.9,5038.1 C6354.5,5038.7 6355.7,5037.9 6356.8,5039.2 C6357.6,5039.2 6358.2,5038.9 6359,5038.6 L6359.4,5038.8 L6359.6,5039.2 C6360,5039.1 6360.5,5039.1 6360.9,5039 C6361.2,5038.4 6361,5037.7 6360.4,5037.4 L6360.4,5037 C6360.7,5036.9 6360.9,5036.8 6361.1,5036.6 L6361.4,5036.8 C6361.5,5037.3 6362.1,5037.9 6362.1,5038.2 C6361.6,5038.7 6361,5039.3 6361.5,5040 L6360.5,5040.1 C6360.2,5040.5 6360.3,5041 6360,5041.4 C6359.6,5041.6 6359,5041.6 6358.6,5041.5 L6358.3,5041.2 L6358.5,5040.8 C6358.7,5040.8 6359,5040.6 6359.2,5040.4 C6359.1,5040.2 6358.8,5039.9 6358.6,5039.9 C6358.2,5040 6357.8,5040.3 6357.3,5040.2 C6357.1,5040.1 6356.9,5039.9 6356.8,5039.7 L6356.5,5039.6 C6356.5,5039.9 6356.4,5040.2 6356.2,5040.4 L6355.9,5040.4 L6355.7,5040.7 L6355.9,5041.1 L6355.7,5041.5 L6355.4,5041.6 L6354.2,5041.1 L6354,5040.8 L6354.1,5040.4 C6353.9,5040.3 6353.5,5040.4 6353.4,5040.5 C6353.2,5040.3 6353,5040.1 6352.9,5039.8 C6352.4,5039.9 6352.3,5040.3 6351.8,5040.4 C6351.3,5039.6 6347.2,5040.6 6346.7,5041.1 C6346,5041.8 6345.6,5042.7 6345.1,5043.6 C6344.6,5044.6 6343.7,5045.1 6342.6,5044.7 C6342.4,5043.4 6343.5,5043.2 6343.7,5042.5 L6343.5,5042.1 L6343.1,5042 L6342.9,5041.6 C6342.9,5041 6343.5,5040.5 6343.4,5039.9 L6343,5039.7 C6342.5,5039.9 6341.6,5039.9 6341,5039.7 C6340.6,5039.4 6340.5,5038.9 6340.6,5038.5 L6340.4,5038.1 C6339.8,5038.1 6338.4,5037.8 6338,5037.3 C6337.3,5036.4 6337,5030.7 6337.5,5029.9 L6337.9,5029.7 C6339.8,5030.7 6343,5029.7 6343.7,5030 L6344,5030.3 C6344.1,5030.9 6343.5,5032.1 6343.4,5033 L6342.9,5033.7 L6342.4,5033.7 L6342.2,5034.1 L6342.4,5034.5 L6342.9,5034.6 L6343.1,5034.5 C6343.4,5034.3 6343.6,5033.9 6343.7,5033.5 C6344.8,5029.9 6346.1,5027.1 6347.9,5023.8 C6348.5,5022.6 6348.6,5021 6349.4,5019.9 C6349.9,5019.2 6350.7,5019.2 6351.3,5019.6 L6351.8,5019.5 C6351.8,5019.1 6351.8,5018.7 6351.9,5018.4 C6352.1,5018.2 6352.5,5018.1 6352.8,5018.2 L6353,5018.5 C6353,5018.9 6353.1,5019.5 6353.5,5019.7 C6355.3,5019.9 6356,5016.7 6356.7,5016 C6357.4,5015.3 6359.3,5013.2 6359.3,5012.2 C6358.7,5012.6 6358.6,5012.8 6358.1,5013.3 C6357.9,5012.8 6358.7,5012.6 6357.9,5011.4 C6357.8,5010.2 6358.2,5008.4 6357.1,5007.5 C6356.9,5007.1 6357,5006.5 6357.3,5006.1 L6357.7,5006 C6358.1,5006.2 6358.6,5007.4 6358.7,5007.8 C6358.6,5008.1 6358.5,5008.5 6358.5,5008.8 C6359,5009.6 6359.4,5009.2 6360,5009.6 C6360.4,5010.2 6360.2,5014.3 6360,5015.1 C6359.4,5016.4 6358.7,5016.2 6357.6,5016.7 L6357.4,5017 C6357.8,5018.5 6357.3,5020.3 6357.6,5021.8 L6358,5021.7 C6358.6,5020.6 6358,5019.4 6358.2,5018.2 C6358.7,5015.4 6361.3,5017 6361,5011.6 C6360.8,5008.6 6360.5,5009.4 6359.3,5007.6 C6358.8,5006.8 6358.6,5005.6 6358.3,5004.7 C6358.2,5004.5 6358,4995.4 6358,4994.9 C6358.2,4993.3 6360.3,4985.1 6361.4,4984.3 C6361.9,4982.9 6363.7,4980.5 6365.2,4980.1 C6365.1,4979.9 6364.9,4979.7 6364.8,4979.5 C6364.8,4979.2 6364.8,4978.8 6365,4978.5 C6365.4,4978.2 6365.8,4977.7 6365.7,4977.5 L6365.7,4977.1 C6366.7,4976.6 6367.2,4974.9 6367.8,4973.9 C6368.3,4973 6369.5,4972.5 6370,4971.5 C6371.3,4968.7 6370.3,4968.7 6373,4966.3 C6373.1,4965.9 6373.1,4965.6 6373.1,4965.3 C6373.4,4963.8 6375.1,4963.5 6375.7,4962.7 C6376.9,4961.1 6376.2,4960.7 6378.1,4959.2 C6378.3,4958.7 6381.5,4955.5 6382,4955.1 C6382.7,4954.6 6383.8,4954.7 6384.1,4954.4 C6385.1,4953.4 6386.4,4952.3 6387.5,4951.4 C6388,4951 6388.9,4950.9 6389.3,4950.4 C6390.6,4948.9 6391.4,4946.9 6392.4,4945.3 C6393.2,4943.9 6394.5,4943.2 6395.5,4942.1 C6396,4941.6 6395.8,4940.9 6396.1,4940.3 C6396.7,4939.4 6397.3,4939.6 6397.8,4939.2 C6398.1,4938.8 6398.1,4938.3 6398.3,4937.9 C6398.5,4937.4 6399.2,4937.3 6399.6,4936.9 C6399.9,4936.6 6400.1,4935.8 6400.4,4935.4 C6400.9,4934.7 6401.9,4934.4 6402.3,4933.9 C6402.5,4933.6 6404.1,4931.3 6404.1,4931.1 C6404.3,4930.3 6404.2,4929.4 6404.4,4928.5 C6404.7,4927.2 6405.6,4926 6406,4924.8 C6406.1,4924.3 6405.8,4923.9 6406,4923.4 C6406.4,4922.2 6407.9,4920.1 6408,4918.9 C6408.1,4917.7 6407.6,4917.2 6408.6,4916.1 C6409.5,4915.1 6410,4915.5 6411.1,4915.4 L6411.4,4915.1 C6411.5,4914.2 6411.1,4913.5 6411.2,4912.6 C6411.2,4912.4 6411.4,4912.2 6411.4,4912 C6411.4,4911.8 6411.5,4911.6 6411.6,4911.4 C6412.2,4910 6412.3,4908.9 6412.7,4907.6 C6413.1,4906.7 6414.9,4905.4 6414.9,4904.7 L6415.1,4903.6 L6415.1,4903.6 Z" id="svg--id--Quintana-Roo--QR_1_"></path>
            </g>
        </g>
    </g>
</svg>