<?xml version="1.0" encoding="UTF-8" standalone="no"?>
<svg width="455px" height="525px" viewBox="0 0 455 525" version="1.1" xmlns="http://www.w3.org/2000/svg" xmlns:xlink="http://www.w3.org/1999/xlink" xmlns:sketch="http://www.bohemiancoding.com/sketch/ns">
    <!-- Generator: Sketch 3.4.4 (17249) - http://www.bohemiancoding.com/sketch -->
    <title>svg--id--Chihuahua--CH_1_</title>
    <desc>Created with Sketch.</desc>
    <defs></defs>
    <g id="Page-1" stroke="none" stroke-width="1" fill="none" fill-rule="evenodd" sketch:type="MSPage">
        <g id="mexico-no-stroke" sketch:type="MSLayerGroup" transform="translate(-4681.000000, -4000.000000)" fill="#F2F2F2">
            <g id="Layer_2" sketch:type="MSShapeGroup">
                <path d="M4700.1,4340.8 C4701.6,4340.8 4703,4341.9 4704.1,4342.8 C4708.6,4346.5 4709.5,4349.1 4710.6,4354.8 C4710.7,4355.4 4710.7,4356 4710.8,4356.6 L4716,4360.2 C4716.5,4360.6 4717.5,4360.8 4718.1,4361.2 C4721.6,4363.3 4720.1,4367.9 4719.5,4371.1 C4718.6,4376.1 4721.7,4376.8 4721.5,4380.4 C4721.4,4383.8 4719.8,4384.4 4719.5,4386.3 C4719.2,4387.8 4719.3,4389.1 4719.2,4390.6 C4718.9,4394.5 4719.2,4394.6 4720.6,4398.5 C4721.4,4400.8 4723.7,4405 4726,4405.9 C4727,4406.3 4728.5,4406.5 4729.5,4406.7 C4730.9,4407 4733.1,4408.2 4733.9,4409.7 L4733.9,4409.7 L4734.1,4409.5 C4734.2,4409.5 4735.8,4406.4 4736.3,4405.8 C4738.8,4403.1 4743.5,4400.6 4747.3,4401 C4748.5,4401.1 4750.9,4401.9 4751.5,4403 C4752.7,4405.1 4752.5,4407.4 4753.4,4408.5 C4756.4,4409.3 4766.2,4408.7 4767.7,4410.6 C4770.9,4414.6 4768.2,4416.5 4770.1,4421.5 C4770.4,4422.3 4772.3,4424.2 4772.9,4425.1 C4773.7,4426.2 4774.4,4427.5 4775.1,4428.7 C4776.9,4431.7 4779.9,4434.2 4782.2,4436.8 C4783.7,4449.3 4785.1,4461.8 4787,4474.2 C4796.7,4476.1 4806.4,4478.6 4816.2,4480.3 C4817.2,4480.3 4819.1,4480.8 4819.6,4481.7 C4821.5,4485.2 4821.8,4486.3 4822.5,4490.1 C4823.1,4493.6 4824.9,4496.7 4826.6,4499.7 C4827.3,4501 4830.6,4503.4 4832,4504.9 C4836,4509.5 4839.2,4515 4840.5,4521 C4840.8,4522.2 4840.9,4523.4 4841.2,4524.6 L4841.2,4524.6 C4842.4,4523.6 4863.3,4523.2 4867.8,4523.2 C4873.2,4518.5 4878.5,4513.8 4883.8,4509 C4884.1,4502.4 4884.3,4495.8 4884.8,4489.3 C4886.8,4489.7 4893.9,4484.6 4895.1,4483.1 C4895.4,4482.7 4896.1,4481 4896.2,4480.5 C4897.1,4477.5 4896.5,4474.8 4895.5,4471.9 C4895.1,4470.8 4891,4463.7 4890.1,4463.1 L4890.4,4459.2 C4895.3,4459.6 4898.8,4460.7 4903.5,4458 C4906.6,4456.2 4909.2,4453.5 4908.9,4449.6 C4908.8,4448 4908.4,4446.8 4908.6,4445.1 C4909.2,4444 4910.3,4442.9 4911.1,4442 C4912.1,4440.8 4912.5,4435.9 4912.6,4434.2 C4912.7,4432.6 4912,4425.4 4915.2,4425.6 C4915.8,4425.9 4917.5,4427.7 4917.6,4428.4 L4917.9,4428.5 C4918.3,4426.6 4922.8,4419.9 4922.9,4419.7 L4944.1,4435.3 C4945.7,4434.5 4945.9,4433.5 4948.1,4433.4 C4951.7,4433.2 4957.8,4436.7 4957.1,4441.1 L4977.1,4452.1 L4991.7,4445.1 C4992.4,4446.6 4994.3,4448.4 4995.6,4449.4 C4997.2,4450.7 5001.9,4453.3 5003.7,4451.3 C5004.5,4450.4 5004.8,4449.9 5005.9,4449.4 C5007.2,4449.4 5008.3,4450.7 5009.2,4451.5 C5011,4453.2 5012.4,4448.5 5014.5,4449.2 C5016.3,4450.5 5016.2,4453.1 5018.2,4454.3 C5020.7,4454.8 5021.4,4452.7 5022.1,4452.5 C5025,4452.4 5028.9,4457.5 5030.5,4459 C5031.2,4459.7 5032.1,4460.3 5032.8,4460.9 C5033.3,4461.3 5038.1,4461.6 5038.4,4461 L5058.9,4433.6 C5060.6,4431.3 5061.7,4427.3 5065.2,4426.8 C5069.8,4426 5073.7,4426.7 5078.2,4427.3 C5092.5,4429.3 5095.8,4429.3 5108.3,4434.9 C5107.5,4430.2 5106.1,4425.5 5105,4420.9 C5097.8,4391.3 5090.9,4361.6 5083.3,4332.1 C5084.4,4329.7 5085.7,4327.4 5086.9,4325.2 C5091.6,4316.4 5096.3,4307.6 5101,4298.8 C5112.2,4278.1 5124.2,4254.6 5135.5,4233.8 C5135.7,4234.1 5135.8,4234.4 5136,4234.9 C5135.3,4233.4 5135,4233 5133.4,4232.6 C5132.3,4231.2 5129.8,4231 5128.5,4232.3 L5128.2,4232.3 L5127.2,4231.4 C5125.9,4230.2 5124.4,4229.1 5122.6,4228.9 C5122,4227.9 5121.1,4227.1 5120.3,4226.4 C5117.8,4224.3 5118,4221.9 5114,4221.9 L5113.2,4221.9 C5112.1,4221 5110.8,4220.5 5109.4,4220.8 L5108.8,4221 C5107.6,4220.2 5106.1,4219.9 5104.7,4219.5 C5102.8,4219 5101.9,4217.5 5100.6,4216.5 C5101,4215.4 5101.2,4214.4 5100,4213.2 C5096.2,4209.6 5082.9,4211.9 5076.1,4205.3 C5073.4,4202.7 5070,4200.7 5067.4,4198.1 L5067.2,4197.9 C5067.2,4197.6 5067.3,4197.2 5067.3,4196.9 C5067.3,4195.5 5066,4194.6 5065,4194 C5062.2,4192.1 5058,4188.6 5054.5,4189.8 L5051.6,4187.8 L5048.5,4185.7 L5047.8,4185.2 C5047.4,4183.5 5046.1,4182.3 5044.5,4181.5 L5044.2,4181.3 C5043.4,4180 5042.5,4178.7 5041.7,4177.4 C5041.7,4177.5 5041.5,4177.7 5041.5,4178 L5040.7,4175.7 C5038.2,4173.2 5041.9,4169.3 5034.8,4165.9 C5034.7,4165.5 5034.8,4165.1 5034.6,4164.6 L5034.1,4162.9 C5033.3,4160.3 5031.6,4159.1 5030.5,4156.9 C5031.6,4153.7 5028.6,4151.6 5028.9,4147.7 C5030.7,4145.2 5031.2,4143.3 5030.1,4140.4 C5032,4137.2 5029.2,4134.9 5028.4,4131.9 L5025.5,4130.8 C5026.2,4130.8 5026.8,4130.4 5027,4130.3 C5025.8,4129 5024.4,4128.5 5023.2,4127.4 C5022.9,4123.8 5022.6,4123.9 5020,4121.6 C5019.8,4119.3 5019.7,4118.3 5017.5,4116.9 L5016.9,4116.5 C5017.2,4115.1 5016.9,4114 5016.2,4112.8 C5016.2,4111.6 5016.8,4110 5016,4108.9 C5013,4104.7 5012.7,4098.3 5006.3,4097.6 C5005.9,4093.9 5005.3,4092 5001.1,4091.3 C4996.9,4090.6 4996.7,4086.2 4992.9,4085.9 C4992.1,4084.6 4991,4083.5 4989.4,4083.2 C4988.3,4081.5 4985.5,4080.7 4983.6,4081.6 C4982.6,4080.3 4981.3,4079.6 4979.7,4079.5 C4978,4079.3 4977,4078.3 4975.4,4077.4 C4975.1,4073.3 4969.3,4072.5 4966.9,4070.2 C4966.3,4068.3 4966,4067.7 4964,4067.1 C4963.4,4066.2 4962.5,4065.4 4961.5,4065 C4960.2,4056.5 4957.5,4059.6 4954.5,4056.7 C4953.8,4055.7 4953.1,4054.7 4952.1,4053.9 L4950.4,4053.3 C4950.6,4053.4 4950.8,4053.3 4950.9,4053.3 C4949.1,4052.6 4947.3,4051.6 4945.6,4050.6 L4945.2,4050.4 L4945.1,4050.1 C4943.7,4045.7 4939.7,4042.3 4935.8,4039.9 C4935,4038.1 4934.5,4038.2 4932.7,4037.5 C4931,4033.2 4930.7,4034.7 4927.1,4032.1 C4924.5,4030.3 4921.8,4031.2 4920.4,4029.9 L4919.8,4029.3 C4918.5,4028.1 4917.7,4028 4915.9,4027.9 C4914.3,4026.3 4913,4026.1 4911.1,4025.1 C4909.8,4023.6 4910.6,4020.1 4906.7,4018 C4905.4,4015 4903.5,4008.4 4900.8,4006.1 L4900.2,4005.6 C4897.3,4003.2 4897.8,4000.5 4892.8,4000.5 C4891.5,4000.5 4890,4000.9 4888.8,4000.7 L4888.6,4000.5 L4885.1,4001.3 C4880.7,4000.3 4875.2,4000.9 4870.6,4000.9 C4862.9,4000.9 4855.1,4001 4847.4,4000.9 C4834.5,4000.8 4821.6,4001 4808.8,4000.9 C4798.5,4000.8 4788.2,4000.9 4777.8,4000.9 C4770.1,4000.9 4762.3,4000.7 4754.6,4000.9 C4754.9,4013.6 4755,4026.5 4754.6,4039.2 L4754.3,4039.2 C4746.7,4039.3 4726.7,4039.3 4705.8,4039.3 L4701.3,4051 L4705.6,4054 L4708.5,4049.9 C4710,4066.1 4711.5,4082.4 4713.4,4098.6 L4717.8,4103.4 C4718.2,4105.7 4727.1,4152.3 4727.1,4153 C4726.2,4164.6 4725.1,4176.1 4724.2,4187.7 C4723.8,4192.8 4723.7,4198.3 4722.8,4203.3 C4720.4,4203.1 4717.9,4203.3 4715.5,4203.3 C4715.9,4210.8 4717.6,4220.7 4718.5,4228.2 C4719.7,4237.7 4720.6,4247.3 4722,4256.8 C4720.3,4258.9 4718.7,4261.1 4716.9,4263.2 C4720.1,4274.7 4723.2,4286.3 4726.5,4297.8 L4719.8,4304.3 C4718.4,4303.6 4716.7,4303.5 4715.3,4302.8 L4712.9,4301.6 C4707.4,4298.9 4699.5,4294.7 4693.4,4296.7 C4692.8,4296.9 4692.4,4297.8 4691.9,4298.1 L4691.8,4298.6 C4691.7,4298.7 4691.4,4298.9 4691.3,4298.8 L4688.7,4296.8 C4686.4,4300.1 4684.3,4304.2 4681.7,4307.3 L4698.9,4336.5 C4699.5,4337 4700.1,4340.4 4700.1,4340.8 L4700.1,4340.8 Z" id="svg--id--Chihuahua--CH_1_"></path>
            </g>
        </g>
    </g>
</svg>