<?xml version="1.0" encoding="UTF-8" standalone="no"?>
<svg width="247px" height="119px" viewBox="0 0 247 119" version="1.1" xmlns="http://www.w3.org/2000/svg" xmlns:xlink="http://www.w3.org/1999/xlink" xmlns:sketch="http://www.bohemiancoding.com/sketch/ns">
    <!-- Generator: Sketch 3.4.4 (17249) - http://www.bohemiancoding.com/sketch -->
    <title>svg--id--Tabasco--TB_1_</title>
    <desc>Created with Sketch.</desc>
    <defs></defs>
    <g id="Page-1" stroke="none" stroke-width="1" fill="none" fill-rule="evenodd" sketch:type="MSPage">
        <g id="mexico-no-stroke" sketch:type="MSLayerGroup" transform="translate(-5841.000000, -5116.000000)" fill="#F2F2F2">
            <g id="Layer_2" sketch:type="MSShapeGroup">
                <path d="M5844.3,5157.8 C5845.6,5158.9 5844.6,5161.1 5844.9,5162.6 C5845.1,5163.3 5845.8,5163.5 5846.1,5164.1 L5846,5164.6 C5845.7,5164.8 5845,5165.4 5844.9,5165.8 C5845.2,5166.7 5847.1,5166.3 5846.6,5169.8 C5846.8,5170.5 5849.2,5172.7 5847.8,5173.6 C5847.5,5173.6 5846.7,5173.7 5846.5,5174 L5846.5,5175 C5846.5,5176.2 5846,5177.5 5846,5178.6 C5846,5179.6 5846.4,5180.8 5846.3,5181.7 C5847,5183.1 5848.2,5182.7 5849.6,5183 C5850.3,5183.6 5850.1,5184.6 5850.8,5185.3 C5851.1,5185.6 5854.2,5185.6 5854.6,5186 C5856.6,5187.9 5855.5,5190.6 5856.1,5191.7 C5856.6,5192 5857.6,5192.7 5858,5193.2 C5859.7,5193.8 5863.1,5191.6 5863.2,5193.9 L5862.9,5194.8 L5863.1,5195.2 C5863.9,5195.6 5865.6,5194.7 5866.8,5195.8 C5867.4,5197.6 5870.1,5197.3 5871.4,5198 C5873,5198.9 5874,5201.7 5874.8,5203.2 C5875.1,5203.8 5874.2,5205.1 5874.3,5205.9 C5874.6,5207.1 5876,5207.6 5876.1,5208.9 C5881.7,5212.8 5877.2,5214.3 5877.5,5217.3 C5877.6,5218.2 5878.4,5219.2 5878.9,5219.9 C5881,5223.1 5879.3,5223.4 5883.8,5224.8 C5883.6,5225.3 5883.4,5226 5883.1,5226.9 C5883.2,5226.7 5883.3,5226.4 5883.4,5226.2 L5885,5225.2 C5886.5,5221.4 5890.3,5216.6 5891.9,5212.9 C5892.1,5212.4 5892.5,5211.7 5893.2,5211 C5896,5211 5895.4,5209.4 5896.1,5207.4 C5897.3,5206.9 5898.1,5205.9 5899,5205 C5902.4,5201.4 5899.9,5198.7 5899.1,5196.7 C5901,5195.9 5901.9,5193.6 5899.6,5192.4 C5899.8,5191.4 5899.9,5190.7 5899.5,5189.7 C5899.6,5189.6 5899.8,5189.4 5900,5189.3 L5901,5188.5 C5902.7,5187.1 5904.5,5185.2 5903.5,5182.7 C5904.7,5181.4 5905.1,5179.6 5905.1,5177.9 L5905.1,5177.6 C5907.8,5177.2 5908.7,5176.8 5910,5174.6 C5910.7,5174.7 5912.3,5175 5913.2,5175.5 C5917.2,5177.7 5915.1,5174.1 5919.9,5180.3 C5921.1,5181.9 5925.5,5183.5 5927.5,5182.4 L5927.8,5182.2 L5928.3,5181.7 C5929,5181.9 5929.7,5181.7 5930.4,5181.1 L5931.1,5180.5 C5931.1,5180.5 5931.3,5188.3 5931.3,5189.8 C5927.8,5192.7 5930.8,5200.2 5931.3,5203.6 C5931.6,5205.5 5930.3,5210.9 5932.6,5212.1 C5933.6,5212.1 5936.3,5211.9 5937.1,5211.6 C5938.5,5212 5939.5,5216.6 5940.4,5218.1 C5941.1,5219.3 5942.1,5220.5 5942.9,5221.6 C5943.9,5222.9 5948.1,5227.9 5949.9,5226.1 C5951.1,5224.9 5952.3,5223.6 5953.6,5222.4 L5974.7,5202 C5976.9,5199.9 5979,5201.8 5979.6,5196.1 C5984.9,5194.3 5990.2,5192.6 5995.5,5190.9 C5995.7,5190.7 5995.7,5190.4 5995.7,5190.1 L5996,5189.9 C5998.5,5190.5 5998.2,5191.3 6001,5190.7 C6001.3,5190.1 6001.9,5190 6002.6,5190 C6003.3,5189.3 6002.8,5188 6002.7,5187.2 C6002.4,5187 6002,5186.6 6001.9,5186.3 L6007.7,5180.6 L6008.1,5181.1 C6008.1,5181.1 6009.6,5181.6 6010.1,5181.9 L6009.8,5182.8 C6009.7,5184.2 6010.5,5186 6012.2,5186 L6012.7,5186 C6014,5186 6014.7,5184.7 6015,5183.6 L6015.1,5183.3 C6017.4,5183.2 6018.2,5185.6 6021,5183.3 C6021.5,5184.2 6021.9,5184.6 6022.9,5185.1 L6022.9,5185.4 C6022.5,5187.5 6022.9,5187.7 6023.8,5189.4 L6023.8,5189.6 L6023.8,5190.1 C6023.8,5190.7 6023.9,5191.3 6024.1,5191.8 C6024.1,5191.8 6024.6,5192.9 6024.3,5193.5 C6022,5198.3 6030.4,5192.7 6032.4,5198 C6033.2,5200.1 6035.3,5207 6035.4,5209.2 C6035.5,5210.5 6032.6,5213.3 6034.2,5214.3 C6036.2,5215.6 6042.1,5217.1 6045,5217.1 L6045,5217.7 L6045.5,5218.8 L6045.6,5219 C6045.7,5219.2 6045.8,5219.1 6045.8,5219.2 C6045.8,5219.7 6045.3,5220.6 6045.2,5221.1 C6044.5,5224 6048.9,5226.9 6051,5225.2 C6051.5,5225.6 6052.7,5228.1 6053.2,5228.9 C6051.3,5229.1 6050.2,5231.1 6049.9,5233 C6049.9,5233 6050.8,5234.6 6053.8,5235 L6053.9,5235 C6053.8,5234.9 6053.7,5234.8 6054.1,5234.8 C6060.9,5234.4 6068,5234.9 6074.8,5234.9 C6078.1,5234.9 6083.9,5234.4 6086.8,5234.9 C6086.8,5234.4 6086.7,5233.7 6086.8,5233.2 C6087.4,5229.1 6086.7,5224.3 6086.8,5220.1 C6087.2,5209.3 6086.5,5198.5 6086.9,5187.8 C6086.9,5187.6 6086.8,5187.1 6086.9,5187 L6087.1,5187 C6086.9,5182.7 6087.1,5178.5 6087,5174.2 L6071.6,5173.6 C6070.7,5173.6 6063.5,5168.4 6062.6,5167.6 C6062.6,5167.2 6062.2,5166.9 6061.9,5166.8 C6057.5,5164.5 6057.2,5168.1 6051,5163.2 C6050.6,5162.9 6047.6,5162.7 6046.9,5162.8 L6038.5,5163.3 C6038,5163.9 6037.7,5165.2 6038,5165.9 L6037.3,5166.3 C6037.2,5166.8 6037.4,5167.3 6037.3,5167.8 C6036.8,5170.4 6037.2,5170.1 6037.9,5172.3 C6037.8,5173.5 6037.2,5174.5 6037.2,5175.7 C6031.3,5175.6 6025.4,5175.5 6019.5,5175.7 L6009.9,5170.1 C6009.9,5169 6009.9,5168.2 6009.2,5167.4 C6008.7,5166.8 6007.3,5167.1 6006.8,5166.4 C6006.3,5165.8 6006.3,5165.1 6005.8,5164.5 C6004.9,5163.6 6003.6,5163.7 6002.7,5163.1 C6001.9,5162.6 6001.7,5161.9 6001,5161.4 C5999.6,5160.2 5997.7,5159.5 5996.2,5158.2 L5996.4,5142.2 C5996.5,5137.7 5997,5132.6 5996.6,5128.1 C5989.8,5128 5984,5127.4 5977.3,5128 C5977.1,5125 5976.8,5123 5975.4,5120.5 C5975,5119.7 5972.7,5117.1 5972.8,5116.1 C5970.5,5116.7 5968.3,5117.8 5966,5118.3 C5965,5118.5 5964.2,5119.2 5963.1,5119.4 C5960.3,5119.9 5957.2,5119.5 5955.5,5119.7 L5955.2,5120 C5954.6,5121.5 5956.4,5123 5957.1,5124.2 C5957.4,5124.7 5957.6,5125.4 5957.6,5126 C5957.6,5127.3 5956.9,5128.6 5956.8,5129.9 C5956.7,5131.2 5957.1,5132.6 5957.2,5133.9 C5957.2,5134.2 5957.2,5135.1 5957.1,5135.4 C5957,5135.6 5957,5135.8 5956.8,5135.9 C5955.8,5135 5955.7,5131.7 5956,5130.5 C5956,5128.8 5955.1,5123 5953.5,5122.2 L5953,5122.3 C5952.4,5123 5952.2,5123.8 5951.6,5124.4 C5950.8,5125.3 5949.7,5126 5948.9,5126.8 C5943.5,5132.1 5937.6,5135.3 5929.9,5135.3 C5929.6,5135.2 5922.7,5134.8 5922.5,5134.9 C5921.7,5135 5921.2,5135.5 5920.5,5135.7 C5920.3,5136 5920.2,5136.3 5920.2,5136.6 C5920.9,5137.7 5923.8,5137.3 5924.4,5138.1 C5924.4,5138.9 5924.6,5140 5924,5140.7 C5923.6,5140.8 5923.1,5140.8 5922.6,5141 C5922.7,5141.3 5922.7,5141.7 5922.5,5141.9 L5921.8,5142.3 C5921.7,5142.7 5921.7,5143.3 5921.4,5143.6 L5920.9,5143.5 C5921,5143.1 5920.9,5142.6 5920.8,5142.2 C5921.7,5142 5922,5140.2 5922.1,5139.4 L5921.7,5139.6 C5921.4,5140 5921.1,5140.5 5920.7,5140.9 C5920.3,5140.7 5919.7,5140.6 5919.3,5140.8 L5918.9,5140.6 L5918.5,5140.7 L5918.3,5141.1 L5918,5141.1 C5917.5,5140.3 5918.1,5139 5917.7,5138.1 L5917.3,5137.9 C5917.7,5137.4 5918.6,5137.4 5918.8,5136.5 L5918.6,5136.2 L5918.6,5135.6 C5918.8,5135.4 5919.2,5135.3 5919.4,5135.3 L5919.3,5135.1 C5914.3,5135.8 5903.4,5135 5897.9,5134.9 C5896.2,5134.9 5894.8,5135.6 5893.2,5135.8 C5890.6,5136.1 5888.1,5136.2 5885.5,5136.6 C5884.4,5136.8 5875.2,5141.2 5873.4,5142 C5872.6,5142.4 5871.6,5142.3 5870.8,5142.8 C5869.8,5143.3 5866,5145.9 5865.5,5146.6 L5865.7,5146.9 C5866.1,5146.8 5866.4,5146.4 5866.6,5146.1 L5867.2,5146.1 C5867.4,5145.9 5867.7,5145.8 5868,5145.8 C5868.2,5146 5868.5,5146.1 5868.7,5146.2 C5869.1,5146 5869.1,5145.5 5869.5,5145.3 C5870.6,5145.7 5873.3,5141.5 5875.2,5143.1 L5875.7,5143 C5875.8,5142.7 5875.9,5142.3 5875.9,5142 C5877,5141.3 5877.4,5141.6 5878.6,5141.3 C5878.9,5141.2 5880.5,5140 5881,5139.8 C5881.5,5140 5882.7,5139.5 5883.1,5139.1 C5883.4,5138 5886,5137.5 5887,5137.6 L5887.2,5137.8 C5887,5138.4 5886.6,5138.9 5887,5139.5 L5887.4,5139.7 L5887.4,5140 C5887,5140.9 5886.7,5140.7 5886.9,5141.9 C5886,5143.4 5884.5,5143.5 5882.9,5143.7 C5881.7,5143.8 5880.8,5145.6 5878.6,5144 L5878.7,5142.9 L5878.4,5142.7 C5878.2,5142.7 5875.8,5144.1 5875.4,5144.3 C5874.1,5143.6 5873.1,5144.9 5872.1,5145.5 C5872,5146.6 5873.6,5147.8 5872.5,5148.9 C5871.4,5149.2 5870.8,5149.9 5869.9,5150.2 C5869.2,5150.5 5863.1,5151.2 5862.7,5150.8 C5862.8,5148.8 5863.8,5148.5 5864.6,5147 L5864.6,5146.5 C5863.5,5146.6 5863.1,5147.6 5862.1,5147.9 C5860.1,5148.6 5857.8,5148.6 5855.8,5149.5 C5854.6,5150 5854,5151.1 5852.7,5151.5 C5849.1,5152.7 5845.5,5153.8 5841.8,5154.9 C5842,5155.9 5842,5157.1 5842.4,5157.5 L5844.3,5157.8 L5844.3,5157.8 Z" id="svg--id--Tabasco--TB_1_"></path>
            </g>
        </g>
    </g>
</svg>