<?xml version="1.0" encoding="UTF-8" standalone="no"?>
<svg width="230px" height="465px" viewBox="0 0 230 465" version="1.1" xmlns="http://www.w3.org/2000/svg" xmlns:xlink="http://www.w3.org/1999/xlink" xmlns:sketch="http://www.bohemiancoding.com/sketch/ns">
    <!-- Generator: Sketch 3.4.4 (17249) - http://www.bohemiancoding.com/sketch -->
    <title>svg--id--Tamaulipas--TM_1_</title>
    <desc>Created with Sketch.</desc>
    <defs></defs>
    <g id="Page-1" stroke="none" stroke-width="1" fill="none" fill-rule="evenodd" sketch:type="MSPage">
        <g id="mexico-no-stroke" sketch:type="MSLayerGroup" transform="translate(-5382.000000, -4347.000000)" fill="#F2F2F2">
            <g id="Layer_2" sketch:type="MSShapeGroup">
                <path d="M5384.9,4725.4 L5384.9,4725.4 L5384.9,4725.4 L5384.9,4725.4 L5384.3,4725.4 L5384.6,4725.8 C5384.4,4728.5 5383,4731.4 5382.3,4734 C5382.1,4734.6 5382.5,4735.6 5382.1,4736 C5382.9,4736.1 5385.4,4735.2 5387,4735.5 C5389.4,4737.3 5393.8,4742.4 5395.7,4744.9 C5396.1,4745.5 5396.1,4746.5 5396.2,4747.2 C5396.4,4752.7 5388.8,4756.9 5385.3,4760.1 L5385.3,4760.5 C5386.4,4761.2 5386.9,4762.2 5387.7,4763.1 C5388.7,4764 5392.8,4766.7 5393.9,4767.1 L5401.5,4770 C5404.5,4771.1 5407.5,4773.2 5410.5,4774.5 C5413.8,4775.9 5417.5,4776.4 5421,4777.8 C5422.4,4778.4 5424,4778.4 5425.3,4779.1 L5425.6,4779 C5425.9,4776.7 5424.8,4771.5 5423.7,4769.6 L5423.8,4769.4 C5428.6,4770.1 5431.8,4777.9 5433.6,4777.6 C5434.8,4776.4 5435.7,4774.9 5436.8,4773.6 L5437.1,4773.7 C5437.7,4774.3 5438.2,4775.5 5438.5,4776.3 C5439.4,4778.1 5440.9,4779.8 5441.9,4781.5 C5443,4783.3 5443.6,4785.9 5444.5,4787.8 C5445.9,4790.8 5446.8,4793.9 5450.7,4794.4 C5459.4,4795.5 5461.4,4796.7 5469,4799.4 C5470.7,4800 5475.6,4802.8 5476.7,4802.7 C5479.9,4800.7 5492,4793.4 5496,4795.9 L5496.3,4795.8 C5499.3,4795.9 5503.1,4794.6 5506,4793.9 L5506,4794.2 L5506.3,4794.5 C5507.1,4794.2 5508.5,4794.2 5508.6,4795.4 L5509.1,4795.5 C5509.5,4795.3 5509.7,4794.9 5509.9,4794.6 C5511.1,4794.2 5511.7,4796.3 5512.6,4796.8 C5513.1,4796.3 5513.6,4795.7 5513.9,4795.1 L5514.3,4795 L5514.8,4795.1 C5515,4795.7 5515.3,4796.7 5515.2,4797.3 L5516.3,4797.4 L5516.8,4796.7 C5517.2,4796.6 5518.3,4797.4 5518.9,4797.6 C5522.3,4798.4 5520.3,4793.2 5520.7,4792 L5521,4791.7 C5522.1,4791.6 5523.3,4792.4 5524.6,4792.1 L5525.2,4791.5 C5525.7,4791.4 5526.2,4791.6 5526.7,4791.5 C5529.2,4791.5 5529.1,4790.9 5530,4793.5 C5530.9,4796.1 5532,4795.2 5533.7,4796.4 C5534,4796.6 5534.3,4797.8 5534.7,4798.2 L5535,4798.5 C5536.2,4799.3 5536.8,4798.7 5537.7,4799.2 C5538.4,4799.5 5539.1,4800.7 5539.6,4800.9 C5540.5,4801.1 5541.4,4801 5542.3,4801.1 C5543.5,4801.3 5550,4803.4 5550.9,4804.4 C5551.1,4804.9 5551.2,4805.7 5551.2,4806.3 C5551.1,4806.7 5549.9,4807.4 5549.6,4807.6 L5549.4,4808.5 C5550.1,4810.2 5552.2,4809.2 5552.4,4811.2 C5552.9,4811.5 5554.8,4811.7 5555.4,4811.3 C5556.6,4808.3 5557.3,4808.5 5559.6,4807.3 L5560.5,4807 C5560.6,4807.2 5560.7,4807.4 5560.8,4807.6 C5560.4,4806.7 5560,4805.8 5559.6,4805 C5558.8,4802.7 5558.7,4800 5558.5,4797.6 C5558.2,4794.1 5556.2,4790.4 5556.3,4786.9 C5556.4,4784.8 5558.7,4776.6 5557.2,4775.5 L5556.9,4775.5 C5555.9,4775.9 5555.9,4777.3 5556.2,4778.1 C5556,4778.7 5555.6,4779.2 5555.3,4779.7 C5555.5,4780.3 5555.9,4780.6 5555.9,4781.2 C5555.4,4781.7 5555.4,4782.6 5554.7,4783.1 C5549.6,4782.5 5556.3,4773.9 5556.1,4771.7 C5555.8,4771.1 5554.8,4770.5 5554.2,4770.1 L5554.5,4770 C5555.3,4770.2 5556,4770.6 5556.9,4770.2 C5557.5,4769.5 5556.7,4768.6 5557.1,4767.8 C5557.8,4767.2 5558.6,4767.1 5559.4,4766.7 C5559.8,4766.2 5559.6,4765.3 5559.9,4764.7 L5560.3,4764.5 C5561.6,4761.6 5562.4,4754.3 5563.7,4753.3 L5564.1,4753.5 C5564.4,4754.3 5563.5,4759.1 5563.4,4760.3 C5564.6,4755.8 5565.1,4746.3 5564.3,4741.7 C5563.7,4738.1 5563.1,4734.7 5562.9,4731.1 C5562.4,4720.8 5563.2,4711 5564,4700.8 C5564.2,4698.4 5566.7,4683.1 5565.4,4682 C5563.9,4683.3 5564.6,4687 5564.5,4688.9 C5564.4,4690.2 5563.9,4691.2 5563.5,4692.4 L5563.3,4692.2 C5563,4690.2 5563.7,4683.2 5563.3,4682.4 C5563.1,4682.1 5562.6,4681.7 5562.3,4681.6 C5561.3,4681.2 5559.6,4681.3 5558.4,4681.1 L5558.4,4680.9 C5559.9,4679.8 5563.8,4682.2 5565.2,4680.8 C5565.8,4679.8 5565.8,4665.6 5566,4663.1 C5566.9,4652 5567.2,4640.4 5569.3,4629.3 C5570,4625.6 5570.7,4621.9 5571.3,4618.2 C5571.8,4615 5573.4,4611.9 5574,4608.7 C5574.3,4607.2 5574.2,4605.6 5574.5,4604.2 C5575.9,4596.8 5578.1,4589.4 5580.1,4582.2 C5580.6,4580.5 5581,4576.9 5581.4,4575.8 C5582.7,4571.5 5585.4,4564.4 5587.4,4560.3 C5588,4559 5589.2,4557.9 5589.8,4556.7 C5590.4,4555.5 5590.9,4554.1 5591.6,4552.9 C5595.9,4545.8 5600.9,4539.2 5602.8,4531 L5603.2,4531 C5604.4,4528.4 5605.7,4523.9 5606.7,4521.1 C5607.2,4519.6 5608.4,4518.5 5608.8,4516.9 C5609.6,4513.2 5608.9,4509.3 5609.4,4505.6 C5609.9,4501.9 5611.3,4498.9 5611.1,4495.1 C5611.1,4495.1 5611,4494 5610.9,4493.4 L5610.6,4493.4 C5610.6,4493.4 5608.1,4493.4 5607.1,4494.1 C5606.1,4494 5605.5,4494.5 5604.6,4494.5 C5604,4494.5 5598.8,4491.8 5598.3,4496.2 L5598.2,4496.7 C5598,4496.8 5597.7,4496.9 5597.5,4497.1 C5596.6,4496.7 5595,4496.7 5594.2,4497.3 C5591.3,4499.6 5591.1,4500.7 5591.5,4501.7 L5591.1,4501.7 C5590.6,4501.7 5590.1,4502 5589.5,4502.3 C5588.9,4500.8 5588.6,4500 5585.8,4500.1 C5585.2,4499.7 5584.3,4499.3 5583.8,4499.4 C5583.2,4498.5 5582.4,4497.8 5581.5,4497.1 L5581,4496.8 C5580.5,4495.3 5579.2,4494.4 5577.7,4494.1 C5577.8,4493.7 5577.1,4492.9 5576.8,4492.6 C5576.7,4491.2 5575.4,4490.2 5574.1,4489.9 C5573.5,4488.6 5572.2,4488.1 5571,4487.8 C5569.7,4486.9 5567.9,4486.9 5566.5,4487.6 C5565.9,4487.2 5565.3,4487 5564.3,4487 L5564,4487 L5563.7,4486.4 C5562.3,4484.3 5560,4484.6 5558.3,4485.5 C5555.9,4484.4 5554.1,4484.9 5551.6,4485.4 C5549.1,4485.9 5546.7,4484.7 5544.6,4485.5 C5543.8,4485.1 5542.5,4484.6 5541,4485.4 L5540.5,4486.2 C5539.1,4484.2 5536.3,4483.5 5533.8,4484.2 L5533.1,4484.8 C5531.4,4483.9 5530,4484.4 5528.5,4485.3 C5528.9,4483.7 5527.9,4483.6 5526.9,4483.8 C5526.8,4483.8 5523.1,4482 5522.6,4481.7 C5521.3,4479.8 5520.5,4477.6 5518.3,4477.1 C5518.3,4475.2 5517.2,4473.6 5514.6,4473.9 C5514.5,4473.8 5514.3,4473.7 5513.9,4473.4 L5513.1,4472.7 C5511.5,4471.3 5509.5,4470.3 5507.4,4471.6 C5506.9,4471.4 5506.4,4471.3 5506.1,4471.3 C5505.1,4470.2 5503.6,4469.2 5502,4469.6 C5500.8,4468.6 5500.2,4468.5 5498.8,4468.7 L5498.5,4468.6 C5497,4468.3 5495.6,4468.9 5494.3,4469.6 C5494.1,4469.1 5493.7,4468.8 5493.3,4468.5 C5493.4,4466.9 5492.1,4465.9 5490.3,4465.3 C5489.8,4464 5488.4,4462.8 5486.4,4462.1 C5484.8,4460.1 5483.5,4457.8 5480.5,4459.1 C5479.8,4459 5478.9,4459.1 5478.3,4459.3 C5477.8,4459 5476.6,4458.9 5476.1,4459 L5475.8,4459.1 C5474.8,4457.7 5473.6,4456.5 5471.8,4456.9 C5470.3,4455.4 5468.3,4455.1 5466.6,4456.5 C5464.7,4454.7 5463.3,4455.5 5461.7,4456.2 C5464.1,4450.3 5463,4447.8 5456.4,4445.4 L5456.3,4444.2 C5456.2,4443.6 5456.2,4442.9 5456.1,4442.4 C5457.2,4437.4 5454.5,4438 5454.5,4434.4 C5454.5,4430 5452.1,4429.1 5451.3,4425.5 C5450.5,4422.3 5447.9,4420.5 5446.2,4418 C5445.3,4414 5445.6,4413.1 5441.1,4410.9 L5440.6,4410.6 C5440.8,4407.5 5439.8,4405.2 5436.4,4404.8 C5436.5,4403.6 5436.1,4402.5 5435.4,4401.6 C5436,4400.1 5435.7,4398.7 5435.1,4397.3 C5434,4394.6 5439.7,4384.6 5432.1,4382.3 C5431.9,4381.5 5431.5,4380.8 5430.9,4380.3 C5431.3,4379.7 5431.3,4379.2 5431.4,4378.8 C5431.8,4374.7 5433.7,4377.7 5432.5,4370.2 C5432.9,4367.4 5433.6,4364.6 5430.6,4363.6 C5430.6,4363 5430.6,4362.2 5430.8,4361.5 C5431.4,4358.1 5427.6,4353.5 5424.3,4353.1 L5424,4352.6 C5422.8,4350.4 5420.7,4349.9 5418.5,4350.9 C5417.6,4349.3 5415.8,4348.9 5414,4349.2 L5413.7,4349.3 C5413.4,4348.7 5413.1,4348.1 5412.8,4347.6 C5407.8,4351.6 5400.3,4357.8 5395.4,4361.5 L5397,4367.9 C5397.4,4367.9 5404,4367 5404.3,4367.1 C5411.9,4369.3 5406.2,4377.6 5410.4,4385.9 C5415.2,4395.4 5407.9,4406.5 5409.5,4413.3 L5410,4415 C5410.9,4416.4 5413,4415.1 5414.1,4415.9 C5415.1,4416.7 5416.8,4415.6 5417.3,4416.7 C5417.8,4417.6 5419.5,4417.7 5420.3,4418.2 L5420.9,4419.3 L5421.6,4419.5 C5418.7,4424.1 5421.4,4425.2 5420.1,4428.8 C5419.6,4430.3 5418.6,4431.5 5418,4432.9 L5417.3,4434.7 C5418,4435.2 5422.7,4433.1 5424.4,4433.4 C5426.8,4433.7 5429.9,4434 5432,4435.5 C5436.7,4438.9 5439.8,4451.8 5431.6,4452.4 C5433,4454.9 5434.4,4458.6 5436.2,4460.8 C5437.9,4462.1 5440.6,4458.3 5443,4461.4 C5448,4467.8 5445.7,4466.5 5452.2,4466.1 L5452.5,4466.3 C5452.6,4467.4 5453,4468.7 5453.3,4469.8 C5454,4472.4 5454.4,4475 5455,4477.5 C5455.5,4479.3 5456.3,4481 5456.9,4482.8 C5457.1,4483.3 5457.3,4483.8 5457.3,4484.4 L5458,4484 L5459.3,4484.6 L5460,4484.4 C5461.4,4480.8 5467.7,4483.2 5468.5,4484.9 C5469,4485.9 5471,4489.9 5472.1,4490.5 C5476.2,4493 5476.6,4490.8 5479,4487 C5480.2,4485.1 5482.4,4486.7 5483.8,4486.9 C5485.2,4487.1 5486.6,4486.9 5488,4486.8 C5491,4486.6 5493.7,4486.5 5496.7,4486.6 C5497.7,4486.6 5498.6,4488.3 5499,4489 C5499.3,4489.6 5500.4,4491.4 5500.4,4492.1 C5499.8,4505.3 5499.5,4518.6 5499.4,4531.8 C5502.5,4532.5 5505.5,4533.3 5508.6,4534.1 C5508.7,4536.1 5508.9,4538.1 5509.1,4540.1 C5505.6,4543 5475.1,4569.1 5473.5,4569.8 C5470.8,4568.7 5467.7,4572.2 5464.9,4568 C5464.4,4567.3 5464.4,4566.3 5463.9,4565.6 C5463.3,4565.4 5462.6,4565.6 5462.2,4566 C5461.9,4567.1 5461.2,4568.3 5460.5,4569.3 L5460.1,4569.5 C5459.7,4569.4 5459.4,4569.4 5459,4569.4 C5458.4,4570.4 5459.1,4571.1 5457.9,4572.1 C5456.8,4572.4 5455.9,4571.4 5454.5,4571.7 L5454.3,4572 C5454.1,4573.1 5455.4,4574.6 5455.2,4575.3 C5454.1,4579.4 5453.2,4583 5451.1,4586.6 C5451.7,4589.4 5453.5,4592.8 5453.5,4595.1 L5453.2,4595.1 C5444.8,4591.6 5447.2,4592.5 5439,4594.8 C5437.7,4595.2 5436.4,4596 5435.1,4596.6 C5434.1,4597.1 5433.1,4597.4 5432.1,4598.1 C5429.3,4600 5425.2,4605.6 5421.9,4606.7 C5421.5,4606.2 5420.9,4605.8 5420.4,4605.5 L5409.7,4616.2 L5414.1,4620.9 L5417.7,4618.9 C5419.2,4622.6 5421.3,4626.3 5423.1,4629.9 C5418.7,4637.4 5417.9,4646.2 5419.3,4654.7 C5421.8,4657.1 5425,4658.8 5427.6,4661.2 C5428.6,4662.1 5432.7,4668.8 5431.2,4670.5 L5427.5,4670.2 C5425,4673.9 5422.6,4677.8 5419.9,4681.4 C5419.3,4681.3 5416.8,4681.3 5416.2,4681.3 C5413.9,4681.5 5411.6,4682.2 5409.3,4682.4 C5407.3,4682.5 5405.2,4682.4 5403.2,4682.6 C5402.7,4682.7 5401.8,4682.6 5401.3,4682.8 C5401.3,4683.3 5400.5,4684.3 5400.3,4684.8 C5399.7,4686 5398.7,4686.9 5398.2,4688.1 C5397,4690.4 5396,4693 5395,4695.4 C5394.2,4697.3 5393.4,4699.3 5392.3,4701 C5393,4701.5 5393.9,4704.9 5394.1,4705.7 C5394.4,4706.6 5395.1,4707.4 5395.6,4708.2 C5396.6,4709.9 5397,4712.2 5397.3,4714.2 C5397.3,4714.3 5397.4,4714.5 5397.5,4714.6 C5394.8,4715.2 5390,4711.7 5387.4,4711.2 C5387,4711.2 5383.4,4715.9 5383.3,4716.1 C5384.2,4717.1 5384.7,4718.4 5385.6,4719.4 L5384.9,4725.4 L5384.9,4725.4 Z" id="svg--id--Tamaulipas--TM_1_"></path>
            </g>
        </g>
    </g>
</svg>