<?xml version="1.0" encoding="UTF-8" standalone="no"?>
<svg width="341px" height="402px" viewBox="0 0 341 402" version="1.1" xmlns="http://www.w3.org/2000/svg" xmlns:xlink="http://www.w3.org/1999/xlink" xmlns:sketch="http://www.bohemiancoding.com/sketch/ns">
    <!-- Generator: Sketch 3.4.4 (17249) - http://www.bohemiancoding.com/sketch -->
    <title>svg--id--Baja-California--BN_2_</title>
    <desc>Created with Sketch.</desc>
    <defs></defs>
    <g id="Page-1" stroke="none" stroke-width="1" fill="none" fill-rule="evenodd" sketch:type="MSPage">
        <g id="mexico-no-stroke" sketch:type="MSLayerGroup" transform="translate(-4065.000000, -3921.000000)" fill="#F2F2F2">
            <g id="Layer_2" sketch:type="MSShapeGroup">
                <path d="M4240,4213.4 C4240.7,4214 4241.6,4214.2 4242.3,4214.7 C4242.9,4215.2 4243.7,4216.6 4244.4,4216.8 C4247.1,4217.7 4246.8,4217.5 4248.8,4219.6 C4249.5,4220.3 4251.1,4227.5 4253.3,4225.6 L4253.9,4225.7 C4254.9,4226.7 4256,4226.6 4256.6,4227.2 C4256.8,4227.4 4259.6,4232.6 4259.7,4232.9 C4260,4233.8 4259.1,4234.5 4259.3,4235.1 C4260.2,4236.1 4260.9,4236.9 4261.6,4238.1 C4261.9,4238 4262.2,4237.9 4262.5,4237.9 C4264.2,4238.8 4263.7,4241.1 4264.2,4242.6 C4264.6,4242.8 4264.9,4243.1 4265.3,4243.2 C4266.5,4243.2 4266.5,4242 4268.2,4242.2 C4269.6,4242.3 4270.3,4243.7 4272.4,4244.1 C4273,4244.9 4273.4,4245.8 4273.2,4246.7 C4273.4,4246.8 4273.7,4246.8 4274,4246.8 L4274.2,4246.4 L4274.7,4246.3 C4276.6,4246.6 4275.1,4251.8 4277.4,4252.3 C4277.8,4252.2 4278.4,4251.9 4278.8,4252.1 C4278.9,4252.1 4280.6,4255.1 4280.7,4255.5 C4280.9,4256.3 4280.5,4257.1 4281.1,4258 C4282.1,4258.1 4284,4259.5 4284.8,4260.3 C4285.9,4260.5 4285.9,4261 4286.6,4261.5 L4286.6,4262 C4286.3,4262.3 4286.1,4262.7 4285.8,4262.9 C4285.8,4263.3 4286.1,4263.8 4286.4,4264 C4286.9,4264.1 4287.2,4263.8 4287.7,4263.8 C4287.9,4264 4288.1,4264.2 4288.3,4264.4 L4288.8,4264.4 C4289.7,4263.4 4290.4,4263.8 4291.5,4264.1 C4292,4264.2 4294.1,4264.8 4294.3,4264.9 C4295.7,4266 4294.8,4270 4295.8,4271.5 C4296.6,4272.8 4298.1,4271.4 4300.9,4275.6 C4301.3,4276.2 4301.9,4277 4302.1,4277.7 C4303,4280.9 4297.5,4292.6 4295.5,4295.6 C4295.7,4295.7 4294.6,4297.2 4294.4,4297.5 C4293.3,4299 4291.4,4301.1 4294.1,4302.5 C4294.6,4302.5 4295.2,4302.6 4295.7,4302.4 C4298.7,4304.4 4298.2,4310.5 4297.4,4313.5 C4297.1,4314.5 4296.3,4315.5 4296.3,4316.5 C4296.3,4317.6 4297,4317.9 4297.1,4318.6 C4297.2,4319.1 4296.8,4319.6 4296.8,4320.1 C4296.1,4320.8 4294.9,4320.7 4294.5,4322.8 C4294.5,4322.8 4369.2,4322.9 4405,4322.9 L4405,4322.9 C4405.2,4322.6 4405.5,4322.3 4405.5,4322 C4405.5,4321.7 4405.4,4321.4 4405.2,4321.2 L4404.8,4321 C4404.3,4321.1 4403.7,4320.9 4403.2,4321.2 C4402.7,4321.2 4401.7,4320.4 4401.3,4320.1 C4400.1,4317.5 4401.7,4316.9 4401.3,4315.4 L4400.9,4315.2 C4399.8,4313.6 4399.5,4308.6 4400.4,4306.8 C4400.7,4303.8 4394.6,4301.4 4393.8,4298.8 C4393.1,4296.4 4394.5,4293.9 4394,4291.5 C4393.8,4290.7 4393.5,4289.8 4393.7,4289 C4394,4287.6 4395.3,4287.6 4394.6,4285.4 L4394.2,4285.2 L4393.8,4285.3 L4393.3,4286 C4393.1,4286.2 4392.7,4286.1 4392.4,4286 L4392.2,4285.6 C4392.3,4285.3 4392.3,4284.9 4392.2,4284.6 C4390.4,4282.9 4386.6,4285.1 4384.3,4285.2 C4381.2,4285.3 4380.1,4283.6 4377.7,4282.7 C4377.2,4281.7 4376.4,4281.7 4375.4,4281.4 C4373.8,4278.7 4375.2,4279.3 4374.9,4277.8 C4374.8,4277.4 4374.5,4276.9 4374.4,4276.6 C4373.8,4274.8 4373.9,4273 4373.9,4271.1 C4373.9,4270.7 4373.8,4270.3 4373.7,4270 C4373.4,4269.1 4371.9,4268.1 4371.8,4267.2 C4371.6,4266 4372.2,4264.6 4371.8,4263.4 C4371.4,4262.2 4370.3,4261 4370.1,4259.8 C4370.3,4259 4370.7,4256.3 4370.2,4255.6 L4369.5,4255 C4370.1,4253 4367.2,4250.9 4365.7,4251.5 C4365.3,4251.9 4365,4252.4 4364.6,4252.7 C4361.9,4253.3 4362.6,4252 4360.8,4254.6 C4359.9,4254.5 4358.4,4254.5 4357.6,4254.3 C4357.5,4254.1 4356.9,4249.8 4357,4249.5 C4357.2,4248.9 4358,4248.2 4357.8,4247.5 C4357.4,4247 4357,4246.7 4356.8,4246.1 C4356.9,4245.6 4357.1,4245.1 4357.2,4244.7 C4356.5,4243.4 4356.3,4244 4355.6,4243.3 L4355.4,4242.9 C4355.5,4242.7 4355.8,4242.4 4356.1,4242.4 L4356.2,4242.1 L4356,4241.8 C4355.1,4241.6 4354.4,4242.2 4353.5,4242.2 L4353.2,4241.9 C4353,4241.4 4353.1,4240.8 4353.1,4240.3 C4352.9,4240.1 4352.5,4239.9 4352.3,4239.9 L4351.9,4240 C4351.8,4240.3 4351.6,4240.5 4351.4,4240.7 C4350.7,4241 4350,4240.5 4349.3,4240.8 C4346.7,4242.8 4349.1,4243.9 4349.2,4245.6 L4349,4246 C4348.4,4246.4 4346.3,4246.1 4345.4,4246.3 C4344.5,4246.2 4341.9,4241.6 4341.7,4240.6 C4341.9,4240.3 4342.5,4240.3 4342.8,4240.1 L4342.8,4239.6 C4342.1,4238.3 4341.1,4237.5 4341.7,4235.8 C4341.5,4235.2 4341.3,4234.5 4341.5,4233.8 L4341.8,4233.5 C4342.1,4233.5 4342.4,4233.4 4342.7,4233.3 C4343.5,4232.3 4341.1,4226.4 4339.9,4225.6 C4339.3,4225.2 4338.4,4225.3 4337.9,4224.6 C4337.6,4224.1 4337.5,4223.4 4337.3,4222.9 C4336.7,4222.4 4335.7,4222.5 4335.1,4222.1 C4334.4,4221.6 4334.2,4220.7 4333.7,4220 C4333.5,4219.7 4333.1,4219.3 4333,4218.9 C4332.9,4217.8 4334.5,4216.8 4333.5,4214.8 C4332.4,4212.6 4330.1,4211 4328.6,4209 C4328,4208.3 4328,4207.3 4327.5,4206.7 C4326.9,4206 4325.9,4206 4325.3,4205.3 C4324.3,4204.1 4323.3,4202.5 4322.1,4201.4 C4321.5,4200.9 4320.4,4200.9 4320,4200.5 C4319.2,4199.7 4319.2,4198.3 4318.2,4197.7 C4316.5,4196.6 4314.7,4195.9 4312.8,4194.7 C4312.2,4194.3 4312,4193.6 4311.5,4193.1 C4311,4192.6 4309.3,4191.8 4309.3,4191 C4308.6,4190.1 4305.4,4188 4304.4,4187.4 C4303.7,4187 4302.8,4187 4302.2,4186.5 C4301.7,4186.1 4301.6,4185.5 4301.5,4184.9 C4300.2,4183.1 4296.9,4179.4 4295.3,4178 C4294.7,4177.5 4293.2,4176.9 4292.8,4176.3 C4292,4175.1 4291.8,4173.8 4290.6,4172.7 C4289.3,4171.5 4287.3,4172.2 4286.8,4171.6 C4286.7,4171.2 4286.4,4170.9 4286.2,4170.5 C4285.7,4170.5 4285.3,4170.7 4284.9,4171 C4284.7,4171.8 4284,4172.8 4283,4172.7 C4281.5,4171.9 4281.3,4171.2 4280.1,4170.2 C4276.9,4169.4 4277.6,4169.8 4275.9,4166.8 C4276.4,4165.2 4275.9,4159.6 4274.2,4158.9 C4273.3,4158.5 4272.6,4159.1 4271.7,4159.1 C4270,4158 4269.8,4155.8 4269,4154.2 C4267.9,4153.3 4266.1,4153.8 4264.3,4152 C4262.5,4149.5 4262.1,4145.7 4260.7,4142.9 C4260,4141.5 4258.6,4141.3 4257.9,4140.3 C4257.4,4139.6 4257.5,4138 4257,4137.2 C4256.7,4136.6 4255.6,4135.6 4255.5,4135.3 C4256,4133.6 4257.2,4131.6 4257.1,4129.8 C4257.1,4129 4256.2,4128.4 4256.2,4127.8 C4256.8,4126.2 4257.5,4123.1 4257.5,4121.4 C4257.5,4120.7 4257,4120.2 4257,4119.6 C4257,4118.7 4257.7,4117.7 4257.8,4116.8 C4257.9,4116.1 4257.4,4115.5 4257.5,4114.8 C4257.7,4113.4 4258.3,4112.2 4258.2,4110.7 C4258.1,4109.2 4256.6,4108.5 4256.8,4106.9 C4256.7,4107.1 4256.5,4106.3 4256.5,4106.3 C4256.4,4105.6 4256.7,4104.7 4256.4,4104.2 C4255.8,4102.8 4254.3,4101.9 4253.8,4100.3 C4253.3,4098.8 4252.7,4097.4 4252.6,4095.8 C4252.5,4094.7 4252.8,4093.7 4252.9,4092.6 C4253,4090.9 4252.7,4089.3 4252.8,4087.6 C4253,4085.2 4253.3,4083.5 4253.1,4081 C4253,4079.9 4252,4079 4252,4077.9 C4251.9,4076.4 4252.4,4073.4 4251.3,4072.4 C4249.3,4070.4 4242.8,4069.4 4242.1,4067.1 C4241.9,4066.4 4242.3,4065.7 4242.4,4065.1 C4242.5,4064.5 4242.8,4063.5 4243.3,4063.1 C4243.6,4060.9 4239.4,4060.3 4238.4,4054.5 C4238.1,4052.7 4239,4050.9 4238.8,4049.1 C4238.5,4045.1 4239.1,4041.4 4239.5,4037.4 C4239.7,4035.5 4239.4,4033.7 4239.5,4031.9 C4239.6,4030.6 4240.5,4029.8 4240.5,4028.7 C4240.6,4027.8 4240.3,4027 4240.3,4026.1 C4240.3,4024.4 4241.1,4019 4242,4017.6 C4243,4015.7 4244.3,4014.9 4245.8,4013.6 C4246.1,4013.3 4246.2,4012.7 4246.3,4012.3 C4245.7,4011 4245.5,4009.4 4244.6,4008.3 C4242.3,4005.5 4243.7,4000.5 4242.9,3999.3 C4242.1,3998.2 4240.5,3999.2 4239.4,3998.8 C4238.9,3998.6 4238.7,3997.9 4238.3,3997.5 C4237.5,3996.6 4236.4,3996.4 4235.7,3995.3 C4235.8,3994.5 4235.9,3994.1 4235.7,3993.4 C4234.3,3992.2 4232.3,3989.7 4230.2,3989.8 C4229.4,3989.8 4229,3990 4228.1,3989.9 C4227.5,3989.5 4226.4,3985.4 4226.8,3984.8 C4227.5,3984.1 4230.2,3983.4 4230.5,3983 L4230.6,3982.6 L4230.5,3982.3 C4229.6,3982 4229.6,3981.5 4229.9,3980.8 C4230.5,3980.8 4231.3,3980.5 4231.8,3980.3 L4232.7,3979.1 C4232.4,3976.6 4232,3974.8 4230.8,3972.5 C4230.6,3972.1 4230.2,3971.5 4230.2,3971 L4230.6,3970.9 L4231.1,3971.1 L4231.6,3970.9 C4231.5,3968.4 4232.5,3964.6 4231,3962.6 C4231.1,3961.8 4231.8,3960.8 4232,3959.9 L4232.2,3959.7 C4234.1,3958.5 4234.5,3957.4 4235.7,3955.4 C4235.8,3955.3 4235.9,3955.1 4235.9,3955 C4236.7,3952 4238.8,3948.5 4240.2,3945.7 C4241,3944.2 4242.1,3943.5 4242.5,3941.8 L4242.4,3941.4 L4243,3940.9 C4244,3940.9 4244.2,3941.5 4244.6,3940.6 L4244.9,3940 C4244.9,3939.6 4246.1,3937.1 4246.2,3936.5 C4246.7,3934.6 4245.3,3933 4246,3931 C4246.6,3929.3 4248.6,3928.7 4249.5,3927.4 C4250.6,3926 4250.9,3924.1 4251.7,3922.5 L4252,3921.8 C4231.8,3923.7 4211.4,3924.7 4191.2,3926.6 C4186.6,3927 4161,3929.5 4152.9,3929.8 C4144.5,3930.1 4125.8,3932.1 4125.8,3932.1 C4113.7,3933.2 4101.6,3934.2 4089.5,3935.3 C4081.8,3936 4073.9,3937 4066.2,3937.4 L4066.1,3937.7 C4065.9,3939.5 4064.8,3939.2 4065.3,3942 C4065.8,3944.5 4066.8,3944.5 4067.9,3946.5 C4068.3,3947.3 4068.4,3948.3 4068.8,3949 C4070.4,3951.9 4071.9,3956 4074.2,3958.4 C4076.8,3961 4080.4,3959.4 4082.3,3963.6 C4083.2,3965.6 4084.1,3968.6 4084.5,3970.8 C4085.3,3975.5 4083.5,3980.7 4088.3,3983.9 C4089.4,3984.6 4090.2,3984.6 4091.2,3983.6 L4091.7,3983.6 C4091.9,3983.7 4092.7,3984.7 4092.8,3984.9 L4092.8,3984.7 C4092.9,3985.2 4093.4,3985.5 4093.5,3986 C4094.7,3991.2 4095.6,3989.2 4099.1,3991.6 C4100,3992.2 4099.9,3993 4101.1,3993.5 C4102.9,3994.3 4103.8,3993.6 4105.4,3995.5 C4107.1,3997.5 4105.3,4004.6 4102.3,4005.3 C4099.5,4005.9 4098.9,4002.7 4096.8,4003.2 L4096.6,4003.7 C4096.7,4005 4097.9,4004.7 4098.6,4005.3 C4099,4006.5 4100.2,4006.4 4101.2,4006.9 C4101.6,4007.9 4103.1,4010.5 4103.2,4011.3 C4103.3,4012.5 4101.7,4014.9 4102.1,4015.9 C4102.3,4016.3 4102.7,4016.5 4102.9,4016.9 L4103,4017.4 C4102.1,4018.3 4099.6,4016.9 4099.9,4020.1 C4100.5,4020.5 4100.7,4021.3 4101.4,4021.6 C4101.7,4021.7 4101.9,4021.6 4102.2,4021.9 C4102.5,4022.2 4102.5,4022.7 4102.8,4023.1 C4103.4,4023.5 4103.9,4023 4104.6,4023.8 C4105.2,4024.6 4105.9,4027.1 4106.3,4027.3 C4108.7,4028.8 4110.1,4026.8 4114,4031.1 C4114.3,4031.5 4116.4,4036.4 4117,4037.5 C4117.6,4038.6 4118.9,4039.7 4119.8,4040.7 C4120.9,4042 4121.6,4043.6 4122.7,4044.9 C4123.5,4045.9 4124.6,4046.6 4125.3,4047.7 C4127.6,4050.9 4129.8,4057 4128.7,4060.9 C4128,4063.5 4127.6,4066.1 4126.7,4068.7 C4127.2,4072 4129.9,4069.8 4131.6,4070.5 C4132.5,4070.9 4135.2,4074.3 4135.7,4075.2 C4135.9,4075.6 4135.8,4076.2 4136.2,4076.5 C4137.5,4077.1 4138.6,4078.5 4139.9,4078.8 C4140.3,4078.9 4140.6,4078.9 4141,4079.1 C4141.2,4079.3 4141.5,4079.3 4141.7,4079.4 C4143.4,4080.5 4144.8,4082.4 4146.7,4083.4 C4147.2,4083.7 4147.7,4083.8 4148,4084.4 C4149.5,4087.8 4149.7,4098.4 4149.9,4102.5 C4150,4105.7 4148.3,4111.4 4149.2,4114.2 C4149.6,4115.6 4150.5,4116.9 4151,4118.2 C4151.3,4119 4151.5,4120.7 4152.8,4120.5 C4153,4120.3 4153.2,4120 4153.3,4119.8 C4153.3,4118.3 4150.3,4115.1 4151.5,4114.1 C4152.8,4114.2 4153.9,4114.7 4155.2,4114.8 L4155.5,4114.5 L4155.6,4114.1 C4155.3,4113 4153.5,4111.5 4153.2,4110.5 L4153.3,4110.1 L4153.7,4110.1 C4155.2,4111 4156,4112.6 4157.5,4113.5 C4158,4115.2 4156.1,4117.5 4154.6,4118 L4154.5,4118.2 L4154.7,4118.5 C4157.4,4118.8 4159.8,4118.2 4162.4,4119.6 C4165.5,4121.3 4168.1,4130.7 4168.2,4134.1 C4168.3,4136 4167.7,4138 4167.5,4139.9 C4167.9,4140.8 4168.5,4141.7 4168.8,4142.7 C4170.3,4147.5 4166.1,4153.3 4167,4156.2 C4168.3,4156.7 4170.1,4156.1 4171.6,4156.8 C4172.7,4157.3 4175.6,4162.5 4175.8,4163.7 C4176,4164.7 4176.1,4165.9 4176,4167 C4175.9,4168.2 4175.2,4170.7 4175.6,4171.7 C4175.7,4172 4176,4172.2 4176.3,4172.4 C4177.4,4173.4 4178.6,4174.3 4179.8,4175.2 C4180.3,4175.6 4180.5,4176.3 4181,4176.8 C4188.5,4177.7 4185.9,4182.7 4188.7,4183.9 C4190.4,4184.7 4191.2,4183.5 4192.2,4183.8 C4193,4184 4197.3,4188.6 4199,4189.5 C4203.1,4191.7 4207.7,4192.6 4211.4,4195.8 C4212.9,4197.1 4214,4198.9 4214.9,4200.6 L4214.9,4201 C4216.5,4201.7 4220.1,4201.6 4221.9,4201.8 C4223.4,4202 4228,4203.4 4229.4,4204 C4234.6,4203 4237,4210.9 4240,4213.4 L4240,4213.4 Z" id="svg--id--Baja-California--BN_2_"></path>
            </g>
        </g>
    </g>
</svg>