<?xml version="1.0" encoding="UTF-8" standalone="no"?>
<svg width="358px" height="386px" viewBox="0 0 358 386" version="1.1" xmlns="http://www.w3.org/2000/svg" xmlns:xlink="http://www.w3.org/1999/xlink" xmlns:sketch="http://www.bohemiancoding.com/sketch/ns">
    <!-- Generator: Sketch 3.4.4 (17249) - http://www.bohemiancoding.com/sketch -->
    <title>svg--id--Durango--DU_1_</title>
    <desc>Created with Sketch.</desc>
    <defs></defs>
    <g id="Page-1" stroke="none" stroke-width="1" fill="none" fill-rule="evenodd" sketch:type="MSPage">
        <g id="mexico-no-stroke" sketch:type="MSLayerGroup" transform="translate(-4838.000000, -4419.000000)" fill="#F2F2F2">
            <g id="Layer_2" sketch:type="MSShapeGroup">
                <path d="M4948.2,4710.5 C4948.6,4711.9 4947.6,4713.1 4947.5,4714.4 C4947.9,4716 4950,4717.4 4949.8,4718.9 C4949.2,4723.6 4950.1,4721.8 4952.9,4723.7 C4953.5,4724.1 4954.5,4725.6 4955,4726.1 C4957.3,4728.8 4959.6,4731.4 4961.8,4734.1 L4970.5,4733.9 L4971.6,4740.7 L4971.6,4740.7 L4971.9,4742.1 L4971.6,4740.8 C4972.5,4740.9 4977.8,4743.3 4978.4,4743.6 C4979.5,4744.1 4986.8,4741.6 4990.6,4743.9 C4994.7,4746.3 4999,4749.2 5003.5,4750.7 C5004.5,4751 5009,4752.1 5009.3,4753.3 C5010.2,4756.2 5010.3,4759.3 5011.2,4762.5 C5011.3,4762.9 5011.9,4764.7 5011.8,4765 C5010.9,4765.7 5009.9,4766 5009.1,4766.8 L5002.5,4773.8 L5002.5,4785 L5003.6,4785.5 C5005.2,4782.5 5010.2,4780 5010.8,4779.2 C5012.5,4777.6 5015.4,4775.4 5017.6,4774.6 C5020.8,4773.5 5020.7,4773.7 5023.5,4775.3 C5024.3,4775.7 5027.9,4777.6 5028.7,4778.5 C5030.3,4782.5 5030.2,4787.7 5032.4,4791.4 C5035.6,4792.9 5038.7,4794.8 5041.8,4796.6 L5053.1,4793.2 L5055.7,4804.4 C5056.9,4801.9 5059.1,4798.3 5059.8,4795.7 L5060.4,4788.4 C5061,4780.9 5061.7,4773.4 5062.2,4765.8 C5062.8,4757.6 5063.4,4749.3 5064.2,4741.1 C5064.3,4739.9 5065.1,4738.5 5065.4,4737.4 L5066.4,4734.7 C5066.9,4733.3 5071.7,4731.3 5072.2,4729.7 C5072.9,4726.9 5072.3,4723.4 5072.4,4720.5 C5072.6,4712.8 5072.5,4705.8 5079.3,4700.9 C5080.7,4699.9 5082.6,4700 5083.8,4698.7 C5085,4697.5 5085,4696.9 5085.4,4695.2 C5086,4692.1 5087.1,4692.6 5089.7,4692.2 C5090.6,4692.1 5091.7,4691.5 5092.6,4691.2 C5093.4,4691 5094,4690.4 5094.3,4689.6 C5095.3,4686.9 5092.7,4684.9 5090.6,4683.7 L5090.5,4682.2 C5090.3,4680 5090.2,4677.8 5089.9,4675.7 C5089.7,4674.4 5089.2,4673.4 5089.3,4672.1 C5089.4,4671.3 5090.2,4670.4 5090.4,4669.5 C5091.1,4666.8 5091.1,4664.4 5091.3,4661.7 C5091.5,4659.5 5091.1,4657.4 5091.2,4655.2 C5097.7,4652.2 5104.1,4649 5110.6,4645.9 C5110.3,4643.3 5110.1,4640.6 5109.7,4638 C5118.8,4632.9 5127.6,4626.6 5136.4,4620.9 C5141.2,4621.5 5146.1,4621.8 5150.9,4622.2 C5159,4622.9 5167,4623.9 5175.1,4624.5 L5177.6,4622.4 C5183.2,4623 5189.1,4622.8 5194.7,4623 C5194.9,4612.4 5195.6,4601.6 5195.4,4591 L5182.9,4570 C5179.7,4576.4 5174.8,4582.6 5170.3,4588.2 C5170.9,4592.9 5171.5,4599.3 5171.5,4599.3 C5167.1,4595 5160.4,4591.4 5157.4,4590.4 C5154.5,4589.5 5145.7,4588.6 5143.9,4586.8 L5143.6,4586.5 L5143.2,4586.1 C5141.8,4584.8 5139.8,4583.9 5139.1,4582 C5138.8,4581.3 5138.7,4573.2 5138.9,4572.2 C5139.6,4569.1 5129.7,4564.5 5127.7,4562.8 C5125.7,4560.2 5127,4558.7 5123.5,4555.7 C5121.1,4553.7 5119.3,4553.5 5119.5,4550.4 L5119.5,4550.2 C5120.7,4549.6 5123,4549.2 5124,4548.2 C5124.5,4547.6 5125,4546 5125,4545.3 C5125.7,4539.9 5119.9,4539.2 5119.5,4536.6 C5119.3,4535 5119,4533.6 5119.3,4532 C5120.5,4525.2 5125.4,4524.6 5127.8,4520.3 L5130.2,4516 C5132.1,4512.7 5132.3,4512 5132.3,4508 C5132.3,4502.2 5131.3,4497.9 5131.2,4492.4 C5131.1,4488.9 5130.6,4485.3 5131.5,4481.8 C5132.3,4478.9 5135.5,4473.7 5135.6,4471 C5135.6,4469.8 5135.4,4468.5 5135.4,4467.3 C5135.4,4465.8 5133.7,4462.7 5133.2,4461.1 C5132.4,4458.6 5130.5,4457.6 5128.8,4455.9 L5110,4436.9 L5108.3,4435.2 L5108.2,4435 C5095.7,4429.4 5092.4,4429.4 5078.2,4427.4 C5073.7,4426.8 5069.8,4426.1 5065.2,4426.9 C5061.8,4427.5 5060.7,4431.4 5058.9,4433.7 L5038.4,4461.1 C5038,4461.6 5033.2,4461.3 5032.8,4461 C5032.1,4460.4 5031.2,4459.8 5030.5,4459.1 C5028.9,4457.5 5025,4452.4 5022.1,4452.6 C5021.4,4452.8 5020.6,4454.9 5018.2,4454.4 C5016.3,4453.2 5016.3,4450.6 5014.5,4449.3 C5012.4,4448.6 5011,4453.3 5009.2,4451.6 C5008.4,4450.8 5007.2,4449.5 5005.9,4449.5 C5004.8,4450 5004.5,4450.5 5003.7,4451.4 C5001.9,4453.4 4997.2,4450.8 4995.6,4449.5 C4994.3,4448.5 4992.4,4446.7 4991.7,4445.2 L4977.1,4452.2 L4957.1,4441.2 C4957.8,4436.9 4951.7,4433.4 4948.1,4433.5 C4945.9,4433.6 4945.7,4434.6 4944.1,4435.4 L4922.9,4419.8 C4922.8,4420 4918.4,4426.7 4917.9,4428.6 L4917.6,4428.5 C4917.5,4427.8 4915.8,4426 4915.2,4425.7 C4912,4425.5 4912.7,4432.7 4912.6,4434.3 C4912.5,4436 4912.1,4440.9 4911.1,4442.1 C4910.3,4443.1 4909.2,4444.1 4908.6,4445.2 C4908.3,4446.8 4908.8,4448 4908.9,4449.7 C4909.1,4453.6 4906.6,4456.3 4903.5,4458.1 C4898.9,4460.8 4895.3,4459.7 4890.4,4459.3 L4890.1,4463.2 C4891,4463.8 4895.2,4470.9 4895.5,4472 C4896.5,4474.9 4897.1,4477.6 4896.2,4480.6 C4896,4481.1 4895.4,4482.7 4895.1,4483.2 C4893.9,4484.7 4886.8,4489.8 4884.8,4489.4 C4884.4,4496 4884.1,4502.6 4883.8,4509.1 C4878.5,4513.9 4873.2,4518.6 4867.8,4523.3 C4863.5,4523.3 4843.7,4523.6 4841.4,4524.6 L4841.3,4524.8 C4842,4526.7 4841.3,4536.5 4841.1,4537.7 C4840,4544.4 4838.1,4546.8 4838.2,4554 C4838.3,4556.8 4838.7,4559.6 4839.2,4562.3 C4840,4566.8 4845.2,4578.7 4847.5,4582.5 C4848,4583.3 4848.7,4584 4849.3,4584.8 C4850.3,4586.2 4851.6,4590.7 4853.2,4591.3 C4856.1,4592.3 4856.6,4592.3 4856.4,4595.7 L4856.7,4596 C4859,4595.9 4861.3,4596.4 4863.3,4597.5 C4863.9,4597.8 4864.5,4601.1 4864.6,4601.8 C4864.9,4602.3 4865.8,4602.4 4866.3,4602.5 C4868.2,4603.9 4867.5,4606 4870,4607.5 C4879,4612.8 4878.3,4622 4881.6,4630.7 C4883.3,4635.2 4884.6,4636.2 4889.2,4637.3 C4893.4,4638.3 4895.1,4637.9 4897.7,4634.6 C4900.7,4630.8 4899.3,4630.7 4904.7,4628.8 C4906.7,4628.1 4907.5,4629 4909,4630.2 L4918.2,4637.6 C4919.8,4638.9 4921.1,4640.1 4922.8,4641.2 C4923.1,4641.4 4923.3,4641.5 4923.5,4641.7 C4925.3,4643.8 4927,4646.9 4927.5,4649.7 C4928.4,4655.7 4931.2,4654 4932.1,4657 L4932.4,4657 C4932.6,4657.6 4932.6,4658.3 4932.5,4658.9 C4933.3,4659.8 4932.7,4668.2 4932.7,4668.3 C4931.7,4678.6 4934.4,4682.9 4938.6,4691.3 C4940.1,4694.3 4942.6,4696.1 4943.6,4699.4 C4942.2,4702.5 4949.3,4705.6 4946.6,4708.9 C4946.6,4709.5 4947.8,4710 4948.2,4710.5 L4948.2,4710.5 Z" id="svg--id--Durango--DU_1_"></path>
            </g>
        </g>
    </g>
</svg>