<?xml version="1.0" encoding="UTF-8" standalone="no"?>
<svg width="32px" height="43px" viewBox="0 0 32 43" version="1.1" xmlns="http://www.w3.org/2000/svg" xmlns:xlink="http://www.w3.org/1999/xlink" xmlns:sketch="http://www.bohemiancoding.com/sketch/ns">
    <!-- Generator: Sketch 3.4.4 (17249) - http://www.bohemiancoding.com/sketch -->
    <title>svg--id--D.F.--DF_2_</title>
    <desc>Created with Sketch.</desc>
    <defs></defs>
    <g id="Page-1" stroke="none" stroke-width="1" fill="none" fill-rule="evenodd" sketch:type="MSPage">
        <g id="mexico-no-stroke" sketch:type="MSLayerGroup" transform="translate(-5440.000000, -5041.000000)" fill="#F2F2F2">
            <g id="Layer_2" sketch:type="MSShapeGroup">
                <path d="M5470,5080.2 C5470.4,5079.5 5471.2,5078.8 5471.5,5078 C5473.1,5074.1 5469.5,5072.6 5469.8,5070.4 C5470.6,5064.7 5471.3,5062.3 5466.9,5058.2 C5466.2,5057.6 5465.3,5056.9 5465,5056.1 C5464.8,5055.4 5464.5,5049.9 5464.7,5049.1 C5464.1,5048.4 5461.6,5048.4 5460.6,5047.3 C5460.1,5046.7 5459.5,5043 5459.2,5042.2 C5459.1,5042 5458.7,5041.8 5458.4,5041.8 C5455.4,5042.3 5459.2,5045.6 5453.3,5048.5 C5451.2,5049.6 5451,5050.3 5450.3,5052.6 C5449.1,5056.6 5439.6,5051 5440.6,5061.4 C5441.1,5066.7 5445.7,5071.1 5445.2,5075.7 L5445.4,5076.2 L5445.4,5076.2 C5445.7,5076.3 5445.8,5076.1 5446,5076.1 C5448.2,5075.9 5451.1,5076.6 5452.3,5078.7 C5453.7,5079.5 5455.2,5077.1 5459.3,5079.8 C5468.1,5085.4 5463.5,5082.8 5470.1,5080.8 C5470,5080.8 5470,5080.8 5469.9,5080.9 L5470,5080.2 L5470,5080.2 Z" id="svg--id--D.F.--DF_2_"></path>
            </g>
        </g>
    </g>
</svg>