<?xml version="1.0" encoding="UTF-8" standalone="no"?>
<svg width="185px" height="168px" viewBox="0 0 185 168" version="1.1" xmlns="http://www.w3.org/2000/svg" xmlns:xlink="http://www.w3.org/1999/xlink" xmlns:sketch="http://www.bohemiancoding.com/sketch/ns">
    <!-- Generator: Sketch 3.4.4 (17249) - http://www.bohemiancoding.com/sketch -->
    <title>svg--id--Guanajuato--GT_1_</title>
    <desc>Created with Sketch.</desc>
    <defs></defs>
    <g id="Page-1" stroke="none" stroke-width="1" fill="none" fill-rule="evenodd" sketch:type="MSPage">
        <g id="mexico-no-stroke" sketch:type="MSLayerGroup" transform="translate(-5226.000000, -4843.000000)" fill="#F2F2F2">
            <g id="Layer_2" sketch:type="MSShapeGroup">
                <path d="M5410.6,4895 C5404.3,4891.2 5406.3,4887.2 5405.5,4881.1 L5405.3,4881 C5403.8,4879.3 5402.6,4878.9 5400.7,4877.9 C5400.5,4877.8 5399.8,4877.8 5399.7,4877.8 C5393.6,4875.1 5387.4,4872.6 5381.3,4869.9 C5374.6,4867 5374.1,4866.3 5368.7,4862.2 C5368,4861.7 5367.3,4861.5 5366.4,4861.4 L5366.1,4861.8 C5365.1,4862.2 5364,4861.7 5363.1,4861.6 C5360.2,4861.2 5356.9,4859.8 5354.7,4862.4 C5354.6,4862.6 5354,4863.2 5354,4863.5 C5353.3,4870 5349.2,4866.7 5348.6,4869 C5347.4,4873.4 5345.3,4874.8 5340.8,4873.2 C5332.2,4870.3 5325.5,4863.6 5318.8,4857.7 C5317.5,4856.6 5316.7,4854.7 5315.3,4853.7 C5313,4852 5301.6,4851.8 5298.5,4851.7 C5294.2,4851.6 5291.6,4846.9 5288.6,4844.3 C5284.6,4840.8 5282.7,4848.7 5271.8,4843.9 L5271.6,4843.7 L5271.8,4843.9 L5267.6,4848.5 C5266,4850.2 5267.7,4852.9 5268.5,4854.5 C5270.6,4858.8 5271.5,4859.5 5268.9,4864.2 C5266.9,4867.7 5262.2,4869.1 5264,4873.9 L5267.5,4883.1 C5268.2,4885.1 5268.8,4886.8 5267.9,4888.9 C5265.8,4893.8 5256.2,4899.6 5251.7,4902 C5250.1,4902.8 5249.1,4903.2 5247.5,4903.9 C5247,4904.3 5247.4,4907.3 5246.9,4908 C5244.4,4911.2 5242,4914.5 5239.4,4917.6 C5236.5,4921.2 5233.6,4925.1 5231.3,4929.1 C5230.1,4931.2 5228.5,4933.5 5228,4935.9 C5228.8,4937.9 5233.8,4945.9 5235.2,4948 C5235.7,4948.8 5237.3,4950.9 5236.7,4952 C5236.2,4953.1 5235.3,4953.7 5234.5,4954.5 C5230.3,4959 5227.3,4961.8 5226.6,4968.2 L5226.5,4970.4 C5229,4969.7 5229.8,4971.4 5232.3,4970.5 C5232.1,4971.3 5231.9,4972.5 5232.5,4973.3 C5233.4,4976.6 5237.4,4976.5 5237.5,4972.9 L5237.8,4972.9 L5237.9,4973.1 C5237,4974.6 5237.1,4975.2 5237.9,4976.6 C5238.7,4978 5237.4,4980.2 5239.3,4982.5 L5239.3,4982.9 L5239.3,4983.8 C5239.5,4985.6 5240.4,4986.2 5241.3,4986.6 C5243.2,4987.5 5246,4986.2 5247.9,4985.4 C5248.8,4987.2 5250.5,4987.1 5251.8,4985.8 C5251.9,4985.8 5252.2,4985.8 5252.8,4986 L5253.7,4986.3 C5255.4,4986.8 5256.1,4986.5 5257.8,4986.3 L5258.2,4986.7 C5259.7,4988 5261.5,4986.5 5262.2,4985.2 C5263.5,4982.9 5266.3,4979.6 5266.2,4976.6 C5267.4,4976.9 5267.8,4976.5 5269.2,4975.7 C5271.8,4974.4 5274.3,4975.8 5276.8,4975 C5278.1,4978.8 5281.1,4986.1 5281,4986.5 C5280.2,4987.6 5280.1,4988.9 5279.9,4990.2 C5279.7,4992.2 5279.8,4994.2 5280.8,4996 C5281.2,4996.8 5282.4,4997.3 5283,4997.9 C5285.5,4999.9 5289.3,5000.7 5292.3,4999.1 C5295.2,4997.6 5297.5,4996.5 5299.9,4994.4 C5302,4994.5 5304.3,4995.5 5306.4,4995.8 C5309.1,4996.2 5311.8,4996.4 5314.4,4997.1 C5320.1,4998.5 5320.5,5000.6 5319.5,5006.3 L5319.6,5006.7 C5320.1,5007.3 5325.1,5008.1 5326.2,5008.1 C5326.8,5008.1 5329.2,5006.7 5329.9,5006.3 L5336.1,5003 L5336.6,5003 L5348.9,5009.5 C5349.3,5009.7 5350.3,5010.1 5350.8,5010.1 C5355.5,5007.8 5357.5,5004.2 5359.9,4999.9 C5360.8,4998.3 5362.1,4997.4 5362.7,4995.5 C5363.6,4992.3 5363.6,4985.8 5367.5,4984.3 C5366.5,4982.9 5361.4,4978.7 5360,4978 C5359.3,4977.6 5358.5,4977.5 5357.9,4977 L5359.2,4973.6 L5354.5,4970 C5354.4,4966.6 5352.8,4952.3 5351.1,4950 C5347.6,4945.4 5345.1,4946.4 5343,4943.9 L5342.8,4943 C5344.7,4937.7 5348.6,4933.1 5350.6,4927.8 C5351.6,4925.2 5351.5,4925.3 5353.2,4923.1 C5353.8,4922.3 5358,4921.1 5359,4921.3 C5360.1,4921.5 5360.4,4924.3 5365.2,4924.7 C5366.7,4924.8 5368.4,4921.1 5371.1,4922.8 C5373.5,4924.3 5374.8,4924.7 5377.6,4925.2 C5378.3,4925.3 5379.4,4925.6 5380.1,4925.4 C5383,4924.8 5382.5,4914.7 5383.1,4912.6 C5383.3,4912.1 5385.9,4910.7 5386.6,4909.8 C5388,4908 5387.9,4904.4 5388.2,4902.2 C5388.3,4901.4 5388.7,4901.4 5389.3,4900.9 C5391.1,4899.2 5392,4899.3 5394.4,4900.1 C5395.5,4900.5 5402.3,4902.1 5403.1,4901.9 C5403.6,4901.8 5403.8,4901.5 5404.1,4901.2 C5405.8,4899.9 5410.8,4897.4 5411,4895.4 L5410.6,4895 L5410.6,4895 Z" id="svg--id--Guanajuato--GT_1_"></path>
            </g>
        </g>
    </g>
</svg>