<?xml version="1.0" encoding="UTF-8" standalone="no"?>
<svg width="221px" height="167px" viewBox="0 0 221 167" version="1.1" xmlns="http://www.w3.org/2000/svg" xmlns:xlink="http://www.w3.org/1999/xlink" xmlns:sketch="http://www.bohemiancoding.com/sketch/ns">
    <!-- Generator: Sketch 3.4.4 (17249) - http://www.bohemiancoding.com/sketch -->
    <title>svg--id--Yucatan--YU_1_</title>
    <desc>Created with Sketch.</desc>
    <defs></defs>
    <g id="Page-1" stroke="none" stroke-width="1" fill="none" fill-rule="evenodd" sketch:type="MSPage">
        <g id="mexico-no-stroke" sketch:type="MSLayerGroup" transform="translate(-6133.000000, -4865.000000)" fill="#F2F2F2">
            <g id="Layer_2" sketch:type="MSShapeGroup">
                <path d="M6353.5,4875.1 L6353.5,4875.1 C6352.4,4875.1 6351.3,4875.1 6350.6,4874.8 C6347.7,4873.9 6345.2,4871.5 6341.9,4872.2 L6341.7,4872.5 L6341.9,4872.9 C6343.9,4874.2 6345.8,4873.9 6347.9,4874.5 C6346.3,4876.1 6341.8,4873.8 6340.1,4873.7 C6339.3,4873.6 6338.7,4874.3 6337.9,4874.3 C6337.1,4874.3 6336.5,4873.8 6335.7,4873.6 C6332.9,4872.9 6330.4,4872.6 6328.4,4870.2 C6329.1,4870.7 6338.4,4873 6339.2,4872.9 C6339.9,4872.9 6340.8,4872.5 6340.9,4871.8 C6340.5,4871 6338.6,4871.4 6337.9,4871.3 C6334,4870.4 6330,4869.6 6326.2,4868.5 C6324.8,4868.1 6323.3,4867.2 6321.6,4866.7 C6321,4866.5 6319.6,4865.9 6318.9,4866 C6317.3,4865.6 6315,4866.6 6313.4,4866.3 C6313.2,4866.1 6312.9,4865.9 6312.6,4865.9 C6312.3,4866 6308.4,4865.2 6307.2,4865.4 C6304.3,4865.8 6301.7,4867.5 6299.1,4868.7 L6299.1,4869 L6298,4869.6 L6297.6,4870 C6296.8,4870.2 6296.6,4870 6295.9,4869.9 C6295.2,4869.8 6294.6,4870.1 6293.9,4870 C6292.3,4869.7 6290.6,4868.4 6289,4868.5 C6286.3,4868.6 6283.3,4868.5 6280.7,4869.4 C6279.8,4869.7 6279.1,4870.5 6278.2,4870.8 C6276.6,4871.3 6274.7,4870.9 6273.1,4871.2 C6269.1,4872.1 6266.3,4878.2 6262.4,4879.4 C6260,4880.2 6257.1,4879.9 6254.9,4880.6 C6253.9,4880.9 6253.3,4881.8 6252.4,4882.1 C6251.2,4882.5 6250.1,4882.3 6248.9,4882.4 C6247.9,4882.5 6246.4,4883.2 6245.5,4883.5 C6242.8,4884.4 6239.6,4884.8 6236.8,4885.2 C6235.6,4885.4 6234.5,4885.9 6233.3,4886.2 C6231.4,4886.6 6229.9,4886 6228.2,4886.1 C6226.1,4886.3 6224.2,4887.6 6222.1,4887.9 C6220.4,4888.2 6218.6,4888.1 6216.9,4888.5 C6214.3,4889.1 6211.6,4888.3 6209.1,4888.8 C6208.2,4889 6207.4,4889.4 6206.6,4889.6 C6204.2,4890.2 6201.2,4890.1 6198.6,4890.5 C6197.4,4890.7 6196.3,4891.3 6195.2,4891.5 C6193.4,4891.9 6191.5,4891.4 6189.7,4891.5 C6185.5,4891.8 6180.8,4892.7 6176.8,4894 C6174.9,4894.6 6170.4,4896.3 6168.9,4897.3 C6168.2,4897.7 6167.7,4898.5 6167.1,4899 C6165.8,4900 6161.5,4901.8 6159.9,4902.1 C6159,4902.3 6155.6,4903.1 6154.9,4903.6 C6154.1,4904.2 6153.8,4905.2 6152.9,4905.7 C6152.3,4906.1 6151.4,4906 6150.7,4906.3 C6150.1,4906.6 6145.5,4909.3 6144.5,4909.8 C6142.7,4910.9 6140.7,4913.1 6138.7,4913.8 C6135.6,4916.1 6134.6,4920.1 6133.6,4923.8 C6133.9,4922.6 6134.3,4921.9 6134.7,4920.7 L6134.8,4921.9 L6134.7,4927.3 C6135.2,4926.1 6135.6,4925.1 6135.7,4924.7 C6135.9,4923.5 6135.9,4922.2 6136.2,4921 C6136.3,4920.6 6136.6,4919.6 6137,4919.4 L6137.3,4919.4 C6137.7,4920.1 6136,4926.1 6134.7,4929.9 L6134.3,4954.4 C6138.7,4954.2 6143.1,4954.1 6147.6,4954.1 C6146.9,4956 6146.5,4958 6146,4959.9 C6150.1,4961.2 6154.3,4962.8 6158.5,4963.9 C6159.5,4962.5 6160.5,4961 6161.3,4959.5 C6177.1,4983.3 6193,5007.1 6208.4,5031.1 L6208.4,5031.1 C6237.1,5011.5 6266.1,4992.4 6295,4973.1 C6303.5,4967.4 6312.1,4961.7 6320.6,4956.1 C6325.3,4953 6332.7,4948.8 6337.1,4945.2 C6337.2,4945.1 6338.4,4942.6 6338.6,4942.3 C6343.6,4933 6348.6,4923.6 6353.6,4914.4 C6353.6,4914.4 6353.5,4878.1 6353.5,4875.1 L6353.5,4875.1 Z" id="svg--id--Yucatan--YU_1_"></path>
            </g>
        </g>
    </g>
</svg>